<?xml version="1.0" encoding="iso-8859-1"?>
<!-- Generator: Adobe Illustrator 19.0.0, SVG Export Plug-In . SVG Version: 6.00 Build 0)  -->
<svg version="1.1" id="Capa_1" xmlns="http://www.w3.org/2000/svg" xmlns:xlink="http://www.w3.org/1999/xlink" x="0px" y="0px"
	 viewBox="0 0 512 512" style="enable-background:new 0 0 512 512;" xml:space="preserve">
<g>
	<g>
		<g>
			<path d="M108.459,429.141c-0.407-0.367-0.836-0.709-1.283-1.025c-0.474-0.324-0.99-0.582-1.533-0.767
				c-0.51-0.259-1.059-0.433-1.625-0.517c-1.094-0.25-2.231-0.25-3.325,0c-0.534,0.096-1.05,0.27-1.533,0.517
				c-0.546,0.184-1.065,0.442-1.542,0.767c-0.445,0.316-0.871,0.658-1.276,1.025c-0.754,0.829-1.36,1.782-1.792,2.817
				c-0.48,1.012-0.714,2.123-0.683,3.242c-0.018,1.109,0.183,2.211,0.592,3.242c0.5,1.018,1.133,1.966,1.883,2.817
				c0.829,0.754,1.782,1.36,2.817,1.792c3.175,1.362,6.859,0.653,9.302-1.79c2.443-2.443,3.152-6.127,1.79-9.302
				C109.818,430.924,109.213,429.971,108.459,429.141z"/>
			<path d="M142.592,429.141c-0.407-0.367-0.836-0.709-1.283-1.025c-0.474-0.324-0.99-0.582-1.533-0.767
				c-0.51-0.259-1.059-0.433-1.625-0.517c-1.094-0.25-2.231-0.25-3.325,0c-0.534,0.096-1.05,0.27-1.533,0.517
				c-0.546,0.184-1.065,0.442-1.542,0.767c-0.445,0.316-0.871,0.658-1.276,1.025c-0.754,0.829-1.36,1.782-1.792,2.817
				c-0.48,1.012-0.714,2.123-0.683,3.242c-0.018,1.109,0.183,2.211,0.592,3.242c0.5,1.018,1.133,1.966,1.883,2.817
				c0.829,0.754,1.782,1.36,2.817,1.792c3.175,1.362,6.859,0.653,9.302-1.79s3.152-6.127,1.79-9.302
				C143.952,430.924,143.346,429.971,142.592,429.141z"/>
			<path d="M221.867,426.667h-51.2c-4.713,0-8.533,3.82-8.533,8.533s3.821,8.533,8.533,8.533h51.2c4.713,0,8.533-3.82,8.533-8.533
				S226.579,426.667,221.867,426.667z"/>
			<path d="M107.175,359.85c-0.474-0.324-0.99-0.582-1.533-0.767c-0.51-0.259-1.059-0.433-1.625-0.517
				c-1.066-0.25-2.176-0.25-3.242,0c-0.563,0.083-1.109,0.258-1.617,0.517c-0.546,0.184-1.065,0.442-1.542,0.767
				c-0.445,0.316-0.871,0.658-1.275,1.025c-0.772,0.816-1.38,1.772-1.792,2.817c-0.911,2.065-0.911,4.418,0,6.483
				c0.434,1.034,1.04,1.986,1.792,2.817c2.441,2.444,6.125,3.154,9.3,1.792c2.143-0.777,3.831-2.465,4.608-4.608
				c0.438-1.026,0.67-2.127,0.684-3.242c-0.033-2.259-0.917-4.422-2.475-6.059C108.051,360.508,107.623,360.166,107.175,359.85z"/>
			<path d="M139.775,359.083c-3.177-1.342-6.849-0.634-9.3,1.792c-0.772,0.816-1.38,1.772-1.792,2.817
				c-0.48,1.011-0.714,2.122-0.683,3.241c-0.018,1.109,0.183,2.211,0.592,3.242c0.5,1.018,1.133,1.966,1.883,2.817
				c0.816,0.772,1.772,1.38,2.817,1.792c2.065,0.911,4.418,0.911,6.483,0c2.143-0.777,3.831-2.465,4.608-4.608
				c0.438-1.026,0.67-2.127,0.684-3.243c-0.033-2.259-0.917-4.422-2.475-6.059C141.761,360.122,140.809,359.517,139.775,359.083z"/>
			<path d="M221.867,358.4h-51.2c-4.713,0-8.533,3.82-8.533,8.533s3.821,8.533,8.533,8.533h51.2c4.713,0,8.533-3.82,8.533-8.533
				S226.579,358.4,221.867,358.4z"/>
			<path d="M108.459,292.608c-3.421-3.158-8.695-3.158-12.117,0c-0.772,0.816-1.38,1.772-1.792,2.817
				c-0.911,2.065-0.911,4.418,0,6.483c0.434,1.034,1.04,1.986,1.792,2.817c3.365,3.3,8.752,3.3,12.117,0
				c0.752-0.831,1.358-1.783,1.792-2.817c0.911-2.065,0.911-4.418,0-6.483C109.839,294.38,109.231,293.424,108.459,292.608z"/>
			<path d="M142.592,292.608c-2.451-2.425-6.123-3.133-9.3-1.792c-1.055,0.391-2.015,1.002-2.817,1.792
				c-1.561,1.634-2.446,3.799-2.475,6.059c-0.018,1.109,0.183,2.21,0.592,3.242c0.5,1.018,1.133,1.966,1.883,2.817
				c0.829,0.754,1.782,1.36,2.817,1.792c2.065,0.911,4.418,0.911,6.483,0c2.143-0.777,3.831-2.465,4.608-4.608
				c0.911-2.065,0.911-4.418,0-6.483C143.972,294.381,143.364,293.424,142.592,292.608z"/>
			<path d="M221.867,290.133h-51.2c-4.713,0-8.533,3.82-8.533,8.533s3.821,8.533,8.533,8.533h51.2c4.713,0,8.533-3.82,8.533-8.533
				S226.579,290.133,221.867,290.133z"/>
			<path d="M108.459,224.341c-2.044-2.013-4.955-2.878-7.767-2.308c-0.534,0.096-1.05,0.271-1.533,0.517
				c-0.546,0.184-1.065,0.442-1.542,0.767c-0.445,0.316-0.871,0.658-1.276,1.025c-0.772,0.816-1.38,1.772-1.792,2.817
				c-0.48,1.012-0.714,2.123-0.683,3.242c-0.023,2.27,0.869,4.454,2.475,6.059c0.816,0.772,1.772,1.38,2.817,1.792
				c2.065,0.911,4.418,0.911,6.483,0c1.034-0.434,1.986-1.04,2.817-1.792c2.444-2.441,3.154-6.125,1.792-9.3
				C109.839,226.114,109.23,225.157,108.459,224.341z"/>
			<path d="M142.592,224.341c-2.044-2.013-4.955-2.878-7.767-2.308c-0.534,0.096-1.05,0.271-1.533,0.517
				c-0.546,0.184-1.065,0.442-1.542,0.767c-0.445,0.316-0.871,0.658-1.276,1.025c-0.772,0.816-1.38,1.772-1.792,2.817
				c-0.48,1.012-0.714,2.123-0.683,3.242c-0.023,2.27,0.869,4.454,2.475,6.059c0.829,0.754,1.782,1.36,2.817,1.792
				c2.065,0.911,4.418,0.911,6.483,0c1.034-0.434,1.986-1.04,2.817-1.792c2.444-2.441,3.154-6.125,1.792-9.3
				C143.972,226.114,143.364,225.157,142.592,224.341z"/>
			<path d="M221.867,221.867h-51.2c-4.713,0-8.533,3.82-8.533,8.533s3.821,8.533,8.533,8.533h51.2c4.713,0,8.533-3.82,8.533-8.533
				S226.579,221.867,221.867,221.867z"/>
			<path d="M108.459,156.075c-2.05-2.002-4.956-2.866-7.767-2.308c-0.534,0.096-1.05,0.271-1.533,0.517
				c-0.546,0.184-1.065,0.442-1.542,0.767c-0.445,0.316-0.871,0.658-1.276,1.025c-0.772,0.816-1.38,1.772-1.792,2.817
				c-0.48,1.012-0.714,2.123-0.683,3.242c-0.043,3.475,2.025,6.629,5.23,7.975c3.204,1.345,6.905,0.613,9.355-1.851
				s3.162-6.169,1.799-9.365C109.839,157.847,109.23,156.89,108.459,156.075z"/>
			<path d="M142.592,156.075c-0.407-0.367-0.836-0.709-1.283-1.025c-0.474-0.324-0.99-0.582-1.533-0.767
				c-0.484-0.245-1-0.419-1.533-0.517c-1.664-0.348-3.394-0.167-4.95,0.517c-2.143,0.777-3.831,2.465-4.608,4.608
				c-1.363,3.175-0.653,6.859,1.791,9.301c0.829,0.754,1.782,1.36,2.817,1.792c2.065,0.911,4.418,0.911,6.483,0
				c1.034-0.434,1.986-1.04,2.817-1.792c2.444-2.441,3.154-6.125,1.792-9.3C143.972,157.847,143.364,156.891,142.592,156.075z"/>
			<path d="M221.867,153.6h-51.2c-4.713,0-8.533,3.82-8.533,8.533s3.821,8.533,8.533,8.533h51.2c4.713,0,8.533-3.82,8.533-8.533
				S226.579,153.6,221.867,153.6z"/>
			<path d="M108.459,87.808c-2.017-2-4.898-2.866-7.683-2.308c-0.563,0.083-1.109,0.258-1.617,0.517
				c-0.546,0.184-1.065,0.442-1.542,0.767c-0.445,0.316-0.871,0.658-1.276,1.025c-0.772,0.816-1.38,1.772-1.792,2.817
				c-0.911,2.065-0.911,4.418,0,6.483c0.434,1.034,1.04,1.986,1.792,2.817c3.365,3.3,8.752,3.3,12.117,0
				c0.752-0.831,1.358-1.783,1.792-2.817c0.911-2.065,0.911-4.418,0-6.483C109.819,89.59,109.213,88.637,108.459,87.808z"/>
			<path d="M142.592,87.808c-3.421-3.158-8.695-3.158-12.117,0c-0.772,0.816-1.38,1.772-1.792,2.817
				c-0.911,2.065-0.911,4.418,0,6.483c0.434,1.034,1.04,1.986,1.792,2.817c0.816,0.772,1.772,1.38,2.817,1.792
				c3.174,1.362,6.859,0.652,9.3-1.791c0.752-0.831,1.358-1.783,1.792-2.817c0.911-2.065,0.911-4.418,0-6.483
				C143.952,89.591,143.346,88.638,142.592,87.808z"/>
			<path d="M221.867,85.333h-51.2c-4.713,0-8.533,3.821-8.533,8.533c0,4.713,3.821,8.533,8.533,8.533h51.2
				c4.713,0,8.533-3.821,8.533-8.533C230.4,89.154,226.579,85.333,221.867,85.333z"/>
			<path d="M409.6,443.733c1.115-0.014,2.216-0.246,3.242-0.683c1.034-0.434,1.986-1.04,2.817-1.792
				c2.444-2.441,3.154-6.125,1.792-9.3c-0.432-1.035-1.038-1.987-1.792-2.817c-3.421-3.158-8.695-3.158-12.117,0
				c-0.754,0.829-1.36,1.782-1.792,2.817c-0.48,1.012-0.714,2.123-0.683,3.242c-0.022,2.27,0.87,4.453,2.475,6.058
				C405.147,442.863,407.33,443.755,409.6,443.733z"/>
			<path d="M375.467,443.733c1.115-0.014,2.216-0.246,3.242-0.683c1.034-0.434,1.986-1.04,2.817-1.792
				c2.444-2.441,3.154-6.125,1.792-9.3c-0.432-1.035-1.038-1.987-1.792-2.817c-3.421-3.158-8.695-3.158-12.117,0
				c-0.754,0.829-1.36,1.782-1.792,2.817c-0.48,1.012-0.714,2.123-0.683,3.242c-0.022,2.27,0.87,4.453,2.475,6.058
				C371.013,442.863,373.197,443.755,375.467,443.733z"/>
			<path d="M290.133,443.733h51.2c4.713,0,8.533-3.82,8.533-8.533s-3.821-8.533-8.533-8.533h-51.2c-4.713,0-8.533,3.82-8.533,8.533
				S285.421,443.733,290.133,443.733z"/>
			<path d="M403.541,372.992c0.816,0.772,1.772,1.38,2.817,1.792c2.065,0.911,4.418,0.911,6.483,0
				c2.143-0.777,3.831-2.465,4.608-4.608c0.911-2.065,0.911-4.418,0-6.483c-0.432-1.035-1.038-1.987-1.792-2.817
				c-3.421-3.158-8.695-3.158-12.117,0c-0.772,0.816-1.38,1.772-1.792,2.817c-0.48,1.011-0.713,2.122-0.682,3.241
				c-0.018,1.109,0.183,2.211,0.592,3.242C402.158,371.193,402.792,372.141,403.541,372.992z"/>
			<path d="M369.408,372.992c0.816,0.772,1.772,1.38,2.817,1.792c2.065,0.911,4.418,0.911,6.483,0
				c2.143-0.777,3.831-2.465,4.608-4.608c0.911-2.065,0.911-4.418,0-6.483c-0.412-1.045-1.02-2.001-1.792-2.817
				c-0.407-0.367-0.836-0.709-1.283-1.025c-0.474-0.324-0.99-0.582-1.533-0.767c-0.51-0.259-1.059-0.433-1.625-0.517
				c-1.094-0.25-2.231-0.25-3.325,0c-0.534,0.096-1.05,0.271-1.533,0.517c-0.546,0.184-1.065,0.442-1.542,0.767
				c-0.445,0.316-0.87,0.657-1.274,1.024c-0.772,0.816-1.38,1.772-1.792,2.817c-0.911,2.065-0.911,4.418,0,6.483
				C368.05,371.208,368.656,372.161,369.408,372.992z"/>
			<path d="M290.133,375.467h51.2c4.713,0,8.533-3.82,8.533-8.533s-3.821-8.533-8.533-8.533h-51.2c-4.713,0-8.533,3.82-8.533,8.533
				S285.421,375.467,290.133,375.467z"/>
			<path d="M403.541,99.925c3.365,3.3,8.752,3.3,12.117,0c0.752-0.831,1.358-1.783,1.792-2.817c0.911-2.065,0.911-4.418,0-6.483
				c-0.432-1.035-1.038-1.987-1.792-2.817c-0.419-0.388-0.877-0.731-1.367-1.025c-0.434-0.339-0.925-0.599-1.45-0.767
				c-0.51-0.259-1.059-0.433-1.625-0.517c-1.633-0.343-3.334-0.162-4.858,0.517c-2.143,0.777-3.831,2.465-4.608,4.608
				c-0.48,1.012-0.715,2.122-0.683,3.242c-0.018,1.109,0.183,2.21,0.592,3.242C402.128,98.144,402.764,99.095,403.541,99.925z"/>
			<path d="M369.408,99.925c2.441,2.444,6.125,3.154,9.3,1.792c2.143-0.777,3.831-2.465,4.608-4.608
				c0.911-2.065,0.911-4.418,0-6.483c-0.432-1.035-1.038-1.987-1.792-2.817c-0.407-0.367-0.836-0.709-1.283-1.025
				c-0.474-0.324-0.99-0.582-1.533-0.767c-0.484-0.245-1-0.419-1.533-0.517c-2.811-0.571-5.723,0.294-7.766,2.307
				c-0.754,0.829-1.36,1.782-1.792,2.817c-0.48,1.012-0.714,2.123-0.683,3.242c-0.018,1.109,0.183,2.21,0.592,3.242
				C367.995,98.144,368.631,99.095,369.408,99.925z"/>
			<path d="M290.133,102.4h51.2c4.713,0,8.533-3.821,8.533-8.533c0-4.713-3.821-8.533-8.533-8.533h-51.2
				c-4.713,0-8.533,3.821-8.533,8.533C281.6,98.579,285.421,102.4,290.133,102.4z"/>
			<path d="M290.133,213.333c2.264,0.003,4.435-0.897,6.033-2.5l8.533-8.533c2.188-2.149,3.055-5.307,2.27-8.271
				c-0.785-2.965-3.1-5.28-6.065-6.065c-2.965-0.785-6.122,0.082-8.271,2.27l-8.533,8.533c-2.44,2.44-3.169,6.11-1.849,9.298
				C283.572,211.254,286.682,213.333,290.133,213.333z"/>
			<path d="M343.571,187.964c-2.965-0.785-6.122,0.082-8.271,2.27l-51.2,51.2c-2.188,2.149-3.055,5.307-2.27,8.271
				c0.785,2.965,3.1,5.28,6.065,6.065c2.965,0.785,6.122-0.082,8.271-2.27l51.2-51.2c2.188-2.149,3.055-5.307,2.27-8.271
				C348.852,191.064,346.536,188.749,343.571,187.964z"/>
			<path d="M435.2,0H76.8c-9.421,0.012-17.054,7.646-17.067,17.067V460.8c0.012,9.421,7.646,17.054,17.067,17.067h8.533v17.067
				c0.012,9.421,7.646,17.054,17.067,17.067h307.2c9.421-0.012,17.054-7.646,17.067-17.067v-17.067h8.533
				c9.421-0.012,17.054-7.646,17.067-17.067V17.067C452.254,7.646,444.621,0.012,435.2,0z M76.8,68.267h170.667v51.2H76.8V68.267z
				 M76.8,136.533h170.667v51.2H76.8V136.533z M76.8,204.8h170.667V256H76.8V204.8z M76.8,273.067h170.667v51.2H76.8V273.067z
				 M76.8,341.333h170.667v51.2H76.8V341.333z M93.867,460.8H76.8v-51.2h170.667v51.2H93.867z M102.4,494.933v-17.067h307.209
				l0.009,17.067H102.4z M435.2,460.8H264.533v-51.2H435.2V460.8z M435.2,392.533H264.533v-51.2H435.2V392.533z M435.2,324.267
				H264.533V307.2H409.6c2.264,0.001,4.435-0.897,6.035-2.498c1.601-1.601,2.499-3.772,2.498-6.035V162.133
				c0.001-2.264-0.897-4.435-2.498-6.035c-1.601-1.601-3.772-2.499-6.035-2.498H264.533v-17.067H435.2V324.267z M264.533,290.133
				V170.667h136.533v119.467H264.533z M435.2,119.467H264.533v-51.2H435.2V119.467z M435.2,51.2H76.8V17.067h358.4V51.2z"/>
		</g>
	</g>
</g>
<g>
</g>
<g>
</g>
<g>
</g>
<g>
</g>
<g>
</g>
<g>
</g>
<g>
</g>
<g>
</g>
<g>
</g>
<g>
</g>
<g>
</g>
<g>
</g>
<g>
</g>
<g>
</g>
<g>
</g>
</svg>
