<?xml version="1.0" encoding="iso-8859-1"?>
<!-- Generator: Adobe Illustrator 19.0.0, SVG Export Plug-In . SVG Version: 6.00 Build 0)  -->
<svg version="1.1" id="Capa_1" xmlns="http://www.w3.org/2000/svg" xmlns:xlink="http://www.w3.org/1999/xlink" x="0px" y="0px"
	 viewBox="0 0 512 512" style="enable-background:new 0 0 512 512;" xml:space="preserve">
<g>
	<g>
		<g>
			<path d="M511.671,343.377c0.346-1.256,0.394-2.575,0.137-3.852l-24.692-113.608c-3.302-15.22-10.372-29.367-20.56-41.146
				l-24.748-90.412C426.572,38.722,376.06,0.108,318.375,0h-124.75C135.943,0.108,85.432,38.718,70.192,94.35l-24.748,90.425
				c-10.188,11.781-17.258,25.929-20.561,41.15l-24.692,113.6c-0.256,1.277-0.209,2.596,0.137,3.852
				c-0.181,2.145-0.329,4.3-0.329,6.49V435.2c0.046,42.396,34.404,76.754,76.8,76.8h358.4c42.396-0.046,76.754-34.404,76.8-76.8
				v-85.333C512,347.677,511.852,345.522,511.671,343.377z M86.658,98.842c13.205-48.214,56.977-81.678,106.967-81.775h124.75
				c49.992,0.098,93.766,33.565,106.967,81.784l18.261,66.721c-12.223-7.391-25.97-11.9-40.197-13.183L387.2,92.992
				c-8.147-29.695-35.124-50.292-65.917-50.325H190.717C159.927,42.7,132.95,63.292,124.8,92.983l-16.205,59.398
				c-14.227,1.283-27.974,5.793-40.197,13.188L86.658,98.842z M193.625,92.925h124.75c19.381-0.008,38.418,5.121,55.171,14.866
				l12.196,44.703c-3.19,0.329-6.36,0.821-9.5,1.473l-104.583,21.792c-10.328,2.15-20.988,2.15-31.317,0l-104.584-21.791
				c-3.139-0.654-6.309-1.146-9.499-1.475l12.193-44.7C155.206,98.046,174.243,92.916,193.625,92.925z M146.817,84.824
				c9.202-15.502,25.872-25.03,43.9-25.091h130.567c18.027,0.061,34.696,9.588,43.898,25.09
				c-14.898-5.911-30.779-8.952-46.806-8.965h-124.75C177.597,75.87,161.715,78.912,146.817,84.824z M41.567,229.55
				c9.074-41.111,49.464-67.33,90.709-58.883l104.583,21.792c12.623,2.65,25.66,2.65,38.283,0l104.583-21.792
				c41.24-8.436,81.621,17.774,90.708,58.875l13.216,60.802c-13.668-11.184-30.788-17.29-48.449-17.277H76.8
				c-17.66-0.012-34.78,6.093-48.448,17.277L41.567,229.55z M494.933,435.2c-0.04,32.973-26.76,59.693-59.733,59.733H76.8
				c-32.973-0.04-59.693-26.76-59.733-59.733v-85.333c0.04-32.973,26.76-59.693,59.733-59.733h358.4
				c32.973,0.04,59.693,26.76,59.733,59.733V435.2z"/>
			<path d="M48.7,372.966l25.6-25.6c3.281-3.341,3.256-8.701-0.054-12.012s-8.671-3.335-12.012-0.054l-25.6,25.6
				c-2.188,2.149-3.055,5.307-2.27,8.271c0.785,2.965,3.1,5.28,6.065,6.065C43.393,376.021,46.551,375.154,48.7,372.966z"/>
			<path d="M87.808,321.792c1.627,1.573,3.796,2.459,6.059,2.475c1.115-0.014,2.216-0.246,3.242-0.683
				c2.143-0.777,3.831-2.465,4.608-4.608c0.438-1.026,0.67-2.127,0.684-3.242c-0.016-2.262-0.902-4.432-2.475-6.059
				c-0.419-0.387-0.877-0.731-1.367-1.025c-0.434-0.339-0.925-0.599-1.45-0.767c-0.484-0.245-1-0.419-1.533-0.517
				c-1.664-0.348-3.394-0.167-4.95,0.517c-1.045,0.412-2.001,1.02-2.817,1.792c-1.561,1.634-2.446,3.799-2.475,6.058
				c-0.018,1.109,0.183,2.211,0.592,3.242C86.425,319.993,87.058,320.941,87.808,321.792z"/>
			<path d="M139.034,309.7l-93.867,93.867c-2.188,2.149-3.055,5.307-2.27,8.271c0.785,2.965,3.1,5.28,6.065,6.065
				c2.965,0.785,6.122-0.082,8.271-2.27l93.867-93.867c3.281-3.341,3.256-8.701-0.054-12.012S142.374,306.42,139.034,309.7z"/>
		</g>
	</g>
</g>
<g>
</g>
<g>
</g>
<g>
</g>
<g>
</g>
<g>
</g>
<g>
</g>
<g>
</g>
<g>
</g>
<g>
</g>
<g>
</g>
<g>
</g>
<g>
</g>
<g>
</g>
<g>
</g>
<g>
</g>
</svg>
