<?xml version="1.0" encoding="iso-8859-1"?>
<!-- Generator: Adobe Illustrator 19.0.0, SVG Export Plug-In . SVG Version: 6.00 Build 0)  -->
<svg version="1.1" id="Capa_1" xmlns="http://www.w3.org/2000/svg" xmlns:xlink="http://www.w3.org/1999/xlink" x="0px" y="0px"
	 viewBox="0 0 512 512" style="enable-background:new 0 0 512 512;" xml:space="preserve">
<g>
	<g>
		<path d="M486.4,59.733v-51.2c0.001-2.264-0.897-4.435-2.498-6.035S480.13-0.001,477.867,0H290.133
			c-2.264-0.001-4.435,0.897-6.035,2.498s-2.499,3.772-2.498,6.035v51.2c-14.138,0-25.6,11.461-25.6,25.6s11.462,25.6,25.6,25.6
			V230.4c-0.001,2.264,0.897,4.435,2.498,6.035s3.772,2.499,6.035,2.498H332.8v128c-0.015,14.132-11.468,25.585-25.6,25.6H204.8
			c-14.132-0.015-25.585-11.468-25.6-25.6v-153.6h51.2c2.264,0.001,4.435-0.897,6.035-2.498s2.499-3.772,2.498-6.035v-34.133
			c0.001-2.264-0.897-4.435-2.498-6.035s-3.772-2.499-6.035-2.498h-8.533V76.8c0.001-2.264-0.897-4.435-2.498-6.035
			s-3.772-2.499-6.035-2.498V8.533c0.001-2.264-0.897-4.435-2.498-6.035S207.064-0.001,204.8,0H34.133
			c-2.264-0.001-4.435,0.897-6.035,2.498C26.497,4.099,25.599,6.27,25.6,8.533v59.733c-2.264-0.001-4.435,0.897-6.035,2.498
			s-2.499,3.772-2.498,6.035v85.333H8.533c-2.264-0.001-4.435,0.897-6.035,2.498s-2.499,3.772-2.498,6.035V204.8
			c-0.001,2.264,0.897,4.435,2.498,6.035s3.772,2.499,6.035,2.498h51.2v153.6C59.823,447.014,124.719,511.911,204.8,512h102.4
			c80.081-0.089,144.977-64.986,145.067-145.067v-128h25.6c2.264,0.001,4.435-0.897,6.035-2.498s2.499-3.772,2.498-6.035V110.933
			c14.138,0,25.6-11.462,25.6-25.6S500.539,59.733,486.4,59.733z M298.667,17.067h170.667v42.667H298.667V17.067z M298.667,221.867
			V110.933h128v110.933H298.667z M204.8,443.733h102.4c42.396-0.046,76.754-34.404,76.8-76.8v-128h17.067v128
			c-0.059,51.817-42.05,93.808-93.867,93.867H204.8c-51.817-0.059-93.808-42.05-93.867-93.867v-153.6H128v153.6
			C128.046,409.33,162.404,443.687,204.8,443.733z M204.8,409.6h102.4c23.553-0.028,42.639-19.114,42.667-42.667v-128h17.067v128
			c-0.04,32.973-26.76,59.693-59.733,59.733H204.8c-32.973-0.04-59.693-26.76-59.733-59.733v-153.6h17.067v153.6
			C162.161,390.486,181.247,409.572,204.8,409.6z M42.667,17.067h153.6v51.2h-153.6V17.067z M34.133,85.333H204.8v76.8H34.133
			V85.333z M17.067,196.267V179.2h204.8v17.067H17.067z M435.2,366.933c-0.077,70.66-57.34,127.923-128,128H204.8
			c-70.66-0.077-127.923-57.34-128-128v-153.6h17.067v153.6c0.071,61.237,49.696,110.863,110.933,110.933h102.4
			c61.237-0.071,110.863-49.696,110.933-110.933v-128H435.2V366.933z M469.333,221.867h-25.6V110.933h25.6V221.867z M486.4,93.867
			H281.6c-4.713,0-8.533-3.821-8.533-8.533s3.82-8.533,8.533-8.533h204.8c4.713,0,8.533,3.82,8.533,8.533
			S491.113,93.867,486.4,93.867z"/>
	</g>
</g>
<g>
</g>
<g>
</g>
<g>
</g>
<g>
</g>
<g>
</g>
<g>
</g>
<g>
</g>
<g>
</g>
<g>
</g>
<g>
</g>
<g>
</g>
<g>
</g>
<g>
</g>
<g>
</g>
<g>
</g>
</svg>
