<?xml version="1.0" encoding="iso-8859-1"?>
<!-- Generator: Adobe Illustrator 19.0.0, SVG Export Plug-In . SVG Version: 6.00 Build 0)  -->
<svg version="1.1" id="Capa_1" xmlns="http://www.w3.org/2000/svg" xmlns:xlink="http://www.w3.org/1999/xlink" x="0px" y="0px"
	 viewBox="0 0 512 512" style="enable-background:new 0 0 512 512;" xml:space="preserve">
<g>
	<g>
		<path d="M494.933,110.933V17.067C494.921,7.646,487.287,0.012,477.867,0h-34.133c-9.421,0.012-17.054,7.646-17.067,17.067V25.6
			h-102.4c-9.421,0.012-17.054,7.646-17.067,17.067v68.267h-17.067V42.667c-0.012-9.421-7.646-17.054-17.067-17.067H85.333v-8.533
			C85.321,7.646,77.687,0.012,68.267,0H34.133c-9.421,0.012-17.054,7.646-17.067,17.067v93.867C7.646,110.946,0.012,118.579,0,128
			v119.467c0.012,9.421,7.646,17.054,17.067,17.067h17.067V281.6c0.012,9.421,7.646,17.054,17.067,17.067h59.733v196.267
			c0.012,9.421,7.646,17.054,17.067,17.067h102.4c9.421-0.012,17.054-7.646,17.067-17.067V298.667H281.6v204.8
			c0,4.713,3.82,8.533,8.533,8.533s8.533-3.82,8.533-8.533v-204.8H332.8v204.8c0,4.713,3.821,8.533,8.533,8.533
			s8.533-3.82,8.533-8.533v-204.8H384v204.8c0,4.713,3.821,8.533,8.533,8.533c4.713,0,8.533-3.82,8.533-8.533v-204.8H460.8
			c9.421-0.012,17.054-7.646,17.067-17.067v-17.067h17.067c9.421-0.012,17.054-7.646,17.067-17.067V128
			C511.988,118.579,504.354,110.946,494.933,110.933z M443.733,17.067h34.133v93.867h-34.133V17.067z M324.267,42.667h102.4v68.267
			h-25.6V68.267c0-4.713-3.821-8.533-8.533-8.533c-4.713,0-8.533,3.82-8.533,8.533v42.667h-17.067V68.267
			c0-4.713-3.82-8.533-8.533-8.533s-8.533,3.82-8.533,8.533v42.667h-25.6V42.667z M315.733,128h25.6v51.2H170.667V128H315.733z
			 M85.333,42.667h187.733v68.267H256V68.267c0-4.713-3.82-8.533-8.533-8.533s-8.533,3.82-8.533,8.533v42.667h-17.067V68.267
			c0-4.713-3.821-8.533-8.533-8.533c-4.713,0-8.533,3.82-8.533,8.533v42.667h-17.067V68.267c0-4.713-3.82-8.533-8.533-8.533
			s-8.533,3.82-8.533,8.533v42.667H153.6V68.267c0-4.713-3.821-8.533-8.533-8.533s-8.533,3.82-8.533,8.533v42.667h-17.067V68.267
			c0-4.713-3.82-8.533-8.533-8.533s-8.533,3.82-8.533,8.533v42.667H85.333V42.667z M34.133,17.067h34.133v93.867H34.133V17.067z
			 M17.067,128H25.6h128v59.733c-0.001,2.264,0.897,4.435,2.498,6.035s3.772,2.499,6.035,2.498h187.733
			c2.264,0.001,4.435-0.897,6.035-2.498s2.499-3.772,2.498-6.035V128h136.533l0.012,85.333H17.067V128z M128,494.933V298.667h102.4
			l0.017,196.267H128z M51.2,281.6v-17.067h409.609l0.009,17.067H51.2z M494.95,247.467h-25.617H17.067V230.4H494.95V247.467z"/>
	</g>
</g>
<g>
</g>
<g>
</g>
<g>
</g>
<g>
</g>
<g>
</g>
<g>
</g>
<g>
</g>
<g>
</g>
<g>
</g>
<g>
</g>
<g>
</g>
<g>
</g>
<g>
</g>
<g>
</g>
<g>
</g>
</svg>
