<?xml version="1.0" encoding="iso-8859-1"?>
<!-- Generator: Adobe Illustrator 19.0.0, SVG Export Plug-In . SVG Version: 6.00 Build 0)  -->
<svg version="1.1" id="Capa_1" xmlns="http://www.w3.org/2000/svg" xmlns:xlink="http://www.w3.org/1999/xlink" x="0px" y="0px"
	 viewBox="0 0 512 512" style="enable-background:new 0 0 512 512;" xml:space="preserve">
<g>
	<g>
		<g>
			<path d="M409.6,153.6c2.264,0.001,4.435-0.897,6.035-2.498c1.601-1.601,2.499-3.772,2.498-6.035V65.025
				c0.003-2.255-0.891-4.42-2.483-6.017L359.417,2.517c-1.602-1.609-3.779-2.515-6.05-2.517h-236.8
				c-12.531,0.014-22.686,10.169-22.7,22.7v54.1c-0.001,2.264,0.897,4.435,2.498,6.035s3.772,2.499,6.035,2.498h17.067v93.95H102.4
				c-2.264-0.001-4.435,0.897-6.035,2.498c-1.601,1.601-2.499,3.772-2.498,6.035v182.017c0.014,12.531,10.169,22.686,22.7,22.7h54.1
				c2.264,0.001,4.435-0.897,6.035-2.498c1.601-1.601,2.499-3.772,2.498-6.035v-8.533h25.6v119.467
				c0.012,9.421,7.646,17.054,17.067,17.067h102.4c9.421-0.012,17.054-7.646,17.067-17.067v-25.6c0-2.263-0.899-4.434-2.5-6.033
				l-14.566-14.567V435.2h8.533c2.264,0.001,4.435-0.897,6.035-2.498s2.499-3.772,2.498-6.035v-25.6
				c-0.001-3.916-2.667-7.328-6.467-8.275l-27.667-6.925v-10.4h42.667V384c-0.001,2.264,0.897,4.435,2.498,6.035
				c1.601,1.601,3.772,2.499,6.035,2.498h37.033c12.531-0.014,22.686-10.169,22.7-22.7v-182.1c0.001-2.264-0.897-4.435-2.498-6.035
				c-1.601-1.601-3.772-2.499-6.035-2.498h-17.067v-25.6H409.6z M324.267,407.733v10.4h-8.533c-2.264-0.001-4.435,0.897-6.035,2.498
				s-2.499,3.772-2.498,6.035v25.6c0,2.263,0.899,4.434,2.5,6.033l14.566,14.567l0.017,22.067H221.867V358.4h68.267v34.133
				c0.001,3.916,2.667,7.328,6.467,8.275L324.267,407.733z M349.867,358.4H307.2c-0.012-9.421-7.646-17.054-17.067-17.067h-68.267
				c-9.421,0.012-17.054,7.646-17.067,17.067h-25.6v-25.6c0.003-4.711,3.822-8.53,8.533-8.533h153.6
				c4.712,0.003,8.53,3.822,8.533,8.533V358.4z M391.083,196.267h9.983v173.567c-0.002,3.11-2.523,5.631-5.633,5.633h-28.5V332.8
				c-0.015-14.132-11.468-25.585-25.6-25.6h-153.6c-14.132,0.015-25.585,11.468-25.6,25.6v42.667h-45.567
				c-3.11-0.002-5.631-2.523-5.633-5.633V196.35h9.983c8.62-0.012,15.605-6.997,15.617-15.617v-96.85
				c-0.012-8.62-6.997-15.605-15.617-15.617h-9.983V22.7c0.002-3.11,2.523-5.631,5.633-5.633h233.25l51.25,51.483v67.983h-9.983
				c-8.62,0.012-15.605,6.997-15.617,15.617v28.5C375.478,189.27,382.463,196.255,391.083,196.267z"/>
			<path d="M332.8,51.2H179.2c-14.132,0.015-25.585,11.468-25.6,25.6v187.733c0.015,14.132,11.468,25.585,25.6,25.6h153.6
				c14.132-0.015,25.585-11.468,25.6-25.6V76.8C358.385,62.668,346.932,51.215,332.8,51.2z M341.333,264.533
				c-0.003,4.712-3.822,8.53-8.533,8.533H179.2c-4.712-0.003-8.53-3.822-8.533-8.533V76.8c0.003-4.711,3.822-8.53,8.533-8.533h153.6
				c4.712,0.003,8.53,3.822,8.533,8.533V264.533z"/>
			<path d="M196.267,102.4h68.267c4.713,0,8.533-3.821,8.533-8.533c0-4.713-3.82-8.533-8.533-8.533h-68.267
				c-4.713,0-8.533,3.821-8.533,8.533C187.733,98.579,191.554,102.4,196.267,102.4z"/>
			<path d="M315.733,85.333h-17.067c-4.713,0-8.533,3.821-8.533,8.533c0,4.713,3.821,8.533,8.533,8.533h17.067
				c4.713,0,8.533-3.821,8.533-8.533C324.267,89.154,320.446,85.333,315.733,85.333z"/>
			<path d="M315.733,119.467h-76.8c-4.713,0-8.533,3.82-8.533,8.533s3.82,8.533,8.533,8.533h76.8c4.713,0,8.533-3.82,8.533-8.533
				S320.446,119.467,315.733,119.467z"/>
			<path d="M204.8,119.467h-8.533c-4.713,0-8.533,3.82-8.533,8.533s3.82,8.533,8.533,8.533h8.533c4.713,0,8.533-3.82,8.533-8.533
				S209.513,119.467,204.8,119.467z"/>
		</g>
	</g>
</g>
<g>
</g>
<g>
</g>
<g>
</g>
<g>
</g>
<g>
</g>
<g>
</g>
<g>
</g>
<g>
</g>
<g>
</g>
<g>
</g>
<g>
</g>
<g>
</g>
<g>
</g>
<g>
</g>
<g>
</g>
</svg>
