<?xml version="1.0" encoding="iso-8859-1"?>
<!-- Generator: Adobe Illustrator 19.0.0, SVG Export Plug-In . SVG Version: 6.00 Build 0)  -->
<svg version="1.1" id="Capa_1" xmlns="http://www.w3.org/2000/svg" xmlns:xlink="http://www.w3.org/1999/xlink" x="0px" y="0px"
	 viewBox="0 0 512 512" style="enable-background:new 0 0 512 512;" xml:space="preserve">
<g>
	<g>
		<g>
			<path d="M494.933,93.867h-68.267c-0.015-14.132-11.468-25.585-25.6-25.6H247.248c5.644-7.344,8.719-16.338,8.752-25.6
				C256,19.103,236.897,0,213.333,0c-23.564,0-42.667,19.103-42.667,42.667c0.032,9.262,3.107,18.256,8.752,25.6H25.6
				C11.468,68.282,0.015,79.735,0,93.867v256c0.015,14.132,11.468,25.585,25.6,25.6h136.533V460.8h-25.6
				c-14.132,0.015-25.585,11.468-25.6,25.6v17.067c-0.001,2.263,0.898,4.434,2.499,6.035c1.6,1.6,3.771,2.499,6.035,2.499H307.2
				c2.263,0.001,4.434-0.898,6.035-2.499c1.6-1.6,2.499-3.771,2.499-6.035V486.4c-0.015-14.132-11.468-25.585-25.6-25.6h-25.6
				v-85.333H358.4v119.467c0.011,9.421,7.645,17.056,17.067,17.067h119.467c9.421-0.011,17.056-7.645,17.067-17.067v-384
				C511.989,101.512,504.355,93.877,494.933,93.867z M426.667,172.348c2.724-1.054,5.613-1.623,8.533-1.681
				c14.138,0,25.6,11.461,25.6,25.6s-11.462,25.6-25.6,25.6c-2.921-0.058-5.809-0.627-8.533-1.681V172.348z M256,85.333h145.067
				c4.711,0.005,8.529,3.822,8.533,8.533v8.533H256V85.333z M213.333,17.067c14.138,0,25.6,11.462,25.6,25.6s-11.461,25.6-25.6,25.6
				c-14.132-0.015-25.585-11.468-25.6-25.6C187.733,28.528,199.195,17.067,213.333,17.067z M187.733,85.333h51.2V102.4h-51.2V85.333
				z M17.067,93.867c0.005-4.711,3.822-8.529,8.533-8.533h145.067V102.4h-153.6V93.867z M17.067,119.467H409.6v204.8H17.067V119.467
				z M290.133,477.867c4.711,0.005,8.529,3.822,8.533,8.533v8.533H128V486.4c0.005-4.711,3.822-8.529,8.533-8.533H290.133z
				 M179.2,460.8v-85.333h68.267V460.8H179.2z M25.6,358.4c-4.711-0.005-8.529-3.822-8.533-8.533v-8.533H409.6v8.533
				c-0.005,4.711-3.822,8.529-8.533,8.533H25.6z M494.933,494.933H375.467v-17.067h119.467V494.933z M494.933,460.8H375.467v-17.067
				h119.467V460.8z M494.933,426.667H375.467V409.6h119.467V426.667z M494.933,392.533H375.467v-17.067h25.6
				c14.132-0.015,25.585-11.468,25.6-25.6V281.6h25.6c4.713,0,8.533-3.821,8.533-8.533c0-4.713-3.821-8.533-8.533-8.533h-25.6
				v-26.57c2.804,0.614,5.663,0.939,8.533,0.97c23.564,0,42.667-19.103,42.667-42.667S458.764,153.6,435.2,153.6
				c-2.87,0.031-5.729,0.356-8.533,0.97v-43.636h68.267V392.533z"/>
			<path d="M48.7,202.3l25.6-25.6c3.281-3.341,3.256-8.701-0.054-12.012s-8.671-3.335-12.012-0.054l-25.6,25.6
				c-2.188,2.149-3.055,5.307-2.27,8.271c0.785,2.965,3.1,5.28,6.065,6.065C43.393,205.354,46.551,204.488,48.7,202.3z"/>
			<path d="M87.808,151.125c2.441,2.444,6.125,3.154,9.3,1.792c1.034-0.433,1.987-1.039,2.817-1.792
				c0.751-0.832,1.357-1.784,1.792-2.817c0.478-1.012,0.713-2.123,0.683-3.242c-0.014-1.115-0.246-2.216-0.683-3.242
				c-0.413-1.044-1.021-2-1.792-2.817c-0.407-0.366-0.834-0.708-1.279-1.025c-0.494-0.318-1.008-0.604-1.538-0.858
				c-0.502-0.176-1.016-0.318-1.537-0.425c-1.657-0.332-3.374-0.184-4.95,0.425c-1.017,0.499-1.963,1.132-2.813,1.883
				c-0.755,0.829-1.363,1.782-1.796,2.817c-0.906,2.066-0.906,4.417,0,6.483C86.447,149.342,87.054,150.295,87.808,151.125z"/>
			<path d="M139.034,139.034L45.167,232.9c-2.188,2.149-3.055,5.307-2.27,8.271s3.1,5.28,6.065,6.065
				c2.965,0.785,6.122-0.082,8.271-2.27L151.1,151.1c3.281-3.341,3.256-8.701-0.054-12.012S142.374,135.753,139.034,139.034z"/>
			<path d="M213.333,51.2c4.713,0,8.533-3.82,8.533-8.533c-0.033-2.259-0.917-4.422-2.475-6.059
				c-2.457-2.418-6.125-3.124-9.305-1.791c-1.033,0.433-1.984,1.039-2.813,1.792c-1.559,1.635-2.443,3.799-2.475,6.058
				C204.8,47.38,208.621,51.2,213.333,51.2z"/>
		</g>
	</g>
</g>
<g>
</g>
<g>
</g>
<g>
</g>
<g>
</g>
<g>
</g>
<g>
</g>
<g>
</g>
<g>
</g>
<g>
</g>
<g>
</g>
<g>
</g>
<g>
</g>
<g>
</g>
<g>
</g>
<g>
</g>
</svg>
