<?xml version="1.0" encoding="iso-8859-1"?>
<!-- Generator: Adobe Illustrator 19.0.0, SVG Export Plug-In . SVG Version: 6.00 Build 0)  -->
<svg version="1.1" id="Capa_1" xmlns="http://www.w3.org/2000/svg" xmlns:xlink="http://www.w3.org/1999/xlink" x="0px" y="0px"
	 viewBox="0 0 512 512" style="enable-background:new 0 0 512 512;" xml:space="preserve">
<g>
	<g>
		<g>
			<path d="M68.267,136.533H51.2c-9.421,0.011-17.056,7.646-17.067,17.067v17.067c0.011,9.421,7.645,17.056,17.067,17.067h17.067
				c9.421-0.011,17.056-7.645,17.067-17.067V153.6C85.323,144.179,77.688,136.544,68.267,136.533z M51.2,170.667V153.6h17.067
				l0.012,17.067H51.2z"/>
			<path d="M68.267,68.267H51.2c-9.421,0.011-17.056,7.645-17.067,17.067V102.4c0.011,9.421,7.645,17.056,17.067,17.067h17.067
				c9.421-0.011,17.056-7.645,17.067-17.067V85.333C85.323,75.912,77.688,68.277,68.267,68.267z M51.2,102.4V85.333h17.067
				l0.012,17.067H51.2z"/>
			<path d="M119.467,119.467h17.067c9.421-0.011,17.056-7.645,17.067-17.067V85.333c-0.011-9.421-7.646-17.056-17.067-17.067
				h-17.067c-9.421,0.011-17.056,7.645-17.067,17.067V102.4C102.411,111.821,110.045,119.456,119.467,119.467z M119.467,85.333
				h17.067l0.012,17.067h-17.079V85.333z"/>
			<path d="M187.733,119.467h51.2c9.421-0.011,17.056-7.645,17.067-17.067V85.333c-0.011-9.421-7.645-17.056-17.067-17.067h-51.2
				c-9.421,0.011-17.056,7.645-17.067,17.067V102.4C170.677,111.821,178.312,119.456,187.733,119.467z M187.733,85.333h51.2
				l0.012,17.067h-51.212V85.333z"/>
			<path d="M256,170.667V153.6c-0.011-9.421-7.645-17.056-17.067-17.067H119.467c-9.421,0.011-17.056,7.646-17.067,17.067v17.067
				c0.011,9.421,7.645,17.056,17.067,17.067h119.467C248.355,187.723,255.989,180.088,256,170.667z M119.467,170.667V153.6h119.467
				l0.012,17.067H119.467z"/>
			<path d="M469.333,256h-68.267c-23.553,0.028-42.639,19.114-42.667,42.667V435.2c0,42.415,34.385,76.8,76.8,76.8
				s76.8-34.385,76.8-76.8V298.667C511.972,275.114,492.886,256.028,469.333,256z M375.467,298.667
				c0.015-14.132,11.468-25.585,25.6-25.6h25.6V332.8h-51.2V298.667z M494.933,435.2c-0.038,32.974-26.759,59.695-59.733,59.733
				c-32.974-0.038-59.695-26.759-59.733-59.733v-85.333h119.467V435.2z M494.933,332.8h-51.2v-59.733h25.6
				c14.132,0.015,25.585,11.468,25.6,25.6V332.8z"/>
			<path d="M341.333,170.667h25.6c0.011,9.421,7.646,17.056,17.067,17.067h34.133c9.421-0.011,17.056-7.645,17.067-17.067v-76.8
				c-0.011-9.421-7.645-17.056-17.067-17.067H384c-9.421,0.011-17.056,7.646-17.067,17.067h-25.6V8.533
				c0.001-2.263-0.898-4.434-2.499-6.035c-1.6-1.6-3.771-2.499-6.035-2.499H8.533C6.27-0.001,4.099,0.898,2.499,2.499
				C0.898,4.099-0.001,6.27,0,8.533v494.933c-0.001,2.263,0.898,4.434,2.499,6.035c1.6,1.6,3.771,2.499,6.035,2.499h285.662
				c27.12-1.197,48.182-24.073,47.138-51.2V170.667z M384,93.867l34.133-0.009v76.809H384V93.867z M341.333,110.933h25.6V153.6
				h-25.6V110.933z M221.867,17.067h17.071l0.009,17.067h-17.079V17.067z M153.6,17.067h17.071l0.009,17.067H153.6V17.067z
				 M85.333,17.067h17.071l0.009,17.067H85.333V17.067z M17.067,17.067h17.071l0.009,17.067H17.067V17.067z M17.067,51.2h17.067
				c9.421-0.011,17.056-7.646,17.067-17.067V17.067h17.067v17.067c0.011,9.421,7.645,17.056,17.067,17.067H102.4
				c9.421-0.011,17.056-7.646,17.067-17.067V17.067h17.067v17.067c0.011,9.421,7.646,17.056,17.067,17.067h17.067
				c9.421-0.011,17.056-7.646,17.067-17.067V17.067H204.8v17.067c0.011,9.421,7.646,17.056,17.067,17.067h17.067
				c9.421-0.011,17.056-7.646,17.067-17.067V17.067h17.067V179.2c-0.015,14.132-11.468,25.585-25.6,25.6h-230.4V51.2z M17.067,256
				h17.067c4.711,0.005,8.529,3.822,8.533,8.533v187.733c-0.005,4.711-3.822,8.529-8.533,8.533H17.067V256z M294.196,494.933H17.067
				v-17.067h17.067c14.132-0.015,25.585-11.468,25.6-25.6V264.533c-0.015-14.132-11.468-25.585-25.6-25.6H17.067v-17.067h230.4
				c23.553-0.028,42.639-19.114,42.667-42.667V17.067h34.133V460.8C325.296,478.498,311.882,493.724,294.196,494.933z"/>
		</g>
	</g>
</g>
<g>
</g>
<g>
</g>
<g>
</g>
<g>
</g>
<g>
</g>
<g>
</g>
<g>
</g>
<g>
</g>
<g>
</g>
<g>
</g>
<g>
</g>
<g>
</g>
<g>
</g>
<g>
</g>
<g>
</g>
</svg>
