<?xml version="1.0" encoding="iso-8859-1"?>
<!-- Generator: Adobe Illustrator 19.0.0, SVG Export Plug-In . SVG Version: 6.00 Build 0)  -->
<svg version="1.1" id="Capa_1" xmlns="http://www.w3.org/2000/svg" xmlns:xlink="http://www.w3.org/1999/xlink" x="0px" y="0px"
	 viewBox="0 0 512 512" style="enable-background:new 0 0 512 512;" xml:space="preserve">
<g>
	<g>
		<g>
			<path d="M221.867,76.8V17.067C221.856,7.645,214.221,0.011,204.8,0H51.2c-9.421,0.011-17.056,7.645-17.067,17.067V76.8
				c-9.421,0.011-17.056,7.646-17.067,17.067V281.6c0.011,9.421,7.645,17.056,17.067,17.067H51.2v17.067
				c0.011,9.421,7.645,17.056,17.067,17.067v162.133c0.011,9.421,7.645,17.056,17.067,17.067h85.333
				c9.421-0.011,17.056-7.645,17.067-17.067V332.8c9.421-0.011,17.056-7.645,17.067-17.067v-17.067h17.067
				c9.421-0.011,17.056-7.646,17.067-17.067V93.867C238.923,84.445,231.288,76.811,221.867,76.8z M187.733,17.067H204.8V76.8
				h-17.067V17.067z M119.467,17.067h17.067V25.6c0,4.713-3.82,8.533-8.533,8.533s-8.533-3.821-8.533-8.533V17.067z M85.333,17.067
				H102.4V25.6c0.015,14.132,11.468,25.585,25.6,25.6c14.132-0.015,25.585-11.468,25.6-25.6v-8.533h17.067V76.8H85.333V17.067z
				 M187.733,93.867V179.2H68.267V93.867H187.733z M51.2,17.067h17.067V76.8H51.2V17.067z M85.333,494.933V332.8h85.333
				l0.012,162.133H85.333z M68.267,315.733v-17.067h119.471l0.008,17.067H68.267z M196.267,281.6H34.133V93.867H51.2v93.867
				c-0.001,2.263,0.898,4.434,2.499,6.035c1.6,1.6,3.771,2.499,6.035,2.499h136.533c2.263,0.001,4.434-0.898,6.035-2.499
				c1.6-1.6,2.499-3.771,2.499-6.035V93.867h17.067l0.012,187.733H196.267z"/>
			<path d="M196.267,213.333H59.733c-4.713,0-8.533,3.82-8.533,8.533s3.82,8.533,8.533,8.533h136.533
				c4.713,0,8.533-3.82,8.533-8.533S200.98,213.333,196.267,213.333z"/>
			<path d="M196.267,247.467H59.733c-4.713,0-8.533,3.82-8.533,8.533s3.82,8.533,8.533,8.533h136.533
				c4.713,0,8.533-3.82,8.533-8.533S200.98,247.467,196.267,247.467z"/>
			<path d="M477.867,76.8V17.067C477.856,7.645,470.221,0.011,460.8,0H307.2c-9.421,0.011-17.056,7.645-17.067,17.067V76.8
				c-9.421,0.011-17.056,7.646-17.067,17.067V281.6c0.011,9.421,7.646,17.056,17.067,17.067H307.2v17.067
				c0.011,9.421,7.645,17.056,17.067,17.067v162.133c0.011,9.421,7.646,17.056,17.067,17.067h85.333
				c9.421-0.011,17.056-7.645,17.067-17.067V332.8c9.421-0.011,17.056-7.645,17.067-17.067v-17.067h17.067
				c9.421-0.011,17.056-7.646,17.067-17.067V93.867C494.923,84.445,487.288,76.811,477.867,76.8z M443.733,17.067H460.8V76.8
				h-17.067V17.067z M375.467,17.067h17.067V25.6c0,4.713-3.82,8.533-8.533,8.533s-8.533-3.821-8.533-8.533V17.067z M341.333,17.067
				H358.4V25.6c0.015,14.132,11.468,25.585,25.6,25.6c14.132-0.015,25.585-11.468,25.6-25.6v-8.533h17.067V76.8h-85.333V17.067z
				 M443.733,93.867V179.2H324.267V93.867H443.733z M307.2,17.067h17.067V76.8H307.2V17.067z M341.333,494.933V332.8h85.333
				l0.012,162.133H341.333z M324.267,315.733v-17.067h119.471l0.008,17.067H324.267z M452.267,281.6H290.133V93.867H307.2v93.867
				c-0.001,2.263,0.898,4.434,2.499,6.035c1.6,1.6,3.771,2.499,6.035,2.499h136.533c2.263,0.001,4.434-0.898,6.035-2.499
				c1.6-1.6,2.499-3.771,2.499-6.035V93.867h17.067l0.012,187.733H452.267z"/>
			<path d="M452.267,213.333H315.733c-4.713,0-8.533,3.82-8.533,8.533s3.82,8.533,8.533,8.533h136.533
				c4.713,0,8.533-3.82,8.533-8.533S456.98,213.333,452.267,213.333z"/>
			<path d="M452.267,247.467H315.733c-4.713,0-8.533,3.82-8.533,8.533s3.82,8.533,8.533,8.533h136.533
				c4.713,0,8.533-3.82,8.533-8.533S456.98,247.467,452.267,247.467z"/>
		</g>
	</g>
</g>
<g>
</g>
<g>
</g>
<g>
</g>
<g>
</g>
<g>
</g>
<g>
</g>
<g>
</g>
<g>
</g>
<g>
</g>
<g>
</g>
<g>
</g>
<g>
</g>
<g>
</g>
<g>
</g>
<g>
</g>
</svg>
