<?xml version="1.0" encoding="iso-8859-1"?>
<!-- Generator: Adobe Illustrator 19.0.0, SVG Export Plug-In . SVG Version: 6.00 Build 0)  -->
<svg version="1.1" id="Capa_1" xmlns="http://www.w3.org/2000/svg" xmlns:xlink="http://www.w3.org/1999/xlink" x="0px" y="0px"
	 viewBox="0 0 512 512" style="enable-background:new 0 0 512 512;" xml:space="preserve">
<g>
	<g>
		<g>
			<path d="M256,0C114.615,0,0,114.615,0,256s114.615,256,256,256s256-114.615,256-256C511.84,114.682,397.318,0.16,256,0z
				 M256,494.933C124.041,494.933,17.067,387.959,17.067,256S124.041,17.067,256,17.067S494.933,124.041,494.933,256
				C494.785,387.898,387.898,494.785,256,494.933z"/>
			<path d="M256,34.133C133.466,34.133,34.133,133.466,34.133,256S133.466,477.867,256,477.867S477.867,378.534,477.867,256
				C477.73,133.523,378.477,34.27,256,34.133z M256,460.8c-113.108,0-204.8-91.692-204.8-204.8S142.892,51.2,256,51.2
				S460.8,142.892,460.8,256C460.671,369.054,369.054,460.671,256,460.8z"/>
			<path d="M429.727,184.73c-22.762-55.527-70.735-96.799-129.039-111.013c-2.544-0.618-5.232-0.035-7.291,1.583
				c-2.059,1.618-3.262,4.091-3.263,6.709V102.4h-68.267V82.008c-0.001-2.618-1.204-5.091-3.263-6.709
				c-2.059-1.618-4.746-2.201-7.291-1.583C153.009,87.931,105.036,129.203,82.273,184.73
				c-22.762,55.527-17.561,118.596,13.989,169.645c0.306,0.459,0.656,0.888,1.045,1.279c0.09,0.096,0.152,0.208,0.246,0.301
				c0.691,0.66,1.49,1.198,2.361,1.591c0.212,0.1,0.424,0.177,0.646,0.258c0.939,0.374,1.938,0.576,2.948,0.596h58.625v55.125
				c0.02,1.011,0.222,2.01,0.595,2.949c0.092,0.247,0.19,0.476,0.304,0.713c0.373,0.799,0.869,1.534,1.469,2.18
				c0.067,0.071,0.11,0.158,0.179,0.226c0.563,0.561,1.203,1.04,1.898,1.424c55.767,30.289,123.075,30.289,178.842,0
				c0.697-0.384,1.336-0.864,1.9-1.425c0.068-0.067,0.11-0.152,0.176-0.222c0.602-0.647,1.099-1.384,1.472-2.185
				c0.114-0.235,0.211-0.463,0.303-0.71c0.374-0.94,0.576-1.939,0.596-2.95V358.4h58.625c1.011-0.02,2.01-0.222,2.949-0.596
				c0.222-0.081,0.432-0.158,0.644-0.258c0.872-0.393,1.671-0.931,2.363-1.592c0.093-0.091,0.154-0.202,0.243-0.298
				c0.39-0.392,0.741-0.821,1.047-1.281C447.288,303.326,452.489,240.257,429.727,184.73z M403.671,341.333h-62.338
				c-2.263-0.001-4.434,0.898-6.035,2.499c-1.6,1.6-2.499,3.771-2.499,6.035v58.508c-48.395,23.967-105.205,23.967-153.6,0v-58.508
				c0.001-2.263-0.898-4.434-2.499-6.035c-1.6-1.6-3.771-2.499-6.035-2.499h-62.338c-25.98-44.797-30.18-98.978-11.412-147.243
				S155.382,108.713,204.8,93.233v17.7c-0.001,2.263,0.898,4.434,2.499,6.035c1.6,1.6,3.771,2.499,6.035,2.499h85.333
				c2.263,0.001,4.434-0.898,6.035-2.499c1.6-1.6,2.499-3.771,2.499-6.035v-17.7c49.418,15.479,89.115,52.591,107.883,100.857
				S429.651,296.536,403.671,341.333z"/>
			<path d="M221.867,332.8c-14.138,0-25.6,11.462-25.6,25.6s11.462,25.6,25.6,25.6s25.6-11.461,25.6-25.6
				C247.451,344.268,235.999,332.815,221.867,332.8z M221.867,366.933c-4.713,0-8.533-3.82-8.533-8.533s3.82-8.533,8.533-8.533
				s8.533,3.82,8.533,8.533C230.395,363.111,226.578,366.929,221.867,366.933z"/>
			<path d="M204.8,170.667c0-14.138-11.461-25.6-25.6-25.6s-25.6,11.462-25.6,25.6s11.461,25.6,25.6,25.6
				C193.332,196.251,204.785,184.799,204.8,170.667z M179.2,179.2c-4.713,0-8.533-3.82-8.533-8.533s3.82-8.533,8.533-8.533
				s8.533,3.82,8.533,8.533C187.729,175.378,183.911,179.195,179.2,179.2z"/>
			<path d="M153.6,238.933c-14.139,0-25.6,11.461-25.6,25.6s11.461,25.6,25.6,25.6c14.138,0,25.6-11.462,25.6-25.6
				C179.185,250.401,167.732,238.949,153.6,238.933z M153.6,273.067c-4.713,0-8.533-3.82-8.533-8.533S148.887,256,153.6,256
				c4.713,0,8.533,3.82,8.533,8.533C162.129,269.244,158.311,273.062,153.6,273.067z"/>
			<path d="M358.4,170.667c0-14.138-11.462-25.6-25.6-25.6c-14.138,0-25.6,11.462-25.6,25.6s11.462,25.6,25.6,25.6
				C346.932,196.251,358.385,184.799,358.4,170.667z M324.267,170.667c0-4.713,3.821-8.533,8.533-8.533
				c4.713,0,8.533,3.82,8.533,8.533s-3.821,8.533-8.533,8.533C328.089,179.195,324.271,175.378,324.267,170.667z"/>
			<path d="M358.4,238.933c-14.132,0.015-25.585,11.468-25.6,25.6c0,14.138,11.462,25.6,25.6,25.6s25.6-11.462,25.6-25.6
				S372.539,238.933,358.4,238.933z M358.4,273.067c-4.713,0-8.533-3.82-8.533-8.533S353.687,256,358.4,256
				c4.711,0.005,8.529,3.822,8.533,8.533C366.933,269.246,363.113,273.067,358.4,273.067z"/>
			<path d="M290.133,332.8c-14.138,0-25.6,11.462-25.6,25.6s11.462,25.6,25.6,25.6s25.6-11.461,25.6-25.6
				C315.718,344.268,304.265,332.815,290.133,332.8z M290.133,366.933c-4.713,0-8.533-3.82-8.533-8.533s3.82-8.533,8.533-8.533
				s8.533,3.82,8.533,8.533C298.662,363.111,294.844,366.929,290.133,366.933z"/>
			<path d="M281.6,204.8v-51.2c-0.011-9.421-7.646-17.056-17.067-17.067h-17.067c-9.421,0.011-17.056,7.646-17.067,17.067v51.2
				c0.011,9.421,7.645,17.056,17.067,17.067h17.067C273.955,221.856,281.589,214.221,281.6,204.8z M247.467,153.6h17.067l0.012,51.2
				h-17.079V153.6z"/>
		</g>
	</g>
</g>
<g>
</g>
<g>
</g>
<g>
</g>
<g>
</g>
<g>
</g>
<g>
</g>
<g>
</g>
<g>
</g>
<g>
</g>
<g>
</g>
<g>
</g>
<g>
</g>
<g>
</g>
<g>
</g>
<g>
</g>
</svg>
