<?xml version="1.0" encoding="iso-8859-1"?>
<!-- Generator: Adobe Illustrator 19.0.0, SVG Export Plug-In . SVG Version: 6.00 Build 0)  -->
<svg version="1.1" id="Capa_1" xmlns="http://www.w3.org/2000/svg" xmlns:xlink="http://www.w3.org/1999/xlink" x="0px" y="0px"
	 viewBox="0 0 512 512" style="enable-background:new 0 0 512 512;" xml:space="preserve">
<g transform="translate(-1)">
	<g>
		<g>
			<path d="M321.058,76.8h-51.2c-28.264,0.031-51.169,22.936-51.2,51.2v119.467h-17.067v-230.4
				C201.579,7.646,193.945,0.012,184.524,0h-17.558c-9.269-0.043-16.863,7.35-17.067,16.617l-0.69,26l-0.01,0.05l0.008,0.04
				l-7.458,281.11c-0.133,4.606,1.615,9.068,4.841,12.358c3.204,3.31,7.618,5.172,12.225,5.158h25.708
				c9.421-0.012,17.054-7.646,17.067-17.067v-25.6h17.067V409.6c0.012,9.421,7.646,17.054,17.067,17.067h8.533v76.8
				c-0.001,2.264,0.897,4.435,2.498,6.035c1.601,1.601,3.772,2.499,6.035,2.498h85.333c2.264,0.001,4.435-0.897,6.035-2.498
				c1.601-1.601,2.499-3.772,2.498-6.035v-76.8h8.533c9.421-0.012,17.054-7.646,17.067-17.067V128
				C372.227,99.736,349.322,76.831,321.058,76.8z M166.966,17.067h17.558l0.001,17.067h-18.012L166.966,17.067z M158.816,324.267
				L166.06,51.2h18.467l0.01,204.735L184.524,256v34.133l0.015,0.073l0.002,34.06H158.816z M218.658,281.6h-17.067v-17.067h17.067
				V281.6z M329.591,460.8h-17.067c-4.713,0-8.533,3.82-8.533,8.533s3.82,8.533,8.533,8.533h17.067v17.067h-68.267v-17.067h17.067
				c4.713,0,8.533-3.82,8.533-8.533s-3.82-8.533-8.533-8.533h-17.067v-34.133h68.267V460.8z M235.724,409.6V128
				c0.019-18.843,15.29-34.114,34.133-34.133h51.2c18.844,0.019,34.115,15.29,34.133,34.133l0.017,281.6H235.724z"/>
			<path d="M321.058,204.8h-51.2c-9.421,0.012-17.054,7.646-17.067,17.067v128c0.012,9.421,7.646,17.054,17.067,17.067h51.2
				c9.421-0.012,17.054-7.646,17.067-17.067v-128C338.112,212.446,330.478,204.812,321.058,204.8z M269.858,221.867h51.2
				l0.01,85.333h-51.21V221.867z M269.858,349.867v-25.6h51.214l0.003,25.6H269.858z"/>
		</g>
	</g>
</g>
<g>
</g>
<g>
</g>
<g>
</g>
<g>
</g>
<g>
</g>
<g>
</g>
<g>
</g>
<g>
</g>
<g>
</g>
<g>
</g>
<g>
</g>
<g>
</g>
<g>
</g>
<g>
</g>
<g>
</g>
</svg>
