<?xml version="1.0" encoding="iso-8859-1"?>
<!-- Generator: Adobe Illustrator 19.0.0, SVG Export Plug-In . SVG Version: 6.00 Build 0)  -->
<svg version="1.1" id="Capa_1" xmlns="http://www.w3.org/2000/svg" xmlns:xlink="http://www.w3.org/1999/xlink" x="0px" y="0px"
	 viewBox="0 0 512 512" style="enable-background:new 0 0 512 512;" xml:space="preserve">
<g>
	<g>
		<g>
			<path d="M366.933,162.134c-37.703,0-68.267,30.564-68.267,68.267c0.043,37.685,30.582,68.224,68.267,68.267
				c37.703,0,68.267-30.564,68.267-68.267S404.636,162.134,366.933,162.134z M366.933,281.6c-28.277,0-51.2-22.923-51.2-51.2
				c0.031-28.264,22.936-51.169,51.2-51.2c28.277,0,51.2,22.923,51.2,51.2S395.21,281.6,366.933,281.6z"/>
			<path d="M366.933,196.267c-18.851,0-34.133,15.282-34.133,34.133c0.019,18.844,15.29,34.115,34.133,34.133
				c18.851,0,34.133-15.282,34.133-34.133S385.785,196.267,366.933,196.267z M366.933,247.467c-9.426,0-17.067-7.641-17.067-17.067
				c0.012-9.421,7.646-17.054,17.067-17.067c9.426,0,17.067,7.641,17.067,17.067S376.359,247.467,366.933,247.467z"/>
			<path d="M431.359,155.05c-0.434-0.339-0.925-0.599-1.45-0.767c-0.51-0.259-1.059-0.433-1.625-0.517
				c-2.783-0.558-5.662,0.308-7.676,2.308c-1.561,1.634-2.445,3.799-2.475,6.059c-0.023,2.27,0.869,4.454,2.475,6.059
				c0.83,0.754,1.782,1.36,2.817,1.791c1.013,0.476,2.123,0.71,3.242,0.683c2.27,0.022,4.453-0.87,6.058-2.475
				c1.605-1.605,2.497-3.788,2.475-6.058c-0.033-2.259-0.917-4.422-2.475-6.059C432.306,155.687,431.848,155.344,431.359,155.05z"/>
			<path d="M429.908,290.817c-1.556-0.684-3.286-0.865-4.95-0.517c-0.534,0.096-1.05,0.27-1.533,0.517
				c-0.546,0.184-1.065,0.442-1.542,0.767c-0.445,0.316-0.871,0.658-1.275,1.025c-1.561,1.634-2.445,3.799-2.475,6.059
				c-0.031,1.119,0.203,2.23,0.683,3.242c0.434,1.034,1.04,1.986,1.792,2.817c1.605,1.605,3.788,2.497,6.058,2.475
				c1.119,0.027,2.229-0.207,3.242-0.683c1.034-0.434,1.986-1.04,2.817-1.792c1.57-1.628,2.456-3.796,2.475-6.058
				c-0.033-2.259-0.917-4.422-2.475-6.059C431.894,291.856,430.942,291.25,429.908,290.817z"/>
			<path d="M303.958,169.984c2.065,0.911,4.418,0.911,6.483,0c1.044-0.414,2-1.022,2.817-1.792c1.603-1.607,2.494-3.789,2.475-6.058
				c-0.033-2.259-0.917-4.422-2.475-6.059c-0.419-0.387-0.877-0.731-1.367-1.025c-0.434-0.339-0.925-0.599-1.45-0.767
				c-1.557-0.68-3.286-0.86-4.95-0.517c-0.534,0.096-1.05,0.271-1.533,0.517c-0.546,0.184-1.065,0.442-1.542,0.767
				c-0.445,0.316-0.871,0.658-1.276,1.025c-0.772,0.816-1.38,1.772-1.792,2.817c-1.362,3.175-0.652,6.859,1.792,9.301
				C301.971,168.946,302.924,169.552,303.958,169.984z"/>
			<path d="M310.472,290.736c-3.202-1.329-6.89-0.59-9.331,1.872c-1.561,1.634-2.445,3.799-2.475,6.059
				c0,4.713,3.82,8.533,8.533,8.533s8.533-3.82,8.533-8.533C315.753,295.2,313.674,292.066,310.472,290.736z"/>
			<path d="M114.175,137.216c-2.058-0.942-4.425-0.942-6.483,0c-3.252,1.228-5.373,4.376-5.292,7.851
				c-0.031,1.119,0.203,2.23,0.683,3.242c0.434,1.034,1.04,1.986,1.792,2.817c0.829,0.754,1.782,1.36,2.817,1.792
				c2.065,0.911,4.418,0.911,6.483,0c1.034-0.434,1.986-1.04,2.817-1.792c1.589-1.616,2.478-3.792,2.475-6.058
				c-0.016-2.262-0.902-4.432-2.475-6.059C116.161,138.256,115.209,137.65,114.175,137.216z"/>
			<path d="M235.175,137.983c-0.474-0.324-0.99-0.582-1.533-0.767c-0.51-0.259-1.059-0.433-1.625-0.517
				c-1.094-0.25-2.231-0.25-3.325,0c-0.534,0.096-1.05,0.27-1.533,0.517c-0.546,0.184-1.065,0.442-1.542,0.767l-1.276,1.025
				l-1.025,1.275c-0.325,0.477-0.583,0.995-0.767,1.542c-0.246,0.483-0.42,1-0.517,1.533c-0.097,0.565-0.152,1.136-0.166,1.709
				c-0.023,2.27,0.869,4.454,2.475,6.059c0.829,0.754,1.782,1.36,2.817,1.791c2.065,0.911,4.418,0.911,6.483,0
				c2.143-0.777,3.831-2.465,4.608-4.608c0.438-1.026,0.67-2.127,0.684-3.242c-0.016-2.262-0.902-4.432-2.475-6.059
				C236.034,138.667,235.6,138.325,235.175,137.983z"/>
			<path d="M114.206,307.803c-3.202-1.329-6.89-0.59-9.331,1.872c-1.561,1.634-2.445,3.799-2.475,6.059
				c-0.018,1.109,0.183,2.211,0.592,3.242c0.481,1.004,1.116,1.927,1.883,2.733c0.809,0.823,1.764,1.487,2.817,1.958
				c1.031,0.411,2.132,0.615,3.242,0.6c2.287,0.027,4.483-0.9,6.059-2.558c1.546-1.61,2.43-3.743,2.475-5.975
				C119.487,312.267,117.408,309.132,114.206,307.803z"/>
			<path d="M227.128,307.803c-3.202,1.329-5.281,4.464-5.261,7.931c-0.031,1.119,0.203,2.23,0.683,3.242
				c0.415,1.018,1.023,1.947,1.792,2.733c0.824,0.804,1.776,1.466,2.817,1.958c1.031,0.411,2.132,0.615,3.241,0.6
				c4.699-0.032,8.501-3.834,8.533-8.533c-0.033-2.259-0.917-4.422-2.475-6.059C234.017,307.213,230.329,306.473,227.128,307.803z"
				/>
			<path d="M503.467,273.067h-13.758l13.317-39.967c0.592-1.751,0.592-3.649,0-5.4l-13.317-39.967h13.758
				c2.448,0.003,4.78-1.048,6.4-2.883c1.62-1.836,2.373-4.279,2.067-6.708l-7.6-60.791c-1.077-8.535-8.33-14.94-16.933-14.95H8.533
				C3.82,102.4,0,106.221,0,110.934s3.82,8.533,8.533,8.533h25.6v281.6c0,4.713,3.82,8.533,8.533,8.533s8.533-3.821,8.533-8.533
				V358.4h17.067v17.067c0.012,9.421,7.646,17.054,17.067,17.067H102.4c9.421-0.012,17.054-7.646,17.067-17.067V358.4h17.067v17.067
				c0.012,9.421,7.646,17.054,17.067,17.067h34.133c9.421-0.012,17.054-7.646,17.067-17.067V358.4h17.067v17.067
				c0.012,9.421,7.646,17.054,17.067,17.067h110.933c9.421-0.012,17.054-7.646,17.067-17.067V358.4H384V384
				c-0.001,2.264,0.897,4.435,2.498,6.035c1.601,1.601,3.772,2.499,6.035,2.498h25.6c4.713,0,8.533-3.82,8.533-8.533
				s-3.82-8.533-8.533-8.533h-17.067V358.4H487.4c8.603-0.011,15.857-6.415,16.933-14.95l7.6-60.791
				c0.306-2.429-0.447-4.873-2.067-6.708C508.246,274.115,505.915,273.064,503.467,273.067z M68.267,341.334H51.2V119.467h17.067
				V341.334z M487.4,119.467l6.4,51.2h-11.671l-38.4-51.2H487.4z M85.333,119.467h204.804l-38.4,51.2H85.333V119.467z
				 M85.333,187.734h158.831l-5.689,17.067H85.333V187.734z M85.333,221.867h147.452l-1.944,5.833c-0.592,1.751-0.592,3.649,0,5.4
				l1.944,5.833H85.333V221.867z M85.333,256h153.142l5.69,17.067H85.333V256z M85.333,375.467V358.4h17.075l0.008,17.067H85.333z
				 M153.6,375.467V358.4h34.142l0.009,17.067H153.6z M196.267,341.334H85.333v-51.2h166.404l38.4,51.2H196.267z M238.933,375.467
				V358.4h110.942l0.009,17.067H238.933z M311.462,341.334l-47.807-63.744l-11.13-33.39l-0.026-0.079l-4.574-13.721l4.574-13.723
				l0.026-0.076l11.13-33.391l47.807-63.743h110.942l47.807,63.744l15.73,47.189l-15.73,47.189l-47.807,63.744H311.462z
				 M487.4,341.334h-43.671l38.4-51.2H493.8L487.4,341.334z"/>
		</g>
	</g>
</g>
<g>
</g>
<g>
</g>
<g>
</g>
<g>
</g>
<g>
</g>
<g>
</g>
<g>
</g>
<g>
</g>
<g>
</g>
<g>
</g>
<g>
</g>
<g>
</g>
<g>
</g>
<g>
</g>
<g>
</g>
</svg>
