<?xml version="1.0" encoding="iso-8859-1"?>
<!-- Generator: Adobe Illustrator 19.0.0, SVG Export Plug-In . SVG Version: 6.00 Build 0)  -->
<svg version="1.1" id="Capa_1" xmlns="http://www.w3.org/2000/svg" xmlns:xlink="http://www.w3.org/1999/xlink" x="0px" y="0px"
	 viewBox="0 0 512.005 512.005" style="enable-background:new 0 0 512.005 512.005;" xml:space="preserve">
<g>
	<g>
		<g>
			<path d="M333.283,106.246c-30.019-29.933-78.598-29.933-108.617,0L37.492,293.429C13.486,317.433,0,349.99,0,383.938
				s13.486,66.505,37.492,90.508l0.067,0.067c24.004,24.005,56.561,37.492,90.508,37.492s66.505-13.486,90.508-37.492
				l187.183-187.175c29.942-30.015,29.942-78.602,0-108.617L333.283,106.246z M236.733,118.313
				c23.351-23.278,61.133-23.278,84.483,0l30.204,30.204l-30.192,30.192l-0.004-0.004c-6.67-6.65-17.463-6.65-24.133,0L279,196.796
				l-0.025,0.017l-0.017,0.025l-18.083,18.083c-3.205,3.199-5.007,7.541-5.008,12.069s1.797,8.871,5,12.073l0.004,0.004
				l-18.112,18.112l-72.444-72.444L236.733,118.313z M297.079,202.85l12.079-12.079l12.075,12.075l-12.076,12.082L297.079,202.85z
				 M297.093,226.998l-12.076,12.082l-6.025-6.025l-0.017-0.025l-0.025-0.017l-6.017-6.017l12.079-12.079L297.093,226.998z
				 M206.508,462.446c-43.322,43.322-113.561,43.322-156.883,0l-0.067-0.067c-43.322-43.322-43.322-113.561,0-156.883
				l108.689-108.694l156.955,156.954L206.508,462.446z M393.692,275.271l-66.422,66.419l-72.444-72.444l18.113-18.113l0.004,0.004
				c3.193,3.212,7.538,5.012,12.067,5h0.017c4.524,0.011,8.863-1.789,12.05-5l18.092-18.092l0.025-0.017l0.017-0.025l18.092-18.092
				c6.659-6.667,6.659-17.467,0-24.133l-0.004-0.004l30.192-30.192l30.204,30.204C416.976,214.136,416.975,251.923,393.692,275.271z
				"/>
			<path d="M511.767,127.263C496.534,64.486,447.519,15.471,384.742,0.238c-4.582-1.099-9.187,1.722-10.291,6.302
				s1.712,9.189,6.291,10.298c56.552,13.719,100.706,57.873,114.425,114.425c0.926,3.83,4.352,6.529,8.292,6.533
				c0.676,0,1.35-0.078,2.008-0.233C510.048,136.455,512.867,131.846,511.767,127.263z"/>
			<path d="M387.417,76.646c-4.271-1.988-9.345-0.138-11.333,4.133s-0.138,9.345,4.133,11.333
				c17.475,8.153,31.522,22.199,39.675,39.675c1.988,4.271,7.062,6.122,11.333,4.133s6.122-7.062,4.133-11.333
				C425.514,103.466,408.539,86.49,387.417,76.646z"/>
			<path d="M386.95,36.663c-4.492-1.427-9.29,1.058-10.717,5.55c-1.427,4.492,1.058,9.29,5.55,10.717
				c36.811,11.644,65.648,40.481,77.292,77.292c1.124,3.544,4.415,5.952,8.134,5.95c2.722,0.001,5.281-1.298,6.888-3.494
				c1.607-2.197,2.07-5.028,1.246-7.622C462.017,82.962,429.042,49.988,386.95,36.663z"/>
			<path d="M393.641,130.396c0.794-0.783,1.43-1.711,1.875-2.733c0.8-2.087,0.8-4.396,0-6.483c-0.419-1.061-1.058-2.021-1.875-2.817
				c-2.017-2-4.897-2.866-7.683-2.308c-0.551,0.092-1.092,0.234-1.617,0.425c-0.512,0.234-0.998,0.522-1.45,0.858
				c-0.499,0.241-0.938,0.592-1.283,1.025c-1.615,1.606-2.534,3.782-2.558,6.059c0.029,2.252,0.949,4.4,2.558,5.975
				c0.759,0.822,1.693,1.462,2.733,1.875C387.529,133.65,391.237,132.903,393.641,130.396z"/>
		</g>
	</g>
</g>
<g>
</g>
<g>
</g>
<g>
</g>
<g>
</g>
<g>
</g>
<g>
</g>
<g>
</g>
<g>
</g>
<g>
</g>
<g>
</g>
<g>
</g>
<g>
</g>
<g>
</g>
<g>
</g>
<g>
</g>
</svg>
