<?xml version="1.0" encoding="iso-8859-1"?>
<!-- Generator: Adobe Illustrator 19.0.0, SVG Export Plug-In . SVG Version: 6.00 Build 0)  -->
<svg version="1.1" id="Capa_1" xmlns="http://www.w3.org/2000/svg" xmlns:xlink="http://www.w3.org/1999/xlink" x="0px" y="0px"
	 viewBox="0 0 512 512" style="enable-background:new 0 0 512 512;" xml:space="preserve">
<g>
	<g>
		<g>
			<path d="M304.7,62.234c-3.341-3.281-8.701-3.256-12.012,0.054c-3.311,3.311-3.335,8.671-0.054,12.012l25.6,25.6
				c2.149,2.188,5.307,3.055,8.271,2.27c2.965-0.785,5.28-3.1,6.065-6.065c0.785-2.965-0.082-6.122-2.27-8.271L304.7,62.234z"/>
			<path d="M269.825,50.517c2.065,0.911,4.418,0.911,6.483,0c1.034-0.433,1.986-1.039,2.817-1.791
				c2.444-2.441,3.154-6.125,1.792-9.3c-0.432-1.035-1.038-1.988-1.792-2.817c-0.419-0.387-0.877-0.731-1.367-1.025
				c-0.434-0.339-0.925-0.599-1.45-0.767c-0.51-0.259-1.059-0.433-1.625-0.517c-1.094-0.25-2.231-0.25-3.325,0
				c-0.534,0.096-1.05,0.271-1.533,0.517c-0.546,0.184-1.065,0.442-1.542,0.767c-0.445,0.316-0.871,0.658-1.276,1.025
				c-0.754,0.829-1.36,1.782-1.792,2.817c-0.48,1.012-0.714,2.123-0.683,3.242c-0.023,2.27,0.869,4.454,2.475,6.059
				C267.838,49.479,268.79,50.085,269.825,50.517z"/>
			<path d="M227.9,36.634c-3.341-3.281-8.701-3.256-12.012,0.054s-3.335,8.671-0.054,12.012l93.867,93.867
				c2.149,2.188,5.307,3.055,8.271,2.27c2.965-0.785,5.28-3.1,6.065-6.065c0.785-2.965-0.082-6.122-2.27-8.271L227.9,36.634z"/>
			<path d="M498.758,179.2H384c-1.852-0.002-3.655,0.601-5.133,1.717l-11.933,8.993v-44.843H384
				c-0.001,2.264,0.897,4.435,2.498,6.035s3.772,2.499,6.035,2.498h76.8c23.564,0,42.667-19.103,42.667-42.667
				s-19.102-42.667-42.667-42.667h-76.8c-2.264-0.001-4.435,0.897-6.035,2.498S383.999,74.536,384,76.8h-17.067V25.6
				c-0.015-14.132-11.468-25.585-25.6-25.6H8.533C6.27-0.001,4.099,0.897,2.498,2.498S-0.001,6.27,0,8.533v374.4
				c0,0.19,0.096,0.348,0.108,0.533C0.096,383.652,0,383.81,0,384c-0.001,2.264,0.897,4.435,2.498,6.035
				c1.601,1.601,3.772,2.499,6.035,2.498H59.28c-2.209,31.501-23.169,58.573-53.114,68.6c-0.169,0.049-0.286,0.176-0.45,0.234
				c-0.551,0.215-1.077,0.489-1.569,0.818c-0.449,0.246-0.874,0.533-1.27,0.856c-0.393,0.385-0.747,0.807-1.057,1.261
				c-0.338,0.411-0.637,0.854-0.891,1.322c-0.205,0.475-0.365,0.968-0.479,1.473c-0.18,0.565-0.297,1.149-0.351,1.74
				c-0.01,0.173-0.1,0.32-0.1,0.496v34.133c-0.001,2.264,0.897,4.435,2.498,6.035c1.601,1.601,3.772,2.499,6.035,2.498h230.4
				c14.111-0.066,25.534-11.489,25.6-25.6c-0.015-14.132-11.468-25.585-25.6-25.6h-24.268
				c-29.449-10.293-49.933-37.144-52.078-68.267h178.746c14.132-0.015,25.585-11.468,25.6-25.6V307.2h25.6
				c2.264,0.001,4.435-0.897,6.035-2.498s2.499-3.772,2.498-6.035v-8.533h25.6v6.125c-0.009,6.024,4.86,10.918,10.883,10.942h61.208
				c7.342-0.041,13.265-6.016,13.242-13.358V192.558C512.023,185.216,506.1,179.241,498.758,179.2z M401.067,85.333h68.267
				c14.138,0,25.6,11.462,25.6,25.6s-11.461,25.6-25.6,25.6h-68.267V85.333z M366.933,93.867H384V128h-17.067V93.867z
				 M238.933,477.867c4.712,0.003,8.53,3.822,8.533,8.533c0.005,2.302-0.942,4.504-2.617,6.083c-1.558,1.586-3.694,2.471-5.917,2.45
				H17.067v-17.067H238.933z M180.805,460.8H41.062c21.051-16.604,33.906-41.49,35.265-68.267h69.214
				C146.899,419.31,159.754,444.196,180.805,460.8z M349.867,366.933c-0.003,4.712-3.822,8.53-8.533,8.533H17.067V332.8h332.8
				V366.933z M349.867,315.733h-332.8V17.067h324.267c4.711,0.003,8.53,3.822,8.533,8.533V315.733z M494.933,290.133h-51.2v-6.125
				c0.009-6.024-4.859-10.918-10.883-10.942h-37.967c-6.024,0.023-10.892,4.918-10.883,10.942v6.125h-17.067v-78.85l19.925-15.017
				h108.075V290.133z"/>
		</g>
	</g>
</g>
<g>
</g>
<g>
</g>
<g>
</g>
<g>
</g>
<g>
</g>
<g>
</g>
<g>
</g>
<g>
</g>
<g>
</g>
<g>
</g>
<g>
</g>
<g>
</g>
<g>
</g>
<g>
</g>
<g>
</g>
</svg>
