<?xml version="1.0" encoding="iso-8859-1"?>
<!-- Generator: Adobe Illustrator 19.0.0, SVG Export Plug-In . SVG Version: 6.00 Build 0)  -->
<svg version="1.1" id="Capa_1" xmlns="http://www.w3.org/2000/svg" xmlns:xlink="http://www.w3.org/1999/xlink" x="0px" y="0px"
	 viewBox="0 0 512 512" style="enable-background:new 0 0 512 512;" xml:space="preserve">
<g>
	<g>
		<g>
			<path d="M494.933,341.333c9.421-0.012,17.054-7.646,17.067-17.067v-307.2C511.988,7.646,504.354,0.012,494.933,0H17.067
				C7.645,0.011,0.011,7.645,0,17.067v307.2c0.011,9.421,7.645,17.056,17.067,17.067h25.6v51.2c-9.888,0-17.067,10.767-17.067,25.6
				s7.179,25.6,17.067,25.6V460.8C19.114,460.828,0.028,479.914,0,503.467c-0.001,2.263,0.898,4.434,2.499,6.035
				c1.6,1.6,3.771,2.499,6.035,2.499h494.933c2.264,0.001,4.435-0.897,6.035-2.498c1.601-1.601,2.499-3.772,2.498-6.035
				c-0.028-23.553-19.114-42.639-42.667-42.667v-17.067c9.892,0,17.067-10.767,17.067-25.6s-7.175-25.6-17.067-25.6v-51.2H494.933z
				 M494.948,290.133H375.467V51.2h119.469L494.948,290.133z M17.067,17.067h477.868v17.067H17.067V17.067z M358.4,51.2v238.933
				H153.6V51.2H358.4z M17.067,51.2h119.467v238.933H17.067V51.2z M44.429,409.6h64.742c2.35,5.446,2.35,11.62,0,17.067H44.429
				C42.079,421.22,42.079,415.046,44.429,409.6z M59.733,392.533v-51.2h34.133v51.2H59.733z M110.933,392.533v-51.2h290.133v51.2
				c-9.888,0-17.067,10.767-17.067,25.6s7.179,25.6,17.067,25.6V460.8H110.933v-17.067c9.888,0,17.067-10.767,17.067-25.6
				S120.821,392.533,110.933,392.533z M93.867,443.733V460.8H59.733v-17.067H93.867z M493.475,494.933H18.529
				c3.627-10.221,13.292-17.054,24.138-17.067h426.667C480.179,477.88,489.845,484.713,493.475,494.933z M418.133,460.8v-17.067
				h34.133V460.8H418.133z M467.576,426.667h-64.75c-2.344-5.447-2.344-11.619,0-17.067h64.75
				C469.92,415.047,469.92,421.219,467.576,426.667z M418.133,392.533v-51.2h34.133v51.2H418.133z M460.8,324.267H17.067V307.2
				H494.95v17.067H460.8z"/>
			<path d="M93.867,93.867c-14.139,0-25.6,11.461-25.6,25.6c0.015,14.132,11.468,25.585,25.6,25.6c14.138,0,25.6-11.461,25.6-25.6
				S108.005,93.867,93.867,93.867z M93.867,128c-4.713,0-8.533-3.82-8.533-8.533c0.005-4.711,3.822-8.529,8.533-8.533
				c4.713,0,8.533,3.82,8.533,8.533S98.579,128,93.867,128z"/>
			<path d="M48.725,96.341c-0.816-0.771-1.772-1.379-2.817-1.792c-2.077-0.858-4.41-0.858-6.487,0
				c-1.033,0.433-1.984,1.039-2.813,1.792c-0.773,0.815-1.383,1.772-1.796,2.817c-0.906,2.066-0.906,4.417,0,6.483
				c0.435,1.034,1.042,1.987,1.795,2.817c0.829,0.753,1.78,1.359,2.813,1.792c2.066,0.911,4.421,0.911,6.487,0
				c1.034-0.433,1.987-1.039,2.817-1.792c0.751-0.832,1.357-1.784,1.792-2.817c0.911-2.065,0.911-4.418,0-6.483
				C50.104,98.114,49.496,97.158,48.725,96.341z"/>
			<path d="M45.908,128.683c-3.177-1.342-6.849-0.634-9.3,1.791c-1.559,1.635-2.443,3.799-2.475,6.059
				c-0.023,2.27,0.869,4.454,2.475,6.059c0.829,0.753,1.78,1.359,2.813,1.792c1.014,0.477,2.126,0.71,3.246,0.683
				c2.27,0.022,4.453-0.87,6.058-2.475c1.605-1.605,2.497-3.788,2.475-6.058c-0.033-2.259-0.917-4.422-2.475-6.059
				C47.895,129.722,46.942,129.116,45.908,128.683z"/>
			<path d="M42.667,162.133c-2.263-0.001-4.434,0.898-6.035,2.499c-1.6,1.6-2.499,3.771-2.499,6.035v68.267
				c0,4.713,3.82,8.533,8.533,8.533s8.533-3.82,8.533-8.533v-68.267c0.001-2.263-0.898-4.434-2.499-6.035
				C47.101,163.032,44.93,162.133,42.667,162.133z"/>
			<path d="M110.933,162.133H76.8c-4.713,0-8.533,3.82-8.533,8.533s3.82,8.533,8.533,8.533h34.133c4.713,0,8.533-3.82,8.533-8.533
				S115.646,162.133,110.933,162.133z"/>
			<path d="M110.933,196.267H76.8c-4.713,0-8.533,3.82-8.533,8.533s3.82,8.533,8.533,8.533h34.133c4.713,0,8.533-3.821,8.533-8.533
				S115.646,196.267,110.933,196.267z"/>
			<path d="M110.933,230.4H76.8c-4.713,0-8.533,3.82-8.533,8.533s3.82,8.533,8.533,8.533h34.133c4.713,0,8.533-3.82,8.533-8.533
				S115.646,230.4,110.933,230.4z"/>
			<path d="M418.133,145.067c14.138,0,25.6-11.461,25.6-25.6c-0.015-14.132-11.468-25.585-25.6-25.6
				c-14.138,0-25.6,11.461-25.6,25.6S403.995,145.067,418.133,145.067z M418.133,110.933c4.713,0,8.533,3.82,8.533,8.533
				c-0.003,4.712-3.822,8.53-8.533,8.533c-4.713,0-8.533-3.82-8.533-8.533S413.421,110.933,418.133,110.933z"/>
			<path d="M466.092,110.25c1.025,0.438,2.127,0.67,3.242,0.683c2.262-0.019,4.43-0.905,6.059-2.475
				c2.444-2.441,3.154-6.125,1.792-9.3c-0.412-1.045-1.02-2.001-1.792-2.817c-0.831-0.752-1.783-1.358-2.817-1.792
				c-2.076-0.858-4.407-0.858-6.483,0c-1.045,0.412-2.001,1.02-2.817,1.792c-1.561,1.634-2.445,3.798-2.475,6.058
				c-0.023,2.27,0.869,4.454,2.475,6.059C464.104,109.213,465.057,109.819,466.092,110.25z"/>
			<path d="M472.575,128.683c-1.556-0.684-3.286-0.865-4.95-0.517c-0.534,0.096-1.05,0.27-1.533,0.517
				c-0.546,0.184-1.065,0.442-1.542,0.767l-1.275,1.025c-0.772,0.816-1.38,1.772-1.792,2.817c-1.124,2.624-0.847,5.638,0.737,8.013
				c1.584,2.375,4.259,3.79,7.114,3.762c1.119,0.027,2.229-0.207,3.242-0.683c1.034-0.434,1.986-1.04,2.817-1.792
				c1.603-1.607,2.494-3.789,2.475-6.058c-0.033-2.259-0.917-4.422-2.475-6.059C474.575,129.705,473.619,129.097,472.575,128.683z"
				/>
			<path d="M469.333,247.467c4.713,0,8.533-3.82,8.533-8.533v-68.267c0.001-2.264-0.897-4.435-2.498-6.035
				c-1.601-1.601-3.772-2.499-6.035-2.498c-2.264-0.001-4.435,0.897-6.035,2.498c-1.601,1.601-2.499,3.772-2.498,6.035v68.267
				C460.8,243.646,464.621,247.467,469.333,247.467z"/>
			<path d="M401.067,179.2H435.2c4.713,0,8.533-3.82,8.533-8.533s-3.82-8.533-8.533-8.533h-34.133c-4.713,0-8.533,3.82-8.533,8.533
				S396.354,179.2,401.067,179.2z"/>
			<path d="M401.067,213.333H435.2c4.713,0,8.533-3.821,8.533-8.533s-3.82-8.533-8.533-8.533h-34.133
				c-4.713,0-8.533,3.82-8.533,8.533S396.354,213.333,401.067,213.333z"/>
			<path d="M401.067,247.467H435.2c4.713,0,8.533-3.82,8.533-8.533s-3.82-8.533-8.533-8.533h-34.133
				c-4.713,0-8.533,3.82-8.533,8.533S396.354,247.467,401.067,247.467z"/>
			<path d="M179.2,256h153.6c2.263,0.001,4.434-0.898,6.035-2.499c1.6-1.6,2.499-3.771,2.499-6.035v-153.6
				c0.001-2.263-0.898-4.434-2.499-6.035c-1.6-1.6-3.771-2.499-6.035-2.499H179.2c-2.263-0.001-4.434,0.898-6.035,2.499
				c-1.6,1.6-2.499,3.771-2.499,6.035v153.6c-0.001,2.263,0.898,4.434,2.499,6.035C174.766,255.102,176.937,256.001,179.2,256z
				 M212.849,238.933l27.172-38.042l18.479,18.475c1.6,1.601,3.77,2.5,6.033,2.5c2.263,0,4.433-0.899,6.033-2.5l9.708-9.708
				l19.514,29.275H212.849z M187.733,102.4h136.533v136.533H320.3l-31.6-47.4c-1.418-2.127-3.715-3.506-6.258-3.758
				c-2.541-0.225-5.053,0.673-6.875,2.458l-11.033,11.033L244.966,181.7c-1.781-1.763-4.239-2.666-6.737-2.475
				c-2.501,0.209-4.783,1.508-6.242,3.55l-40.113,56.158h-4.141V102.4z"/>
			<path d="M281.6,170.667c14.138,0,25.6-11.462,25.6-25.6s-11.462-25.6-25.6-25.6c-14.138,0-25.6,11.461-25.6,25.6
				C256.015,159.199,267.468,170.651,281.6,170.667z M281.6,136.533c4.713,0,8.533,3.82,8.533,8.533s-3.82,8.533-8.533,8.533
				s-8.533-3.821-8.533-8.533C273.071,140.356,276.889,136.538,281.6,136.533z"/>
		</g>
	</g>
</g>
<g>
</g>
<g>
</g>
<g>
</g>
<g>
</g>
<g>
</g>
<g>
</g>
<g>
</g>
<g>
</g>
<g>
</g>
<g>
</g>
<g>
</g>
<g>
</g>
<g>
</g>
<g>
</g>
<g>
</g>
</svg>
