<?xml version="1.0" encoding="iso-8859-1"?>
<!-- Generator: Adobe Illustrator 19.0.0, SVG Export Plug-In . SVG Version: 6.00 Build 0)  -->
<svg version="1.1" id="Capa_1" xmlns="http://www.w3.org/2000/svg" xmlns:xlink="http://www.w3.org/1999/xlink" x="0px" y="0px"
	 viewBox="0 0 512 512" style="enable-background:new 0 0 512 512;" xml:space="preserve">
<g>
	<g>
		<g>
			<path d="M426.667,0H332.8c-0.976,0.024-1.941,0.219-2.85,0.575c-1.875-0.351-3.776-0.544-5.683-0.575H85.333
				C66.49,0.02,51.22,15.29,51.2,34.133v443.733C51.22,496.71,66.49,511.98,85.333,512h238.933h102.4
				c18.843-0.02,34.113-15.29,34.133-34.133V34.133C460.78,15.29,445.51,0.02,426.667,0z M341.333,477.867
				c-0.011,9.421-7.645,17.056-17.067,17.067H85.333c-9.421-0.011-17.056-7.645-17.067-17.067V34.133
				c0.011-9.421,7.645-17.056,17.067-17.067h238.933c9.421,0.011,17.056,7.646,17.067,17.067V477.867z M443.733,477.867
				c-0.011,9.421-7.646,17.056-17.067,17.067h-73.014c3.074-5.164,4.713-11.056,4.747-17.067V34.133
				c-0.034-6.01-1.673-11.902-4.747-17.067h73.014c9.421,0.011,17.056,7.646,17.067,17.067V477.867z"/>
			<path d="M238.933,170.667c28.277,0,51.2-22.923,51.2-51.2s-22.923-51.2-51.2-51.2c-28.277,0-51.2,22.923-51.2,51.2
				C187.764,147.731,210.669,170.636,238.933,170.667z M238.933,85.333c18.851,0,34.133,15.282,34.133,34.133
				S257.785,153.6,238.933,153.6S204.8,138.318,204.8,119.467C204.82,100.624,220.09,85.353,238.933,85.333z"/>
			<path d="M260.267,247.467c-16.495,0-29.867,13.372-29.867,29.867c0,16.495,13.372,29.867,29.867,29.867
				c16.495,0,29.867-13.372,29.867-29.867C290.113,260.847,276.753,247.487,260.267,247.467z M260.267,290.133
				c-7.069,0-12.8-5.731-12.8-12.8c0-7.069,5.731-12.8,12.8-12.8c7.069,0,12.8,5.731,12.8,12.8
				C273.059,284.399,267.333,290.126,260.267,290.133z"/>
			<path d="M124.183,161.233l17.067,8.533c2.403,1.2,5.23,1.2,7.633,0l17.067-8.533c2.891-1.446,4.716-4.401,4.717-7.633V128
				c0.001-2.263-0.898-4.434-2.499-6.035c-1.6-1.6-3.771-2.499-6.035-2.499H128c-2.263-0.001-4.434,0.898-6.035,2.499
				c-1.6,1.6-2.499,3.771-2.499,6.035v25.6C119.467,156.832,121.293,159.787,124.183,161.233z M136.533,136.533H153.6v11.792
				l-8.533,4.267l-8.533-4.267V136.533z"/>
			<path d="M136.533,93.867H153.6c4.713,0,8.533-3.821,8.533-8.533s-3.82-8.533-8.533-8.533h-17.067
				c-4.713,0-8.533,3.82-8.533,8.533S131.821,93.867,136.533,93.867z"/>
			<path d="M307.2,34.133H102.4c-9.421,0.011-17.056,7.645-17.067,17.067v418.133c-0.001,2.263,0.898,4.434,2.499,6.035
				c1.6,1.6,3.771,2.499,6.035,2.499h221.867c2.263,0.001,4.434-0.898,6.035-2.499c1.6-1.6,2.499-3.771,2.499-6.035V51.2
				C324.256,41.779,316.621,34.144,307.2,34.133z M102.4,204.8h93.867v153.6H102.4V204.8z M307.2,460.8H102.4v-17.067h204.8V460.8z
				 M307.2,426.667H102.4V409.6h204.8V426.667z M307.2,392.533H102.4v-17.067h204.8V392.533z M307.2,346.333L296.166,335.3
				c-3.338-3.296-8.711-3.279-12.029,0.038c-3.317,3.317-3.334,8.69-0.038,12.029l11.033,11.034H225.4l11.034-11.034
				c3.296-3.338,3.279-8.711-0.038-12.029c-3.317-3.317-8.69-3.334-12.029-0.038l-11.034,11.033V216.867l11.034,11.034
				c3.338,3.296,8.711,3.279,12.029-0.038c3.317-3.317,3.334-8.691,0.038-12.029L225.4,204.8h69.733L284.1,215.834
				c-1.6,1.6-2.5,3.77-2.5,6.033c0,2.263,0.899,4.433,2.5,6.033c1.6,1.601,3.77,2.5,6.033,2.5s4.433-0.899,6.033-2.5l11.033-11.033
				V346.333z M307.2,187.733H102.4V51.2h204.8V187.733z"/>
			<path d="M121.941,236.375c1.616,1.599,3.786,2.515,6.059,2.558c2.288,0.028,4.484-0.899,6.059-2.558
				c0.767-0.788,1.376-1.716,1.792-2.733c0.911-2.065,0.911-4.418,0-6.483c-0.433-1.034-1.039-1.986-1.792-2.817
				c-3.421-3.158-8.695-3.158-12.117,0c-0.755,0.829-1.363,1.782-1.796,2.817c-0.436,1.026-0.667,2.127-0.68,3.242
				c-0.029,1.119,0.204,2.229,0.679,3.242C120.562,234.66,121.172,235.589,121.941,236.375z"/>
			<path d="M162.133,238.933c2.855,0.03,5.532-1.385,7.115-3.761c1.584-2.376,1.86-5.39,0.735-8.014
				c-0.433-1.034-1.039-1.986-1.792-2.817c-3.421-3.158-8.695-3.158-12.117,0c-0.755,0.829-1.363,1.782-1.796,2.817
				c-0.436,1.026-0.667,2.127-0.679,3.242c-0.038,2.248,0.858,4.412,2.475,5.975C157.65,238.034,159.846,238.962,162.133,238.933z"
				/>
			<path d="M136.533,264.533c0-4.713-3.82-8.533-8.533-8.533c-4.713,0-8.533,3.82-8.533,8.533V281.6
				c-0.001,2.263,0.898,4.434,2.499,6.035c1.6,1.6,3.771,2.499,6.035,2.499c2.263,0.001,4.434-0.898,6.035-2.499
				c1.6-1.6,2.499-3.771,2.499-6.035c4.713,0,8.533-3.821,8.533-8.533C145.067,268.354,141.246,264.533,136.533,264.533z"/>
			<path d="M128,307.2c-4.713,0-8.533,3.82-8.533,8.533V332.8c-0.001,2.263,0.898,4.434,2.499,6.035
				c1.6,1.6,3.771,2.499,6.035,2.499c2.263,0.001,4.434-0.898,6.035-2.499c1.6-1.6,2.499-3.771,2.499-6.035v-17.067
				C136.533,311.021,132.713,307.2,128,307.2z"/>
			<path d="M162.133,307.2c-4.713,0-8.533,3.82-8.533,8.533V332.8c-0.001,2.263,0.898,4.434,2.499,6.035
				c1.6,1.6,3.771,2.499,6.035,2.499c2.263,0.001,4.434-0.898,6.035-2.499c1.6-1.6,2.499-3.771,2.499-6.035v-17.067
				C170.667,311.021,166.846,307.2,162.133,307.2z"/>
		</g>
	</g>
</g>
<g>
</g>
<g>
</g>
<g>
</g>
<g>
</g>
<g>
</g>
<g>
</g>
<g>
</g>
<g>
</g>
<g>
</g>
<g>
</g>
<g>
</g>
<g>
</g>
<g>
</g>
<g>
</g>
<g>
</g>
</svg>
