<?xml version="1.0" encoding="iso-8859-1"?>
<!-- Generator: Adobe Illustrator 19.0.0, SVG Export Plug-In . SVG Version: 6.00 Build 0)  -->
<svg version="1.1" id="Capa_1" xmlns="http://www.w3.org/2000/svg" xmlns:xlink="http://www.w3.org/1999/xlink" x="0px" y="0px"
	 viewBox="0 0 512 512" style="enable-background:new 0 0 512 512;" xml:space="preserve">
<g>
	<g>
		<g>
			<path d="M304.7,62.234c-3.341-3.281-8.701-3.256-12.012,0.054c-3.311,3.311-3.335,8.671-0.054,12.012l25.6,25.6
				c2.149,2.188,5.307,3.055,8.271,2.27c2.965-0.785,5.28-3.1,6.065-6.065c0.785-2.965-0.082-6.122-2.27-8.271L304.7,62.234z"/>
			<path d="M267.008,48.725c2.441,2.444,6.125,3.154,9.3,1.792c1.034-0.433,1.987-1.039,2.817-1.792
				c1.604-1.606,2.496-3.789,2.475-6.059c0.029-1.119-0.205-2.229-0.683-3.242c-0.433-1.034-1.039-1.986-1.791-2.817
				c-0.816-0.771-1.772-1.379-2.817-1.792c-3.177-1.342-6.85-0.634-9.301,1.792c-0.773,0.815-1.383,1.772-1.796,2.817
				c-0.906,2.066-0.906,4.417,0,6.483C265.647,46.942,266.254,47.895,267.008,48.725z"/>
			<path d="M227.9,36.634c-3.341-3.281-8.701-3.256-12.012,0.054s-3.335,8.671-0.054,12.012l93.867,93.867
				c2.149,2.188,5.307,3.055,8.271,2.27c2.965-0.785,5.28-3.1,6.065-6.065c0.785-2.965-0.082-6.122-2.27-8.271L227.9,36.634z"/>
			<path d="M493.708,102.4c-24.389-42.244-69.463-68.267-118.241-68.267c-2.841,0-5.691,0.105-8.533,0.28V25.6
				c-0.015-14.132-11.468-25.585-25.6-25.6H8.533C6.27-0.001,4.099,0.898,2.499,2.499C0.898,4.099-0.001,6.27,0,8.533v374.4
				c0,0.19,0.096,0.348,0.108,0.533C0.096,383.652,0,383.81,0,384c-0.001,2.263,0.898,4.434,2.499,6.035
				c1.6,1.6,3.771,2.499,6.035,2.499H59.28c-2.209,31.501-23.169,58.573-53.114,68.6c-0.169,0.049-0.286,0.177-0.45,0.235
				c-0.549,0.215-1.074,0.488-1.564,0.815c-0.45,0.247-0.876,0.534-1.274,0.858c-0.394,0.386-0.748,0.809-1.059,1.265
				c-0.336,0.409-0.633,0.849-0.886,1.314c-0.209,0.483-0.372,0.985-0.487,1.499c-0.175,0.555-0.291,1.127-0.344,1.707
				C0.092,469.002,0,469.153,0,469.333v34.133c-0.001,2.263,0.898,4.434,2.499,6.035c1.6,1.6,3.771,2.499,6.035,2.499h230.4
				c14.113-0.062,25.538-11.487,25.6-25.6c-0.015-14.132-11.468-25.585-25.6-25.6h-24.271
				c-29.448-10.295-49.93-37.145-52.075-68.267h178.746c14.132-0.015,25.585-11.468,25.6-25.6V306.92
				c2.842,0.175,5.692,0.28,8.533,0.28c48.779,0,93.852-26.023,118.241-68.267C518.097,196.69,518.097,144.644,493.708,102.4z
				 M238.933,477.867c4.711,0.005,8.529,3.822,8.533,8.533c0.006,2.301-0.939,4.503-2.612,6.083c-1.56,1.586-3.697,2.47-5.921,2.45
				H17.067v-17.067H238.933z M180.802,460.8H41.065c21.05-16.605,33.904-41.49,35.262-68.267h69.214
				C146.898,419.31,159.752,444.195,180.802,460.8z M349.867,366.933c-0.005,4.711-3.822,8.529-8.533,8.533H17.067V332.8h332.8
				V366.933z M349.867,315.733h-332.8V17.067h324.267c4.711,0.005,8.529,3.822,8.533,8.533V315.733z M366.933,194.694
				c2.733,1.012,5.62,1.544,8.533,1.573c14.138,0,25.6-11.461,25.6-25.6s-11.462-25.6-25.6-25.6
				c-2.914,0.029-5.801,0.561-8.533,1.573v-17.669c2.803-0.617,5.663-0.943,8.533-0.971c23.564,0,42.667,19.103,42.667,42.667
				s-19.103,42.667-42.667,42.667c-2.87-0.028-5.73-0.353-8.533-0.971V194.694z M366.933,170.667c0-4.713,3.82-8.533,8.533-8.533
				s8.533,3.82,8.533,8.533s-3.82,8.533-8.533,8.533C370.756,179.195,366.938,175.378,366.933,170.667z M375.467,290.133
				c-2.843,0-5.693-0.117-8.533-0.315v-60.154c2.823,0.452,5.675,0.697,8.533,0.735c32.99,0,59.733-26.744,59.733-59.733
				s-26.744-59.733-59.733-59.733c-2.858,0.038-5.71,0.284-8.533,0.735V51.515c2.841-0.198,5.691-0.315,8.533-0.315
				c65.98,0,119.467,53.487,119.467,119.467S441.446,290.133,375.467,290.133z"/>
			<path d="M476.171,152.05c-0.554-2.998-2.665-5.473-5.538-6.492c-2.873-1.019-6.072-0.429-8.392,1.55
				c-2.32,1.979-3.407,5.044-2.854,8.042c0.941,5.119,1.414,10.312,1.413,15.517c0,4.713,3.82,8.533,8.533,8.533
				s8.533-3.82,8.533-8.533C477.867,164.423,477.3,158.191,476.171,152.05z"/>
			<path d="M461.254,114.8c-15.35-23.47-39.611-39.662-67.175-44.833c-4.627-0.838-9.06,2.226-9.912,6.851
				c-0.852,4.625,2.198,9.067,6.821,9.933c22.972,4.316,43.188,17.818,55.975,37.383c2.584,3.93,7.86,5.03,11.798,2.458
				S463.814,118.746,461.254,114.8z"/>
		</g>
	</g>
</g>
<g>
</g>
<g>
</g>
<g>
</g>
<g>
</g>
<g>
</g>
<g>
</g>
<g>
</g>
<g>
</g>
<g>
</g>
<g>
</g>
<g>
</g>
<g>
</g>
<g>
</g>
<g>
</g>
<g>
</g>
</svg>
