<?xml version="1.0" encoding="iso-8859-1"?>
<!-- Generator: Adobe Illustrator 19.0.0, SVG Export Plug-In . SVG Version: 6.00 Build 0)  -->
<svg version="1.1" id="Capa_1" xmlns="http://www.w3.org/2000/svg" xmlns:xlink="http://www.w3.org/1999/xlink" x="0px" y="0px"
	 viewBox="0 0 512 512" style="enable-background:new 0 0 512 512;" xml:space="preserve">
<g>
	<g>
		<g>
			<path d="M93.867,477.867c14.138,0,25.6-11.462,25.6-25.6c-0.015-14.132-11.468-25.585-25.6-25.6c-14.139,0-25.6,11.462-25.6,25.6
				C68.267,466.405,79.728,477.867,93.867,477.867z M93.867,443.733c4.713,0,8.533,3.821,8.533,8.533
				c-0.005,4.711-3.822,8.529-8.533,8.533c-4.713,0-8.533-3.821-8.533-8.533C85.333,447.554,89.154,443.733,93.867,443.733z"/>
			<path d="M221.867,477.867c4.713,0,8.533-3.82,8.533-8.533V435.2c0.001-2.263-0.898-4.434-2.499-6.035s-3.771-2.499-6.035-2.499
				c-2.263-0.001-4.434,0.898-6.035,2.499c-1.6,1.6-2.499,3.771-2.499,6.035v34.133
				C213.333,474.046,217.154,477.867,221.867,477.867z"/>
			<path d="M256,477.867c4.713,0,8.533-3.82,8.533-8.533V435.2c0.001-2.263-0.898-4.434-2.499-6.035
				c-1.6-1.6-3.771-2.499-6.035-2.499c-2.263-0.001-4.434,0.898-6.035,2.499c-1.6,1.6-2.499,3.771-2.499,6.035v34.133
				C247.467,474.046,251.287,477.867,256,477.867z"/>
			<path d="M290.133,477.867c4.713,0,8.533-3.82,8.533-8.533V435.2c0.001-2.263-0.898-4.434-2.499-6.035s-3.771-2.499-6.035-2.499
				c-2.263-0.001-4.434,0.898-6.035,2.499c-1.6,1.6-2.499,3.771-2.499,6.035v34.133C281.6,474.046,285.421,477.867,290.133,477.867z
				"/>
			<path d="M324.267,477.867c4.713,0,8.533-3.82,8.533-8.533V435.2c0.001-2.263-0.898-4.434-2.499-6.035
				c-1.6-1.6-3.771-2.499-6.035-2.499c-2.263-0.001-4.434,0.898-6.035,2.499c-1.6,1.6-2.499,3.771-2.499,6.035v34.133
				C315.733,474.046,319.554,477.867,324.267,477.867z"/>
			<path d="M358.4,477.867c4.713,0,8.533-3.82,8.533-8.533V435.2c0.001-2.263-0.898-4.434-2.499-6.035
				c-1.6-1.6-3.771-2.499-6.035-2.499c-2.263-0.001-4.434,0.898-6.035,2.499c-1.6,1.6-2.499,3.771-2.499,6.035v34.133
				C349.867,474.046,353.687,477.867,358.4,477.867z"/>
			<path d="M93.867,375.467c14.138,0,25.6-11.461,25.6-25.6c-0.015-14.132-11.468-25.585-25.6-25.6c-14.139,0-25.6,11.462-25.6,25.6
				S79.728,375.467,93.867,375.467z M93.867,341.333c4.713,0,8.533,3.82,8.533,8.533c-0.005,4.711-3.822,8.529-8.533,8.533
				c-4.713,0-8.533-3.82-8.533-8.533S89.154,341.333,93.867,341.333z"/>
			<path d="M221.867,375.467c4.713,0,8.533-3.82,8.533-8.533V332.8c0.001-2.263-0.898-4.434-2.499-6.035
				c-1.6-1.6-3.771-2.499-6.035-2.499c-2.263-0.001-4.434,0.898-6.035,2.499c-1.6,1.6-2.499,3.771-2.499,6.035v34.133
				C213.333,371.646,217.154,375.467,221.867,375.467z"/>
			<path d="M256,375.467c4.713,0,8.533-3.82,8.533-8.533V332.8c0.001-2.263-0.898-4.434-2.499-6.035
				c-1.6-1.6-3.771-2.499-6.035-2.499c-2.263-0.001-4.434,0.898-6.035,2.499c-1.6,1.6-2.499,3.771-2.499,6.035v34.133
				C247.467,371.646,251.287,375.467,256,375.467z"/>
			<path d="M290.133,375.467c4.713,0,8.533-3.82,8.533-8.533V332.8c0.001-2.263-0.898-4.434-2.499-6.035
				c-1.6-1.6-3.771-2.499-6.035-2.499c-2.263-0.001-4.434,0.898-6.035,2.499c-1.6,1.6-2.499,3.771-2.499,6.035v34.133
				C281.6,371.646,285.421,375.467,290.133,375.467z"/>
			<path d="M324.267,375.467c4.713,0,8.533-3.82,8.533-8.533V332.8c0.001-2.263-0.898-4.434-2.499-6.035
				c-1.6-1.6-3.771-2.499-6.035-2.499c-2.263-0.001-4.434,0.898-6.035,2.499c-1.6,1.6-2.499,3.771-2.499,6.035v34.133
				C315.733,371.646,319.554,375.467,324.267,375.467z"/>
			<path d="M358.4,375.467c4.713,0,8.533-3.82,8.533-8.533V332.8c0.001-2.263-0.898-4.434-2.499-6.035
				c-1.6-1.6-3.771-2.499-6.035-2.499c-2.263-0.001-4.434,0.898-6.035,2.499c-1.6,1.6-2.499,3.771-2.499,6.035v34.133
				C349.867,371.646,353.687,375.467,358.4,375.467z"/>
			<path d="M93.867,273.067c14.138,0,25.6-11.461,25.6-25.6s-11.461-25.6-25.6-25.6c-14.139,0-25.6,11.461-25.6,25.6
				C68.282,261.599,79.735,273.051,93.867,273.067z M93.867,238.933c4.713,0,8.533,3.82,8.533,8.533S98.579,256,93.867,256
				c-4.713,0-8.533-3.82-8.533-8.533C85.338,242.756,89.156,238.938,93.867,238.933z"/>
			<path d="M221.867,273.067c2.263,0.001,4.434-0.898,6.035-2.499c1.6-1.6,2.499-3.771,2.499-6.035V230.4
				c0-4.713-3.82-8.533-8.533-8.533s-8.533,3.82-8.533,8.533v34.133c-0.001,2.263,0.898,4.434,2.499,6.035
				C217.432,272.168,219.603,273.067,221.867,273.067z"/>
			<path d="M256,273.067c2.263,0.001,4.434-0.898,6.035-2.499c1.6-1.6,2.499-3.771,2.499-6.035V230.4
				c0-4.713-3.82-8.533-8.533-8.533s-8.533,3.82-8.533,8.533v34.133c-0.001,2.263,0.898,4.434,2.499,6.035
				C251.566,272.168,253.737,273.067,256,273.067z"/>
			<path d="M290.133,273.067c2.263,0.001,4.434-0.898,6.035-2.499c1.6-1.6,2.499-3.771,2.499-6.035V230.4
				c0-4.713-3.82-8.533-8.533-8.533s-8.533,3.82-8.533,8.533v34.133c-0.001,2.263,0.898,4.434,2.499,6.035
				C285.699,272.168,287.87,273.067,290.133,273.067z"/>
			<path d="M324.267,273.067c2.263,0.001,4.434-0.898,6.035-2.499c1.6-1.6,2.499-3.771,2.499-6.035V230.4
				c0-4.713-3.82-8.533-8.533-8.533s-8.533,3.82-8.533,8.533v34.133c-0.001,2.263,0.898,4.434,2.499,6.035
				C319.833,272.168,322.003,273.067,324.267,273.067z"/>
			<path d="M358.4,273.067c2.263,0.001,4.434-0.898,6.035-2.499c1.6-1.6,2.499-3.771,2.499-6.035V230.4
				c0-4.713-3.82-8.533-8.533-8.533s-8.533,3.82-8.533,8.533v34.133c-0.001,2.263,0.898,4.434,2.499,6.035
				C353.966,272.168,356.137,273.067,358.4,273.067z"/>
			<path d="M511.811,195.329c0.011-0.318,0.003-0.637-0.023-0.954L469.121,6.642C468.237,2.757,464.784,0.001,460.8,0H51.2
				c-3.984,0.001-7.437,2.757-8.321,6.642L0.212,194.375c-0.027,0.317-0.035,0.636-0.023,0.954
				c-0.082,0.308-0.145,0.621-0.189,0.937v307.2c-0.001,2.263,0.898,4.434,2.499,6.035c1.6,1.6,3.771,2.499,6.035,2.499h494.933
				c2.263,0.001,4.434-0.898,6.035-2.499c1.6-1.6,2.499-3.771,2.499-6.035v-307.2C511.956,195.951,511.893,195.638,511.811,195.329z
				 M324.089,64.492l0.141,0.012l0.045,0.004c1.061-0.009,2.11-0.219,3.093-0.619c0.062-0.025,0.112-0.072,0.173-0.098
				c0.925-0.393,1.774-0.947,2.505-1.638c0.093-0.087,0.159-0.198,0.248-0.29c0.683-0.701,1.238-1.516,1.639-2.408
				c0.028-0.062,0.085-0.1,0.112-0.165c0.042-0.1,0.023-0.204,0.061-0.304c0.235-0.482,0.423-0.986,0.559-1.504l7.27-40.417H358.4
				V102.4c0,27.75-48.846,51.2-106.667,51.2s-106.667-23.45-106.667-51.2c0-27.75,48.846-51.2,106.667-51.2
				c23.645-0.306,47.124,3.985,69.133,12.633c0.353,0.098,0.712,0.171,1.075,0.22c0.265,0.122,0.536,0.229,0.812,0.322
				C323.195,64.449,323.641,64.488,324.089,64.492z M58.013,17.067h264.582l-4.956,27.554
				c-21.241-7.099-43.509-10.643-65.904-10.487C182.35,34.133,128,64.117,128,102.4c0,38.283,54.35,68.267,123.733,68.267
				s123.733-29.983,123.733-68.267V17.067h78.521l38.789,170.667H19.223L58.013,17.067z M34.133,494.933H17.067V409.6h17.067
				V494.933z M34.133,392.533H17.067V307.2h17.067V392.533z M34.133,290.133H17.067V204.8h17.067V290.133z M452.267,494.933H51.2
				V409.6h401.067V494.933z M452.267,392.533H51.2V307.2h401.067V392.533z M452.267,290.133H51.2V204.8h401.067V290.133z
				 M494.933,494.933h-25.6V409.6h25.6V494.933z M494.933,392.533h-25.6V307.2h25.6V392.533z M494.933,290.133h-25.6V204.8h25.6
				V290.133z"/>
			<path d="M54.442,154.283c-3.177-1.342-6.85-0.634-9.301,1.792c-1.559,1.635-2.443,3.799-2.475,6.059
				c-0.022,2.27,0.87,4.453,2.475,6.058c1.605,1.605,3.788,2.497,6.058,2.475c1.119,0.027,2.229-0.207,3.242-0.683
				c1.034-0.432,1.987-1.038,2.817-1.791c1.604-1.606,2.496-3.789,2.475-6.059c-0.033-2.259-0.917-4.422-2.475-6.059
				C56.429,155.321,55.476,154.715,54.442,154.283z"/>
			<path d="M82.859,36.608c-0.816-0.771-1.772-1.379-2.817-1.792c-3.177-1.342-6.85-0.634-9.301,1.792
				c-0.755,0.829-1.363,1.782-1.796,2.817c-0.906,2.066-0.906,4.417,0,6.483c0.435,1.034,1.042,1.987,1.796,2.817
				c0.829,0.753,1.78,1.359,2.813,1.792c2.067,0.911,4.421,0.911,6.487,0c1.034-0.433,1.987-1.039,2.817-1.792
				c1.604-1.606,2.496-3.789,2.475-6.059c0.029-1.119-0.205-2.229-0.683-3.242C84.217,38.391,83.611,37.439,82.859,36.608z"/>
			<path d="M466.859,156.075c-2.453-2.425-6.126-3.133-9.304-1.792c-1.033,0.433-1.984,1.039-2.813,1.792
				c-0.773,0.815-1.383,1.772-1.796,2.817c-1.357,3.176-0.646,6.858,1.795,9.301c0.829,0.753,1.78,1.359,2.813,1.791
				c2.067,0.911,4.421,0.911,6.487,0c1.034-0.433,1.987-1.039,2.817-1.792c1.604-1.606,2.496-3.788,2.475-6.058
				C469.3,159.874,468.416,157.711,466.859,156.075z"/>
			<path d="M441.259,36.608c-2.05-2.002-4.956-2.866-7.767-2.308c-0.535,0.096-1.053,0.27-1.537,0.517
				c-0.543,0.185-1.059,0.443-1.533,0.767c-0.447,0.315-0.875,0.657-1.28,1.025c-0.755,0.829-1.363,1.782-1.796,2.817
				c-1.357,3.176-0.646,6.858,1.796,9.301c0.829,0.753,1.78,1.359,2.813,1.791c2.067,0.911,4.421,0.911,6.487,0
				c1.034-0.432,1.987-1.038,2.817-1.791c2.444-2.441,3.154-6.125,1.792-9.3C442.618,38.391,442.012,37.439,441.259,36.608z"/>
			<path d="M251.733,68.267c-36.046,0-72.533,11.725-72.533,34.133c0,22.409,36.487,34.133,72.533,34.133
				s72.533-11.725,72.533-34.133C324.267,79.991,287.779,68.267,251.733,68.267z M251.733,119.467
				c-36.596,0-55.467-11.967-55.467-17.067s18.871-17.067,55.467-17.067c36.596,0,55.467,11.967,55.467,17.067
				S288.329,119.467,251.733,119.467z"/>
		</g>
	</g>
</g>
<g>
</g>
<g>
</g>
<g>
</g>
<g>
</g>
<g>
</g>
<g>
</g>
<g>
</g>
<g>
</g>
<g>
</g>
<g>
</g>
<g>
</g>
<g>
</g>
<g>
</g>
<g>
</g>
<g>
</g>
</svg>
