<?xml version="1.0" encoding="iso-8859-1"?>
<!-- Generator: Adobe Illustrator 19.0.0, SVG Export Plug-In . SVG Version: 6.00 Build 0)  -->
<svg version="1.1" id="Capa_1" xmlns="http://www.w3.org/2000/svg" xmlns:xlink="http://www.w3.org/1999/xlink" x="0px" y="0px"
	 viewBox="0 0 512 512" style="enable-background:new 0 0 512 512;" xml:space="preserve">
<g>
	<g>
		<path d="M469.333,435.2H435.2v-59.733c9.421-0.012,17.054-7.646,17.067-17.067V108.558c5.261-3.025,8.513-8.623,8.533-14.692
			V8.533c0.001-2.264-0.897-4.435-2.498-6.035c-1.601-1.601-3.772-2.499-6.035-2.498H59.733c-2.264-0.001-4.435,0.897-6.035,2.498
			S51.199,6.27,51.2,8.533v85.333c0.021,6.069,3.272,11.667,8.533,14.692V358.4c0.012,9.421,7.646,17.054,17.067,17.067V435.2
			H42.667c-9.421,0.012-17.054,7.646-17.067,17.067v42.667c0.012,9.421,7.646,17.054,17.067,17.067h153.6
			c9.421-0.012,17.054-7.646,17.067-17.067V486.4h85.333v8.533c0.012,9.421,7.646,17.054,17.067,17.067h153.6
			c9.421-0.012,17.054-7.646,17.067-17.067v-42.667C486.388,442.846,478.754,435.212,469.333,435.2z M435.2,358.4h-8.533h-77.232
			c-4.389-48.328-44.908-85.334-93.434-85.334s-89.045,37.006-93.434,85.334H76.8V110.933h358.4V358.4z M418.133,375.467V435.2
			h-68.267v-59.733H418.133z M332.8,366.933v34.133H179.2v-34.133c0-42.415,34.385-76.8,76.8-76.8S332.8,324.518,332.8,366.933z
			 M162.133,375.467V435.2H93.867v-59.733H162.133z M68.267,93.867v-76.8h375.467v76.8H68.267z M42.667,494.933v-42.667h153.6
			l0.01,25.55l-0.01,0.05l0.01,0.05l0.007,17.017H42.667z M298.667,452.267v17.067h-85.333v-17.067
			c-0.012-9.421-7.646-17.054-17.067-17.067H179.2v-17.067h153.6V435.2h-17.067C306.313,435.212,298.679,442.846,298.667,452.267z
			 M315.733,494.933v-42.667h153.6l0.017,42.667H315.733z"/>
	</g>
</g>
<g>
</g>
<g>
</g>
<g>
</g>
<g>
</g>
<g>
</g>
<g>
</g>
<g>
</g>
<g>
</g>
<g>
</g>
<g>
</g>
<g>
</g>
<g>
</g>
<g>
</g>
<g>
</g>
<g>
</g>
</svg>
