<?xml version="1.0" encoding="iso-8859-1"?>
<!-- Generator: Adobe Illustrator 19.0.0, SVG Export Plug-In . SVG Version: 6.00 Build 0)  -->
<svg version="1.1" id="Capa_1" xmlns="http://www.w3.org/2000/svg" xmlns:xlink="http://www.w3.org/1999/xlink" x="0px" y="0px"
	 viewBox="0 0 512 512" style="enable-background:new 0 0 512 512;" xml:space="preserve">
<g>
	<g>
		<g>
			<path d="M477.867,25.6H460.8C460.785,11.468,449.332,0.015,435.2,0H76.8C62.668,0.015,51.215,11.468,51.2,25.6H34.133
				c-9.421,0.012-17.054,7.646-17.067,17.067v384c0.012,9.421,7.646,17.054,17.067,17.067H51.2V486.4
				c0.015,14.132,11.468,25.585,25.6,25.6h358.4c14.132-0.015,25.585-11.468,25.6-25.6v-42.667h17.067
				c9.421-0.012,17.054-7.646,17.067-17.067v-384C494.921,33.246,487.287,25.612,477.867,25.6z M68.267,25.6
				c0.003-4.711,3.822-8.53,8.533-8.533h358.4c4.711,0.003,8.53,3.822,8.533,8.533v38.879
				c-10.553,6.021-17.067,17.238-17.067,29.388c0,12.15,6.514,23.366,17.067,29.388V256h-179.2v-17.748
				c31.009-4.476,53.29-32.149,51.047-63.398c-2.244-31.25-28.25-55.456-59.58-55.456s-57.336,24.206-59.58,55.456
				c-2.244,31.25,20.038,58.923,51.047,63.398V256h-179.2V123.254c10.553-6.021,17.067-17.238,17.067-29.388
				c0-12.15-6.514-23.366-17.067-29.388V25.6z M256,221.867c-23.564,0-42.667-19.103-42.667-42.667s19.103-42.667,42.667-42.667
				s42.667,19.103,42.667,42.667C298.639,202.753,279.553,221.839,256,221.867z M34.133,42.667H51.2v17.067
				c-6.01,0.034-11.902,1.672-17.067,4.746V42.667z M51.2,76.8c9.426,0,17.067,7.641,17.067,17.067
				c-0.012,9.421-7.646,17.054-17.067,17.067c-9.426,0-17.067-7.641-17.067-17.067S41.774,76.8,51.2,76.8z M34.133,123.254
				c5.165,3.073,11.057,4.712,17.067,4.746v213.333c-6.01,0.034-11.902,1.672-17.067,4.746V123.254z M51.2,426.667H34.133v-21.812
				c5.165,3.073,11.057,4.712,17.067,4.746V426.667z M51.2,392.533c-9.426,0-17.067-7.641-17.067-17.067S41.774,358.4,51.2,358.4
				c9.421,0.012,17.054,7.646,17.067,17.067C68.267,384.892,60.626,392.533,51.2,392.533z M443.733,486.4
				c-0.003,4.712-3.822,8.53-8.533,8.533H76.8c-4.712-0.003-8.53-3.822-8.533-8.533v-25.6h375.467V486.4z M443.733,443.733H68.267
				v-38.879c10.553-6.021,17.067-17.238,17.067-29.388c0-12.15-6.514-23.366-17.067-29.388v-73.013h375.467v13.279
				c-10.553,6.021-17.067,17.238-17.067,29.388c0,12.15,6.514,23.366,17.067,29.388V443.733z M477.867,426.667H460.8v-76.8
				c6.01-0.034,11.902-1.672,17.067-4.746V426.667z M460.8,332.8c-9.421-0.012-17.054-7.646-17.067-17.067
				c0-9.426,7.641-17.067,17.067-17.067s17.067,7.641,17.067,17.067S470.226,332.8,460.8,332.8z M477.867,286.346
				c-5.165-3.073-11.057-4.712-17.067-4.746V128c6.01-0.034,11.902-1.672,17.067-4.746V286.346z M460.8,110.933
				c-9.426,0-17.067-7.641-17.067-17.067c0.012-9.421,7.646-17.054,17.067-17.067c9.426,0,17.067,7.641,17.067,17.067
				S470.226,110.933,460.8,110.933z M477.867,64.479c-5.165-3.073-11.057-4.712-17.067-4.746V42.667h17.067V64.479z"/>
			<path d="M256,153.6c-14.139,0-25.6,11.461-25.6,25.6s11.461,25.6,25.6,25.6c14.138,0,25.6-11.461,25.6-25.6
				C281.585,165.068,270.132,153.615,256,153.6z M256,187.733c-4.713,0-8.533-3.82-8.533-8.533s3.82-8.533,8.533-8.533
				c4.713,0,8.533,3.82,8.533,8.533C264.53,183.912,260.712,187.73,256,187.733z"/>
			<path d="M170.667,119.467c14.132-0.015,25.585-11.468,25.6-25.6v-25.6c0-14.138-11.461-25.6-25.6-25.6
				c-14.139,0-25.6,11.461-25.6,25.6v25.6C145.082,107.999,156.535,119.451,170.667,119.467z M162.133,68.267
				c0-4.713,3.821-8.533,8.533-8.533c4.713,0,8.533,3.82,8.533,8.533v25.6c0,4.713-3.821,8.533-8.533,8.533
				c-4.713,0-8.533-3.821-8.533-8.533V68.267z"/>
			<path d="M341.333,119.467c14.132-0.015,25.585-11.468,25.6-25.6v-25.6c0-14.138-11.462-25.6-25.6-25.6
				c-14.138,0-25.6,11.461-25.6,25.6v25.6C315.749,107.999,327.201,119.451,341.333,119.467z M332.8,68.267
				c0-4.713,3.82-8.533,8.533-8.533s8.533,3.82,8.533,8.533v25.6c0,4.713-3.82,8.533-8.533,8.533s-8.533-3.821-8.533-8.533V68.267z"
				/>
			<path d="M221.867,93.867h68.267c2.264,0.001,4.435-0.897,6.035-2.498c1.601-1.601,2.499-3.772,2.498-6.035V51.2
				c0.001-2.264-0.897-4.435-2.498-6.035c-1.601-1.601-3.772-2.499-6.035-2.498h-68.267c-2.264-0.001-4.435,0.897-6.035,2.498
				s-2.499,3.772-2.498,6.035v34.133c-0.001,2.264,0.897,4.435,2.498,6.035C217.432,92.969,219.603,93.868,221.867,93.867z
				 M230.4,59.733h51.2V76.8h-51.2V59.733z"/>
			<path d="M85.333,221.867c0.012,9.421,7.646,17.054,17.067,17.067h34.133c9.421-0.012,17.054-7.646,17.067-17.067v-85.333
				c-0.012-9.421-7.646-17.054-17.067-17.067H102.4c-9.421,0.012-17.054,7.646-17.067,17.067V221.867z M102.4,204.8h8.533
				c4.713,0,8.533-3.82,8.533-8.533s-3.821-8.533-8.533-8.533H102.4v-17.067h8.533c4.713,0,8.533-3.82,8.533-8.533
				s-3.821-8.533-8.533-8.533H102.4v-17.067h34.133l0.017,85.333H102.4V204.8z"/>
			<path d="M315.733,332.8c4.713,0,8.533-3.82,8.533-8.533s-3.82-8.533-8.533-8.533H307.2c0.001-2.264-0.897-4.435-2.498-6.035
				c-1.601-1.601-3.772-2.499-6.035-2.498v-8.533c0-4.713-3.821-8.533-8.533-8.533c-4.713,0-8.533,3.82-8.533,8.533v8.533h-17.067
				v-8.533c0-4.713-3.82-8.533-8.533-8.533c-4.713,0-8.533,3.82-8.533,8.533v8.533H230.4v-8.533c0-4.713-3.821-8.533-8.533-8.533
				s-8.533,3.82-8.533,8.533v8.533c-2.264-0.001-4.435,0.897-6.035,2.498s-2.499,3.772-2.498,6.035h-8.533
				c-4.713,0-8.533,3.82-8.533,8.533s3.82,8.533,8.533,8.533h8.533v17.067h-8.533c-4.713,0-8.533,3.82-8.533,8.533
				s3.82,8.533,8.533,8.533h8.533V384h-8.533c-4.713,0-8.533,3.821-8.533,8.533c0,4.713,3.82,8.533,8.533,8.533h8.533
				c-0.001,2.264,0.897,4.435,2.498,6.035c1.601,1.601,3.772,2.499,6.035,2.498v8.533c0,4.713,3.82,8.533,8.533,8.533
				s8.533-3.82,8.533-8.533V409.6h17.067v8.533c0,4.713,3.82,8.533,8.533,8.533c4.713,0,8.533-3.82,8.533-8.533V409.6H281.6v8.533
				c0,4.713,3.821,8.533,8.533,8.533c4.713,0,8.533-3.82,8.533-8.533V409.6c2.264,0.001,4.435-0.897,6.035-2.498
				c1.601-1.601,2.499-3.772,2.498-6.035h8.533c4.713,0,8.533-3.821,8.533-8.533c0-4.713-3.82-8.533-8.533-8.533H307.2v-17.067
				h8.533c4.713,0,8.533-3.82,8.533-8.533s-3.82-8.533-8.533-8.533H307.2V332.8H315.733z M290.133,392.533h-68.267v-68.267h68.267
				V392.533z"/>
			<path d="M418.133,341.333H409.6V332.8c0-4.713-3.82-8.533-8.533-8.533s-8.533,3.821-8.533,8.533v8.533h-17.067V332.8
				c0-4.713-3.82-8.533-8.533-8.533s-8.533,3.821-8.533,8.533v8.533h-8.533c-2.264-0.001-4.435,0.897-6.035,2.498
				c-1.601,1.601-2.499,3.772-2.498,6.035v51.2c-0.001,2.264,0.897,4.435,2.498,6.035c1.601,1.601,3.772,2.499,6.035,2.498h8.533
				v8.533c0,4.713,3.82,8.533,8.533,8.533s8.533-3.82,8.533-8.533V409.6h17.067v8.533c0,4.713,3.82,8.533,8.533,8.533
				s8.533-3.82,8.533-8.533V409.6h8.533c2.264,0.001,4.435-0.897,6.035-2.498c1.601-1.601,2.499-3.772,2.498-6.035v-51.2
				c0.001-2.264-0.897-4.435-2.498-6.035C422.568,342.231,420.397,341.332,418.133,341.333z M409.6,392.533h-51.2V358.4h51.2
				V392.533z"/>
			<path d="M162.133,324.267H153.6v-8.533c0.001-2.264-0.897-4.435-2.498-6.035s-3.772-2.499-6.035-2.498h-8.533v-8.533
				c0-4.713-3.82-8.533-8.533-8.533s-8.533,3.82-8.533,8.533v8.533h-8.533c-2.264-0.001-4.435,0.897-6.035,2.498
				c-1.601,1.601-2.499,3.772-2.498,6.035v8.533h-8.533c-4.713,0-8.533,3.821-8.533,8.533c0,4.713,3.82,8.533,8.533,8.533h8.533
				v8.533c-0.001,2.264,0.897,4.435,2.498,6.035c1.601,1.601,3.772,2.499,6.035,2.498h8.533v8.533c0,4.713,3.82,8.533,8.533,8.533
				s8.533-3.82,8.533-8.533V358.4h8.533c2.264,0.001,4.435-0.897,6.035-2.498s2.499-3.772,2.498-6.035v-8.533h8.533
				c4.713,0,8.533-3.821,8.533-8.533C170.667,328.087,166.846,324.267,162.133,324.267z M136.533,341.333h-17.067v-17.067h17.067
				V341.333z"/>
			<path d="M366.933,307.2h34.133c4.713,0,8.533-3.82,8.533-8.533s-3.82-8.533-8.533-8.533h-34.133c-4.713,0-8.533,3.82-8.533,8.533
				S362.221,307.2,366.933,307.2z"/>
			<path d="M107.092,402.517c-0.434-0.339-0.925-0.599-1.45-0.767c-0.51-0.259-1.059-0.433-1.625-0.517
				c-1.633-0.343-3.334-0.162-4.858,0.517c-1.045,0.412-2.001,1.02-2.817,1.792c-1.561,1.634-2.445,3.798-2.475,6.058
				c-0.023,2.27,0.869,4.454,2.475,6.059c0.829,0.754,1.782,1.36,2.817,1.792c3.155,1.29,6.775,0.586,9.217-1.792
				c0.805-0.806,1.442-1.763,1.875-2.817c0.438-1.026,0.67-2.127,0.684-3.242C110.934,406.741,109.489,404.075,107.092,402.517z"/>
			<path d="M162.133,401.067h-25.6c-4.713,0-8.533,3.82-8.533,8.533s3.82,8.533,8.533,8.533h25.6c4.713,0,8.533-3.82,8.533-8.533
				S166.846,401.067,162.133,401.067z"/>
			<path d="M363.692,171.35c-1.055,0.391-2.015,1.002-2.817,1.792c-1.561,1.634-2.445,3.798-2.475,6.058
				c-0.023,2.27,0.869,4.454,2.475,6.059c0.816,0.772,1.772,1.38,2.817,1.792c2.065,0.911,4.418,0.911,6.483,0
				c2.143-0.777,3.831-2.465,4.608-4.608c0.911-2.065,0.911-4.418,0-6.483c-0.807-2.125-2.454-3.823-4.553-4.695
				c-2.099-0.872-4.464-0.841-6.539,0.087L363.692,171.35z"/>
		</g>
	</g>
</g>
<g>
</g>
<g>
</g>
<g>
</g>
<g>
</g>
<g>
</g>
<g>
</g>
<g>
</g>
<g>
</g>
<g>
</g>
<g>
</g>
<g>
</g>
<g>
</g>
<g>
</g>
<g>
</g>
<g>
</g>
</svg>
