<?xml version="1.0" encoding="iso-8859-1"?>
<!-- Generator: Adobe Illustrator 19.0.0, SVG Export Plug-In . SVG Version: 6.00 Build 0)  -->
<svg version="1.1" id="Capa_1" xmlns="http://www.w3.org/2000/svg" xmlns:xlink="http://www.w3.org/1999/xlink" x="0px" y="0px"
	 viewBox="0 0 512 512" style="enable-background:new 0 0 512 512;" xml:space="preserve">
<g>
	<g>
		<g>
			<path d="M486.4,85.333H360.996c2.226-5.482,3.781-11.212,4.632-17.067h112.239c6.756,0.055,13.245-2.633,17.983-7.45
				c4.905-4.76,7.656-11.315,7.617-18.15c-0.015-14.132-11.468-25.585-25.6-25.6h-117.01c-0.373-0.891-0.677-1.914-1.081-2.742
				c-0.849-1.753-1.835-3.436-2.95-5.033c-3.248-5.53-9.084-9.031-15.492-9.292H170.667c-6.469,0.284-12.348,3.842-15.6,9.442
				c-1.061,1.537-2.003,3.152-2.817,4.833c-0.413,0.844-0.722,1.883-1.102,2.792H51.2c-10.822,0.019-20.457,6.857-24.046,17.067
				H17.067c-4.713,0-8.533,3.82-8.533,8.533s3.82,8.533,8.533,8.533h10.106C30.765,61.399,40.387,68.233,51.2,68.267h95.23
				c0.848,5.853,2.398,11.584,4.616,17.067H25.6C11.468,85.349,0.015,96.801,0,110.933V486.4c0.015,14.132,11.468,25.585,25.6,25.6
				h460.8c14.132-0.015,25.585-11.468,25.6-25.6V110.933C511.985,96.801,500.532,85.349,486.4,85.333z M452.267,34.133h25.6
				c4.711,0.003,8.53,3.822,8.533,8.533c0.005,2.302-0.942,4.504-2.617,6.083c-1.558,1.586-3.694,2.471-5.917,2.45h-25.6V34.133z
				 M435.2,34.133V51.2h-68.267c-0.022-5.718-0.498-11.424-1.424-17.067H435.2z M145.067,51.2H51.2
				c-4.712-0.003-8.53-3.822-8.533-8.533c-0.005-2.302,0.942-4.504,2.617-6.083c1.558-1.586,3.694-2.471,5.917-2.45h95.292
				C145.565,39.775,145.089,45.482,145.067,51.2z M167.608,21.709c0.437-0.882,0.933-1.734,1.483-2.55
				c1.084-1.517,1.808-2.017,1.717-2.092l170.025-0.083c0.799,0.519,1.472,1.211,1.967,2.025c0.604,0.877,1.144,1.796,1.617,2.75
				c3.861,9.323,5.717,19.354,5.45,29.441c0.026,1.477-0.027,2.954-0.158,4.425c-0.054,1.423-0.155,2.77-0.265,4.1l-0.002,0.008
				l0.001,0.004c-0.274,8.243-2.514,16.302-6.534,23.504c-1.084,1.517-1.808,2.017-1.717,2.092H171.03
				c-0.746-0.556-1.385-1.242-1.888-2.025c-4.045-7.217-6.303-15.297-6.585-23.566l0.002-0.009l-0.004-0.019
				c-0.131-1.51-0.241-3.067-0.305-4.706c-0.107-1.266-0.146-2.538-0.117-3.808C161.866,41.094,163.732,31.045,167.608,21.709z
				 M494.933,486.4c-0.003,4.712-3.822,8.53-8.533,8.533H25.6c-4.711-0.003-8.53-3.822-8.533-8.533V110.933
				c0.003-4.712,3.822-8.53,8.533-8.533h460.8c4.712,0.003,8.53,3.822,8.533,8.533V486.4z"/>
			<path d="M460.8,204.8H51.2c-9.421,0.012-17.054,7.646-17.067,17.067V460.8c0.012,9.421,7.646,17.054,17.067,17.067h409.6
				c9.421-0.012,17.054-7.646,17.067-17.067V221.867C477.854,212.446,470.221,204.812,460.8,204.8z M51.2,460.8V221.867h409.6
				l0.017,238.933H51.2z"/>
			<path d="M82.091,263.851c3.175,1.362,6.859,0.653,9.302-1.79c2.443-2.443,3.152-6.127,1.79-9.302
				c-0.431-1.035-1.037-1.988-1.791-2.818c-0.831-0.752-1.783-1.358-2.817-1.792c-3.178-1.334-6.846-0.627-9.301,1.792
				c-0.77,0.836-1.405,1.786-1.883,2.817c-1.237,3.202-0.502,6.832,1.883,9.301C80.09,262.831,81.047,263.439,82.091,263.851z"/>
			<path d="M82.091,297.984c2.624,1.124,5.638,0.847,8.013-0.737c2.375-1.584,3.79-4.259,3.762-7.114
				c0.02-3.467-2.059-6.601-5.261-7.931c-3.202-1.329-6.89-0.59-9.331,1.872c-1.561,1.634-2.445,3.799-2.475,6.059
				c-0.023,2.27,0.869,4.454,2.475,6.059C80.104,296.946,81.057,297.552,82.091,297.984z"/>
			<path d="M91.392,318.208c-3.421-3.158-8.695-3.158-12.117,0c-0.772,0.816-1.38,1.772-1.792,2.817
				c-1.542,3.757-0.224,8.079,3.152,10.337c3.376,2.257,7.874,1.824,10.757-1.036c0.752-0.831,1.358-1.783,1.792-2.817
				c0.911-2.065,0.911-4.418,0-6.483C92.772,319.98,92.164,319.024,91.392,318.208z"/>
			<path d="M91.392,352.341c-3.421-3.158-8.695-3.158-12.117,0c-0.772,0.816-1.38,1.772-1.792,2.817
				c-0.911,2.065-0.911,4.418,0,6.483c0.434,1.034,1.04,1.986,1.792,2.817c3.365,3.3,8.752,3.3,12.117,0
				c0.752-0.831,1.358-1.783,1.792-2.817c0.911-2.065,0.911-4.418,0-6.483C92.772,354.113,92.164,353.157,91.392,352.341z"/>
			<path d="M82.091,400.384c2.065,0.911,4.418,0.911,6.483,0c1.034-0.434,1.986-1.04,2.817-1.792
				c1.603-1.607,2.495-3.789,2.475-6.059c-0.033-2.259-0.917-4.422-2.475-6.059c-0.425-0.341-0.859-0.683-1.284-1.025
				c-0.474-0.324-0.99-0.582-1.533-0.767c-0.484-0.245-1-0.419-1.533-0.517c-1.125-0.25-2.292-0.25-3.417,0
				c-0.534,0.096-1.05,0.27-1.533,0.517c-0.546,0.184-1.065,0.442-1.542,0.767l-1.275,1.025c-1.561,1.634-2.445,3.799-2.475,6.059
				c-0.023,2.27,0.869,4.454,2.475,6.059C80.104,399.346,81.057,399.952,82.091,400.384z"/>
			<path d="M91.392,420.608c-0.419-0.387-0.877-0.731-1.367-1.025c-0.434-0.339-0.925-0.599-1.45-0.767
				c-0.51-0.259-1.059-0.433-1.625-0.517c-1.633-0.343-3.334-0.162-4.858,0.517c-1.045,0.412-2.001,1.02-2.817,1.792
				c-0.754,0.829-1.36,1.782-1.792,2.817c-1.524,3.573-0.442,7.725,2.631,10.1c3.074,2.375,7.364,2.375,10.437,0
				c3.074-2.375,4.155-6.527,2.631-10.1C92.752,422.39,92.146,421.438,91.392,420.608z"/>
			<path d="M114.694,263.115c2.376,1.584,5.39,1.86,8.014,0.735c1.034-0.434,1.986-1.04,2.817-1.792
				c2.444-2.441,3.154-6.125,1.792-9.3c-0.412-1.045-1.02-2.001-1.792-2.817c-0.831-0.752-1.783-1.358-2.817-1.792
				c-1.556-0.684-3.286-0.865-4.95-0.517c-0.534,0.096-1.05,0.271-1.533,0.517c-0.546,0.184-1.065,0.442-1.542,0.767l-1.276,1.025
				c-0.754,0.829-1.36,1.782-1.792,2.817c-0.48,1.012-0.714,2.123-0.683,3.242C110.904,258.855,112.318,261.532,114.694,263.115z"/>
			<path d="M122.739,282.203c-3.202-1.329-6.89-0.59-9.331,1.872c-1.561,1.634-2.445,3.799-2.475,6.059
				c-0.023,2.27,0.869,4.454,2.475,6.059c0.829,0.754,1.782,1.36,2.817,1.792c2.065,0.911,4.418,0.911,6.483,0
				c1.034-0.434,1.986-1.04,2.817-1.792c1.603-1.607,2.494-3.789,2.475-6.059C128.02,286.667,125.941,283.532,122.739,282.203z"/>
			<path d="M116.163,332.241c3.204,1.345,6.905,0.613,9.355-1.851c2.451-2.464,3.162-6.169,1.799-9.365
				c-0.411-1.045-1.02-2.001-1.791-2.817c-2.455-2.417-6.122-3.124-9.3-1.792c-2.143,0.777-3.831,2.465-4.608,4.608
				c-0.481,1.012-0.715,2.123-0.684,3.243C110.89,327.742,112.959,330.896,116.163,332.241z"/>
			<path d="M125.525,352.341c-3.421-3.158-8.695-3.158-12.117,0c-0.772,0.816-1.38,1.772-1.792,2.817
				c-0.48,1.012-0.715,2.123-0.683,3.242c-0.018,1.109,0.183,2.21,0.592,3.242c0.5,1.018,1.133,1.966,1.883,2.817
				c3.365,3.3,8.752,3.3,12.117,0c0.752-0.831,1.358-1.783,1.792-2.817c0.911-2.065,0.911-4.418,0-6.483
				C126.905,354.114,126.297,353.157,125.525,352.341z"/>
			<path d="M116.225,384.683c-1.045,0.412-2.001,1.02-2.817,1.792c-1.561,1.634-2.445,3.798-2.475,6.058
				c-0.03,2.855,1.385,5.532,3.761,7.115c2.376,1.584,5.39,1.86,8.014,0.735c1.034-0.434,1.986-1.04,2.817-1.792
				c1.602-1.607,2.494-3.789,2.475-6.058c-0.033-2.259-0.917-4.422-2.475-6.059C123.05,384.095,119.407,383.394,116.225,384.683z"/>
			<path d="M125.525,420.608c-0.419-0.387-0.877-0.731-1.367-1.025c-0.434-0.339-0.925-0.599-1.45-0.767
				c-0.51-0.259-1.059-0.433-1.625-0.517c-2.783-0.544-5.655,0.32-7.676,2.308c-0.752,0.85-1.385,1.797-1.883,2.817
				c-0.408,1.031-0.609,2.133-0.591,3.242c-0.008,2.267,0.882,4.445,2.475,6.059c0.829,0.754,1.782,1.36,2.817,1.792
				c2.065,0.911,4.418,0.911,6.483,0c1.034-0.434,1.986-1.04,2.817-1.792c2.444-2.441,3.154-6.125,1.792-9.3
				C126.885,422.391,126.279,421.438,125.525,420.608z"/>
			<path d="M156.841,263.85c1.034-0.434,1.986-1.04,2.817-1.792c2.444-2.441,3.154-6.125,1.792-9.3
				c-0.431-1.034-1.037-1.987-1.791-2.816c-0.425-0.341-0.858-0.683-1.283-1.025c-0.474-0.324-0.99-0.582-1.533-0.767
				c-0.484-0.245-1-0.419-1.533-0.517c-2.812-0.571-5.724,0.294-7.767,2.308c-0.772,0.816-1.38,1.772-1.792,2.817
				c-1.362,3.175-0.653,6.859,1.79,9.302C149.982,264.502,153.666,265.211,156.841,263.85z"/>
			<path d="M148.827,297.249c2.376,1.584,5.39,1.86,8.014,0.735c1.034-0.434,1.986-1.04,2.817-1.792
				c1.603-1.607,2.494-3.789,2.475-6.058c-0.033-2.259-0.917-4.422-2.475-6.059c-0.419-0.387-0.878-0.731-1.367-1.025
				c-0.434-0.339-0.925-0.599-1.45-0.767c-0.51-0.259-1.059-0.433-1.625-0.517c-1.633-0.343-3.333-0.162-4.858,0.517
				c-1.045,0.412-2.001,1.02-2.817,1.792c-1.561,1.634-2.445,3.798-2.475,6.058C145.037,292.988,146.452,295.665,148.827,297.249z"
				/>
			<path d="M158.292,317.183c-0.434-0.339-0.925-0.599-1.45-0.767c-0.51-0.259-1.059-0.433-1.625-0.517
				c-1.094-0.25-2.231-0.25-3.325,0c-0.534,0.096-1.05,0.27-1.533,0.517c-0.546,0.184-1.065,0.442-1.542,0.767l-1.276,1.025
				c-0.772,0.816-1.38,1.772-1.792,2.817c-1.362,3.175-0.652,6.859,1.792,9.301c0.816,0.772,1.772,1.38,2.817,1.792
				c2.065,0.911,4.418,0.911,6.483,0c1.034-0.434,1.986-1.04,2.817-1.792c2.444-2.441,3.154-6.125,1.792-9.3
				c-0.411-1.045-1.02-2.001-1.791-2.817C159.234,317.867,158.8,317.525,158.292,317.183z"/>
			<path d="M159.659,352.341c-3.421-3.158-8.695-3.158-12.117,0c-0.772,0.816-1.38,1.772-1.792,2.817
				c-0.911,2.065-0.911,4.418,0,6.483c0.434,1.034,1.04,1.986,1.792,2.817c3.365,3.3,8.752,3.3,12.117,0
				c0.752-0.831,1.358-1.783,1.792-2.817c0.911-2.065,0.911-4.418,0-6.483C161.039,354.113,160.431,353.157,159.659,352.341z"/>
			<path d="M158.292,385.45c-0.434-0.339-0.925-0.599-1.45-0.767c-0.51-0.259-1.059-0.433-1.625-0.517
				c-2.783-0.558-5.661,0.308-7.675,2.308c-1.561,1.634-2.445,3.799-2.475,6.059c-0.023,2.27,0.869,4.454,2.475,6.059
				c0.829,0.754,1.782,1.36,2.817,1.792c2.065,0.911,4.418,0.911,6.483,0c2.143-0.777,3.831-2.465,4.608-4.608
				c0.438-1.026,0.67-2.127,0.684-3.243c-0.033-2.259-0.917-4.422-2.475-6.059C159.233,386.133,158.8,385.792,158.292,385.45z"/>
			<path d="M159.659,420.608c-0.419-0.387-0.877-0.731-1.367-1.025c-0.434-0.339-0.925-0.599-1.45-0.767
				c-0.51-0.259-1.059-0.433-1.625-0.517c-1.094-0.25-2.231-0.25-3.325,0c-0.534,0.096-1.05,0.27-1.533,0.517
				c-0.546,0.184-1.065,0.442-1.542,0.767c-0.445,0.316-0.871,0.658-1.276,1.025c-0.754,0.829-1.36,1.782-1.792,2.817
				c-0.48,1.012-0.714,2.123-0.683,3.242c-0.023,2.27,0.869,4.454,2.475,6.059c0.829,0.754,1.782,1.36,2.817,1.792
				c2.065,0.911,4.418,0.911,6.483,0c1.034-0.434,1.986-1.04,2.817-1.792c2.444-2.441,3.154-6.125,1.792-9.3
				C161.019,422.391,160.413,421.438,159.659,420.608z"/>
			<path d="M184.491,263.851c2.065,0.911,4.418,0.911,6.483,0c1.034-0.434,1.986-1.04,2.817-1.792
				c2.444-2.441,3.154-6.125,1.792-9.3c-0.431-1.035-1.037-1.988-1.791-2.817c-3.421-3.158-8.695-3.158-12.117,0
				c-0.754,0.829-1.36,1.782-1.792,2.817c-1.362,3.175-0.653,6.859,1.791,9.301C182.504,262.813,183.457,263.419,184.491,263.851z"
				/>
			<path d="M181.675,284.075c-1.561,1.634-2.445,3.799-2.475,6.059c-0.031,1.119,0.203,2.23,0.683,3.242
				c0.434,1.034,1.04,1.986,1.792,2.817c2.441,2.461,6.129,3.201,9.33,1.871c3.202-1.329,5.281-4.463,5.261-7.93
				c-0.016-2.262-0.902-4.432-2.475-6.059C190.37,280.916,185.096,280.916,181.675,284.075z"/>
			<path d="M184.491,332.117c2.065,0.911,4.418,0.911,6.483,0c1.034-0.434,1.986-1.04,2.817-1.792
				c2.444-2.441,3.154-6.125,1.792-9.3c-0.411-1.045-1.019-2.001-1.791-2.817c-3.421-3.158-8.695-3.158-12.117,0
				c-0.772,0.816-1.38,1.772-1.792,2.817c-1.362,3.175-0.653,6.859,1.791,9.301C182.504,331.08,183.457,331.686,184.491,332.117z"/>
			<path d="M179.792,361.642c0.47,1.035,1.106,1.987,1.883,2.817c0.829,0.754,1.782,1.36,2.817,1.792
				c2.065,0.911,4.418,0.911,6.483,0c2.143-0.777,3.831-2.465,4.608-4.608c0.911-2.065,0.911-4.418,0-6.483
				c-0.411-1.045-1.019-2.002-1.791-2.818c-0.419-0.387-0.877-0.731-1.367-1.025c-0.434-0.339-0.925-0.599-1.45-0.767
				c-0.51-0.259-1.059-0.433-1.625-0.517c-2.783-0.558-5.662,0.308-7.676,2.308c-0.772,0.816-1.38,1.772-1.792,2.817
				c-0.48,1.012-0.714,2.123-0.683,3.242C179.182,359.509,179.383,360.61,179.792,361.642z"/>
			<path d="M192.508,385.45c-0.474-0.324-0.99-0.582-1.533-0.767c-0.484-0.245-1-0.419-1.533-0.517c-1.125-0.25-2.292-0.25-3.417,0
				c-0.534,0.096-1.05,0.27-1.533,0.517c-0.546,0.184-1.065,0.442-1.542,0.767l-1.275,1.025c-1.561,1.634-2.445,3.799-2.475,6.059
				c-0.023,2.27,0.869,4.454,2.475,6.059c0.829,0.754,1.782,1.36,2.817,1.792c2.065,0.911,4.418,0.911,6.483,0
				c1.034-0.434,1.986-1.04,2.817-1.792c1.603-1.607,2.495-3.789,2.475-6.059c-0.033-2.259-0.917-4.422-2.475-6.059
				C193.367,386.133,192.933,385.792,192.508,385.45z"/>
			<path d="M193.792,420.608c-0.831-0.752-1.783-1.358-2.817-1.792c-1.556-0.684-3.286-0.865-4.95-0.517
				c-0.534,0.096-1.05,0.271-1.533,0.517c-0.546,0.184-1.065,0.442-1.542,0.767c-0.445,0.316-0.871,0.659-1.276,1.025
				c-0.754,0.829-1.36,1.782-1.792,2.817c-0.48,1.012-0.714,2.123-0.683,3.242c-0.023,2.27,0.869,4.454,2.475,6.059
				c0.829,0.754,1.782,1.36,2.817,1.792c2.065,0.911,4.418,0.911,6.483,0c2.143-0.777,3.831-2.465,4.608-4.608
				c0.911-2.065,0.911-4.418,0-6.483C195.152,422.391,194.546,421.438,193.792,420.608z"/>
			<path d="M218.625,263.851c2.065,0.911,4.418,0.911,6.483,0c1.034-0.434,1.986-1.04,2.817-1.792
				c2.444-2.441,3.154-6.125,1.792-9.3c-0.431-1.035-1.037-1.988-1.791-2.817c-3.421-3.158-8.695-3.158-12.117,0
				c-0.754,0.829-1.36,1.782-1.792,2.817c-1.362,3.175-0.653,6.859,1.791,9.301C216.637,262.813,217.59,263.419,218.625,263.851z"/>
			<path d="M221.867,298.667c4.713,0,8.533-3.82,8.533-8.533c-0.033-2.259-0.917-4.422-2.475-6.059
				c-0.419-0.387-0.878-0.731-1.367-1.025c-0.434-0.339-0.925-0.599-1.45-0.767c-0.51-0.259-1.059-0.433-1.625-0.517
				c-1.094-0.25-2.231-0.25-3.325,0c-0.534,0.096-1.05,0.271-1.533,0.517c-0.546,0.184-1.065,0.442-1.542,0.767
				c-0.445,0.316-0.871,0.658-1.275,1.025c-1.561,1.634-2.445,3.799-2.475,6.059C213.333,294.846,217.154,298.667,221.867,298.667z"
				/>
			<path d="M218.563,332.241c3.204,1.345,6.905,0.613,9.355-1.851c2.451-2.464,3.162-6.169,1.799-9.365
				c-0.411-1.045-1.02-2.001-1.791-2.817c-3.421-3.158-8.695-3.158-12.117,0c-0.772,0.816-1.38,1.772-1.792,2.817
				c-0.48,1.012-0.715,2.123-0.683,3.242C213.29,327.742,215.359,330.896,218.563,332.241z"/>
			<path d="M227.925,352.341c-3.421-3.158-8.695-3.158-12.117,0c-0.772,0.816-1.38,1.772-1.792,2.817
				c-0.911,2.065-0.911,4.418,0,6.483c0.434,1.034,1.04,1.986,1.792,2.817c0.829,0.754,1.782,1.36,2.817,1.792
				c3.174,1.362,6.859,0.652,9.3-1.791c0.752-0.831,1.358-1.783,1.792-2.817c0.911-2.065,0.911-4.418,0-6.483
				C229.306,354.114,228.697,353.157,227.925,352.341z"/>
			<path d="M218.625,384.683c-1.045,0.412-2.001,1.02-2.817,1.792c-1.561,1.634-2.445,3.798-2.475,6.058
				c-0.03,2.855,1.385,5.532,3.761,7.115c2.376,1.584,5.39,1.86,8.014,0.735c1.034-0.434,1.986-1.04,2.817-1.792
				c1.603-1.607,2.494-3.789,2.475-6.058c-0.033-2.259-0.917-4.422-2.475-6.059C225.45,384.095,221.807,383.394,218.625,384.683z"/>
			<path d="M220.158,418.3c-0.534,0.096-1.05,0.27-1.533,0.517c-0.546,0.184-1.065,0.442-1.542,0.767
				c-0.445,0.316-0.871,0.658-1.275,1.025c-0.754,0.829-1.36,1.782-1.792,2.817c-0.911,2.065-0.911,4.418,0,6.483
				c0.434,1.034,1.04,1.986,1.792,2.817c2.441,2.444,6.125,3.154,9.3,1.792c1.034-0.434,1.986-1.04,2.817-1.792
				c1.603-1.607,2.494-3.789,2.475-6.058c-0.033-2.259-0.917-4.422-2.475-6.059C225.875,418.606,222.969,417.742,220.158,418.3z"/>
			<path d="M252.758,263.851c2.065,0.911,4.418,0.911,6.483,0c1.034-0.434,1.986-1.04,2.817-1.792
				c2.444-2.441,3.154-6.125,1.792-9.3c-0.431-1.035-1.037-1.988-1.791-2.817c-3.421-3.158-8.695-3.158-12.117,0
				c-0.754,0.829-1.36,1.782-1.792,2.817c-1.362,3.175-0.653,6.859,1.791,9.301C250.771,262.813,251.723,263.419,252.758,263.851z"
				/>
			<path d="M259.242,282.283c-3.177-1.342-6.849-0.634-9.3,1.792c-1.561,1.634-2.445,3.798-2.475,6.058
				c-0.023,2.27,0.869,4.454,2.475,6.059c0.829,0.754,1.782,1.36,2.817,1.792c2.624,1.124,5.638,0.847,8.013-0.737
				c2.375-1.584,3.79-4.259,3.762-7.114c-0.033-2.259-0.917-4.422-2.475-6.059C261.228,283.322,260.275,282.717,259.242,282.283z"/>
			<path d="M252.758,332.117c3.175,1.362,6.859,0.653,9.302-1.79c2.443-2.443,3.152-6.127,1.79-9.302
				c-0.411-1.045-1.019-2.002-1.791-2.818c-2.044-2.013-4.955-2.878-7.767-2.308c-0.534,0.096-1.05,0.27-1.533,0.517
				c-0.546,0.184-1.065,0.442-1.542,0.767l-1.276,1.025c-0.772,0.816-1.38,1.772-1.792,2.817c-1.362,3.175-0.652,6.859,1.792,9.301
				C250.757,331.097,251.713,331.706,252.758,332.117z"/>
			<path d="M248.058,361.642c0.47,1.035,1.106,1.987,1.883,2.817c0.829,0.754,1.782,1.36,2.817,1.792
				c2.065,0.911,4.418,0.911,6.483,0c2.143-0.777,3.831-2.465,4.608-4.608c0.911-2.065,0.911-4.418,0-6.483
				c-0.411-1.045-1.019-2.002-1.791-2.818c-0.419-0.387-0.877-0.731-1.367-1.025c-0.434-0.339-0.925-0.599-1.45-0.767
				c-0.51-0.259-1.059-0.433-1.625-0.517c-2.783-0.558-5.662,0.308-7.676,2.308c-0.772,0.816-1.38,1.772-1.792,2.817
				c-0.48,1.012-0.714,2.123-0.683,3.242C247.449,359.509,247.65,360.61,248.058,361.642z"/>
			<path d="M260.692,385.45c-0.434-0.339-0.925-0.599-1.45-0.767c-0.51-0.259-1.059-0.433-1.625-0.517
				c-2.783-0.558-5.661,0.308-7.675,2.308c-1.561,1.634-2.445,3.799-2.475,6.059c-0.023,2.27,0.869,4.454,2.475,6.059
				c0.829,0.754,1.782,1.36,2.817,1.792c2.065,0.911,4.418,0.911,6.483,0c2.143-0.777,3.831-2.465,4.608-4.608
				c0.438-1.026,0.67-2.127,0.684-3.243c-0.033-2.259-0.917-4.422-2.475-6.059C261.633,386.133,261.2,385.792,260.692,385.45z"/>
			<path d="M252.758,418.816c-1.045,0.412-2.001,1.02-2.817,1.792c-0.754,0.829-1.36,1.782-1.792,2.817
				c-1.523,3.734-0.216,8.023,3.13,10.274c3.346,2.251,7.811,1.844,10.696-0.973c1.658-1.576,2.585-3.771,2.558-6.059
				c-0.045-2.273-0.961-4.441-2.558-6.059C259.561,418.177,255.907,417.466,252.758,418.816z"/>
			<path d="M293.374,263.85c1.034-0.434,1.986-1.04,2.817-1.792c2.444-2.441,3.154-6.125,1.792-9.3
				c-0.431-1.034-1.037-1.987-1.791-2.816c-2.044-2.013-4.955-2.878-7.767-2.308c-0.534,0.096-1.05,0.27-1.533,0.517
				c-0.546,0.184-1.065,0.442-1.542,0.767l-1.276,1.025c-0.754,0.829-1.36,1.782-1.792,2.817c-1.362,3.175-0.653,6.859,1.79,9.302
				C286.515,264.502,290.199,265.211,293.374,263.85z"/>
			<path d="M286.891,297.984c2.065,0.911,4.418,0.911,6.483,0c1.034-0.434,1.986-1.04,2.817-1.792
				c1.603-1.607,2.494-3.789,2.475-6.059c-0.033-2.259-0.917-4.422-2.475-6.059c-2.456-2.417-6.123-3.124-9.3-1.791
				c-1.045,0.412-2.001,1.02-2.817,1.792c-1.561,1.634-2.445,3.798-2.475,6.058c-0.023,2.27,0.869,4.454,2.475,6.059
				C284.904,296.946,285.857,297.552,286.891,297.984z"/>
			<path d="M286.891,332.117c2.065,0.911,4.418,0.911,6.483,0c1.034-0.434,1.986-1.04,2.817-1.792
				c2.444-2.441,3.154-6.125,1.792-9.3c-0.411-1.045-1.02-2.001-1.791-2.817c-2.455-2.417-6.122-3.124-9.3-1.792
				c-2.143,0.777-3.831,2.465-4.608,4.608c-0.481,1.012-0.715,2.123-0.684,3.243c-0.023,2.27,0.869,4.454,2.475,6.059
				C284.904,331.08,285.857,331.686,286.891,332.117z"/>
			<path d="M296.192,352.341c-0.419-0.387-0.877-0.731-1.367-1.025c-0.434-0.339-0.925-0.599-1.45-0.767
				c-0.51-0.259-1.059-0.433-1.625-0.517c-2.783-0.558-5.662,0.308-7.676,2.308c-0.772,0.816-1.38,1.772-1.792,2.817
				c-0.911,2.065-0.911,4.418,0,6.483c0.434,1.034,1.04,1.986,1.792,2.817c0.829,0.754,1.782,1.36,2.817,1.792
				c3.175,1.362,6.859,0.653,9.301-1.791c0.752-0.831,1.358-1.783,1.792-2.817c0.911-2.065,0.911-4.418,0-6.483
				C297.572,354.114,296.964,353.157,296.192,352.341z"/>
			<path d="M288.425,384.167c-0.534,0.096-1.05,0.27-1.533,0.517c-0.546,0.184-1.065,0.442-1.542,0.767l-1.275,1.025
				c-1.561,1.634-2.445,3.799-2.475,6.059c-0.023,2.27,0.869,4.454,2.475,6.059c0.829,0.754,1.782,1.36,2.817,1.792
				c2.065,0.911,4.418,0.911,6.483,0c1.034-0.434,1.986-1.04,2.817-1.792c1.603-1.607,2.494-3.789,2.475-6.059
				c-0.033-2.259-0.917-4.422-2.475-6.059C294.148,384.462,291.237,383.597,288.425,384.167z"/>
			<path d="M296.192,420.608c-0.419-0.387-0.877-0.731-1.367-1.025c-0.434-0.339-0.925-0.599-1.45-0.767
				c-0.484-0.245-1-0.419-1.533-0.517c-1.664-0.348-3.394-0.167-4.95,0.517c-1.045,0.412-2.001,1.02-2.817,1.792
				c-0.754,0.829-1.36,1.782-1.792,2.817c-1.362,3.175-0.653,6.859,1.791,9.3c0.816,0.772,1.772,1.38,2.817,1.792
				c2.065,0.911,4.418,0.911,6.483,0c2.143-0.777,3.831-2.465,4.608-4.608c0.911-2.065,0.911-4.418,0-6.483
				C297.552,422.391,296.946,421.438,296.192,420.608z"/>
			<path d="M330.325,249.941c-0.425-0.341-0.858-0.683-1.367-1.025c-0.434-0.339-0.925-0.599-1.45-0.767
				c-0.51-0.259-1.059-0.433-1.625-0.517c-1.633-0.343-3.334-0.162-4.858,0.517c-2.143,0.777-3.831,2.465-4.608,4.608
				c-1.337,3.189-0.615,6.87,1.828,9.318c2.443,2.447,6.123,3.176,9.315,1.844c3.191-1.332,5.261-4.461,5.24-7.919
				c0.027-1.119-0.207-2.229-0.683-3.242C331.685,251.724,331.079,250.771,330.325,249.941z"/>
			<path d="M328.958,283.05c-0.434-0.339-0.925-0.599-1.45-0.767c-0.51-0.259-1.059-0.433-1.625-0.517
				c-2.783-0.558-5.661,0.308-7.675,2.308c-1.561,1.634-2.445,3.799-2.475,6.059c0,4.713,3.82,8.533,8.533,8.533
				s8.533-3.82,8.533-8.533c-0.033-2.259-0.917-4.422-2.475-6.059C329.906,283.687,329.448,283.344,328.958,283.05z"/>
			<path d="M330.325,318.208c-0.425-0.341-0.858-0.683-1.367-1.025c-0.434-0.339-0.925-0.599-1.45-0.767
				c-0.51-0.259-1.059-0.433-1.625-0.517c-2.783-0.558-5.662,0.308-7.676,2.308c-0.77,0.836-1.405,1.786-1.883,2.817
				c-0.789,2.089-0.789,4.394,0,6.483c0.5,1.018,1.133,1.966,1.883,2.817c2.441,2.444,6.125,3.154,9.3,1.792
				c1.034-0.434,1.986-1.04,2.817-1.792c2.444-2.441,3.154-6.125,1.792-9.3C331.705,319.98,331.097,319.024,330.325,318.208z"/>
			<path d="M327.509,350.549c-2.059-0.942-4.425-0.942-6.483,0c-2.143,0.777-3.831,2.465-4.608,4.608
				c-0.481,1.012-0.715,2.123-0.684,3.243c-0.018,1.109,0.183,2.21,0.592,3.242c0.47,1.035,1.106,1.987,1.883,2.817
				c0.829,0.754,1.782,1.36,2.817,1.792c2.065,0.911,4.418,0.911,6.483,0c2.143-0.777,3.831-2.465,4.608-4.608
				c0.911-2.065,0.911-4.418,0-6.483c-0.411-1.045-1.019-2.002-1.791-2.818C329.495,351.589,328.542,350.983,327.509,350.549z"/>
			<path d="M321.025,384.683c-1.045,0.412-2.001,1.02-2.817,1.792c-1.561,1.634-2.445,3.798-2.475,6.058
				c-0.03,2.855,1.385,5.532,3.761,7.115c2.376,1.584,5.39,1.86,8.014,0.735c1.034-0.434,1.986-1.04,2.817-1.792
				c1.603-1.607,2.494-3.789,2.475-6.058c-0.033-2.259-0.917-4.422-2.475-6.059C327.85,384.095,324.207,383.394,321.025,384.683z"/>
			<path d="M330.325,420.608c-0.419-0.387-0.877-0.731-1.367-1.025c-0.434-0.339-0.925-0.599-1.45-0.767
				c-0.51-0.259-1.059-0.433-1.625-0.517c-1.633-0.343-3.334-0.162-4.858,0.517c-1.045,0.412-2.001,1.02-2.817,1.792
				c-0.754,0.829-1.36,1.782-1.792,2.817c-0.48,1.011-0.715,2.122-0.683,3.242c-0.018,1.109,0.183,2.211,0.592,3.242
				c0.47,1.035,1.106,1.987,1.883,2.817c0.829,0.754,1.782,1.36,2.817,1.792c2.065,0.911,4.418,0.911,6.483,0
				c1.034-0.434,1.986-1.04,2.817-1.792c2.444-2.441,3.154-6.125,1.792-9.3C331.685,422.391,331.079,421.438,330.325,420.608z"/>
			<path d="M353.627,263.115c2.376,1.584,5.39,1.86,8.014,0.735c1.034-0.434,1.986-1.04,2.817-1.792
				c2.444-2.441,3.154-6.125,1.792-9.3c-0.412-1.045-1.02-2.001-1.792-2.817c-2.455-2.417-6.122-3.124-9.3-1.792
				c-1.045,0.412-2.001,1.02-2.817,1.792c-0.754,0.829-1.36,1.782-1.792,2.817c-0.48,1.012-0.715,2.122-0.683,3.242
				C349.837,258.855,351.252,261.532,353.627,263.115z"/>
			<path d="M358.4,298.667c4.713,0,8.533-3.82,8.533-8.533c-0.033-2.259-0.917-4.422-2.475-6.059
				c-2.044-2.013-4.955-2.878-7.767-2.308c-0.534,0.096-1.05,0.271-1.533,0.517c-0.546,0.184-1.065,0.442-1.542,0.767
				c-0.445,0.316-0.871,0.658-1.275,1.025c-1.576,1.625-2.462,3.795-2.475,6.059C349.867,294.846,353.687,298.667,358.4,298.667z"/>
			<path d="M364.459,318.208c-2.044-2.013-4.955-2.878-7.767-2.308c-0.534,0.096-1.05,0.27-1.533,0.517
				c-0.546,0.184-1.065,0.442-1.542,0.767l-1.276,1.025c-0.772,0.816-1.38,1.772-1.792,2.817c-1.362,3.175-0.652,6.859,1.792,9.301
				c0.829,0.754,1.782,1.36,2.817,1.792c3.175,1.362,6.859,0.652,9.301-1.792c0.752-0.831,1.358-1.783,1.792-2.817
				c0.911-2.065,0.911-4.418,0-6.483C365.839,319.98,365.231,319.024,364.459,318.208z"/>
			<path d="M364.459,352.341c-0.419-0.387-0.877-0.731-1.367-1.025c-0.434-0.339-0.925-0.599-1.45-0.767
				c-0.51-0.259-1.059-0.433-1.625-0.517c-1.094-0.25-2.231-0.25-3.325,0c-0.534,0.096-1.05,0.27-1.533,0.517
				c-0.546,0.184-1.065,0.442-1.542,0.767c-0.445,0.316-0.871,0.658-1.276,1.025c-0.772,0.816-1.38,1.772-1.792,2.817
				c-0.911,2.065-0.911,4.418,0,6.483c0.434,1.034,1.04,1.986,1.792,2.817c0.829,0.754,1.782,1.36,2.817,1.792
				c3.175,1.362,6.859,0.653,9.301-1.791c0.752-0.831,1.358-1.783,1.792-2.817c0.911-2.065,0.911-4.418,0-6.483
				C365.839,354.114,365.231,353.157,364.459,352.341z"/>
			<path d="M363.092,385.45c-0.434-0.339-0.925-0.599-1.45-0.767c-0.51-0.259-1.059-0.433-1.625-0.517
				c-2.783-0.558-5.661,0.308-7.675,2.308c-1.561,1.634-2.445,3.799-2.475,6.059c-0.023,2.27,0.869,4.454,2.475,6.059
				c0.829,0.754,1.782,1.36,2.817,1.792c2.065,0.911,4.418,0.911,6.483,0c1.034-0.434,1.986-1.04,2.817-1.792
				c1.603-1.607,2.494-3.789,2.475-6.059c-0.033-2.259-0.917-4.422-2.475-6.059C364.033,386.133,363.6,385.792,363.092,385.45z"/>
			<path d="M364.459,420.608c-0.407-0.367-0.836-0.709-1.283-1.025c-0.474-0.324-0.99-0.582-1.533-0.767
				c-0.51-0.259-1.059-0.433-1.625-0.517c-1.094-0.25-2.231-0.25-3.325,0c-0.534,0.096-1.05,0.27-1.533,0.517
				c-0.546,0.184-1.065,0.442-1.542,0.767c-0.445,0.316-0.871,0.658-1.276,1.025c-0.754,0.829-1.36,1.782-1.792,2.817
				c-0.48,1.012-0.714,2.123-0.683,3.242c-0.023,2.27,0.869,4.454,2.475,6.059c0.829,0.754,1.782,1.36,2.817,1.792
				c2.065,0.911,4.418,0.911,6.483,0c1.034-0.434,1.986-1.04,2.817-1.792c2.444-2.441,3.154-6.125,1.792-9.3
				C365.819,422.391,365.213,421.438,364.459,420.608z"/>
			<path d="M398.592,249.941c-2.017-2-4.898-2.866-7.683-2.308c-0.563,0.083-1.109,0.258-1.617,0.517
				c-0.546,0.184-1.065,0.442-1.542,0.767l-1.276,1.025c-0.754,0.829-1.36,1.782-1.792,2.817c-0.48,1.012-0.714,2.123-0.683,3.242
				c0.014,3.45,2.096,6.556,5.282,7.879c3.187,1.323,6.856,0.606,9.31-1.82c1.589-1.616,2.478-3.792,2.475-6.059
				c-0.014-1.115-0.246-2.216-0.683-3.242C399.952,251.724,399.346,250.771,398.592,249.941z"/>
			<path d="M395.806,282.203c-3.202-1.329-6.89-0.59-9.331,1.872c-1.561,1.634-2.445,3.799-2.475,6.059
				c-0.023,2.27,0.869,4.454,2.475,6.059c0.829,0.754,1.782,1.36,2.817,1.792c2.624,1.124,5.638,0.847,8.014-0.737
				c2.375-1.584,3.79-4.259,3.762-7.114C401.087,286.667,399.008,283.532,395.806,282.203z"/>
			<path d="M389.23,332.241c3.204,1.345,6.905,0.613,9.355-1.851c2.451-2.464,3.162-6.169,1.799-9.365
				c-0.411-1.045-1.02-2.001-1.791-2.817c-0.425-0.341-0.858-0.683-1.283-1.025c-0.474-0.324-0.99-0.582-1.533-0.767
				c-0.484-0.245-1-0.419-1.533-0.517c-1.664-0.348-3.394-0.167-4.95,0.517c-2.143,0.777-3.831,2.465-4.608,4.608
				c-0.481,1.012-0.715,2.123-0.684,3.242C383.957,327.742,386.025,330.896,389.23,332.241z"/>
			<path d="M398.592,352.341c-2.455-2.417-6.122-3.124-9.3-1.792c-2.143,0.777-3.831,2.465-4.608,4.608
				c-0.481,1.012-0.715,2.123-0.684,3.243c-0.018,1.109,0.183,2.21,0.592,3.242c0.47,1.035,1.106,1.987,1.883,2.817
				c0.829,0.754,1.782,1.36,2.817,1.792c2.065,0.911,4.418,0.911,6.483,0c1.034-0.434,1.986-1.04,2.817-1.792
				c1.589-1.616,2.479-3.792,2.475-6.059c-0.014-1.115-0.246-2.216-0.683-3.242C399.972,354.113,399.364,353.157,398.592,352.341z"
				/>
			<path d="M390.825,384.167c-0.534,0.096-1.05,0.27-1.533,0.517c-0.547,0.184-1.065,0.442-1.542,0.767l-1.275,1.025
				c-1.561,1.634-2.445,3.799-2.475,6.059c-0.023,2.27,0.869,4.454,2.475,6.059c0.829,0.754,1.782,1.36,2.817,1.792
				c2.065,0.911,4.418,0.911,6.483,0c1.034-0.434,1.986-1.04,2.817-1.792c1.603-1.607,2.495-3.789,2.475-6.059
				c-0.033-2.259-0.917-4.422-2.475-6.059C396.548,384.462,393.637,383.597,390.825,384.167z"/>
			<path d="M398.592,420.608c-2.05-2.002-4.956-2.866-7.767-2.308c-0.534,0.096-1.05,0.27-1.533,0.517
				c-0.546,0.184-1.065,0.442-1.542,0.767c-0.445,0.316-0.871,0.658-1.276,1.025c-0.754,0.829-1.36,1.782-1.792,2.817
				c-0.48,1.012-0.714,2.123-0.683,3.242c-0.023,2.27,0.869,4.454,2.475,6.059c0.816,0.772,1.772,1.38,2.817,1.792
				c2.065,0.911,4.418,0.911,6.483,0c1.034-0.434,1.986-1.04,2.817-1.792c1.589-1.616,2.479-3.792,2.475-6.059
				c0.027-1.119-0.207-2.229-0.683-3.242C399.952,422.39,399.346,421.438,398.592,420.608z"/>
			<path d="M423.363,263.975c3.204,1.345,6.905,0.613,9.355-1.851c2.451-2.464,3.162-6.169,1.799-9.365
				c-0.431-1.035-1.037-1.987-1.791-2.817c-3.421-3.158-8.695-3.158-12.117,0c-0.754,0.829-1.36,1.782-1.792,2.817
				c-0.48,1.012-0.715,2.122-0.683,3.242C418.09,259.475,420.159,262.629,423.363,263.975z"/>
			<path d="M423.425,297.984c2.065,0.911,4.418,0.911,6.483,0c1.034-0.434,1.986-1.04,2.817-1.792
				c1.603-1.607,2.494-3.789,2.475-6.059c-0.033-2.259-0.917-4.422-2.475-6.059c-2.044-2.013-4.955-2.878-7.767-2.308
				c-0.534,0.096-1.05,0.271-1.533,0.517c-0.546,0.184-1.065,0.442-1.542,0.767c-0.445,0.316-0.871,0.658-1.275,1.025
				c-1.576,1.625-2.462,3.795-2.475,6.059c-0.023,2.27,0.869,4.454,2.475,6.059C421.437,296.946,422.39,297.552,423.425,297.984z"/>
			<path d="M431.359,317.183c-0.434-0.339-0.925-0.599-1.45-0.767c-0.51-0.259-1.059-0.433-1.625-0.517
				c-2.783-0.558-5.662,0.308-7.676,2.308c-0.772,0.816-1.38,1.772-1.792,2.817c-1.362,3.175-0.652,6.859,1.792,9.301
				c0.829,0.754,1.782,1.36,2.817,1.792c3.175,1.362,6.859,0.653,9.302-1.79c2.443-2.443,3.152-6.127,1.79-9.302
				c-0.411-1.045-1.019-2.002-1.791-2.818C432.3,317.867,431.867,317.525,431.359,317.183z"/>
			<path d="M432.725,352.341c-0.419-0.387-0.877-0.731-1.367-1.025c-0.434-0.339-0.925-0.599-1.45-0.767
				c-0.51-0.259-1.059-0.433-1.625-0.517c-1.094-0.25-2.231-0.25-3.325,0c-0.534,0.096-1.05,0.27-1.533,0.517
				c-0.546,0.184-1.065,0.442-1.542,0.767c-0.445,0.316-0.871,0.658-1.276,1.025c-0.772,0.816-1.38,1.772-1.792,2.817
				c-0.911,2.065-0.911,4.418,0,6.483c0.434,1.034,1.04,1.986,1.792,2.817c0.829,0.754,1.782,1.36,2.817,1.792
				c3.175,1.362,6.859,0.653,9.301-1.791c0.752-0.831,1.358-1.783,1.792-2.817c0.911-2.065,0.911-4.418,0-6.483
				C434.106,354.114,433.497,353.157,432.725,352.341z"/>
			<path d="M423.425,384.683c-1.045,0.412-2.001,1.02-2.817,1.792c-1.561,1.634-2.445,3.798-2.475,6.058
				c-0.03,2.855,1.385,5.532,3.761,7.115c2.376,1.584,5.39,1.86,8.014,0.735c1.034-0.434,1.986-1.04,2.817-1.792
				c1.603-1.607,2.494-3.789,2.475-6.058c-0.033-2.259-0.917-4.422-2.475-6.059C430.25,384.095,426.607,383.394,423.425,384.683z"/>
			<path d="M432.725,420.608c-2.023-1.99-4.898-2.854-7.683-2.308c-0.563,0.083-1.109,0.258-1.617,0.517
				c-0.546,0.184-1.065,0.442-1.542,0.767c-0.445,0.316-0.871,0.658-1.276,1.025c-0.754,0.829-1.36,1.782-1.792,2.817
				c-1.524,3.573-0.442,7.725,2.631,10.1c3.074,2.375,7.364,2.375,10.437,0c3.074-2.375,4.155-6.527,2.631-10.1
				C434.085,422.39,433.479,421.438,432.725,420.608z"/>
			<path d="M72.225,176.7c9.996,9.999,26.205,10,36.204,0.004c9.999-9.996,10-26.205,0.004-36.204L94.9,126.967
				c-9.996-9.996-26.204-9.996-36.2,0c-9.996,9.996-9.996,26.204,0,36.2L72.225,176.7z M70.767,139.034
				c3.336-3.322,8.73-3.322,12.067,0l13.533,13.541c1.601,1.598,2.5,3.767,2.5,6.029s-0.899,4.431-2.5,6.029
				c-3.372,3.233-8.694,3.233-12.067,0L70.767,151.1C67.442,147.765,67.442,142.369,70.767,139.034z"/>
			<path d="M421.667,184.2L421.667,184.2c6.793,0.019,13.312-2.682,18.1-7.5l13.533-13.533c6.466-6.466,8.992-15.892,6.625-24.725
				c-2.367-8.833-9.267-15.733-18.1-18.1c-8.833-2.367-18.259,0.159-24.725,6.625l-13.533,13.525
				c-7.322,7.322-9.512,18.333-5.55,27.9C401.978,177.959,411.312,184.198,421.667,184.2z M415.633,152.567L415.633,152.567
				l13.534-13.533c2.149-2.188,5.307-3.055,8.271-2.27c2.965,0.785,5.28,3.1,6.065,6.065c0.785,2.965-0.082,6.122-2.27,8.271
				l-13.541,13.534c-3.373,3.225-8.686,3.225-12.058,0c-1.601-1.6-2.5-3.77-2.5-6.033S414.033,154.167,415.633,152.567z"/>
		</g>
	</g>
</g>
<g>
</g>
<g>
</g>
<g>
</g>
<g>
</g>
<g>
</g>
<g>
</g>
<g>
</g>
<g>
</g>
<g>
</g>
<g>
</g>
<g>
</g>
<g>
</g>
<g>
</g>
<g>
</g>
<g>
</g>
</svg>
