<?xml version="1.0" encoding="iso-8859-1"?>
<!-- Generator: Adobe Illustrator 19.0.0, SVG Export Plug-In . SVG Version: 6.00 Build 0)  -->
<svg version="1.1" id="Capa_1" xmlns="http://www.w3.org/2000/svg" xmlns:xlink="http://www.w3.org/1999/xlink" x="0px" y="0px"
	 viewBox="0 0 512 512" style="enable-background:new 0 0 512 512;" xml:space="preserve">
<g>
	<g>
		<g>
			<path d="M494.933,0H17.067C7.646,0.012,0.012,7.646,0,17.067v477.867c0.012,9.421,7.646,17.054,17.067,17.067h477.867
				c9.421-0.012,17.054-7.646,17.067-17.067V17.067C511.988,7.646,504.354,0.012,494.933,0z M17.067,494.933V17.067h477.867
				l0.017,477.867H17.067z"/>
			<path d="M375.467,93.867H136.533c-9.421,0.012-17.054,7.646-17.067,17.067v290.133c0.012,9.421,7.646,17.054,17.067,17.067
				h238.933c9.421-0.012,17.054-7.646,17.067-17.067V110.933C392.521,101.513,384.887,93.879,375.467,93.867z M375.467,401.067
				l-238.933,0.017v-290.15h238.933V401.067z"/>
			<path d="M162.133,145.067c1.109,0.015,2.211-0.189,3.242-0.6c1.02-0.494,1.968-1.125,2.817-1.875
				c2.444-2.441,3.154-6.125,1.792-9.3c-0.412-1.045-1.02-2.001-1.792-2.817c-3.421-3.158-8.695-3.158-12.117,0
				c-0.754,0.829-1.36,1.782-1.792,2.817c-1.124,2.624-0.846,5.638,0.737,8.013C156.604,143.68,159.279,145.095,162.133,145.067z"/>
			<path d="M196.267,145.067c1.109,0.015,2.211-0.189,3.242-0.6c1.006-0.475,1.928-1.108,2.733-1.875
				c0.805-0.806,1.442-1.763,1.875-2.817c0.911-2.065,0.911-4.418,0-6.483c-0.41-1.065-1.051-2.027-1.875-2.817
				c-0.372-0.406-0.805-0.752-1.283-1.025c-0.434-0.339-0.925-0.599-1.45-0.767c-0.51-0.259-1.059-0.433-1.625-0.517
				c-2.783-0.544-5.654,0.32-7.675,2.308c-0.754,0.829-1.36,1.782-1.792,2.817c-1.124,2.624-0.847,5.638,0.737,8.013
				C190.736,143.68,193.412,145.095,196.267,145.067z"/>
			<path d="M162.133,179.2c2.262-0.019,4.43-0.905,6.059-2.475c1.603-1.607,2.494-3.789,2.475-6.059
				c-0.033-2.259-0.917-4.422-2.475-6.059c-0.831-0.752-1.783-1.358-2.817-1.792c-3.177-1.342-6.849-0.634-9.3,1.792
				c-1.561,1.634-2.446,3.799-2.475,6.059c-0.023,2.27,0.869,4.454,2.475,6.059C157.701,178.298,159.871,179.184,162.133,179.2z"/>
			<path d="M196.267,179.2c1.115-0.014,2.216-0.246,3.242-0.683c1.034-0.434,1.986-1.04,2.817-1.792
				c1.603-1.607,2.494-3.789,2.475-6.058c0-4.713-3.82-8.533-8.533-8.533s-8.533,3.82-8.533,8.533
				c-0.023,2.27,0.869,4.454,2.475,6.059C191.835,178.298,194.004,179.184,196.267,179.2z"/>
			<path d="M156.075,210.859c0.829,0.754,1.782,1.36,2.817,1.792c3.175,1.362,6.859,0.652,9.301-1.792
				c0.752-0.831,1.358-1.783,1.792-2.817c0.911-2.065,0.911-4.418,0-6.483c-0.432-1.035-1.038-1.987-1.792-2.817
				c-3.421-3.158-8.695-3.158-12.117,0c-0.754,0.829-1.36,1.782-1.792,2.817c-0.911,2.065-0.911,4.418,0,6.483
				C154.717,209.076,155.323,210.028,156.075,210.859z"/>
			<path d="M190.208,210.859c3.365,3.3,8.752,3.3,12.117,0c0.752-0.831,1.358-1.783,1.792-2.817c0.911-2.065,0.911-4.418,0-6.483
				c-0.432-1.035-1.038-1.987-1.792-2.817c-0.419-0.387-0.877-0.731-1.367-1.025c-0.434-0.339-0.925-0.599-1.45-0.767
				c-0.51-0.259-1.059-0.433-1.625-0.517c-2.783-0.557-5.661,0.308-7.675,2.308c-0.754,0.829-1.36,1.782-1.792,2.817
				c-0.437,1.026-0.669,2.127-0.683,3.242c-0.031,1.119,0.203,2.23,0.683,3.242C188.85,209.075,189.456,210.028,190.208,210.859z"/>
			<path d="M156.075,244.992c3.365,3.3,8.752,3.3,12.117,0c0.752-0.831,1.358-1.783,1.792-2.817c0.911-2.065,0.911-4.418,0-6.483
				c-0.432-1.035-1.038-1.987-1.792-2.817c-3.421-3.158-8.695-3.158-12.117,0c-0.754,0.829-1.36,1.782-1.792,2.817
				c-0.48,1.011-0.714,2.122-0.683,3.241c-0.018,1.109,0.183,2.21,0.592,3.242C154.692,243.193,155.325,244.141,156.075,244.992z"/>
			<path d="M190.208,244.992c0.848,0.752,1.796,1.383,2.817,1.875c3.2,1.248,6.834,0.516,9.301-1.875
				c0.752-0.831,1.358-1.783,1.792-2.817c0.911-2.065,0.911-4.418,0-6.483c-0.432-1.035-1.038-1.987-1.792-2.817
				c-3.421-3.158-8.695-3.158-12.117,0c-0.772,0.816-1.38,1.772-1.792,2.817c-0.911,2.065-0.911,4.418,0,6.483
				C188.85,243.209,189.456,244.161,190.208,244.992z"/>
			<path d="M156.075,279.125c3.365,3.3,8.752,3.3,12.117,0c0.752-0.831,1.358-1.783,1.792-2.817c0.438-1.026,0.67-2.127,0.683-3.242
				c0-4.713-3.82-8.533-8.533-8.533s-8.533,3.821-8.533,8.533c-0.018,1.109,0.183,2.211,0.592,3.242
				C154.692,277.327,155.325,278.274,156.075,279.125z"/>
			<path d="M196.267,281.6c2.269,0.019,4.452-0.872,6.059-2.475c0.752-0.831,1.358-1.783,1.792-2.817
				c0.437-1.026,0.669-2.127,0.683-3.242c-0.033-2.259-0.917-4.422-2.475-6.059c-2.044-2.013-4.955-2.878-7.767-2.308
				c-0.534,0.096-1.05,0.271-1.533,0.517c-0.546,0.184-1.065,0.442-1.542,0.767c-0.445,0.316-0.871,0.658-1.276,1.025
				c-1.561,1.634-2.445,3.799-2.475,6.059c-0.022,2.27,0.87,4.453,2.475,6.058C191.813,280.73,193.997,281.622,196.267,281.6z"/>
			<path d="M156.075,313.259c0.829,0.754,1.782,1.36,2.817,1.792c3.175,1.362,6.859,0.652,9.301-1.792
				c0.752-0.831,1.358-1.783,1.792-2.817c0.437-1.026,0.669-2.127,0.683-3.242c-0.033-2.259-0.917-4.422-2.475-6.059
				c-0.425-0.341-0.858-0.683-1.283-1.025c-0.474-0.324-0.99-0.582-1.533-0.767c-0.484-0.245-1-0.419-1.533-0.517
				c-2.812-0.571-5.724,0.294-7.767,2.308c-1.561,1.634-2.445,3.799-2.475,6.059c-0.018,1.109,0.183,2.211,0.592,3.242
				C154.692,311.46,155.325,312.407,156.075,313.259z"/>
			<path d="M190.208,313.259c0.829,0.754,1.782,1.36,2.817,1.792c2.065,0.911,4.418,0.911,6.483,0
				c2.143-0.777,3.831-2.465,4.608-4.608c0.438-1.026,0.67-2.127,0.684-3.243c0-4.713-3.82-8.533-8.533-8.533
				s-8.533,3.82-8.533,8.533c0.014,1.115,0.246,2.216,0.683,3.242C188.85,311.475,189.456,312.428,190.208,313.259z"/>
			<path d="M162.133,349.867c1.115-0.014,2.216-0.246,3.242-0.683c2.143-0.777,3.831-2.465,4.608-4.608
				c0.911-2.065,0.911-4.418,0-6.483c-0.432-1.035-1.038-1.987-1.792-2.817c-0.425-0.341-0.858-0.683-1.283-1.025
				c-0.474-0.324-0.99-0.582-1.533-0.767c-0.484-0.245-1-0.419-1.533-0.517c-1.664-0.348-3.394-0.167-4.95,0.517
				c-1.045,0.412-2.001,1.02-2.817,1.792c-0.754,0.829-1.36,1.782-1.792,2.817c-0.48,1.011-0.714,2.122-0.682,3.241
				c-0.022,2.27,0.87,4.453,2.475,6.058S159.863,349.889,162.133,349.867z"/>
			<path d="M190.208,347.392c2.441,2.444,6.125,3.154,9.3,1.792c2.143-0.777,3.831-2.465,4.608-4.608
				c0.911-2.065,0.911-4.418,0-6.483c-0.432-1.035-1.038-1.987-1.792-2.817c-0.831-0.752-1.783-1.358-2.817-1.792
				c-2.067-0.9-4.416-0.9-6.483,0c-1.045,0.412-2.001,1.02-2.817,1.792c-0.754,0.829-1.36,1.782-1.792,2.817
				c-0.48,1.011-0.713,2.122-0.682,3.241c-0.018,1.109,0.183,2.21,0.592,3.242C188.825,345.593,189.458,346.541,190.208,347.392z"/>
			<path d="M315.733,145.067c2.269,0.019,4.452-0.872,6.059-2.475c1.57-1.628,2.455-3.797,2.475-6.059
				c-0.014-1.115-0.246-2.216-0.683-3.242c-0.412-1.045-1.02-2.001-1.792-2.817c-0.407-0.367-0.836-0.709-1.283-1.025
				c-0.474-0.324-0.99-0.582-1.533-0.767c-3.177-1.342-6.849-0.634-9.3,1.792c-0.754,0.829-1.36,1.782-1.792,2.817
				c-0.48,1.011-0.714,2.122-0.683,3.241c-0.022,2.27,0.87,4.453,2.475,6.058C311.28,144.197,313.464,145.089,315.733,145.067z"/>
			<path d="M343.808,142.592c2.866,2.925,7.408,3.395,10.812,1.119s4.705-6.653,3.097-10.419c-0.432-1.035-1.038-1.987-1.792-2.817
				c-3.421-3.158-8.695-3.158-12.117,0c-0.754,0.829-1.36,1.782-1.792,2.817c-0.48,1.011-0.714,2.122-0.682,3.241
				c-0.018,1.109,0.183,2.211,0.592,3.242C342.425,140.793,343.058,141.741,343.808,142.592z"/>
			<path d="M315.733,179.2c2.262-0.019,4.43-0.905,6.059-2.475c1.603-1.607,2.494-3.789,2.475-6.059c0-4.713-3.82-8.533-8.533-8.533
				s-8.533,3.82-8.533,8.533c-0.023,2.27,0.869,4.454,2.475,6.059C311.301,178.298,313.471,179.184,315.733,179.2z"/>
			<path d="M349.867,179.2c2.262-0.019,4.43-0.905,6.059-2.475c0.752-0.831,1.358-1.783,1.792-2.817
				c0.476-1.013,0.71-2.123,0.683-3.242c0-4.713-3.82-8.533-8.533-8.533s-8.533,3.82-8.533,8.533
				c-0.023,2.27,0.869,4.454,2.475,6.059C345.435,178.298,347.604,179.184,349.867,179.2z"/>
			<path d="M309.675,210.859c3.365,3.3,8.752,3.3,12.117,0c0.752-0.831,1.358-1.783,1.792-2.817c0.911-2.065,0.911-4.418,0-6.483
				c-0.432-1.035-1.038-1.987-1.792-2.817c-2.05-2.002-4.956-2.866-7.767-2.308c-0.534,0.096-1.05,0.271-1.533,0.517
				c-0.546,0.184-1.065,0.442-1.542,0.767c-0.445,0.316-0.871,0.658-1.275,1.024c-0.754,0.829-1.36,1.782-1.792,2.817
				c-0.911,2.065-0.911,4.418,0,6.483C308.316,209.075,308.922,210.028,309.675,210.859z"/>
			<path d="M343.808,210.859c3.365,3.3,8.752,3.3,12.117,0c0.752-0.831,1.358-1.783,1.792-2.817c0.911-2.065,0.911-4.418,0-6.483
				c-0.432-1.035-1.038-1.987-1.792-2.817c-0.407-0.367-0.836-0.709-1.283-1.025c-0.474-0.324-0.99-0.582-1.533-0.767
				c-0.484-0.245-1-0.419-1.533-0.517c-2.811-0.558-5.716,0.305-7.767,2.308c-0.754,0.829-1.36,1.782-1.792,2.817
				c-0.48,1.012-0.714,2.123-0.683,3.242c-0.018,1.109,0.183,2.211,0.592,3.242C342.395,209.077,343.031,210.029,343.808,210.859z"
				/>
			<path d="M321.791,232.875c-0.831-0.752-1.783-1.358-2.817-1.792c-3.177-1.342-6.849-0.634-9.3,1.792
				c-0.754,0.829-1.36,1.782-1.792,2.817c-0.48,1.011-0.714,2.122-0.683,3.241c-0.018,1.109,0.183,2.21,0.592,3.242
				c0.47,1.035,1.106,1.987,1.883,2.817c3.365,3.3,8.752,3.3,12.117,0c0.752-0.831,1.358-1.783,1.792-2.817
				c0.911-2.065,0.911-4.418,0-6.483C323.152,234.657,322.546,233.705,321.791,232.875z"/>
			<path d="M343.808,244.992c3.365,3.3,8.752,3.3,12.117,0c0.752-0.831,1.358-1.783,1.792-2.817c0.911-2.065,0.911-4.418,0-6.483
				c-0.412-1.045-1.02-2.001-1.792-2.817c-0.425-0.341-0.858-0.683-1.283-1.025c-0.474-0.324-0.99-0.582-1.533-0.767
				c-0.51-0.259-1.059-0.433-1.625-0.517c-1.094-0.25-2.231-0.25-3.325,0c-0.534,0.096-1.05,0.27-1.533,0.517
				c-0.546,0.184-1.065,0.442-1.542,0.767l-1.275,1.024c-0.754,0.829-1.36,1.782-1.792,2.817c-0.911,2.065-0.911,4.418,0,6.483
				C342.45,243.208,343.056,244.161,343.808,244.992z"/>
			<path d="M320.509,265.983c-0.474-0.324-0.99-0.582-1.533-0.767c-0.484-0.245-1-0.419-1.533-0.517
				c-2.812-0.571-5.724,0.294-7.767,2.308c-1.561,1.634-2.445,3.799-2.475,6.059c0.014,1.115,0.246,2.216,0.683,3.242
				c0.433,1.034,1.039,1.986,1.791,2.817c0.829,0.754,1.782,1.36,2.817,1.792c2.065,0.911,4.418,0.911,6.483,0
				c1.034-0.434,1.986-1.04,2.817-1.792c1.603-1.607,2.494-3.789,2.475-6.059c-0.033-2.259-0.917-4.422-2.475-6.059
				C321.385,266.641,320.956,266.299,320.509,265.983z"/>
			<path d="M349.867,264.533c-4.713,0-8.533,3.821-8.533,8.533c-0.031,1.119,0.203,2.23,0.683,3.242
				c0.433,1.034,1.039,1.986,1.791,2.817c3.365,3.3,8.752,3.3,12.117,0c0.752-0.831,1.358-1.783,1.792-2.817
				c0.438-1.026,0.67-2.127,0.683-3.242C358.4,268.354,354.58,264.533,349.867,264.533z"/>
			<path d="M321.791,301.142c-2.044-2.013-4.955-2.878-7.767-2.308c-0.534,0.096-1.05,0.27-1.533,0.517
				c-0.546,0.184-1.065,0.442-1.542,0.767l-1.275,1.024c-1.561,1.634-2.445,3.799-2.475,6.059c0.014,1.115,0.246,2.216,0.683,3.242
				c0.433,1.034,1.039,1.986,1.791,2.817c3.365,3.3,8.752,3.3,12.117,0c0.752-0.831,1.358-1.783,1.792-2.817
				c0.911-2.065,0.911-4.418,0-6.483C323.172,302.914,322.563,301.958,321.791,301.142z"/>
			<path d="M343.808,313.259c3.365,3.3,8.752,3.3,12.117,0c0.752-0.831,1.358-1.783,1.792-2.817c0.438-1.026,0.67-2.127,0.683-3.242
				c-0.033-2.259-0.917-4.422-2.475-6.059c-0.425-0.341-0.858-0.683-1.367-1.025c-0.434-0.339-0.925-0.599-1.45-0.767
				c-0.51-0.259-1.059-0.433-1.625-0.517c-2.783-0.558-5.662,0.308-7.676,2.308c-0.772,0.816-1.38,1.772-1.792,2.817
				c-0.911,2.065-0.911,4.418,0,6.483C342.45,311.475,343.056,312.428,343.808,313.259z"/>
			<path d="M312.491,349.184c3.175,1.362,6.859,0.653,9.302-1.79c2.443-2.443,3.152-6.127,1.79-9.302
				c-0.432-1.035-1.038-1.987-1.792-2.817c-3.421-3.158-8.695-3.158-12.117,0c-0.754,0.829-1.36,1.782-1.792,2.817
				c-0.48,1.011-0.714,2.122-0.682,3.241c-0.018,1.109,0.183,2.21,0.592,3.242c0.5,1.018,1.133,1.966,1.883,2.817
				C310.504,348.146,311.457,348.752,312.491,349.184z"/>
			<path d="M355.925,335.275c-0.817-0.77-1.773-1.378-2.817-1.792c-3.181-1.299-6.829-0.596-9.3,1.792
				c-0.772,0.816-1.38,1.772-1.792,2.817c-0.48,1.011-0.714,2.122-0.683,3.241c-0.018,1.109,0.183,2.21,0.592,3.242
				c0.5,1.018,1.133,1.966,1.883,2.817c0.829,0.754,1.782,1.36,2.817,1.792c3.175,1.362,6.859,0.652,9.301-1.792
				c0.752-0.831,1.358-1.783,1.792-2.817c0.911-2.065,0.911-4.418,0-6.483C357.286,337.057,356.68,336.105,355.925,335.275z"/>
			<path d="M156.075,381.525c3.365,3.3,8.752,3.3,12.117,0c0.752-0.831,1.358-1.783,1.792-2.817c0.911-2.065,0.911-4.418,0-6.483
				c-0.412-1.045-1.02-2.001-1.792-2.817c-2.455-2.417-6.122-3.124-9.3-1.792c-1.045,0.412-2.001,1.02-2.817,1.792
				c-0.77,0.836-1.406,1.786-1.883,2.817c-0.789,2.089-0.789,4.394,0,6.483C154.691,379.727,155.325,380.674,156.075,381.525z"/>
			<path d="M190.208,381.525c2.441,2.444,6.125,3.154,9.3,1.792c2.143-0.777,3.831-2.465,4.608-4.608
				c0.911-2.065,0.911-4.418,0-6.483c-0.412-1.045-1.02-2.001-1.792-2.817c-2.455-2.417-6.122-3.124-9.3-1.792
				c-2.143,0.777-3.831,2.465-4.608,4.608c-0.911,2.065-0.911,4.418,0,6.483C188.85,379.742,189.456,380.695,190.208,381.525z"/>
			<path d="M321.791,369.409c-2.455-2.417-6.122-3.124-9.3-1.792c-2.143,0.777-3.831,2.465-4.608,4.608
				c-0.48,1.012-0.715,2.123-0.683,3.242c-0.018,1.109,0.183,2.211,0.592,3.242c0.47,1.035,1.106,1.987,1.883,2.817
				c3.365,3.3,8.752,3.3,12.117,0c0.752-0.831,1.358-1.783,1.792-2.817c0.911-2.065,0.911-4.418,0-6.483
				C323.172,371.181,322.563,370.224,321.791,369.409z"/>
			<path d="M343.808,381.525c2.441,2.444,6.125,3.154,9.3,1.792c2.143-0.777,3.831-2.465,4.608-4.608
				c0.911-2.065,0.911-4.418,0-6.483c-0.412-1.045-1.02-2.001-1.792-2.817c-2.455-2.417-6.122-3.124-9.3-1.792
				c-1.045,0.412-2.001,1.02-2.817,1.792c-0.77,0.835-1.405,1.786-1.883,2.817c-0.789,2.089-0.789,4.394,0,6.483
				C342.424,379.727,343.058,380.674,343.808,381.525z"/>
			<path d="M51.2,34.133h-8.533c-4.713,0-8.533,3.82-8.533,8.533s3.82,8.533,8.533,8.533H51.2c4.713,0,8.533-3.82,8.533-8.533
				S55.913,34.133,51.2,34.133z"/>
			<path d="M51.2,76.8h-8.533c-4.713,0-8.533,3.82-8.533,8.533s3.82,8.533,8.533,8.533H51.2c4.713,0,8.533-3.821,8.533-8.533
				S55.913,76.8,51.2,76.8z"/>
			<path d="M51.2,119.467h-8.533c-4.713,0-8.533,3.82-8.533,8.533s3.82,8.533,8.533,8.533H51.2c4.713,0,8.533-3.82,8.533-8.533
				S55.913,119.467,51.2,119.467z"/>
			<path d="M51.2,162.133h-8.533c-4.713,0-8.533,3.82-8.533,8.533s3.82,8.533,8.533,8.533H51.2c4.713,0,8.533-3.82,8.533-8.533
				S55.913,162.133,51.2,162.133z"/>
			<path d="M51.2,204.8h-8.533c-4.713,0-8.533,3.821-8.533,8.533c0,4.713,3.82,8.533,8.533,8.533H51.2
				c4.713,0,8.533-3.821,8.533-8.533C59.733,208.621,55.913,204.8,51.2,204.8z"/>
			<path d="M51.2,247.467h-8.533c-4.713,0-8.533,3.82-8.533,8.533s3.82,8.533,8.533,8.533H51.2c4.713,0,8.533-3.82,8.533-8.533
				S55.913,247.467,51.2,247.467z"/>
			<path d="M51.2,290.133h-8.533c-4.713,0-8.533,3.82-8.533,8.533s3.82,8.533,8.533,8.533H51.2c4.713,0,8.533-3.82,8.533-8.533
				S55.913,290.133,51.2,290.133z"/>
			<path d="M51.2,332.8h-8.533c-4.713,0-8.533,3.821-8.533,8.533s3.82,8.533,8.533,8.533H51.2c4.713,0,8.533-3.82,8.533-8.533
				S55.913,332.8,51.2,332.8z"/>
			<path d="M51.2,375.467h-8.533c-4.713,0-8.533,3.82-8.533,8.533s3.82,8.533,8.533,8.533H51.2c4.713,0,8.533-3.82,8.533-8.533
				S55.913,375.467,51.2,375.467z"/>
			<path d="M51.2,418.133h-8.533c-4.713,0-8.533,3.82-8.533,8.533s3.82,8.533,8.533,8.533H51.2c4.713,0,8.533-3.82,8.533-8.533
				S55.913,418.133,51.2,418.133z"/>
			<path d="M51.2,460.8h-8.533c-4.713,0-8.533,3.82-8.533,8.533s3.82,8.533,8.533,8.533H51.2c4.713,0,8.533-3.82,8.533-8.533
				S55.913,460.8,51.2,460.8z"/>
			<path d="M93.867,34.133h-8.533c-4.713,0-8.533,3.82-8.533,8.533s3.82,8.533,8.533,8.533h8.533c4.713,0,8.533-3.82,8.533-8.533
				S98.579,34.133,93.867,34.133z"/>
			<path d="M93.867,76.8h-8.533c-4.713,0-8.533,3.82-8.533,8.533s3.82,8.533,8.533,8.533h8.533c4.713,0,8.533-3.821,8.533-8.533
				S98.579,76.8,93.867,76.8z"/>
			<path d="M93.867,119.467h-8.533c-4.713,0-8.533,3.82-8.533,8.533s3.82,8.533,8.533,8.533h8.533c4.713,0,8.533-3.82,8.533-8.533
				S98.579,119.467,93.867,119.467z"/>
			<path d="M93.867,162.133h-8.533c-4.713,0-8.533,3.82-8.533,8.533s3.82,8.533,8.533,8.533h8.533c4.713,0,8.533-3.82,8.533-8.533
				S98.579,162.133,93.867,162.133z"/>
			<path d="M93.867,204.8h-8.533c-4.713,0-8.533,3.821-8.533,8.533c0,4.713,3.82,8.533,8.533,8.533h8.533
				c4.713,0,8.533-3.821,8.533-8.533C102.4,208.621,98.579,204.8,93.867,204.8z"/>
			<path d="M93.867,247.467h-8.533c-4.713,0-8.533,3.82-8.533,8.533s3.82,8.533,8.533,8.533h8.533c4.713,0,8.533-3.82,8.533-8.533
				S98.579,247.467,93.867,247.467z"/>
			<path d="M93.867,290.133h-8.533c-4.713,0-8.533,3.82-8.533,8.533s3.82,8.533,8.533,8.533h8.533c4.713,0,8.533-3.82,8.533-8.533
				S98.579,290.133,93.867,290.133z"/>
			<path d="M93.867,332.8h-8.533c-4.713,0-8.533,3.821-8.533,8.533s3.82,8.533,8.533,8.533h8.533c4.713,0,8.533-3.82,8.533-8.533
				S98.579,332.8,93.867,332.8z"/>
			<path d="M93.867,375.467h-8.533c-4.713,0-8.533,3.82-8.533,8.533s3.82,8.533,8.533,8.533h8.533c4.713,0,8.533-3.82,8.533-8.533
				S98.579,375.467,93.867,375.467z"/>
			<path d="M93.867,418.133h-8.533c-4.713,0-8.533,3.82-8.533,8.533s3.82,8.533,8.533,8.533h8.533c4.713,0,8.533-3.82,8.533-8.533
				S98.579,418.133,93.867,418.133z"/>
			<path d="M93.867,460.8h-8.533c-4.713,0-8.533,3.82-8.533,8.533s3.82,8.533,8.533,8.533h8.533c4.713,0,8.533-3.82,8.533-8.533
				S98.579,460.8,93.867,460.8z"/>
			<path d="M426.667,34.133h-8.533c-4.713,0-8.533,3.82-8.533,8.533s3.82,8.533,8.533,8.533h8.533c4.713,0,8.533-3.82,8.533-8.533
				S431.38,34.133,426.667,34.133z"/>
			<path d="M426.667,76.8h-8.533c-4.713,0-8.533,3.82-8.533,8.533s3.82,8.533,8.533,8.533h8.533c4.713,0,8.533-3.821,8.533-8.533
				S431.38,76.8,426.667,76.8z"/>
			<path d="M426.667,119.467h-8.533c-4.713,0-8.533,3.82-8.533,8.533s3.82,8.533,8.533,8.533h8.533c4.713,0,8.533-3.82,8.533-8.533
				S431.38,119.467,426.667,119.467z"/>
			<path d="M426.667,162.133h-8.533c-4.713,0-8.533,3.82-8.533,8.533s3.82,8.533,8.533,8.533h8.533c4.713,0,8.533-3.82,8.533-8.533
				S431.38,162.133,426.667,162.133z"/>
			<path d="M426.667,204.8h-8.533c-4.713,0-8.533,3.821-8.533,8.533c0,4.713,3.82,8.533,8.533,8.533h8.533
				c4.713,0,8.533-3.821,8.533-8.533C435.2,208.621,431.38,204.8,426.667,204.8z"/>
			<path d="M426.667,247.467h-8.533c-4.713,0-8.533,3.82-8.533,8.533s3.82,8.533,8.533,8.533h8.533c4.713,0,8.533-3.82,8.533-8.533
				S431.38,247.467,426.667,247.467z"/>
			<path d="M426.667,290.133h-8.533c-4.713,0-8.533,3.82-8.533,8.533s3.82,8.533,8.533,8.533h8.533c4.713,0,8.533-3.82,8.533-8.533
				S431.38,290.133,426.667,290.133z"/>
			<path d="M426.667,332.8h-8.533c-4.713,0-8.533,3.821-8.533,8.533s3.82,8.533,8.533,8.533h8.533c4.713,0,8.533-3.82,8.533-8.533
				S431.38,332.8,426.667,332.8z"/>
			<path d="M426.667,375.467h-8.533c-4.713,0-8.533,3.82-8.533,8.533s3.82,8.533,8.533,8.533h8.533c4.713,0,8.533-3.82,8.533-8.533
				S431.38,375.467,426.667,375.467z"/>
			<path d="M426.667,418.133h-8.533c-4.713,0-8.533,3.82-8.533,8.533s3.82,8.533,8.533,8.533h8.533c4.713,0,8.533-3.82,8.533-8.533
				S431.38,418.133,426.667,418.133z"/>
			<path d="M426.667,460.8h-8.533c-4.713,0-8.533,3.82-8.533,8.533s3.82,8.533,8.533,8.533h8.533c4.713,0,8.533-3.82,8.533-8.533
				S431.38,460.8,426.667,460.8z"/>
			<path d="M469.333,34.133H460.8c-4.713,0-8.533,3.82-8.533,8.533s3.821,8.533,8.533,8.533h8.533c4.713,0,8.533-3.82,8.533-8.533
				S474.046,34.133,469.333,34.133z"/>
			<path d="M469.333,76.8H460.8c-4.713,0-8.533,3.82-8.533,8.533s3.821,8.533,8.533,8.533h8.533c4.713,0,8.533-3.821,8.533-8.533
				S474.046,76.8,469.333,76.8z"/>
			<path d="M469.333,119.467H460.8c-4.713,0-8.533,3.82-8.533,8.533s3.821,8.533,8.533,8.533h8.533c4.713,0,8.533-3.82,8.533-8.533
				S474.046,119.467,469.333,119.467z"/>
			<path d="M469.333,162.133H460.8c-4.713,0-8.533,3.82-8.533,8.533s3.821,8.533,8.533,8.533h8.533c4.713,0,8.533-3.82,8.533-8.533
				S474.046,162.133,469.333,162.133z"/>
			<path d="M469.333,204.8H460.8c-4.713,0-8.533,3.821-8.533,8.533c0,4.713,3.821,8.533,8.533,8.533h8.533
				c4.713,0,8.533-3.821,8.533-8.533C477.867,208.621,474.046,204.8,469.333,204.8z"/>
			<path d="M469.333,247.467H460.8c-4.713,0-8.533,3.82-8.533,8.533s3.821,8.533,8.533,8.533h8.533c4.713,0,8.533-3.82,8.533-8.533
				S474.046,247.467,469.333,247.467z"/>
			<path d="M469.333,290.133H460.8c-4.713,0-8.533,3.82-8.533,8.533s3.821,8.533,8.533,8.533h8.533c4.713,0,8.533-3.82,8.533-8.533
				S474.046,290.133,469.333,290.133z"/>
			<path d="M469.333,332.8H460.8c-4.713,0-8.533,3.821-8.533,8.533s3.821,8.533,8.533,8.533h8.533c4.713,0,8.533-3.82,8.533-8.533
				S474.046,332.8,469.333,332.8z"/>
			<path d="M469.333,375.467H460.8c-4.713,0-8.533,3.82-8.533,8.533s3.821,8.533,8.533,8.533h8.533c4.713,0,8.533-3.82,8.533-8.533
				S474.046,375.467,469.333,375.467z"/>
			<path d="M469.333,418.133H460.8c-4.713,0-8.533,3.82-8.533,8.533s3.821,8.533,8.533,8.533h8.533c4.713,0,8.533-3.82,8.533-8.533
				S474.046,418.133,469.333,418.133z"/>
			<path d="M469.333,460.8H460.8c-4.713,0-8.533,3.82-8.533,8.533s3.821,8.533,8.533,8.533h8.533c4.713,0,8.533-3.82,8.533-8.533
				S474.046,460.8,469.333,460.8z"/>
		</g>
	</g>
</g>
<g>
</g>
<g>
</g>
<g>
</g>
<g>
</g>
<g>
</g>
<g>
</g>
<g>
</g>
<g>
</g>
<g>
</g>
<g>
</g>
<g>
</g>
<g>
</g>
<g>
</g>
<g>
</g>
<g>
</g>
</svg>
