<?xml version="1.0" encoding="iso-8859-1"?>
<!-- Generator: Adobe Illustrator 19.0.0, SVG Export Plug-In . SVG Version: 6.00 Build 0)  -->
<svg version="1.1" id="Capa_1" xmlns="http://www.w3.org/2000/svg" xmlns:xlink="http://www.w3.org/1999/xlink" x="0px" y="0px"
	 viewBox="0 0 512 512" style="enable-background:new 0 0 512 512;" xml:space="preserve">
<g>
	<g>
		<g>
			<path d="M494.933,452.267h-25.6v-59.733c-0.019-18.844-15.29-34.115-34.133-34.133V51.2h17.067
				c9.421-0.012,17.054-7.646,17.067-17.067v-25.6c0.001-2.264-0.897-4.435-2.498-6.035C465.235,0.897,463.064-0.001,460.8,0H51.2
				c-2.264-0.001-4.435,0.897-6.035,2.498s-2.499,3.772-2.498,6.035v25.6c0.012,9.421,7.646,17.054,17.067,17.067H76.8v307.2
				c-18.844,0.019-34.115,15.29-34.133,34.133v59.733h-25.6C7.646,452.279,0.012,459.913,0,469.333v34.133
				c-0.001,2.264,0.897,4.435,2.498,6.035c1.601,1.601,3.772,2.499,6.035,2.498h494.933c2.264,0.001,4.435-0.897,6.035-2.498
				c1.601-1.601,2.499-3.772,2.498-6.035v-34.133C511.988,459.913,504.354,452.279,494.933,452.267z M42.667,494.933h-25.6v-25.6
				h25.6V494.933z M264.533,494.933H230.4v-17.067h34.133V494.933z M213.333,460.8v-17.067h179.2l0.017,17.067H213.333z
				 M315.733,494.933H281.6v-17.067h34.133V494.933z M452.267,494.933H332.8v-17.067h59.733c9.421-0.012,17.055-7.646,17.067-17.067
				v-17.067c-0.012-9.421-7.646-17.054-17.067-17.067h-179.2c-9.421,0.012-17.054,7.646-17.067,17.067V460.8
				c0.012,9.421,7.646,17.054,17.067,17.067v17.067H179.2v-42.667c0-4.713-3.82-8.533-8.533-8.533s-8.533,3.821-8.533,8.533v42.667
				h-102.4V460.8v-51.2h392.533V494.933z M59.733,392.533c0.012-9.421,7.646-17.054,17.067-17.067h8.533
				c2.264,0.001,4.435-0.897,6.035-2.498c1.601-1.601,2.499-3.772,2.498-6.035V42.667c0.001-2.264-0.897-4.435-2.498-6.035
				c-1.601-1.601-3.772-2.499-6.035-2.498h-25.6V17.067h392.533v17.067h-25.6c-2.264-0.001-4.435,0.897-6.035,2.498
				s-2.499,3.772-2.498,6.035v324.267c-0.001,2.264,0.897,4.435,2.498,6.035s3.772,2.499,6.035,2.498h8.533
				c9.421,0.012,17.054,7.646,17.067,17.067H59.733z M494.933,494.933h-25.6v-25.6h25.6V494.933z"/>
			<path d="M122.739,34.736c-3.202-1.329-6.89-0.59-9.331,1.872c-1.561,1.634-2.445,3.799-2.475,6.059
				c-0.03,2.855,1.385,5.532,3.761,7.115c2.376,1.584,5.39,1.86,8.014,0.735c1.034-0.433,1.986-1.039,2.817-1.791
				c1.603-1.607,2.494-3.789,2.475-6.059C128.02,39.2,125.941,36.065,122.739,34.736z"/>
			<path d="M147.542,48.725c3.365,3.3,8.752,3.3,12.117,0c0.752-0.831,1.358-1.783,1.792-2.817c0.437-1.026,0.669-2.127,0.683-3.242
				c-0.033-2.259-0.917-4.422-2.475-6.059c-0.419-0.387-0.878-0.731-1.367-1.025c-0.434-0.339-0.925-0.599-1.45-0.767
				c-0.51-0.259-1.059-0.433-1.625-0.517c-2.783-0.558-5.661,0.308-7.675,2.308c-1.561,1.634-2.445,3.799-2.475,6.059
				c-0.031,1.119,0.203,2.23,0.683,3.242C146.184,46.942,146.79,47.894,147.542,48.725z"/>
			<path d="M187.733,51.2c2.27,0.022,4.453-0.87,6.058-2.475c1.605-1.605,2.497-3.788,2.475-6.058c0-4.713-3.82-8.533-8.533-8.533
				s-8.533,3.82-8.533,8.533c-0.022,2.27,0.87,4.453,2.475,6.058C183.28,50.33,185.463,51.222,187.733,51.2z"/>
			<path d="M221.867,51.2c2.269,0.019,4.452-0.872,6.059-2.475c0.752-0.831,1.358-1.783,1.792-2.817
				c0.437-1.026,0.669-2.127,0.683-3.242c0-4.713-3.82-8.533-8.533-8.533s-8.533,3.82-8.533,8.533
				c-0.022,2.27,0.87,4.453,2.475,6.058C217.413,50.33,219.597,51.222,221.867,51.2z"/>
			<path d="M249.941,48.725c2.441,2.462,6.129,3.201,9.331,1.872s5.281-4.464,5.261-7.931c-0.033-2.259-0.917-4.422-2.475-6.059
				c-0.419-0.387-0.877-0.731-1.367-1.025c-0.434-0.339-0.925-0.599-1.45-0.767c-0.51-0.259-1.059-0.433-1.625-0.517
				c-1.633-0.343-3.334-0.162-4.858,0.517c-1.045,0.412-2.001,1.02-2.817,1.792c-1.561,1.634-2.445,3.799-2.475,6.058
				c0.014,1.115,0.246,2.216,0.683,3.242C248.583,46.942,249.189,47.894,249.941,48.725z"/>
			<path d="M284.075,48.725c2.441,2.462,6.129,3.201,9.331,1.872c3.202-1.329,5.281-4.464,5.261-7.931
				c-0.033-2.259-0.917-4.422-2.475-6.059c-2.455-2.417-6.122-3.124-9.3-1.792c-1.055,0.391-2.015,1.002-2.817,1.792
				c-1.561,1.634-2.446,3.799-2.475,6.059c-0.018,1.109,0.183,2.21,0.592,3.242C282.661,46.944,283.297,47.895,284.075,48.725z"/>
			<path d="M318.208,36.608c-1.561,1.634-2.445,3.799-2.475,6.059c-0.018,1.109,0.183,2.21,0.592,3.242
				c0.5,1.018,1.133,1.966,1.883,2.817c3.365,3.3,8.752,3.3,12.117,0c0.752-0.831,1.358-1.783,1.792-2.817
				c0.438-1.026,0.67-2.127,0.683-3.242c-0.016-2.262-0.902-4.432-2.475-6.059C326.904,33.449,321.63,33.449,318.208,36.608z"/>
			<path d="M361.672,34.736c-3.202-1.329-6.89-0.59-9.331,1.872c-1.561,1.634-2.445,3.799-2.475,6.059
				c-0.023,2.27,0.869,4.454,2.475,6.059c0.816,0.772,1.772,1.38,2.817,1.792c2.065,0.911,4.418,0.911,6.483,0
				c1.034-0.434,1.986-1.039,2.817-1.792c1.603-1.607,2.494-3.789,2.475-6.059C366.953,39.2,364.874,36.065,361.672,34.736z"/>
			<path d="M386.475,48.725c3.365,3.3,8.752,3.3,12.117,0c0.752-0.831,1.358-1.783,1.792-2.817c0.437-1.026,0.669-2.127,0.683-3.242
				c-0.033-2.259-0.917-4.422-2.475-6.059c-0.419-0.387-0.878-0.731-1.367-1.025c-0.434-0.339-0.925-0.599-1.45-0.767
				c-0.51-0.259-1.059-0.433-1.625-0.517c-2.783-0.558-5.661,0.308-7.675,2.308c-1.561,1.634-2.445,3.799-2.475,6.059
				c-0.031,1.119,0.203,2.23,0.683,3.242C385.117,46.942,385.723,47.894,386.475,48.725z"/>
			<path d="M125.518,82.924c2.451-2.464,3.162-6.169,1.799-9.365c-0.411-1.045-1.02-2.001-1.791-2.817
				c-3.421-3.158-8.695-3.158-12.117,0c-0.772,0.816-1.38,1.772-1.792,2.817c-0.48,1.012-0.715,2.122-0.683,3.242
				c-0.043,3.475,2.025,6.629,5.23,7.975C119.367,86.12,123.067,85.388,125.518,82.924z"/>
			<path d="M159.659,70.741c-1.994-2.072-4.909-2.981-7.727-2.41c-2.818,0.571-5.15,2.542-6.181,5.227
				c-1.541,3.756-0.223,8.079,3.152,10.336c3.375,2.257,7.873,1.824,10.756-1.035c0.752-0.831,1.358-1.783,1.792-2.817
				c0.911-2.065,0.911-4.418,0-6.483C161.039,72.514,160.431,71.557,159.659,70.741z"/>
			<path d="M181.675,82.859c2.866,2.925,7.408,3.395,10.812,1.119c3.404-2.276,4.705-6.653,3.097-10.419
				c-0.411-1.045-1.019-2.001-1.791-2.817c-0.831-0.752-1.783-1.358-2.817-1.792c-2.076-0.858-4.407-0.858-6.483,0
				c-0.546,0.184-1.065,0.442-1.542,0.767c-0.445,0.316-0.871,0.659-1.276,1.025c-1.561,1.634-2.445,3.799-2.475,6.059
				c-0.031,1.119,0.203,2.23,0.683,3.242C180.317,81.075,180.922,82.028,181.675,82.859z"/>
			<path d="M227.925,70.741c-0.419-0.387-0.877-0.731-1.367-1.025c-0.434-0.339-0.925-0.599-1.45-0.767
				c-0.51-0.259-1.059-0.433-1.625-0.517c-2.783-0.558-5.662,0.308-7.676,2.308c-0.772,0.816-1.38,1.772-1.792,2.817
				c-1.124,2.624-0.847,5.638,0.737,8.013c1.584,2.375,4.259,3.79,7.114,3.762c2.269,0.019,4.452-0.872,6.059-2.475
				c0.752-0.831,1.358-1.783,1.792-2.817c0.911-2.065,0.911-4.418,0-6.483C229.306,72.514,228.697,71.557,227.925,70.741z"/>
			<path d="M249.941,82.859c3.365,3.3,8.752,3.3,12.117,0c0.752-0.831,1.358-1.783,1.792-2.817c0.911-2.065,0.911-4.418,0-6.483
				c-0.411-1.045-1.019-2.001-1.791-2.817c-3.421-3.158-8.695-3.158-12.117,0c-0.772,0.816-1.38,1.772-1.792,2.817
				c-0.48,1.012-0.715,2.122-0.683,3.242c-0.018,1.109,0.183,2.211,0.592,3.242C248.558,81.06,249.192,82.007,249.941,82.859z"/>
			<path d="M290.133,85.333c4.699-0.032,8.501-3.834,8.533-8.533c-0.014-1.115-0.246-2.216-0.683-3.242
				c-0.411-1.065-1.051-2.027-1.875-2.817c-1.985-2.058-4.884-2.958-7.686-2.387c-2.802,0.571-5.117,2.534-6.139,5.204
				c-0.48,1.012-0.715,2.122-0.683,3.242c-0.022,2.27,0.87,4.453,2.475,6.058C285.68,84.463,287.863,85.355,290.133,85.333z"/>
			<path d="M321.025,84.65c3.175,1.362,6.859,0.653,9.302-1.79c2.443-2.443,3.152-6.127,1.79-9.302
				c-0.412-1.045-1.02-2.001-1.792-2.817c-3.421-3.158-8.695-3.158-12.117,0c-0.772,0.816-1.38,1.772-1.792,2.817
				c-0.911,2.065-0.911,4.418,0,6.483c0.434,1.034,1.04,1.986,1.792,2.817C319.024,83.63,319.981,84.238,321.025,84.65z"/>
			<path d="M364.451,82.924c2.451-2.464,3.162-6.169,1.799-9.365c-0.411-1.045-1.02-2.001-1.791-2.817
				c-3.421-3.158-8.695-3.158-12.117,0c-0.772,0.816-1.38,1.772-1.792,2.817c-0.48,1.012-0.715,2.122-0.683,3.242
				c-0.043,3.475,2.025,6.629,5.23,7.975C358.301,86.12,362.001,85.388,364.451,82.924z"/>
			<path d="M398.592,70.741c-1.994-2.072-4.909-2.981-7.727-2.41c-2.818,0.571-5.15,2.542-6.181,5.227
				c-1.541,3.756-0.223,8.079,3.152,10.336c3.375,2.257,7.873,1.824,10.756-1.035c0.752-0.831,1.358-1.783,1.792-2.817
				c0.911-2.065,0.911-4.418,0-6.483C399.972,72.514,399.364,71.557,398.592,70.741z"/>
			<path d="M122.739,103.003c-3.202-1.329-6.89-0.59-9.331,1.872c-1.561,1.634-2.445,3.799-2.475,6.059
				c-0.023,2.27,0.869,4.454,2.475,6.059c0.816,0.772,1.772,1.38,2.817,1.792c2.624,1.124,5.638,0.847,8.014-0.737
				s3.79-4.259,3.762-7.114C128.02,107.467,125.941,104.332,122.739,103.003z"/>
			<path d="M150.358,118.784c2.624,1.124,5.638,0.847,8.014-0.737c2.375-1.584,3.79-4.259,3.762-7.114
				c-0.016-2.262-0.902-4.432-2.475-6.059c-3.422-3.159-8.696-3.159-12.117,0c-1.561,1.634-2.445,3.799-2.475,6.059
				c-0.023,2.27,0.869,4.454,2.475,6.059C148.357,117.764,149.313,118.372,150.358,118.784z"/>
			<path d="M361.672,103.003c-3.202-1.329-6.89-0.59-9.331,1.872c-1.561,1.634-2.445,3.799-2.475,6.059
				c-0.023,2.27,0.869,4.454,2.475,6.059c0.816,0.772,1.772,1.38,2.817,1.792c2.624,1.124,5.638,0.847,8.014-0.737
				s3.79-4.259,3.762-7.114C366.953,107.467,364.874,104.332,361.672,103.003z"/>
			<path d="M395.775,103.083c-3.181-1.299-6.829-0.596-9.3,1.792c-1.561,1.634-2.445,3.798-2.475,6.058
				c0.014,1.115,0.246,2.216,0.683,3.242c0.434,1.034,1.04,1.986,1.792,2.817c0.816,0.772,1.772,1.38,2.817,1.792
				c2.624,1.124,5.638,0.846,8.013-0.737c2.375-1.583,3.79-4.259,3.762-7.113C401.148,107.459,399.026,104.312,395.775,103.083z"/>
			<path d="M122.739,137.136c-3.202-1.329-6.89-0.59-9.331,1.872c-1.576,1.625-2.462,3.795-2.475,6.059
				c0,4.713,3.82,8.533,8.533,8.533s8.533-3.821,8.533-8.533C128.02,141.6,125.941,138.465,122.739,137.136z"/>
			<path d="M148.827,152.182c2.376,1.584,5.39,1.86,8.014,0.735c2.143-0.777,3.831-2.465,4.608-4.608
				c0.438-1.026,0.67-2.127,0.684-3.242c0.02-3.467-2.059-6.601-5.261-7.931s-6.89-0.59-9.331,1.872
				c-1.561,1.634-2.445,3.799-2.475,6.059C145.037,147.922,146.452,150.598,148.827,152.182z"/>
			<path d="M361.672,137.136c-3.202-1.329-6.89-0.59-9.331,1.872c-1.561,1.634-2.445,3.799-2.475,6.059
				c0,4.713,3.82,8.533,8.533,8.533s8.533-3.821,8.533-8.533C366.953,141.6,364.874,138.465,361.672,137.136z"/>
			<path d="M386.475,139.008c-1.561,1.634-2.445,3.799-2.475,6.059c-0.03,2.855,1.385,5.532,3.761,7.115
				c2.376,1.584,5.39,1.86,8.014,0.735c1.034-0.434,1.986-1.04,2.817-1.792c1.603-1.607,2.494-3.789,2.475-6.058
				c-0.016-2.262-0.902-4.432-2.475-6.059C395.17,135.849,389.896,135.849,386.475,139.008z"/>
			<path d="M122.739,171.269c-3.202-1.329-6.89-0.59-9.331,1.872c-1.561,1.634-2.445,3.799-2.475,6.059
				c-0.018,1.109,0.183,2.21,0.592,3.242c0.47,1.035,1.106,1.987,1.883,2.817c3.365,3.3,8.752,3.3,12.117,0
				c0.752-0.831,1.358-1.783,1.792-2.817c0.438-1.026,0.67-2.127,0.683-3.242C128.02,175.733,125.941,172.599,122.739,171.269z"/>
			<path d="M147.541,185.259c3.365,3.3,8.752,3.3,12.117,0c0.752-0.831,1.358-1.783,1.792-2.817c0.438-1.026,0.67-2.127,0.683-3.242
				c0.02-3.467-2.059-6.601-5.261-7.931c-3.202-1.329-6.89-0.59-9.331,1.872c-1.561,1.634-2.445,3.799-2.475,6.059
				c-0.018,1.109,0.183,2.21,0.592,3.242C146.128,183.477,146.764,184.429,147.541,185.259z"/>
			<path d="M361.672,171.269c-3.202-1.329-6.89-0.59-9.331,1.872c-1.561,1.634-2.445,3.799-2.475,6.059
				c-0.018,1.109,0.183,2.21,0.592,3.242c0.47,1.035,1.106,1.987,1.883,2.817c3.365,3.3,8.752,3.3,12.117,0
				c0.752-0.831,1.358-1.783,1.792-2.817c0.438-1.026,0.67-2.127,0.683-3.242C366.953,175.733,364.874,172.599,361.672,171.269z"/>
			<path d="M395.806,171.269c-3.202-1.329-6.89-0.59-9.331,1.872c-1.561,1.634-2.445,3.799-2.475,6.059
				c-0.018,1.109,0.183,2.21,0.592,3.242c0.47,1.035,1.106,1.987,1.883,2.817c3.365,3.3,8.752,3.3,12.117,0
				c0.752-0.831,1.358-1.783,1.792-2.817c0.438-1.026,0.67-2.127,0.683-3.242C401.087,175.733,399.008,172.599,395.806,171.269z"/>
			<path d="M125.525,207.275c-0.831-0.752-1.783-1.358-2.817-1.792c-3.177-1.342-6.849-0.634-9.3,1.792
				c-0.754,0.829-1.36,1.782-1.792,2.817c-0.48,1.012-0.715,2.122-0.683,3.242c-0.018,1.109,0.183,2.21,0.592,3.242
				c0.47,1.035,1.106,1.987,1.883,2.817c3.365,3.3,8.752,3.3,12.117,0c0.752-0.831,1.358-1.783,1.792-2.817
				c0.911-2.065,0.911-4.418,0-6.483C126.885,209.057,126.279,208.104,125.525,207.275z"/>
			<path d="M147.541,219.392c0.816,0.772,1.772,1.38,2.817,1.792c2.065,0.911,4.418,0.911,6.483,0
				c2.143-0.777,3.831-2.465,4.608-4.608c0.911-2.065,0.911-4.418,0-6.483c-0.431-1.035-1.037-1.988-1.791-2.818
				c-0.407-0.367-0.836-0.709-1.283-1.025c-0.474-0.324-0.99-0.582-1.533-0.767c-0.484-0.245-1-0.419-1.533-0.517
				c-2.811-0.558-5.717,0.306-7.767,2.308c-0.754,0.829-1.36,1.782-1.792,2.817c-0.48,1.012-0.714,2.123-0.683,3.242
				c-0.018,1.109,0.183,2.21,0.592,3.242C146.128,217.61,146.764,218.562,147.541,219.392z"/>
			<path d="M364.459,207.275c-0.831-0.752-1.783-1.358-2.817-1.792c-3.178-1.334-6.845-0.627-9.3,1.792
				c-0.754,0.829-1.36,1.782-1.792,2.817c-0.48,1.012-0.715,2.122-0.683,3.242c-0.018,1.109,0.183,2.21,0.592,3.242
				c0.47,1.035,1.106,1.987,1.883,2.817c3.365,3.3,8.752,3.3,12.117,0c0.752-0.831,1.358-1.783,1.792-2.817
				c0.911-2.065,0.911-4.418,0-6.483C365.819,209.057,365.213,208.104,364.459,207.275z"/>
			<path d="M386.475,219.392c0.816,0.772,1.772,1.38,2.817,1.792c2.065,0.911,4.418,0.911,6.483,0
				c2.143-0.777,3.831-2.465,4.608-4.608c0.911-2.065,0.911-4.418,0-6.483c-0.431-1.035-1.037-1.988-1.791-2.818
				c-0.407-0.367-0.836-0.709-1.283-1.025c-0.474-0.324-0.99-0.582-1.533-0.767c-0.484-0.245-1-0.419-1.533-0.517
				c-2.811-0.558-5.717,0.306-7.767,2.308c-0.754,0.829-1.36,1.782-1.792,2.817c-0.48,1.012-0.714,2.123-0.683,3.242
				c-0.018,1.109,0.183,2.21,0.592,3.242C385.061,217.61,385.698,218.562,386.475,219.392z"/>
			<path d="M122.708,255.317c1.034-0.434,1.986-1.04,2.817-1.792c2.444-2.441,3.154-6.125,1.792-9.3
				c-0.432-1.035-1.038-1.987-1.792-2.817c-0.425-0.341-0.858-0.683-1.283-1.025c-0.474-0.324-0.99-0.582-1.533-0.767
				c-0.484-0.245-1-0.419-1.533-0.517c-1.125-0.25-2.292-0.25-3.417,0c-0.534,0.096-1.05,0.27-1.533,0.517
				c-0.546,0.184-1.065,0.442-1.542,0.767l-1.276,1.025c-0.754,0.829-1.36,1.782-1.792,2.817c-0.48,1.012-0.714,2.123-0.683,3.242
				c-0.03,2.855,1.385,5.532,3.761,7.115C117.07,256.166,120.084,256.442,122.708,255.317z"/>
			<path d="M159.659,241.408c-3.421-3.158-8.695-3.158-12.117,0c-0.754,0.829-1.36,1.782-1.792,2.817
				c-1.362,3.175-0.653,6.859,1.791,9.301c0.829,0.754,1.782,1.36,2.817,1.792c2.065,0.911,4.418,0.911,6.483,0
				c1.034-0.434,1.986-1.04,2.817-1.792c1.57-1.628,2.456-3.797,2.475-6.059c-0.014-1.115-0.246-2.216-0.683-3.242
				C161.039,243.18,160.43,242.224,159.659,241.408z"/>
			<path d="M361.642,255.316c1.034-0.434,1.986-1.04,2.817-1.792c2.444-2.441,3.154-6.125,1.792-9.3
				c-0.432-1.034-1.038-1.987-1.792-2.816c-3.421-3.158-8.695-3.158-12.117,0c-0.772,0.816-1.38,1.772-1.792,2.817
				c-1.362,3.175-0.653,6.859,1.79,9.302C354.783,255.969,358.467,256.678,361.642,255.316z"/>
			<path d="M398.592,241.408c-3.421-3.158-8.695-3.158-12.117,0c-0.754,0.829-1.36,1.782-1.792,2.817
				c-1.362,3.175-0.653,6.859,1.791,9.301c0.829,0.754,1.782,1.36,2.817,1.792c2.065,0.911,4.418,0.911,6.483,0
				c3.252-1.228,5.373-4.376,5.292-7.851c-0.014-1.115-0.246-2.216-0.683-3.242C399.972,243.18,399.364,242.224,398.592,241.408z"/>
			<path d="M122.739,273.669c-3.202-1.329-6.89-0.59-9.331,1.872c-1.561,1.634-2.445,3.799-2.475,6.059
				c-0.023,2.27,0.869,4.454,2.475,6.059c0.829,0.754,1.782,1.36,2.817,1.792c2.624,1.124,5.638,0.847,8.014-0.737
				s3.79-4.259,3.762-7.114C128.02,278.133,125.941,274.999,122.739,273.669z"/>
			<path d="M150.349,289.479c3.187,1.323,6.856,0.606,9.31-1.82c0.752-0.831,1.358-1.783,1.792-2.817
				c0.437-1.026,0.669-2.127,0.683-3.242c-0.016-2.262-0.902-4.432-2.475-6.059c-3.422-3.159-8.696-3.159-12.117,0
				c-1.561,1.634-2.445,3.799-2.475,6.059C145.08,285.05,147.162,288.156,150.349,289.479z"/>
			<path d="M190.975,273.75c-3.177-1.342-6.849-0.634-9.3,1.792c-1.561,1.634-2.445,3.798-2.475,6.058
				c0.014,1.115,0.246,2.216,0.683,3.242c0.434,1.034,1.04,1.986,1.792,2.817c0.829,0.754,1.782,1.36,2.817,1.792
				c2.065,0.911,4.418,0.911,6.483,0c1.034-0.434,1.986-1.04,2.817-1.792c1.603-1.607,2.494-3.789,2.475-6.058
				c-0.016-2.262-0.902-4.432-2.475-6.059C192.961,274.789,192.009,274.183,190.975,273.75z"/>
			<path d="M227.925,275.541c-0.419-0.387-0.878-0.731-1.367-1.025c-0.434-0.339-0.925-0.599-1.45-0.767
				c-0.51-0.259-1.059-0.433-1.625-0.517c-1.066-0.25-2.176-0.25-3.242,0c-0.563,0.083-1.109,0.258-1.617,0.517
				c-0.546,0.184-1.065,0.442-1.542,0.767c-0.445,0.316-0.871,0.658-1.275,1.025c-1.561,1.634-2.445,3.799-2.475,6.059
				c-0.018,1.109,0.183,2.21,0.592,3.242c0.5,1.018,1.133,1.966,1.883,2.817c3.365,3.3,8.752,3.3,12.117,0
				c1.57-1.628,2.456-3.797,2.475-6.059C230.367,279.341,229.483,277.178,227.925,275.541z"/>
			<path d="M259.242,273.75c-1.556-0.684-3.286-0.865-4.95-0.517c-0.534,0.096-1.05,0.271-1.533,0.517
				c-0.546,0.184-1.065,0.442-1.542,0.767c-0.445,0.316-0.871,0.658-1.275,1.025c-1.561,1.634-2.445,3.799-2.475,6.059
				c0.014,1.115,0.246,2.216,0.683,3.242c0.434,1.034,1.04,1.986,1.792,2.817c0.829,0.754,1.782,1.36,2.817,1.792
				c3.175,1.362,6.859,0.652,9.3-1.792c0.752-0.831,1.358-1.783,1.792-2.817c0.437-1.026,0.669-2.127,0.683-3.242
				c-0.033-2.259-0.917-4.422-2.475-6.059C261.228,274.789,260.275,274.183,259.242,273.75z"/>
			<path d="M284.075,287.659c2.441,2.444,6.125,3.154,9.3,1.792c2.143-0.777,3.831-2.465,4.608-4.608
				c0.438-1.026,0.67-2.127,0.684-3.243c-0.033-2.259-0.917-4.422-2.475-6.059c-2.456-2.417-6.123-3.124-9.3-1.791
				c-1.045,0.412-2.001,1.02-2.817,1.792c-1.561,1.634-2.445,3.798-2.475,6.058c-0.018,1.109,0.183,2.21,0.592,3.242
				C282.692,285.86,283.325,286.807,284.075,287.659z"/>
			<path d="M322.558,273.233c-0.534,0.096-1.05,0.271-1.533,0.517c-0.546,0.184-1.065,0.442-1.542,0.767
				c-0.445,0.316-0.871,0.658-1.275,1.025c-1.576,1.625-2.462,3.795-2.475,6.059c0.014,3.45,2.096,6.556,5.282,7.879
				c3.187,1.323,6.856,0.606,9.31-1.82c0.752-0.831,1.358-1.783,1.792-2.817c0.437-1.026,0.669-2.127,0.683-3.242
				c-0.033-2.259-0.917-4.422-2.475-6.059C328.281,273.528,325.37,272.663,322.558,273.233z"/>
			<path d="M356.692,273.233c-0.534,0.096-1.05,0.271-1.533,0.517c-0.546,0.184-1.065,0.442-1.542,0.767
				c-0.445,0.316-0.871,0.658-1.275,1.025c-1.561,1.634-2.445,3.799-2.475,6.059c-0.023,2.27,0.869,4.454,2.475,6.059
				c0.829,0.754,1.782,1.36,2.817,1.792c3.175,1.362,6.859,0.652,9.301-1.792c0.752-0.831,1.358-1.783,1.792-2.817
				c0.437-1.026,0.669-2.127,0.683-3.242c-0.033-2.259-0.917-4.422-2.475-6.059C362.415,273.528,359.503,272.663,356.692,273.233z"
				/>
			<path d="M395.806,273.669c-3.202-1.329-6.89-0.59-9.331,1.872c-1.561,1.634-2.445,3.799-2.475,6.059
				c-0.031,1.119,0.203,2.23,0.683,3.242c0.434,1.034,1.04,1.986,1.792,2.817c3.365,3.3,8.752,3.3,12.117,0
				c0.752-0.831,1.358-1.783,1.792-2.817c0.437-1.026,0.669-2.127,0.683-3.242C401.087,278.133,399.008,274.999,395.806,273.669z"/>
			<path d="M125.525,309.675c-2.044-2.013-4.955-2.878-7.767-2.308c-0.534,0.096-1.05,0.27-1.533,0.517
				c-0.546,0.184-1.065,0.442-1.542,0.767l-1.276,1.025c-0.772,0.816-1.38,1.772-1.792,2.817c-1.524,3.573-0.442,7.725,2.631,10.1
				c3.074,2.375,7.364,2.375,10.437,0c3.074-2.375,4.155-6.527,2.631-10.1C126.905,311.447,126.297,310.49,125.525,309.675z"/>
			<path d="M147.541,321.791c2.441,2.444,6.125,3.154,9.3,1.792c1.034-0.434,1.986-1.04,2.817-1.792
				c2.444-2.441,3.154-6.125,1.792-9.3c-0.411-1.045-1.02-2.001-1.791-2.817c-0.425-0.341-0.858-0.683-1.367-1.025
				c-0.434-0.339-0.925-0.599-1.45-0.767c-0.51-0.259-1.059-0.433-1.625-0.517c-2.783-0.558-5.662,0.308-7.676,2.308
				c-0.772,0.816-1.38,1.772-1.792,2.817c-0.911,2.065-0.911,4.418,0,6.483C146.183,320.008,146.789,320.961,147.541,321.791z"/>
			<path d="M184.491,323.584c3.175,1.362,6.859,0.653,9.302-1.79c2.443-2.443,3.152-6.127,1.79-9.302
				c-0.411-1.045-1.019-2.002-1.791-2.818c-3.421-3.158-8.695-3.158-12.117,0c-0.772,0.816-1.38,1.772-1.792,2.817
				c-1.362,3.175-0.653,6.859,1.791,9.301C182.504,322.546,183.457,323.152,184.491,323.584z"/>
			<path d="M226.559,308.65c-0.434-0.339-0.925-0.599-1.45-0.767c-0.51-0.259-1.059-0.433-1.625-0.517
				c-2.783-0.558-5.662,0.308-7.676,2.308c-0.772,0.816-1.38,1.772-1.792,2.817c-1.362,3.175-0.652,6.859,1.792,9.301
				c0.829,0.754,1.782,1.36,2.817,1.792c2.065,0.911,4.418,0.911,6.483,0c1.034-0.434,1.986-1.04,2.817-1.792
				c2.444-2.441,3.154-6.125,1.792-9.3c-0.411-1.045-1.02-2.001-1.791-2.817C227.5,309.333,227.067,308.991,226.559,308.65z"/>
			<path d="M252.696,323.708c3.204,1.345,6.905,0.613,9.355-1.851c2.451-2.464,3.162-6.169,1.799-9.365
				c-0.411-1.045-1.02-2.001-1.791-2.817c-2.451-2.425-6.123-3.133-9.3-1.792c-2.143,0.777-3.831,2.465-4.608,4.608
				c-0.481,1.012-0.715,2.123-0.684,3.243C247.423,319.208,249.492,322.363,252.696,323.708z"/>
			<path d="M296.192,309.675c-2.044-2.013-4.955-2.878-7.767-2.308c-0.534,0.096-1.05,0.27-1.533,0.517
				c-0.546,0.184-1.065,0.442-1.542,0.767l-1.276,1.025c-0.772,0.816-1.38,1.772-1.792,2.817c-1.362,3.175-0.652,6.859,1.792,9.301
				c0.829,0.754,1.782,1.36,2.817,1.792c3.175,1.362,6.859,0.652,9.301-1.792c0.752-0.831,1.358-1.783,1.792-2.817
				c0.911-2.065,0.911-4.418,0-6.483C297.572,311.447,296.964,310.491,296.192,309.675z"/>
			<path d="M320.963,323.708c3.204,1.345,6.905,0.613,9.355-1.851c2.451-2.464,3.162-6.169,1.799-9.365
				c-0.411-1.045-1.02-2.001-1.791-2.817c-2.455-2.417-6.122-3.124-9.3-1.792c-2.143,0.777-3.831,2.465-4.608,4.608
				c-0.481,1.012-0.715,2.123-0.684,3.243C315.69,319.208,317.759,322.363,320.963,323.708z"/>
			<path d="M355.158,323.584c2.065,0.911,4.418,0.911,6.483,0c1.034-0.434,1.986-1.04,2.817-1.792
				c2.444-2.441,3.154-6.125,1.792-9.3c-0.411-1.045-1.02-2.001-1.791-2.817c-3.421-3.158-8.695-3.158-12.117,0
				c-0.772,0.816-1.38,1.772-1.792,2.817c-1.362,3.175-0.653,6.859,1.791,9.301C353.171,322.546,354.123,323.152,355.158,323.584z"
				/>
			<path d="M395.775,323.584c1.034-0.434,1.986-1.04,2.817-1.792c2.444-2.441,3.154-6.125,1.792-9.3
				c-0.411-1.045-1.02-2.001-1.791-2.817c-0.425-0.341-0.858-0.683-1.367-1.025c-0.434-0.339-0.925-0.599-1.45-0.767
				c-0.51-0.259-1.059-0.433-1.625-0.517c-3.071-0.559-6.203,0.588-8.188,2.998c-1.984,2.409-2.508,5.704-1.371,8.611
				c0.5,1.018,1.133,1.966,1.883,2.817C388.916,324.236,392.6,324.946,395.775,323.584z"/>
			<path d="M159.659,343.808c-3.421-3.158-8.695-3.158-12.117,0c-0.772,0.816-1.38,1.772-1.792,2.817
				c-0.911,2.065-0.911,4.418,0,6.483c0.434,1.034,1.04,1.986,1.792,2.817c0.829,0.754,1.782,1.36,2.817,1.792
				c3.174,1.362,6.859,0.652,9.3-1.791c0.752-0.831,1.358-1.783,1.792-2.817c0.911-2.065,0.911-4.418,0-6.483
				C161.039,345.58,160.431,344.624,159.659,343.808z"/>
			<path d="M193.792,343.808c-0.419-0.388-0.877-0.731-1.367-1.025c-0.434-0.339-0.925-0.599-1.45-0.767
				c-0.51-0.259-1.059-0.433-1.625-0.517c-1.094-0.25-2.231-0.25-3.325,0c-0.534,0.096-1.05,0.271-1.533,0.517
				c-0.546,0.184-1.065,0.442-1.542,0.767c-0.445,0.316-0.871,0.658-1.276,1.025c-0.772,0.816-1.38,1.772-1.792,2.817
				c-0.911,2.065-0.911,4.418,0,6.483c0.434,1.034,1.04,1.986,1.792,2.817c0.816,0.772,1.772,1.38,2.817,1.792
				c2.065,0.911,4.418,0.911,6.483,0c2.143-0.777,3.831-2.465,4.608-4.608c0.911-2.065,0.911-4.418,0-6.483
				C195.171,345.58,194.564,344.624,193.792,343.808z"/>
			<path d="M227.925,343.808c-0.407-0.367-0.836-0.709-1.283-1.025c-0.474-0.324-0.99-0.582-1.533-0.767
				c-0.484-0.245-1-0.419-1.533-0.517c-1.664-0.348-3.394-0.167-4.95,0.517c-2.143,0.777-3.831,2.465-4.608,4.608
				c-0.911,2.065-0.911,4.418,0,6.483c0.434,1.034,1.04,1.986,1.792,2.817c2.441,2.444,6.125,3.154,9.3,1.792
				c2.143-0.777,3.831-2.465,4.608-4.608c0.911-2.065,0.911-4.418,0-6.483C229.306,345.58,228.697,344.624,227.925,343.808z"/>
			<path d="M262.059,343.808c-2.455-2.417-6.122-3.124-9.3-1.792c-2.143,0.777-3.831,2.465-4.608,4.608
				c-0.481,1.012-0.715,2.123-0.684,3.243c-0.018,1.109,0.183,2.21,0.592,3.242c0.5,1.018,1.133,1.966,1.883,2.817
				c0.829,0.754,1.782,1.36,2.817,1.792c2.065,0.911,4.418,0.911,6.483,0c2.143-0.777,3.831-2.465,4.608-4.608
				c0.911-2.065,0.911-4.418,0-6.483C263.438,345.581,262.83,344.624,262.059,343.808z"/>
			<path d="M296.192,343.808c-2.044-2.013-4.955-2.878-7.767-2.308c-0.534,0.096-1.05,0.271-1.533,0.517
				c-0.546,0.184-1.065,0.442-1.542,0.767c-0.445,0.316-0.871,0.658-1.276,1.025c-0.772,0.816-1.38,1.772-1.792,2.817
				c-0.911,2.065-0.911,4.418,0,6.483c0.434,1.034,1.04,1.986,1.792,2.817c0.829,0.754,1.782,1.36,2.817,1.792
				c2.065,0.911,4.418,0.911,6.483,0c2.143-0.777,3.831-2.465,4.608-4.608c0.911-2.065,0.911-4.418,0-6.483
				C297.571,345.58,296.964,344.624,296.192,343.808z"/>
			<path d="M330.325,343.808c-0.419-0.388-0.877-0.731-1.367-1.025c-0.434-0.339-0.925-0.599-1.45-0.767
				c-0.51-0.259-1.059-0.433-1.625-0.517c-2.783-0.558-5.662,0.308-7.676,2.308c-0.772,0.816-1.38,1.772-1.792,2.817
				c-0.911,2.065-0.911,4.418,0,6.483c0.434,1.034,1.04,1.986,1.792,2.817c0.829,0.754,1.782,1.36,2.817,1.792
				c2.065,0.911,4.418,0.911,6.483,0c2.143-0.777,3.831-2.465,4.608-4.608c0.911-2.065,0.911-4.418,0-6.483
				C331.705,345.58,331.097,344.624,330.325,343.808z"/>
			<path d="M364.459,343.808c-0.831-0.752-1.783-1.358-2.817-1.792c-2.059-0.942-4.425-0.942-6.483,0
				c-2.143,0.777-3.831,2.465-4.608,4.608c-0.481,1.012-0.715,2.123-0.684,3.243c-0.018,1.109,0.183,2.21,0.592,3.242
				c0.47,1.035,1.106,1.987,1.883,2.817c2.441,2.444,6.125,3.154,9.3,1.792c2.143-0.777,3.831-2.465,4.608-4.608
				c0.911-2.065,0.911-4.418,0-6.483C365.838,345.581,365.23,344.624,364.459,343.808z"/>
			<path d="M398.592,343.808c-0.419-0.388-0.877-0.731-1.367-1.025c-0.434-0.339-0.925-0.599-1.45-0.767
				c-0.51-0.259-1.059-0.433-1.625-0.517c-2.783-0.558-5.662,0.308-7.676,2.308c-0.772,0.816-1.38,1.772-1.792,2.817
				c-0.48,1.012-0.714,2.123-0.683,3.242c-0.018,1.109,0.183,2.21,0.592,3.242c0.5,1.018,1.133,1.966,1.883,2.817
				c0.829,0.754,1.782,1.36,2.817,1.792c2.065,0.911,4.418,0.911,6.483,0c2.143-0.777,3.831-2.465,4.608-4.608
				c0.911-2.065,0.911-4.418,0-6.483C399.972,345.581,399.364,344.624,398.592,343.808z"/>
			<path d="M315.733,102.4H196.267c-9.421,0.012-17.054,7.646-17.067,17.067v119.467c0.012,9.421,7.646,17.054,17.067,17.067
				h119.467c9.421-0.012,17.054-7.646,17.067-17.067V119.467C332.788,110.046,325.154,102.412,315.733,102.4z M196.267,238.933
				V119.467h119.467l0.017,119.467H196.267z"/>
			<path d="M221.867,153.6h42.667c4.713,0,8.533-3.821,8.533-8.533s-3.821-8.533-8.533-8.533h-42.667
				c-4.713,0-8.533,3.82-8.533,8.533S217.154,153.6,221.867,153.6z"/>
			<path d="M290.133,170.667h-68.267c-4.713,0-8.533,3.82-8.533,8.533s3.82,8.533,8.533,8.533h68.267
				c4.713,0,8.533-3.82,8.533-8.533S294.846,170.667,290.133,170.667z"/>
			<path d="M230.4,204.8h-8.533c-4.713,0-8.533,3.821-8.533,8.533c0,4.713,3.82,8.533,8.533,8.533h8.533
				c4.713,0,8.533-3.821,8.533-8.533C238.933,208.621,235.113,204.8,230.4,204.8z"/>
		</g>
	</g>
</g>
<g>
</g>
<g>
</g>
<g>
</g>
<g>
</g>
<g>
</g>
<g>
</g>
<g>
</g>
<g>
</g>
<g>
</g>
<g>
</g>
<g>
</g>
<g>
</g>
<g>
</g>
<g>
</g>
<g>
</g>
</svg>
