<?xml version="1.0" encoding="iso-8859-1"?>
<!-- Generator: Adobe Illustrator 19.0.0, SVG Export Plug-In . SVG Version: 6.00 Build 0)  -->
<svg version="1.1" id="Capa_1" xmlns="http://www.w3.org/2000/svg" xmlns:xlink="http://www.w3.org/1999/xlink" x="0px" y="0px"
	 viewBox="0 0 512 512" style="enable-background:new 0 0 512 512;" xml:space="preserve">
<g>
	<g>
		<g>
			<path d="M136.534,136.534v-17.067c-0.011-9.421-7.645-17.056-17.067-17.067H102.4V25.6c0.053-6.757-2.637-13.246-7.454-17.983
				C90.188,2.712,83.634-0.039,76.8,0C62.668,0.016,51.216,11.468,51.2,25.6v76.8H34.134c-9.421,0.011-17.056,7.645-17.067,17.067
				v17.067C7.646,136.545,0.011,144.179,0,153.6v179.2c0.011,9.421,7.645,17.056,17.067,17.067V435.2
				c0.011,9.421,7.646,17.056,17.067,17.067h8.533v42.667c0.011,9.421,7.645,17.056,17.067,17.067h34.133
				c9.421-0.011,17.056-7.645,17.067-17.067v-42.667h8.533c9.421-0.011,17.056-7.645,17.067-17.067v-85.333
				c9.421-0.011,17.056-7.646,17.067-17.067V153.6C153.589,144.179,145.955,136.545,136.534,136.534z M68.267,25.6
				c0.005-4.711,3.822-8.529,8.533-8.533c2.301-0.005,4.501,0.942,6.079,2.617c1.591,1.555,2.477,3.692,2.454,5.917v76.8H68.267
				V25.6z M34.134,119.467l25.588-0.002l0.012,0.002h34.133l0.029-0.006l25.571-0.002v17.075H34.134V119.467z M59.734,494.934
				v-42.667h34.133l0.012,42.667H59.734z M34.134,435.2v-17.067H51.2c4.713,0,8.533-3.82,8.533-8.533s-3.82-8.533-8.533-8.533
				H34.134V384H51.2c4.713,0,8.533-3.82,8.533-8.533s-3.82-8.533-8.533-8.533H34.134v-17.067h85.333l0.003,17.067H102.4
				c-4.713,0-8.533,3.82-8.533,8.533S97.687,384,102.4,384h17.072l0.002,17.067H102.4c-4.713,0-8.533,3.82-8.533,8.533
				s3.82,8.533,8.533,8.533h17.077l0.003,17.067H34.134z M17.067,332.8V153.6h119.467l0.012,179.2H17.067z"/>
			<path d="M315.734,136.534v-17.067c-0.011-9.421-7.645-17.056-17.067-17.067H281.6V25.6c0.053-6.757-2.637-13.246-7.454-17.983
				C269.388,2.712,262.834-0.039,256,0c-14.132,0.015-25.585,11.468-25.6,25.6v76.8h-17.067
				c-9.421,0.011-17.056,7.645-17.067,17.067v17.067c-9.421,0.011-17.056,7.646-17.067,17.067v179.2
				c0.011,9.421,7.645,17.056,17.067,17.067V435.2c0.011,9.421,7.646,17.056,17.067,17.067h8.533v42.667
				c0.011,9.421,7.645,17.056,17.067,17.067h34.133c9.421-0.011,17.056-7.645,17.067-17.067v-42.667h8.533
				c9.421-0.011,17.056-7.645,17.067-17.067v-85.333c9.421-0.011,17.056-7.646,17.067-17.067V153.6
				C332.789,144.179,325.155,136.545,315.734,136.534z M247.467,25.6c0.005-4.711,3.822-8.529,8.533-8.533
				c2.301-0.005,4.501,0.942,6.079,2.617c1.591,1.555,2.477,3.692,2.454,5.917v76.8h-17.067V25.6z M213.334,119.467l25.588-0.002
				l0.012,0.002h34.133l0.029-0.006l25.571-0.002v17.075h-85.333V119.467z M238.934,494.934v-42.667h34.133l0.012,42.667H238.934z
				 M213.334,435.2v-17.067H230.4c4.713,0,8.533-3.82,8.533-8.533s-3.82-8.533-8.533-8.533h-17.067V384H230.4
				c4.713,0,8.533-3.82,8.533-8.533s-3.82-8.533-8.533-8.533h-17.067v-17.067h85.333l0.003,17.067H281.6
				c-4.713,0-8.533,3.82-8.533,8.533S276.887,384,281.6,384h17.072l0.002,17.067H281.6c-4.713,0-8.533,3.82-8.533,8.533
				s3.82,8.533,8.533,8.533h17.077l0.003,17.067H213.334z M196.267,332.8V153.6h119.467l0.012,179.2H196.267z"/>
			<path d="M494.934,136.534v-17.067c-0.012-9.421-7.646-17.054-17.067-17.067H460.8V25.6c0.055-6.756-2.633-13.245-7.45-17.983
				C448.591,2.712,442.035-0.039,435.2,0c-14.132,0.015-25.585,11.468-25.6,25.6v76.8h-17.067
				c-9.421,0.011-17.056,7.645-17.067,17.067v17.067c-9.421,0.011-17.056,7.646-17.067,17.067v179.2
				c0.011,9.421,7.645,17.056,17.067,17.067V435.2c0.011,9.421,7.646,17.056,17.067,17.067h8.533v42.667
				c0.012,9.421,7.646,17.054,17.067,17.067h34.133c9.421-0.012,17.055-7.646,17.067-17.067v-42.667h8.533
				c9.421-0.012,17.054-7.646,17.067-17.067v-85.333c9.421-0.012,17.054-7.646,17.067-17.067V153.6
				C511.988,144.18,504.354,136.546,494.934,136.534z M426.667,25.6c0.003-4.711,3.822-8.53,8.533-8.533
				c2.302-0.005,4.504,0.942,6.083,2.617c1.586,1.558,2.471,3.694,2.45,5.917v76.8h-17.067V25.6z M392.534,119.467l25.575-0.005
				l0.025,0.005h34.133l0.058-0.011l25.542-0.005v17.083h-85.333V119.467z M418.134,494.934v-42.667h34.133l0.017,42.667H418.134z
				 M392.534,435.2v-17.067H409.6c4.713,0,8.533-3.82,8.533-8.533s-3.82-8.533-8.533-8.533h-17.067V384H409.6
				c4.713,0,8.533-3.82,8.533-8.533s-3.82-8.533-8.533-8.533h-17.067v-17.067h85.333l0.004,17.067H460.8
				c-4.713,0-8.533,3.82-8.533,8.533S456.087,384,460.8,384h17.073l0.003,17.067H460.8c-4.713,0-8.533,3.82-8.533,8.533
				s3.821,8.533,8.533,8.533h17.08l0.003,17.067H392.534z M486.4,332.8H375.467V153.6h119.467l0.017,179.2H486.4z"/>
		</g>
	</g>
</g>
<g>
</g>
<g>
</g>
<g>
</g>
<g>
</g>
<g>
</g>
<g>
</g>
<g>
</g>
<g>
</g>
<g>
</g>
<g>
</g>
<g>
</g>
<g>
</g>
<g>
</g>
<g>
</g>
<g>
</g>
</svg>
