<?xml version="1.0" encoding="iso-8859-1"?>
<!-- Generator: Adobe Illustrator 19.0.0, SVG Export Plug-In . SVG Version: 6.00 Build 0)  -->
<svg version="1.1" id="Capa_1" xmlns="http://www.w3.org/2000/svg" xmlns:xlink="http://www.w3.org/1999/xlink" x="0px" y="0px"
	 viewBox="0 0 512.033 512.033" style="enable-background:new 0 0 512.033 512.033;" xml:space="preserve">
<g transform="translate(-1)">
	<g>
		<g>
			<path d="M249.974,239.104c-3.486-3.525-8.312-5.393-13.263-5.133c-4.778,0.242-9.229,2.498-12.25,6.208l-47.438,58.467
				l-39.708,29.5c-3.933,2.932-6.396,7.431-6.746,12.325c-0.362,5.073,1.501,10.052,5.104,13.642l23.083,23.108
				c3.277,3.294,7.729,5.149,12.375,5.158c0.425,0,0.85-0.017,1.279-0.05c4.892-0.35,9.387-2.819,12.308-6.758l29.467-39.741
				l58.408-47.492c3.701-3.026,5.95-7.476,6.192-12.25c0.242-4.948-1.619-9.767-5.125-13.267L249.974,239.104z M170.832,365.154
				l-23.338-23.308l34.645-25.742l14.564,14.579L170.832,365.154z M208.569,318.406l-14.132-14.147l43.146-53.247h0.021
				c0.116,0.01,0.223,0.068,0.296,0.158l23.929,23.925L208.569,318.406z"/>
			<path d="M503.058,57.746c12.522-12.569,13.358-32.624,1.925-46.192c-5.994-7.056-14.7-11.239-23.955-11.508
				c-10.322-0.461-20.357,3.465-27.625,10.808l-6.713,6.717c-8.402-6.719-18.503-10.977-29.179-12.301
				c-4.072-0.152-8.031,1.361-10.962,4.192l-24.117,24.143l-0.008,0.007l-0.003,0.004L237.688,178.508l-0.006,0.004l-0.002,0.002
				L62.782,353.604c-0.767,0.769-1.381,1.677-1.808,2.675l-0.063,0.148l-0.001,0.002l-26.044,60.833
				c-3.721,8.661-4.707,18.252-2.827,27.489L8.503,468.312c-10.001,9.996-10.005,26.207-0.008,36.208
				c9.996,10.001,26.207,10.005,36.208,0.008l23.515-23.543c3.01,0.62,6.075,0.936,9.148,0.944
				c6.304-0.006,12.541-1.296,18.33-3.792l60.761-26.065l0.02-0.009l0.14-0.06c0.999-0.426,1.907-1.04,2.675-1.808l343.767-344.142
				c9.264-9.279,1.738-25.823-8.154-40.144L503.058,57.746z M32.628,492.463c-3.379,3.2-8.671,3.2-12.05,0
				c-3.329-3.34-3.329-8.743,0-12.083l18.7-18.721c3.163,4.796,7.257,8.907,12.041,12.09L32.628,492.463z M88.97,462.454
				c-11.008,4.705-23.771,2.235-32.228-6.237c-8.458-8.472-10.907-21.239-6.184-32.238l24.579-57.417
				c6.079,1.042,22.275,9.617,41.925,29.292c19.671,19.692,28.237,35.917,29.267,41.992L88.97,462.454z M159.939,425.392
				c-8.054-15.378-18.445-29.412-30.803-41.604c-11.996-12.573-26.045-23.01-41.546-30.863l161.376-161.551
				c5.004,0.05,22.026,8.395,42.996,29.39c21.013,21.037,29.336,38.087,29.359,43.073L159.939,425.392z M334.838,250.304
				c-8.056-15.377-18.447-29.413-30.801-41.608c-11.995-12.573-26.045-23.01-41.546-30.862L393.708,46.471
				c5.001,0.048,22.026,8.394,42.995,29.392c21.027,21.048,29.35,38.104,29.36,43.074L334.838,250.304z M479.582,105.404
				c-8.057-15.377-18.449-29.413-30.804-41.609c-11.994-12.574-26.043-23.012-41.545-30.864l10.608-10.619
				c5.029,0.075,22.046,8.433,42.987,29.4c20.963,20.983,29.313,38.033,29.375,43.058L479.582,105.404z M490.982,45.688
				l-6.572,6.576c-5.417-6.407-10.073-11.182-11.507-12.618c-3.88-3.883-8.143-7.814-12.567-11.58l5.142-5.146
				c3.969-3.849,9.314-5.947,14.842-5.825c4.476,0.099,8.701,2.088,11.629,5.475C497.655,29.367,497.236,39.393,490.982,45.688
				L490.982,45.688z"/>
		</g>
	</g>
</g>
<g>
</g>
<g>
</g>
<g>
</g>
<g>
</g>
<g>
</g>
<g>
</g>
<g>
</g>
<g>
</g>
<g>
</g>
<g>
</g>
<g>
</g>
<g>
</g>
<g>
</g>
<g>
</g>
<g>
</g>
</svg>
