<?xml version="1.0" encoding="iso-8859-1"?>
<!-- Generator: Adobe Illustrator 19.0.0, SVG Export Plug-In . SVG Version: 6.00 Build 0)  -->
<svg version="1.1" id="Capa_1" xmlns="http://www.w3.org/2000/svg" xmlns:xlink="http://www.w3.org/1999/xlink" x="0px" y="0px"
	 viewBox="0 0 512 512" style="enable-background:new 0 0 512 512;" xml:space="preserve">
<g>
	<g>
		<g>
			<path d="M384,238.933h-76.8V112.95l19.083-38.167c3.652-7.3,5.772-15.269,6.229-23.419c0.001-0.058,0.033-0.106,0.033-0.165
				l-0.009-0.044c0.736-13.977-3.481-27.765-11.908-38.94C314.844,4.544,305.801,0.023,296.192,0h-80.384
				c-9.615,0.025-18.662,4.553-24.446,12.233c-8.425,11.171-12.639,24.957-11.901,38.929l-0.007,0.038l0.029,0.143
				c0.456,8.157,2.578,16.135,6.234,23.441l16.75,33.5l-42.767,31.05c-4.286,3.584-6.57,9.022-6.129,14.592
				c0.414,5.384,3.413,10.234,8.046,13.008c32.362,19.23,40.46,55.527,42.491,72H128c-47.106,0.054-85.279,38.227-85.333,85.333
				v102.4C42.721,473.773,80.894,511.946,128,512h256c47.106-0.054,85.279-38.227,85.333-85.333v-102.4
				C469.279,277.161,431.106,238.987,384,238.933z M311.017,67.15l-5.729,11.458l-4.175-4.258
				c-3.259-3.397-3.261-8.759-0.004-12.158c1.502-1.568,3.579-2.455,5.75-2.458h6.958C313.114,62.286,312.177,64.769,311.017,67.15z
				 M256,349.867c24.658,0,51.2-8.008,51.2-25.6v-27.93c9.904,5.968,16.274,16.393,17.067,27.93
				c0,23.125-31.262,42.667-68.267,42.667s-68.267-19.541-68.267-42.667c0.792-11.536,7.162-21.961,17.067-27.93v27.93
				C204.8,341.858,231.342,349.867,256,349.867z M268.487,198.675c-3.057-10.473-4.392-21.374-3.954-32.275
				c-0.312-14.837,10.834-27.421,25.6-28.902v135.409c-13.524-0.772-17.067-5.701-17.067-37.39
				C273.522,223.071,271.976,210.632,268.487,198.675z M256,17.067c4.711,0.005,8.529,3.822,8.533,8.533
				c0,4.713-3.82,8.533-8.533,8.533c-4.713,0-8.533-3.821-8.533-8.533S251.287,17.067,256,17.067z M200.983,67.15
				c-1.16-2.381-2.097-4.864-2.799-7.417h6.958c2.168,0.003,4.242,0.887,5.746,2.45c3.253,3.39,3.263,8.74,0.021,12.142
				l-4.197,4.281L200.983,67.15z M212.452,122.119l4.148,4.148c2.172,2.191,2.99,5.386,2.139,8.352
				c-0.852,2.966-3.24,5.239-6.244,5.944c-3.004,0.705-6.154-0.269-8.236-2.546l-6.048-5.563L212.452,122.119z M170.175,152.8
				l13.943-10.119l8.335,7.66c4.776,4.817,11.279,7.526,18.063,7.525c6.806-0.023,13.329-2.73,18.15-7.533
				c9.963-9.984,9.963-26.149,0-36.133l-8.317-8.317l-5.564-11.128l8.334-8.506c9.707-10.028,9.705-25.949-0.004-35.975
				c-4.708-4.875-11.198-7.622-17.975-7.608h-8.277c0.921-7.327,3.732-14.288,8.156-20.2c2.552-3.39,6.544-5.389,10.788-5.4h16.164
				c-1.012,2.733-1.543,5.62-1.572,8.533c0,14.138,11.461,25.6,25.6,25.6c14.138,0,25.6-11.462,25.6-25.6
				c-0.029-2.914-0.561-5.801-1.572-8.533h16.164c4.244,0.016,8.238,2.013,10.796,5.4c4.423,5.913,7.232,12.874,8.151,20.2h-8.28
				c-6.78-0.014-13.273,2.736-17.979,7.617c-9.714,10.034-9.704,25.969,0.021,35.992l8.313,8.481l-6.18,12.36
				c-0.041,0.083-0.031,0.173-0.069,0.256c-0.332,1.083-0.592,2.187-0.78,3.305c-0.003,0.09-0.051,0.165-0.051,0.256v9.231
				c-18.172,2.736-42.667,14.473-42.667,46.235c-0.455,12.446,1.091,24.885,4.579,36.842c3.057,10.473,4.392,21.374,3.954,32.275
				c0,35.285,5.051,51.714,34.133,54.229v34.133c-1.374,2.619-13.191,8.921-34.133,8.921c-21.167,0-33.05-6.45-34.133-8.533v-76.8
				C221.867,244.833,221.279,182.525,170.175,152.8z M204.8,266.164v10.385c-21.413,11.144-34.133,28.621-34.133,47.718
				C170.667,357.2,208.946,384,256,384c47.054,0,85.333-26.8,85.333-59.733c0-19.098-12.72-36.575-34.133-47.718v-10.385
				c60.757,11.655,102.4,42.87,102.4,77.82c0,44.817-70.342,82.684-153.6,82.684S102.4,388.8,102.4,343.983
				C102.4,309.033,144.043,277.819,204.8,266.164z M384,494.933H128c-29.524-0.045-55.683-19.039-64.866-47.099
				c16.168,19.044,39.884,30.025,64.866,30.032h256c24.981-0.008,48.698-10.988,64.866-30.032
				C439.683,475.894,413.524,494.889,384,494.933z M452.267,392.533c-0.043,37.685-30.582,68.224-68.267,68.267H128
				c-37.685-0.043-68.224-30.582-68.267-68.267v-68.267C59.776,286.582,90.315,256.043,128,256h47.284
				c-54.379,16.935-89.951,50.458-89.951,87.983c0,55.933,74.967,99.75,170.667,99.75s170.667-43.817,170.667-99.75
				c0-37.525-35.572-71.048-89.951-87.983H384c37.685,0.043,68.224,30.582,68.267,68.267V392.533z"/>
			<path d="M130.475,338.859c2.441,2.444,6.125,3.154,9.3,1.792c1.034-0.433,1.987-1.039,2.817-1.792
				c1.604-1.606,2.496-3.789,2.475-6.059c-0.033-2.259-0.917-4.422-2.475-6.059c-0.429-0.341-0.854-0.683-1.279-1.025
				c-0.475-0.325-0.992-0.582-1.538-0.767c-0.485-0.246-1.003-0.42-1.537-0.517c-1.664-0.348-3.394-0.167-4.95,0.517
				c-1.044,0.412-1.998,1.02-2.813,1.792c-1.56,1.635-2.444,3.799-2.475,6.058c-0.016,1.109,0.186,2.211,0.596,3.242
				C129.091,337.062,129.723,338.009,130.475,338.859z"/>
			<path d="M159.659,360.875c-0.407-0.366-0.834-0.708-1.279-1.025c-0.475-0.325-0.992-0.582-1.538-0.767
				c-0.485-0.246-1.003-0.42-1.537-0.517c-2.811-0.571-5.721,0.295-7.763,2.308c-0.773,0.815-1.383,1.772-1.796,2.817
				c-0.906,2.066-0.906,4.417,0,6.483c0.78,2.141,2.467,3.828,4.608,4.608c2.066,0.911,4.421,0.911,6.487,0
				c1.034-0.433,1.987-1.039,2.817-1.792c0.751-0.832,1.357-1.784,1.792-2.817c0.911-2.065,0.911-4.418,0-6.483
				C161.037,362.647,160.429,361.691,159.659,360.875z"/>
			<path d="M147.541,313.259c3.365,3.3,8.752,3.3,12.117,0c0.751-0.832,1.357-1.784,1.792-2.817
				c0.479-1.012,0.713-2.123,0.683-3.242c-0.033-2.259-0.917-4.422-2.475-6.059c-0.83-0.753-1.783-1.359-2.817-1.792
				c-1.556-0.684-3.286-0.865-4.95-0.517c-0.535,0.096-1.053,0.27-1.537,0.517c-0.543,0.185-1.059,0.443-1.533,0.767
				c-0.429,0.341-0.854,0.683-1.279,1.025c-1.56,1.635-2.444,3.799-2.475,6.059c0.012,1.115,0.243,2.216,0.679,3.242
				C146.181,311.475,146.788,312.428,147.541,313.259z"/>
			<path d="M187.733,401.067c1.115-0.014,2.216-0.246,3.242-0.683c1.034-0.433,1.987-1.039,2.817-1.792
				c1.591-1.614,2.48-3.791,2.475-6.058c-0.033-2.259-0.917-4.422-2.475-6.059c-0.816-0.771-1.772-1.379-2.817-1.792
				c-2.077-0.858-4.41-0.858-6.487,0c-1.044,0.412-1.998,1.02-2.813,1.792c-1.56,1.635-2.444,3.799-2.475,6.059
				c-0.022,2.27,0.87,4.453,2.475,6.058C183.28,400.197,185.463,401.089,187.733,401.067z"/>
			<path d="M252.754,413.183c2.066,0.911,4.421,0.911,6.487,0c1.034-0.433,1.987-1.039,2.817-1.792
				c1.604-1.606,2.496-3.788,2.475-6.058c-0.033-2.259-0.917-4.422-2.475-6.059c-0.83-0.753-1.783-1.359-2.817-1.792
				c-1.556-0.684-3.286-0.865-4.95-0.517c-0.535,0.096-1.053,0.27-1.537,0.517c-0.543,0.185-1.059,0.443-1.533,0.767
				c-0.429,0.341-0.854,0.683-1.279,1.025c-1.559,1.635-2.443,3.799-2.475,6.059c-0.023,2.27,0.869,4.454,2.475,6.059
				C250.771,412.145,251.722,412.751,252.754,413.183z"/>
			<path d="M215.808,407.125c0.829,0.753,1.78,1.359,2.813,1.792c2.067,0.911,4.421,0.911,6.487,0
				c1.034-0.433,1.987-1.039,2.817-1.792c0.751-0.832,1.357-1.784,1.792-2.817c0.478-1.012,0.713-2.123,0.683-3.242
				c-0.014-1.115-0.246-2.216-0.683-3.242c-0.393-1.054-1.004-2.014-1.792-2.817c-0.407-0.366-0.834-0.708-1.279-1.025
				c-0.475-0.325-0.992-0.582-1.538-0.767c-0.485-0.246-1.003-0.42-1.537-0.517c-1.124-0.25-2.289-0.25-3.413,0
				c-0.535,0.096-1.053,0.27-1.537,0.517c-0.543,0.185-1.059,0.443-1.533,0.767c-0.447,0.315-0.874,0.657-1.279,1.025
				c-0.791,0.801-1.403,1.761-1.796,2.817c-0.906,2.066-0.906,4.417,0,6.483C214.447,405.342,215.054,406.295,215.808,407.125z"/>
			<path d="M369.408,338.859c2.441,2.444,6.125,3.154,9.3,1.792c1.034-0.433,1.987-1.039,2.817-1.792
				c0.751-0.832,1.357-1.784,1.792-2.817c0.438-1.026,0.67-2.127,0.683-3.242c-0.033-2.259-0.917-4.422-2.475-6.059
				c-0.429-0.341-0.854-0.683-1.279-1.025c-0.475-0.325-0.992-0.582-1.538-0.767c-0.485-0.246-1.003-0.42-1.537-0.517
				c-1.664-0.348-3.394-0.167-4.95,0.517c-1.044,0.412-1.998,1.02-2.813,1.792c-1.56,1.635-2.444,3.799-2.475,6.058
				C366.91,335.07,367.802,337.254,369.408,338.859z"/>
			<path d="M352.341,372.992c0.829,0.753,1.78,1.359,2.813,1.792c2.066,0.911,4.421,0.911,6.487,0
				c1.034-0.433,1.987-1.039,2.817-1.792c0.751-0.832,1.357-1.784,1.792-2.817c0.911-2.065,0.911-4.418,0-6.483
				c-0.413-1.044-1.021-2-1.792-2.817c-2.044-2.014-4.955-2.879-7.767-2.308c-0.535,0.096-1.053,0.27-1.537,0.517
				c-0.524,0.169-1.015,0.428-1.45,0.767c-0.489,0.293-0.945,0.636-1.362,1.024c-0.773,0.815-1.383,1.772-1.796,2.817
				c-0.906,2.066-0.906,4.417,0,6.483C350.98,371.209,351.588,372.161,352.341,372.992z"/>
			<path d="M352.341,313.259c3.365,3.3,8.752,3.3,12.117,0c0.749-0.85,1.379-1.798,1.875-2.817c0.413-1.03,0.617-2.132,0.6-3.242
				c-0.033-2.259-0.917-4.422-2.475-6.059c-0.816-0.771-1.772-1.379-2.817-1.792c-1.556-0.684-3.286-0.865-4.95-0.517
				c-0.535,0.096-1.053,0.27-1.537,0.517c-0.543,0.185-1.059,0.443-1.533,0.767c-0.429,0.341-0.854,0.683-1.279,1.025
				c-1.56,1.635-2.444,3.799-2.475,6.059c0.012,1.115,0.243,2.216,0.679,3.242C350.981,311.475,351.588,312.428,352.341,313.259z"/>
			<path d="M324.267,401.067c1.115-0.014,2.216-0.246,3.242-0.683c1.034-0.433,1.987-1.039,2.817-1.792
				c1.604-1.606,2.496-3.788,2.475-6.058c-0.033-2.259-0.917-4.422-2.475-6.059c-2.473-2.388-6.122-3.09-9.304-1.792
				c-1.033,0.433-1.984,1.039-2.813,1.792c-1.56,1.635-2.444,3.799-2.475,6.059c-0.022,2.27,0.87,4.453,2.475,6.058
				C319.813,400.197,321.997,401.089,324.267,401.067z"/>
			<path d="M284.075,407.125c0.828,0.753,1.78,1.359,2.813,1.792c2.066,0.911,4.421,0.911,6.487,0
				c1.034-0.433,1.987-1.039,2.817-1.792c0.751-0.832,1.357-1.784,1.792-2.817c0.478-1.012,0.713-2.123,0.683-3.242
				c-0.014-1.115-0.246-2.216-0.683-3.242c-0.393-1.054-1.004-2.014-1.792-2.817c-2.05-2.002-4.956-2.866-7.767-2.308
				c-0.535,0.096-1.053,0.27-1.537,0.517c-0.543,0.185-1.059,0.443-1.533,0.767c-0.447,0.315-0.874,0.657-1.279,1.025
				c-0.791,0.801-1.403,1.761-1.796,2.817c-0.906,2.066-0.906,4.417,0,6.483C282.714,405.342,283.321,406.295,284.075,407.125z"/>
		</g>
	</g>
</g>
<g>
</g>
<g>
</g>
<g>
</g>
<g>
</g>
<g>
</g>
<g>
</g>
<g>
</g>
<g>
</g>
<g>
</g>
<g>
</g>
<g>
</g>
<g>
</g>
<g>
</g>
<g>
</g>
<g>
</g>
</svg>
