<?xml version="1.0" encoding="iso-8859-1"?>
<!-- Generator: Adobe Illustrator 19.0.0, SVG Export Plug-In . SVG Version: 6.00 Build 0)  -->
<svg version="1.1" id="Capa_1" xmlns="http://www.w3.org/2000/svg" xmlns:xlink="http://www.w3.org/1999/xlink" x="0px" y="0px"
	 viewBox="0 0 512 512" style="enable-background:new 0 0 512 512;" xml:space="preserve">
<g>
	<g>
		<g>
			<path d="M511.996,290.112c-0.006-4.448-0.505-8.882-1.487-13.22l-19.375-85.358c-6.16-27.235-30.398-46.546-58.321-46.467
				h-57.346v-128C375.456,7.645,367.821,0.011,358.4,0H153.6c-9.421,0.011-17.056,7.645-17.067,17.067v128H83.03
				c-26.925,0.028-50.515,18.035-57.642,44L2.092,274.409c-1.36,5.069-2.051,10.295-2.055,15.544C0.035,290.016,0,290.069,0,290.133
				v162.133l0.002,0.009c0.043,15.828,6.331,31,17.498,42.217C28.667,505.745,43.88,512.051,59.733,512h392.533
				c15.859,0.048,31.075-6.264,42.242-17.525c11.164-11.212,17.45-26.378,17.49-42.2l0.002-0.009V290.192v-0.058L511.996,290.112z
				 M153.6,17.067h204.8v221.867h-17.067V179.2c0.001-2.263-0.898-4.434-2.499-6.035c-1.6-1.6-3.771-2.499-6.035-2.499
				c-4.713,0-8.533-3.82-8.533-8.533s3.821-8.533,8.533-8.533c2.263,0.001,4.434-0.898,6.035-2.499c1.6-1.6,2.499-3.771,2.499-6.035
				V85.333c0-2.263-0.899-4.433-2.5-6.033L304.7,45.167c-1.6-1.6-3.77-2.5-6.033-2.5h-85.333c-2.263,0.001-4.433,0.9-6.033,2.5
				L173.167,79.3c-1.601,1.6-2.5,3.77-2.5,6.033v59.733c-0.001,2.263,0.898,4.434,2.499,6.035c1.6,1.6,3.771,2.499,6.035,2.499
				c4.713,0,8.533,3.82,8.533,8.533s-3.82,8.533-8.533,8.533c-2.263-0.001-4.434,0.898-6.035,2.499
				c-1.6,1.6-2.499,3.771-2.499,6.035v59.733H153.6V17.067z M324.267,186.16v52.773h-34.133v-76.8
				c-0.011-9.421-7.646-17.056-17.067-17.067h-34.133c-9.421,0.011-17.056,7.646-17.067,17.067v59.733
				c0,2.263,0.899,4.433,2.5,6.033l11.033,11.034h-47.667V186.16c10.22-3.564,17.067-13.203,17.067-24.027
				c0-10.824-6.847-20.463-17.067-24.027v-49.24l29.133-29.133h78.267l29.133,29.133v49.24
				c-10.22,3.564-17.067,13.203-17.067,24.027C307.2,172.957,314.047,182.596,324.267,186.16z M273.067,162.133v76.8h-13.533
				l-20.6-20.6v-56.2H273.067z M18.558,278.9l23.296-85.342c5.091-18.546,21.943-31.407,41.175-31.425h53.504v76.8h-17.067
				c-4.713,0-8.533,3.82-8.533,8.533s3.82,8.533,8.533,8.533h273.067c4.713,0,8.533-3.82,8.533-8.533s-3.821-8.533-8.533-8.533
				h-17.067v-76.8h57.346c19.956-0.055,37.278,13.745,41.684,33.208l19.371,85.325c0.712,3.136,1.069,6.343,1.067,9.559v0.038
				c-0.098,23.503-19.164,42.511-42.667,42.537H59.733c-13.297-0.009-25.831-6.212-33.903-16.778
				C17.759,305.455,15.07,291.731,18.558,278.9z M290.146,384h-68.279v-34.133h68.271L290.146,384z M494.936,452.279l-0.003,0.013
				c-0.032,11.302-4.529,22.133-12.513,30.133c-7.971,8.039-18.833,12.545-30.154,12.508H59.733
				c-11.316,0.04-22.175-4.46-30.146-12.492c-7.986-8.006-12.486-18.842-12.521-30.15l-0.003-0.013l0.003-0.013V331.916
				c11.198,11.525,26.598,18.004,42.667,17.951H204.8V384c0.011,9.421,7.646,17.056,17.067,17.067h68.267
				c9.421-0.011,17.056-7.646,17.067-17.067v-34.133h145.067c16.074,0.027,31.47-6.469,42.669-18.002l-0.003,120.402
				L494.936,452.279z"/>
			<path d="M179.2,51.2c2.27,0.022,4.453-0.87,6.058-2.475c1.605-1.605,2.497-3.788,2.475-6.058c0-4.713-3.82-8.533-8.533-8.533
				s-8.533,3.82-8.533,8.533c-0.022,2.27,0.87,4.453,2.475,6.058C174.747,50.33,176.93,51.222,179.2,51.2z"/>
			<path d="M329.554,50.517c2.624,1.125,5.639,0.848,8.015-0.735c2.376-1.583,3.792-4.26,3.764-7.115
				c0-4.713-3.821-8.533-8.533-8.533c-4.713,0-8.533,3.82-8.533,8.533c-0.023,2.27,0.869,4.454,2.475,6.059
				C327.57,49.478,328.522,50.084,329.554,50.517z"/>
			<path d="M281.6,76.8h-51.2c-14.138,0-25.6,11.462-25.6,25.6s11.462,25.6,25.6,25.6h51.2c14.138,0,25.6-11.461,25.6-25.6
				S295.739,76.8,281.6,76.8z M281.6,110.933h-51.2c-4.713,0-8.533-3.82-8.533-8.533s3.82-8.533,8.533-8.533h51.2
				c4.713,0,8.533,3.82,8.533,8.533S286.313,110.933,281.6,110.933z"/>
			<path d="M435.2,315.733c19.142,0,34.133-11.242,34.133-25.6c0-14.358-14.992-25.6-34.133-25.6
				c-19.142,0-34.133,11.242-34.133,25.6C401.067,304.492,416.059,315.733,435.2,315.733z M435.2,281.6
				c10.417,0,17.067,5.05,17.067,8.533c0,3.483-6.65,8.533-17.067,8.533s-17.067-5.05-17.067-8.533
				C418.134,286.65,424.784,281.6,435.2,281.6z"/>
		</g>
	</g>
</g>
<g>
</g>
<g>
</g>
<g>
</g>
<g>
</g>
<g>
</g>
<g>
</g>
<g>
</g>
<g>
</g>
<g>
</g>
<g>
</g>
<g>
</g>
<g>
</g>
<g>
</g>
<g>
</g>
<g>
</g>
</svg>
