<?xml version="1.0" encoding="iso-8859-1"?>
<!-- Generator: Adobe Illustrator 19.0.0, SVG Export Plug-In . SVG Version: 6.00 Build 0)  -->
<svg version="1.1" id="Capa_1" xmlns="http://www.w3.org/2000/svg" xmlns:xlink="http://www.w3.org/1999/xlink" x="0px" y="0px"
	 viewBox="0 0 512 512" style="enable-background:new 0 0 512 512;" xml:space="preserve">
<g>
	<g>
		<g>
			<path d="M256,0C114.615,0,0,114.615,0,256s114.615,256,256,256s256-114.615,256-256C511.84,114.682,397.318,0.16,256,0z
				 M256,494.933C124.041,494.933,17.067,387.959,17.067,256S124.041,17.067,256,17.067S494.933,124.041,494.933,256
				C494.785,387.898,387.898,494.785,256,494.933z"/>
			<path d="M467.865,281.719c-4.649-0.745-9.022,2.416-9.773,7.064c-1.792,11.121-4.501,22.076-8.1,32.75
				c-1.507,4.464,0.887,9.305,5.35,10.817c2.144,0.725,4.488,0.569,6.517-0.434c2.029-1.003,3.575-2.772,4.3-4.916
				c3.906-11.575,6.844-23.455,8.783-35.517C475.681,286.833,472.514,282.464,467.865,281.719z"/>
			<path d="M442.894,349.849c-3.054,0.068-5.838,1.762-7.302,4.443C399.664,419.922,330.82,460.75,256,460.8
				c-16.564,0.006-33.067-1.995-49.15-5.958c-2.966-0.752-6.108,0.142-8.234,2.343s-2.911,5.372-2.057,8.31
				c0.854,2.938,3.216,5.195,6.19,5.913c97.742,24.11,199.468-20.594,247.808-108.9c1.476-2.674,1.41-5.933-0.171-8.546
				C448.805,351.35,445.947,349.781,442.894,349.849z"/>
			<path d="M174.092,443.709L174.092,443.709c-22.256-9.745-42.598-23.374-60.075-40.25c-3.394-3.257-8.784-3.152-12.05,0.233
				c-3.266,3.385-3.177,8.775,0.2,12.05c18.931,18.281,40.967,33.045,65.075,43.6c1.077,0.474,2.24,0.719,3.417,0.717
				c4.041,0.005,7.531-2.825,8.361-6.78C179.851,449.324,177.794,445.33,174.092,443.709z"/>
			<path d="M53.908,288.783c-0.751-4.648-5.124-7.809-9.773-7.064c-4.649,0.745-7.816,5.115-7.077,9.764
				c5.074,31.822,17.104,62.134,35.233,88.775c1.705,2.542,4.64,3.978,7.693,3.762c3.053-0.216,5.758-2.049,7.088-4.806
				c1.33-2.757,1.083-6.015-0.648-8.539C69.691,346.104,58.588,318.141,53.908,288.783z"/>
			<path d="M256,401.067c4.713,0,8.533-3.821,8.533-8.533v-42.667H307.2c4.713,0,8.533-3.82,8.533-8.533s-3.82-8.533-8.533-8.533
				h-42.667v-42.667c0-4.713-3.82-8.533-8.533-8.533s-8.533,3.82-8.533,8.533V332.8H204.8c-4.713,0-8.533,3.821-8.533,8.533
				s3.82,8.533,8.533,8.533h42.667v42.667C247.467,397.246,251.287,401.067,256,401.067z"/>
			<path d="M187.733,153.6h76.8c4.713,0,8.533-3.821,8.533-8.533s-3.821-8.533-8.533-8.533h-76.8c-4.713,0-8.533,3.82-8.533,8.533
				S183.021,153.6,187.733,153.6z"/>
			<path d="M298.667,153.6h25.6c4.713,0,8.533-3.821,8.533-8.533s-3.82-8.533-8.533-8.533h-25.6c-4.713,0-8.533,3.82-8.533,8.533
				S293.954,153.6,298.667,153.6z"/>
			<path d="M332.8,179.2c0-4.713-3.82-8.533-8.533-8.533h-59.733c-4.713,0-8.533,3.82-8.533,8.533s3.82,8.533,8.533,8.533h59.733
				C328.979,187.733,332.8,183.913,332.8,179.2z"/>
			<path d="M236.435,185.235c1.601-1.601,2.499-3.772,2.498-6.035c0.001-2.264-0.897-4.435-2.498-6.035s-3.772-2.499-6.035-2.498
				h-42.667c-4.713,0-8.533,3.82-8.533,8.533s3.82,8.533,8.533,8.533H230.4C232.664,187.735,234.835,186.836,236.435,185.235z"/>
		</g>
	</g>
</g>
<g>
</g>
<g>
</g>
<g>
</g>
<g>
</g>
<g>
</g>
<g>
</g>
<g>
</g>
<g>
</g>
<g>
</g>
<g>
</g>
<g>
</g>
<g>
</g>
<g>
</g>
<g>
</g>
<g>
</g>
</svg>
