<?xml version="1.0" encoding="iso-8859-1"?>
<!-- Generator: Adobe Illustrator 19.0.0, SVG Export Plug-In . SVG Version: 6.00 Build 0)  -->
<svg version="1.1" id="Capa_1" xmlns="http://www.w3.org/2000/svg" xmlns:xlink="http://www.w3.org/1999/xlink" x="0px" y="0px"
	 viewBox="0 0 512 512" style="enable-background:new 0 0 512 512;" xml:space="preserve">
<g>
	<g>
		<g>
			<path d="M494.933,119.467h-68.267c-1.068,0.01-2.124,0.223-3.113,0.628c-0.315,0.152-0.62,0.325-0.914,0.516
				c-0.596,0.305-1.153,0.681-1.659,1.118c-0.714,0.727-1.329,1.545-1.829,2.432c-0.189,0.373-0.349,0.761-0.478,1.158
				c-0.125,0.263-0.236,0.532-0.332,0.807c-5.56,2.5-11.924,2.5-17.483,0c-0.096-0.274-0.206-0.543-0.331-0.805
				c-0.504-1.349-1.291-2.573-2.308-3.593c-0.506-0.436-1.062-0.811-1.656-1.116c-0.294-0.192-0.6-0.365-0.917-0.518
				c-0.988-0.405-2.045-0.618-3.113-0.627h-68.267c-9.421,0.012-17.054,7.646-17.067,17.067v162.983
				c0.048,18.096,7.231,35.443,19.992,48.275l31.208,31.175v64.767c0.021,6.069,3.272,11.667,8.533,14.692v36.508
				c0.012,9.421,7.646,17.054,17.067,17.067h51.2c9.421-0.012,17.054-7.646,17.067-17.067v-36.508
				c5.261-3.025,8.513-8.623,8.533-14.692l-0.01-25.551l0.01-0.049l-0.01-0.049l-0.015-39.059l31.233-31.233
				c12.76-12.832,19.944-30.179,19.992-48.275V136.533C511.988,127.113,504.354,119.479,494.933,119.467z M401.067,144.208
				c5.634,1.117,11.433,1.117,17.067,0v77.658c0,4.713-3.82,8.533-8.533,8.533s-8.533-3.82-8.533-8.533V144.208z M384,494.933V460.8
				h51.2l0.017,34.133H384z M494.933,299.517c-0.037,13.572-5.424,26.582-14.992,36.208l-31.233,31.233
				c-3.173,3.193-4.96,7.507-4.975,12.008V409.6h-17.067c-4.713,0-8.533,3.82-8.533,8.533s3.82,8.533,8.533,8.533h17.067v17.067
				h-68.267v-17.067h17.067c4.713,0,8.533-3.82,8.533-8.533s-3.821-8.533-8.533-8.533h-17.067v-30.633
				c-0.015-4.501-1.802-8.816-4.975-12.008l-31.233-31.233c-9.568-9.626-14.954-22.636-14.992-36.208V136.533H384v85.333
				c0,14.138,11.462,25.6,25.6,25.6s25.6-11.461,25.6-25.6v-85.333h59.733V299.517z"/>
			<path d="M247.467,136.533h-8.533V25.6c0-14.138-11.461-25.6-25.6-25.6c-14.138,0-25.6,11.461-25.6,25.6v110.933h-102.4V25.6
				c0-14.138-11.461-25.6-25.6-25.6s-25.6,11.461-25.6,25.6v110.933H25.6c-14.132,0.015-25.585,11.468-25.6,25.6v121.025
				c-0.014,11.799,3.481,23.335,10.042,33.142l37.542,56.283c4.72,7.146,12.719,11.437,21.283,11.417h16.467v59.733
				c-0.001,2.264,0.897,4.435,2.498,6.035c1.601,1.601,3.772,2.499,6.035,2.498v42.667c0.012,9.421,7.646,17.054,17.067,17.067h51.2
				c9.421-0.012,17.054-7.646,17.067-17.067v-42.667c2.264,0.001,4.435-0.897,6.035-2.498c1.601-1.601,2.499-3.772,2.498-6.035V384
				H204.2c8.554,0.023,16.546-4.258,21.267-11.392l37.55-56.3c6.565-9.808,10.064-21.347,10.05-33.15V162.133
				C273.051,148.001,261.599,136.549,247.467,136.533z M204.8,25.6c0-4.713,3.821-8.533,8.533-8.533c4.713,0,8.533,3.82,8.533,8.533
				v68.267H204.8V25.6z M204.8,110.933h17.067v25.6H204.8V110.933z M204.8,153.6v136.533H68.267V153.6H76.8H204.8z M51.2,25.6
				c0-4.713,3.82-8.533,8.533-8.533s8.533,3.82,8.533,8.533v68.267H51.2V25.6z M51.2,110.933h17.067v25.6H51.2V110.933z
				 M17.067,283.158V162.133c0.003-4.712,3.822-8.53,8.533-8.533h25.6v136.533H17.684C17.288,287.829,17.081,285.496,17.067,283.158
				z M110.933,494.933v-42.667h51.2l0.017,42.667H110.933z M170.667,401.067H153.6c-4.713,0-8.533,3.82-8.533,8.533
				s3.821,8.533,8.533,8.533h17.067V435.2H102.4v-17.067h17.067c4.713,0,8.533-3.82,8.533-8.533s-3.821-8.533-8.533-8.533H102.4V384
				h68.267V401.067z M211.25,363.167c-1.565,2.363-4.216,3.779-7.05,3.767H68.867c-2.844,0.01-5.502-1.416-7.067-3.792L24.483,307.2
				H248.58L211.25,363.167z M256,283.158c-0.015,2.338-0.221,4.671-0.618,6.975h-33.516V153.6h25.6
				c4.712,0.003,8.53,3.822,8.533,8.533V283.158z"/>
		</g>
	</g>
</g>
<g>
</g>
<g>
</g>
<g>
</g>
<g>
</g>
<g>
</g>
<g>
</g>
<g>
</g>
<g>
</g>
<g>
</g>
<g>
</g>
<g>
</g>
<g>
</g>
<g>
</g>
<g>
</g>
<g>
</g>
</svg>
