<?xml version="1.0" encoding="iso-8859-1"?>
<!-- Generator: Adobe Illustrator 19.0.0, SVG Export Plug-In . SVG Version: 6.00 Build 0)  -->
<svg version="1.1" id="Capa_1" xmlns="http://www.w3.org/2000/svg" xmlns:xlink="http://www.w3.org/1999/xlink" x="0px" y="0px"
	 viewBox="0 0 512 512" style="enable-background:new 0 0 512 512;" xml:space="preserve">
<g>
	<g>
		<g>
			<path d="M486.4,34.133h-68.267V25.6c-0.015-14.132-11.468-25.585-25.6-25.6H119.467c-14.132,0.015-25.585,11.468-25.6,25.6v8.533
				H25.6C11.468,34.149,0.015,45.601,0,59.733v443.733c-0.001,2.264,0.897,4.435,2.498,6.035c1.601,1.601,3.772,2.499,6.035,2.498
				h494.933c2.264,0.001,4.435-0.897,6.035-2.498c1.601-1.601,2.499-3.772,2.498-6.035V59.733
				C511.985,45.601,500.532,34.149,486.4,34.133z M93.867,494.933h-76.8v-435.2c0.003-4.712,3.822-8.53,8.533-8.533h68.267V494.933z
				 M401.067,494.933H110.933V25.6c0.003-4.711,3.822-8.53,8.533-8.533h273.067c4.712,0.003,8.53,3.822,8.533,8.533V494.933z
				 M494.933,494.933h-76.8V51.2H486.4c4.712,0.003,8.53,3.822,8.533,8.533V494.933z"/>
			<path d="M256,247.467c-37.703,0-68.267,30.564-68.267,68.267S218.297,384,256,384s68.267-30.564,68.267-68.267
				C324.224,278.049,293.685,247.51,256,247.467z M256,366.933c-28.277,0-51.2-22.923-51.2-51.2s22.923-51.2,51.2-51.2
				s51.2,22.923,51.2,51.2C307.169,343.997,284.264,366.902,256,366.933z"/>
			<path d="M278.783,290.367c-1.679-1.517-3.893-2.304-6.153-2.188s-4.381,1.125-5.897,2.805c-1.517,1.679-2.304,3.893-2.189,6.153
				c0.116,2.26,1.125,4.381,2.805,5.897c5.29,4.71,7.12,12.199,4.6,18.818c-2.52,6.619-8.867,10.994-15.95,10.994
				c-7.083,0-13.43-4.375-15.95-10.994c-2.52-6.619-0.69-14.107,4.6-18.818c2.267-2.041,3.271-5.138,2.634-8.121
				c-0.637-2.983-2.818-5.399-5.72-6.337s-6.085-0.255-8.347,1.791c-10.533,9.442-14.151,24.402-9.096,37.614
				c5.055,13.211,17.734,21.936,31.88,21.936c14.145,0,26.825-8.725,31.88-21.936C292.934,314.769,289.316,299.808,278.783,290.367z
				"/>
			<path d="M324.267,179.2H187.733c-2.264-0.001-4.435,0.897-6.035,2.498s-2.499,3.772-2.498,6.035V204.8
				c0.015,14.132,11.468,25.585,25.6,25.6h102.4c14.132-0.015,25.585-11.468,25.6-25.6v-17.067c0.001-2.264-0.897-4.435-2.498-6.035
				C328.701,180.097,326.53,179.199,324.267,179.2z M315.733,204.8c-0.003,4.712-3.822,8.53-8.533,8.533H204.8
				c-4.711-0.003-8.53-3.822-8.533-8.533v-8.533h119.467V204.8z"/>
			<path d="M324.267,110.933H187.733c-2.264-0.001-4.435,0.897-6.035,2.498s-2.499,3.772-2.498,6.035v17.067
				c0.015,14.132,11.468,25.585,25.6,25.6h102.4c14.132-0.015,25.585-11.468,25.6-25.6v-17.067c0.001-2.264-0.897-4.435-2.498-6.035
				C328.701,111.831,326.53,110.932,324.267,110.933z M315.733,136.533c-0.003,4.712-3.822,8.53-8.533,8.533H204.8
				c-4.711-0.003-8.53-3.822-8.533-8.533V128h119.467V136.533z"/>
			<path d="M324.267,42.667H187.733c-2.264-0.001-4.435,0.897-6.035,2.498s-2.499,3.772-2.498,6.035v17.067
				c0.015,14.132,11.468,25.585,25.6,25.6h102.4c14.132-0.015,25.585-11.468,25.6-25.6V51.2c0.001-2.264-0.897-4.435-2.498-6.035
				C328.701,43.564,326.53,42.665,324.267,42.667z M315.733,68.267c-0.003,4.712-3.822,8.53-8.533,8.533H204.8
				c-4.711-0.003-8.53-3.822-8.533-8.533v-8.533h119.467V68.267z"/>
			<path d="M273.067,409.6h-76.8c-4.713,0-8.533,3.82-8.533,8.533s3.82,8.533,8.533,8.533h76.8c4.713,0,8.533-3.82,8.533-8.533
				S277.779,409.6,273.067,409.6z"/>
			<path d="M315.733,409.6H307.2c-4.713,0-8.533,3.82-8.533,8.533s3.82,8.533,8.533,8.533h8.533c4.713,0,8.533-3.82,8.533-8.533
				S320.446,409.6,315.733,409.6z"/>
		</g>
	</g>
</g>
<g>
</g>
<g>
</g>
<g>
</g>
<g>
</g>
<g>
</g>
<g>
</g>
<g>
</g>
<g>
</g>
<g>
</g>
<g>
</g>
<g>
</g>
<g>
</g>
<g>
</g>
<g>
</g>
<g>
</g>
</svg>
