<?xml version="1.0" encoding="iso-8859-1"?>
<!-- Generator: Adobe Illustrator 19.0.0, SVG Export Plug-In . SVG Version: 6.00 Build 0)  -->
<svg version="1.1" id="Capa_1" xmlns="http://www.w3.org/2000/svg" xmlns:xlink="http://www.w3.org/1999/xlink" x="0px" y="0px"
	 viewBox="0 0 512.114 512.114" style="enable-background:new 0 0 512.114 512.114;" xml:space="preserve">
<g transform="translate(-1)">
	<g>
		<g>
			<path d="M123.056,270.649c2.441,2.444,6.125,3.154,9.3,1.792l0,0c1.034-0.434,1.986-1.04,2.817-1.792
				c2.444-2.441,3.154-6.125,1.792-9.3c-0.412-1.045-1.02-2.001-1.792-2.817c-2.044-2.013-4.955-2.878-7.767-2.308
				c-0.534,0.096-1.05,0.27-1.533,0.517c-0.546,0.184-1.065,0.442-1.542,0.767l-1.275,1.025c-0.772,0.816-1.38,1.772-1.792,2.817
				c-0.437,1.026-0.669,2.127-0.683,3.242c-0.031,1.119,0.203,2.23,0.683,3.242C121.698,268.866,122.304,269.818,123.056,270.649z"
				/>
			<path d="M132.408,391.975c3.191-1.332,5.261-4.46,5.24-7.918c-0.033-2.259-0.917-4.422-2.475-6.059
				c-3.421-3.158-8.695-3.158-12.117,0c-0.754,0.829-1.36,1.782-1.792,2.817c-1.337,3.189-0.614,6.87,1.829,9.317
				S129.217,393.307,132.408,391.975z"/>
			<path d="M468.739,256.224c-0.534,0.096-1.05,0.271-1.533,0.517c-0.546,0.184-1.065,0.442-1.542,0.767l-1.275,1.025
				c-0.772,0.816-1.38,1.772-1.792,2.817c-1.362,3.175-0.653,6.859,1.79,9.302c2.443,2.443,6.127,3.152,9.302,1.79
				c1.034-0.434,1.986-1.04,2.817-1.792c1.603-1.607,2.494-3.789,2.476-6.058c-0.033-2.259-0.917-4.422-2.475-6.059
				C474.462,256.519,471.551,255.654,468.739,256.224z"/>
			<path d="M476.506,377.999c-0.419-0.387-0.877-0.731-1.367-1.025c-0.434-0.339-0.925-0.599-1.45-0.767
				c-0.484-0.245-1-0.419-1.533-0.517c-2.812-0.571-5.724,0.294-7.767,2.308c-1.561,1.634-2.445,3.799-2.475,6.059
				c-0.043,3.475,2.025,6.629,5.23,7.975c3.204,1.345,6.905,0.613,9.355-1.851c2.451-2.464,3.162-6.169,1.799-9.365
				C477.866,379.781,477.26,378.828,476.506,377.999z"/>
			<path d="M487.514,221.924h-42.667v-8.533c-0.015-14.132-11.468-25.585-25.6-25.6H180.314c-14.132,0.015-25.585,11.468-25.6,25.6
				v8.533h-42.667c-14.132,0.015-25.585,11.468-25.6,25.6v51.2h-25.6v-230.4c-0.012-9.421-7.646-17.054-17.067-17.067H26.223
				c-9.269-0.043-16.863,7.35-17.067,16.617l-0.69,25.999l-0.01,0.05l0.008,0.039L1.006,375.074
				c-0.118,4.603,1.627,9.059,4.84,12.357c3.213,3.298,7.622,5.159,12.227,5.16h25.708c9.421-0.012,17.054-7.646,17.067-17.067
				v-25.6h25.6v51.2c0.015,14.132,11.468,25.585,25.6,25.6h42.667v8.533c0.015,14.132,11.468,25.585,25.6,25.6h238.933
				c14.132-0.015,25.585-11.468,25.6-25.6v-8.533h42.667c14.132-0.015,25.585-11.468,25.6-25.6v-153.6
				C513.099,233.392,501.646,221.939,487.514,221.924z M26.222,68.324h17.559l0.001,17.067H25.77L26.222,68.324z M18.073,375.524
				l7.244-273.067h18.466l0.011,204.736l-0.013,0.064v34.133l0.015,0.073l0.002,34.06H18.073z M60.848,332.857v-17.067h59.733
				v17.067H60.848z M154.714,409.657h-42.667c-4.712-0.003-8.53-3.822-8.533-8.533v-51.2h51.2V409.657z M154.714,332.857h-17.067
				v-17.067h17.067V332.857z M154.714,298.724h-51.2v-51.2c0.003-4.712,3.822-8.53,8.533-8.533h42.667V298.724z M427.781,435.257
				c-0.003,4.711-3.822,8.53-8.533,8.533H180.314c-4.712-0.003-8.53-3.822-8.533-8.533V213.391c0.003-4.711,3.822-8.53,8.533-8.533
				h238.933c4.711,0.003,8.53,3.822,8.533,8.533V435.257z M496.048,401.124c-0.003,4.712-3.822,8.53-8.533,8.533h-42.667V238.991
				h42.667c4.712,0.003,8.53,3.822,8.533,8.533V401.124z"/>
			<path d="M342.448,221.924H205.914c-9.421,0.012-17.054,7.646-17.067,17.067v34.133c0.012,9.421,7.646,17.054,17.067,17.067
				h136.533c9.421-0.012,17.054-7.646,17.067-17.067v-34.133C359.502,229.57,351.868,221.936,342.448,221.924z M205.914,273.124
				v-34.133h136.533l0.017,34.133H205.914z"/>
			<path d="M282.714,307.257h-85.333c-4.713,0-8.533,3.82-8.533,8.533s3.82,8.533,8.533,8.533h85.333
				c4.713,0,8.533-3.82,8.533-8.533S287.427,307.257,282.714,307.257z"/>
			<path d="M325.381,307.257h-8.533c-4.713,0-8.533,3.82-8.533,8.533s3.82,8.533,8.533,8.533h8.533c4.713,0,8.533-3.82,8.533-8.533
				S330.094,307.257,325.381,307.257z"/>
		</g>
	</g>
</g>
<g>
</g>
<g>
</g>
<g>
</g>
<g>
</g>
<g>
</g>
<g>
</g>
<g>
</g>
<g>
</g>
<g>
</g>
<g>
</g>
<g>
</g>
<g>
</g>
<g>
</g>
<g>
</g>
<g>
</g>
</svg>
