<?xml version="1.0" encoding="iso-8859-1"?>
<!-- Generator: Adobe Illustrator 19.0.0, SVG Export Plug-In . SVG Version: 6.00 Build 0)  -->
<svg version="1.1" id="Capa_1" xmlns="http://www.w3.org/2000/svg" xmlns:xlink="http://www.w3.org/1999/xlink" x="0px" y="0px"
	 viewBox="0 0 512.021 512.021" style="enable-background:new 0 0 512.021 512.021;" xml:space="preserve">
<g>
	<g>
		<g>
			<path d="M415.646,343.831c-1.601-1.601-3.772-2.499-6.035-2.498V8.533c0.001-2.264-0.897-4.435-2.498-6.035
				c-1.601-1.601-3.772-2.499-6.035-2.498H110.944c-2.264-0.001-4.435,0.897-6.035,2.498c-1.601,1.601-2.499,3.772-2.498,6.035
				v332.8c-2.264-0.001-4.435,0.897-6.035,2.498c-1.601,1.601-2.499,3.772-2.498,6.035V486.4c0,9.542,8.375,15.642,52.575,20.55
				c36.406,3.597,72.976,5.283,109.558,5.05c36.583,0.233,73.152-1.453,109.558-5.05c44.2-4.908,52.575-11.008,52.575-20.55V349.867
				C418.145,347.603,417.247,345.432,415.646,343.831z M375.477,17.067h17.067v42.667h-17.067V17.067z M375.477,76.8h17.067v204.8
				h-17.067V76.8z M375.477,307.2v-8.533h17.067v42.667h-51.2v-17.067h17.067C367.831,324.254,375.465,316.621,375.477,307.2z
				 M153.611,17.067h204.8V307.2h-17.067c-9.421,0.012-17.054,7.646-17.067,17.067v17.067H187.744v-17.067
				c-0.012-9.421-7.646-17.054-17.067-17.067h-17.067V17.067z M119.477,17.067h17.067v42.667h-17.067V17.067z M119.477,76.8h17.067
				v204.8h-17.067V76.8z M119.477,298.667h17.067v8.533c0.012,9.421,7.646,17.054,17.067,17.067h17.067v17.067h-51.2V298.667z
				 M401.077,483.014c-11.752,5.272-65.162,11.92-145.067,11.92s-133.315-6.647-145.067-11.92V358.4h290.133V483.014z"/>
			<path d="M196.277,290.133h119.467c14.132-0.015,25.585-11.468,25.6-25.6V102.4c-0.015-14.132-11.468-25.585-25.6-25.6H196.277
				c-14.132,0.015-25.585,11.468-25.6,25.6v162.133C170.693,278.665,182.145,290.118,196.277,290.133z M187.744,102.4
				c0.003-4.712,3.822-8.53,8.533-8.533h119.467c4.712,0.003,8.53,3.822,8.533,8.533v128H187.744V102.4z M187.744,247.467h136.533
				v17.067c-0.003,4.712-3.822,8.53-8.533,8.533H196.277c-4.712-0.003-8.53-3.822-8.533-8.533V247.467z"/>
			<path d="M375.477,409.6c4.713,0,8.533-3.82,8.533-8.533V384c0.001-2.264-0.897-4.435-2.498-6.035
				c-1.601-1.601-3.772-2.499-6.035-2.498c-2.264-0.001-4.435,0.897-6.035,2.498c-1.601,1.601-2.499,3.772-2.498,6.035v17.067
				C366.944,405.78,370.764,409.6,375.477,409.6z"/>
			<path d="M341.344,409.6c4.713,0,8.533-3.82,8.533-8.533V384c0.001-2.264-0.897-4.435-2.498-6.035
				c-1.601-1.601-3.772-2.499-6.035-2.498c-2.264-0.001-4.435,0.897-6.035,2.498c-1.601,1.601-2.499,3.772-2.498,6.035v17.067
				C332.811,405.78,336.631,409.6,341.344,409.6z"/>
			<path d="M230.411,477.867h68.267c9.421-0.012,17.054-7.646,17.067-17.067v-68.267c-0.012-9.421-7.646-17.054-17.067-17.067
				h-68.267c-9.421,0.012-17.055,7.646-17.067,17.067V460.8C213.356,470.221,220.99,477.854,230.411,477.867z M230.411,392.533
				h68.267l0.017,68.267h-68.284V392.533z"/>
		</g>
	</g>
</g>
<g>
</g>
<g>
</g>
<g>
</g>
<g>
</g>
<g>
</g>
<g>
</g>
<g>
</g>
<g>
</g>
<g>
</g>
<g>
</g>
<g>
</g>
<g>
</g>
<g>
</g>
<g>
</g>
<g>
</g>
</svg>
