<?xml version="1.0" encoding="iso-8859-1"?>
<!-- Generator: Adobe Illustrator 19.0.0, SVG Export Plug-In . SVG Version: 6.00 Build 0)  -->
<svg version="1.1" id="Capa_1" xmlns="http://www.w3.org/2000/svg" xmlns:xlink="http://www.w3.org/1999/xlink" x="0px" y="0px"
	 viewBox="0 0 512 512" style="enable-background:new 0 0 512 512;" xml:space="preserve">
<g>
	<g>
		<g>
			<path d="M170.667,179.2h17.067c4.713,0,8.533-3.82,8.533-8.533s-3.82-8.533-8.533-8.533h-17.067c-4.713,0-8.533,3.82-8.533,8.533
				S165.954,179.2,170.667,179.2z"/>
			<path d="M221.867,179.2h17.067c4.713,0,8.533-3.82,8.533-8.533s-3.82-8.533-8.533-8.533h-17.067c-4.713,0-8.533,3.82-8.533,8.533
				S217.154,179.2,221.867,179.2z"/>
			<path d="M273.067,179.2h17.067c4.713,0,8.533-3.82,8.533-8.533s-3.82-8.533-8.533-8.533h-17.067c-4.713,0-8.533,3.82-8.533,8.533
				S268.354,179.2,273.067,179.2z"/>
			<path d="M324.267,179.2h17.067c4.713,0,8.533-3.82,8.533-8.533s-3.821-8.533-8.533-8.533h-17.067
				c-4.713,0-8.533,3.82-8.533,8.533S319.554,179.2,324.267,179.2z"/>
			<path d="M341.333,409.6H170.667c-9.421,0.011-17.056,7.645-17.067,17.067v17.067c0.011,9.421,7.646,17.056,17.067,17.067h170.667
				c9.421-0.011,17.056-7.646,17.067-17.067v-17.067C358.389,417.246,350.755,409.611,341.333,409.6z M170.667,443.734v-17.067
				h170.667l0.013,17.067H170.667z"/>
			<path d="M461.383,16.4C461.026,7.212,453.453-0.04,444.258,0h-17.525c-9.44-0.008-17.104,7.627-17.133,17.067v128h-17.067
				c-0.028-23.553-19.114-42.639-42.667-42.667H162.133c-23.553,0.028-42.639,19.114-42.667,42.667H102.4v-128
				C102.37,7.628,94.706-0.006,85.267,0H67.742C58.544-0.042,50.97,7.217,50.621,16.409l-7.938,204.8
				c-0.195,4.631,1.52,9.138,4.746,12.467c3.243,3.353,7.706,5.25,12.371,5.258h25.467c9.439,0.006,17.103-7.628,17.133-17.067
				v-25.6h17.067v273.067c0.028,23.553,19.114,42.639,42.667,42.667h187.733c23.553-0.028,42.639-19.114,42.667-42.667V196.267
				H409.6v25.6c0.029,9.44,7.694,17.074,17.133,17.067H452.2c4.668-0.007,9.134-1.907,12.375-5.267
				c3.223-3.327,4.937-7.831,4.742-12.459L461.383,16.4z M85.267,221.867l-25.533,0.008l8.008-204.809h17.592l0.009,136.492
				l-0.009,0.041v34.133l0.01,0.051l0.002,34.048L85.267,221.867z M119.467,179.2H102.4v-17.067h17.067V179.2z M375.467,469.334
				c-0.015,14.132-11.468,25.585-25.6,25.6H162.133c-14.132-0.015-25.585-11.468-25.6-25.6V145.067
				c0.015-14.132,11.468-25.585,25.6-25.6h187.733c14.132,0.015,25.585,11.468,25.6,25.6V469.334z M409.6,179.2h-17.067v-17.067
				H409.6V179.2z M426.667,221.867l0.067-204.8l17.6,0.009l7.867,204.792H426.667z"/>
		</g>
	</g>
</g>
<g>
</g>
<g>
</g>
<g>
</g>
<g>
</g>
<g>
</g>
<g>
</g>
<g>
</g>
<g>
</g>
<g>
</g>
<g>
</g>
<g>
</g>
<g>
</g>
<g>
</g>
<g>
</g>
<g>
</g>
</svg>
