<?xml version="1.0" encoding="iso-8859-1"?>
<!-- Generator: Adobe Illustrator 19.0.0, SVG Export Plug-In . SVG Version: 6.00 Build 0)  -->
<svg version="1.1" id="Capa_1" xmlns="http://www.w3.org/2000/svg" xmlns:xlink="http://www.w3.org/1999/xlink" x="0px" y="0px"
	 viewBox="0 0 512 512" style="enable-background:new 0 0 512 512;" xml:space="preserve">
<g>
	<g>
		<g>
			<path d="M110.933,358.4h-51.2c-2.263-0.001-4.434,0.898-6.035,2.499c-1.6,1.6-2.499,3.771-2.499,6.035v34.133
				c-0.001,2.263,0.898,4.434,2.499,6.035c1.6,1.6,3.771,2.499,6.035,2.499v8.533c-0.001,2.263,0.898,4.434,2.499,6.035
				c1.6,1.6,3.771,2.499,6.035,2.499H102.4c2.263,0.001,4.434-0.898,6.035-2.499s2.499-3.771,2.499-6.035V409.6
				c2.263,0.001,4.434-0.898,6.035-2.499c1.6-1.6,2.499-3.771,2.499-6.035v-34.133c0.001-2.263-0.898-4.434-2.499-6.035
				C115.368,359.298,113.197,358.399,110.933,358.4z M102.4,392.533c-2.263-0.001-4.434,0.898-6.035,2.499
				c-1.6,1.6-2.499,3.771-2.499,6.035v8.533H76.8v-8.533c0.001-2.263-0.898-4.434-2.499-6.035c-1.6-1.6-3.771-2.499-6.035-2.499
				v-17.067H102.4V392.533z"/>
			<path d="M196.267,375.467v-8.533c0.001-2.263-0.898-4.434-2.499-6.035c-1.6-1.6-3.771-2.499-6.035-2.499H153.6
				c-2.263-0.001-4.434,0.898-6.035,2.499c-1.6,1.6-2.499,3.771-2.499,6.035v8.533c-2.263-0.001-4.434,0.898-6.035,2.499
				c-1.6,1.6-2.499,3.771-2.499,6.035v34.133c-0.001,2.263,0.898,4.434,2.499,6.035c1.6,1.6,3.771,2.499,6.035,2.499h51.2
				c2.263,0.001,4.434-0.898,6.035-2.499c1.6-1.6,2.499-3.771,2.499-6.035V384c0.001-2.263-0.898-4.434-2.499-6.035
				C200.701,376.365,198.53,375.466,196.267,375.467z M187.733,409.6H153.6v-17.067c2.263,0.001,4.434-0.898,6.035-2.499
				c1.6-1.6,2.499-3.771,2.499-6.035v-8.533H179.2V384c-0.001,2.263,0.898,4.434,2.499,6.035c1.6,1.6,3.771,2.499,6.035,2.499V409.6
				z"/>
			<path d="M281.6,375.467v-8.533c0.001-2.263-0.898-4.434-2.499-6.035c-1.6-1.6-3.771-2.499-6.035-2.499h-34.133
				c-2.263-0.001-4.434,0.898-6.035,2.499c-1.6,1.6-2.499,3.771-2.499,6.035v8.533c-2.263-0.001-4.434,0.898-6.035,2.499
				c-1.6,1.6-2.499,3.771-2.499,6.035v34.133c-0.001,2.263,0.898,4.434,2.499,6.035c1.6,1.6,3.771,2.499,6.035,2.499h51.2
				c2.263,0.001,4.434-0.898,6.035-2.499c1.6-1.6,2.499-3.771,2.499-6.035V384c0.001-2.263-0.898-4.434-2.499-6.035
				C286.034,376.365,283.863,375.466,281.6,375.467z M273.067,409.6h-34.133v-17.067c2.263,0.001,4.434-0.898,6.035-2.499
				c1.6-1.6,2.499-3.771,2.499-6.035v-8.533h17.067V384c-0.001,2.263,0.898,4.434,2.499,6.035c1.6,1.6,3.771,2.499,6.035,2.499
				V409.6z"/>
			<path d="M366.933,358.4h-51.2c-2.263-0.001-4.434,0.898-6.035,2.499c-1.6,1.6-2.499,3.771-2.499,6.035v34.133
				c-0.001,2.263,0.898,4.434,2.499,6.035c1.6,1.6,3.771,2.499,6.035,2.499v8.533c-0.001,2.263,0.898,4.434,2.499,6.035
				c1.6,1.6,3.771,2.499,6.035,2.499H358.4c2.263,0.001,4.434-0.898,6.035-2.499c1.6-1.6,2.499-3.771,2.499-6.035V409.6
				c2.263,0.001,4.434-0.898,6.035-2.499c1.6-1.6,2.499-3.771,2.499-6.035v-34.133c0.001-2.263-0.898-4.434-2.499-6.035
				C371.368,359.298,369.197,358.399,366.933,358.4z M358.4,392.533c-2.263-0.001-4.434,0.898-6.035,2.499
				c-1.6,1.6-2.499,3.771-2.499,6.035v8.533H332.8v-8.533c0.001-2.263-0.898-4.434-2.499-6.035c-1.6-1.6-3.771-2.499-6.035-2.499
				v-17.067H358.4V392.533z"/>
			<path d="M452.267,358.4h-51.2c-2.263-0.001-4.434,0.898-6.035,2.499c-1.6,1.6-2.499,3.771-2.499,6.035v34.133
				c-0.001,2.263,0.898,4.434,2.499,6.035c1.6,1.6,3.771,2.499,6.035,2.499v8.533c-0.001,2.263,0.898,4.434,2.499,6.035
				c1.6,1.6,3.771,2.499,6.035,2.499h34.133c2.263,0.001,4.434-0.898,6.035-2.499c1.6-1.6,2.499-3.771,2.499-6.035V409.6
				c2.263,0.001,4.434-0.898,6.035-2.499c1.6-1.6,2.499-3.771,2.499-6.035v-34.133c0.001-2.263-0.898-4.434-2.499-6.035
				C456.701,359.298,454.53,358.399,452.267,358.4z M443.733,392.533c-2.263-0.001-4.434,0.898-6.035,2.499
				c-1.6,1.6-2.499,3.771-2.499,6.035v8.533h-17.067v-8.533c0.001-2.263-0.898-4.434-2.499-6.035c-1.6-1.6-3.771-2.499-6.035-2.499
				v-17.067h34.133V392.533z"/>
			<path d="M511.229,334.218c-0.018-0.079,0.008-0.155-0.013-0.234L431.362,25.575C427.46,10.517,413.872,0.001,398.317,0H113.683
				C98.128,0.001,84.54,10.517,80.638,25.575L0.783,333.983c-0.02,0.079,0.006,0.155-0.013,0.234
				c-0.506,2.338-0.765,4.723-0.771,7.116v102.4c0.039,12.139,6.542,23.337,17.067,29.386v30.347
				c-0.001,2.263,0.898,4.434,2.499,6.035c1.6,1.6,3.771,2.499,6.035,2.499h42.667c2.263,0.001,4.434-0.898,6.035-2.499
				c1.6-1.6,2.499-3.771,2.499-6.035v-25.6h358.4v25.6c-0.001,2.263,0.898,4.434,2.499,6.035c1.6,1.6,3.771,2.499,6.035,2.499H486.4
				c2.263,0.001,4.434-0.898,6.035-2.499c1.6-1.6,2.499-3.771,2.499-6.035v-30.347c10.524-6.049,17.028-17.247,17.067-29.386v-102.4
				C511.994,338.941,511.735,336.556,511.229,334.218z M446.877,153.6h-51.558l-9.463-34.133h52.183L446.877,153.6z M298.833,76.8
				h18.941l47.322,170.667H332.97L298.833,76.8z M315.567,247.467h-51.033V76.8h16.897L315.567,247.467z M335.491,76.8h14.334
				c3.832,0.01,7.191,2.567,8.221,6.258l42.587,153.6c0.713,2.569,0.183,5.323-1.431,7.445c-1.614,2.121-4.128,3.366-6.794,3.364
				h-9.595L335.491,76.8z M97.162,29.858c1.948-7.531,8.742-12.792,16.521-12.792h284.633c7.779,0,14.573,5.26,16.521,12.792
				L433.62,102.4h-52.496l-6.628-23.908c-3.099-11.069-13.176-18.731-24.671-18.758h-187.65
				c-11.495,0.027-21.572,7.689-24.671,18.758l-42.583,153.6c-2.136,7.707-0.547,15.97,4.294,22.336
				c4.841,6.366,12.379,10.104,20.377,10.105h272.817c7.998-0.001,15.536-3.739,20.377-10.105c4.841-6.366,6.43-14.629,4.294-22.336
				l-17.029-61.425h51.246l35.715,137.935c-2.969-0.886-6.046-1.358-9.144-1.402H34.133c-3.098,0.044-6.175,0.516-9.144,1.402
				L97.162,29.858z M194.226,76.8h18.941L179.03,247.467h-32.127L194.226,76.8z M129.187,247.467h-9.595
				c-2.666,0.002-5.179-1.242-6.794-3.364c-1.614-2.121-2.144-4.876-1.431-7.445h0.004l42.583-153.6
				c1.03-3.691,4.388-6.248,8.221-6.258h14.334L129.187,247.467z M230.57,76.8h16.897v170.667h-51.033L230.57,76.8z M59.733,494.933
				h-25.6v-17.067h25.6V494.933z M477.867,494.933h-25.6v-17.067h25.6V494.933z M494.933,443.733
				c-0.011,9.421-7.645,17.056-17.067,17.067H34.133c-9.421-0.011-17.056-7.646-17.067-17.067v-102.4
				c0.011-9.421,7.646-17.056,17.067-17.067h443.733c9.421,0.011,17.056,7.646,17.067,17.067V443.733z"/>
		</g>
	</g>
</g>
<g>
</g>
<g>
</g>
<g>
</g>
<g>
</g>
<g>
</g>
<g>
</g>
<g>
</g>
<g>
</g>
<g>
</g>
<g>
</g>
<g>
</g>
<g>
</g>
<g>
</g>
<g>
</g>
<g>
</g>
</svg>
