<?xml version="1.0" encoding="iso-8859-1"?>
<!-- Generator: Adobe Illustrator 19.0.0, SVG Export Plug-In . SVG Version: 6.00 Build 0)  -->
<svg version="1.1" id="Capa_1" xmlns="http://www.w3.org/2000/svg" xmlns:xlink="http://www.w3.org/1999/xlink" x="0px" y="0px"
	 viewBox="0 0 512 512" style="enable-background:new 0 0 512 512;" xml:space="preserve">
<g>
	<g>
		<g>
			<path d="M511.729,249.359l-29.112-113.042c-3.953-14.939-17.455-25.354-32.908-25.383H435.2V93.867
				c-0.015-14.132-11.468-25.585-25.6-25.6v-8.533c-0.015-14.132-11.468-25.585-25.6-25.6h-8.533V17.067
				C375.456,7.645,367.821,0.011,358.4,0H153.6c-9.421,0.011-17.056,7.645-17.067,17.067v17.067H128
				c-14.132,0.015-25.585,11.468-25.6,25.6v8.533c-14.132,0.015-25.585,11.468-25.6,25.6v17.067H62.292
				c-15.473,0.035-28.985,10.478-32.921,25.442l-29.1,112.983C0.091,250.052,0,250.766,0,251.483v175.183
				c0.028,23.553,19.114,42.639,42.667,42.667h73.814l-5.097,21.733c-1.193,5.044-0.003,10.356,3.229,14.408
				c3.267,4.139,8.256,6.545,13.529,6.525h255.717c5.273,0.02,10.262-2.386,13.529-6.525c3.232-4.052,4.423-9.365,3.229-14.408
				l-5.097-21.733h73.814c23.553-0.028,42.639-19.114,42.667-42.667V251.483C512,250.766,511.909,250.052,511.729,249.359z
				 M375.467,51.2H384c4.711,0.005,8.529,3.822,8.533,8.533v8.533h-17.067V51.2z M375.467,85.333H409.6
				c4.711,0.005,8.529,3.822,8.533,8.533v51.2h-42.667V85.333z M153.6,17.067h204.8v128H153.6V17.067z M119.467,59.733
				c0.005-4.711,3.822-8.529,8.533-8.533h8.533v17.067h-17.067V59.733z M93.867,93.867c0.005-4.711,3.822-8.529,8.533-8.533h34.133
				v59.733H93.867V93.867z M45.884,140.683c1.964-7.457,8.697-12.662,16.408-12.683H76.8v17.067h-8.533
				c-4.713,0-8.533,3.821-8.533,8.533c0,4.713,3.82,8.533,8.533,8.533h375.467c4.713,0,8.533-3.821,8.533-8.533
				c0-4.713-3.82-8.533-8.533-8.533H435.2V128h14.508c7.692,0.016,14.415,5.193,16.396,12.625l19.57,75.989
				c-5.176-2.164-10.73-3.279-16.341-3.28h-70.137l-3.684-14.75c-2.844-11.399-13.089-19.395-24.837-19.383h-229.35
				c-11.751-0.011-21.998,7.989-24.837,19.392l-3.684,14.742H42.667c-5.61,0.001-11.164,1.116-16.34,3.28L45.884,140.683z
				 M298.667,247.467h-85.333c-14.132,0.015-25.585,11.468-25.6,25.6v8.533h-51.2c-4.711-0.005-8.529-3.823-8.533-8.533V230.4h256
				v42.667c-0.005,4.711-3.822,8.529-8.533,8.533h-51.2v-8.533C324.251,258.935,312.799,247.482,298.667,247.467z M307.2,273.067
				v8.533H204.8v-8.533c0.005-4.711,3.823-8.529,8.533-8.533h85.333C303.378,264.538,307.195,268.356,307.2,273.067z
				 M130.396,213.333l2.65-10.6c0.945-3.802,4.361-6.471,8.279-6.467h229.35c3.916-0.004,7.33,2.66,8.279,6.458l2.65,10.608H130.396
				z M110.933,452.267v-51.2h21.558l-12.008,51.2H110.933z M383.858,494.933L128,494.967l22.021-93.9h211.958l22.038,93.8
				C383.983,494.933,383.9,494.933,383.858,494.933z M401.067,452.267h-9.55l-12.008-51.2h21.558V452.267z M401.067,384H110.933
				v-8.533c0.005-4.711,3.822-8.529,8.533-8.533h273.067c4.711,0.005,8.529,3.822,8.533,8.533V384z M494.933,426.667
				c-0.015,14.132-11.468,25.585-25.6,25.6h-51.2v-76.8c-0.015-14.132-11.468-25.585-25.6-25.6H119.467
				c-14.132,0.015-25.585,11.468-25.6,25.6v76.8h-51.2c-14.132-0.015-25.585-11.468-25.6-25.6V332.8h477.867V426.667z
				 M494.933,315.733H17.067V256c0.015-14.132,11.468-25.585,25.6-25.6h68.267v42.667c0.015,14.132,11.468,25.585,25.6,25.6h238.933
				c14.132-0.015,25.585-11.468,25.6-25.6V230.4h68.267c14.132,0.015,25.585,11.468,25.6,25.6V315.733z"/>
			<path d="M59.733,247.467c-14.138,0-25.6,11.461-25.6,25.6s11.461,25.6,25.6,25.6s25.6-11.462,25.6-25.6
				C85.318,258.935,73.865,247.482,59.733,247.467z M59.733,281.6c-4.713,0-8.533-3.821-8.533-8.533c0-4.713,3.82-8.533,8.533-8.533
				s8.533,3.821,8.533,8.533C68.262,277.778,64.444,281.595,59.733,281.6z"/>
		</g>
	</g>
</g>
<g>
</g>
<g>
</g>
<g>
</g>
<g>
</g>
<g>
</g>
<g>
</g>
<g>
</g>
<g>
</g>
<g>
</g>
<g>
</g>
<g>
</g>
<g>
</g>
<g>
</g>
<g>
</g>
<g>
</g>
</svg>
