<?xml version="1.0" encoding="iso-8859-1"?>
<!-- Generator: Adobe Illustrator 19.0.0, SVG Export Plug-In . SVG Version: 6.00 Build 0)  -->
<svg version="1.1" id="Capa_1" xmlns="http://www.w3.org/2000/svg" xmlns:xlink="http://www.w3.org/1999/xlink" x="0px" y="0px"
	 viewBox="0 0 512 512" style="enable-background:new 0 0 512 512;" xml:space="preserve">
<g>
	<g>
		<g>
			<path d="M358.4,102.4c-2.844,0-5.694,0.096-8.533,0.256V8.533c0.001-2.263-0.898-4.434-2.499-6.035
				c-1.6-1.6-3.771-2.499-6.035-2.499H8.533C6.27-0.001,4.099,0.898,2.499,2.499C0.898,4.099-0.001,6.27,0,8.533v494.933
				c-0.001,2.263,0.898,4.434,2.499,6.035c1.6,1.6,3.771,2.499,6.035,2.499h294.196c27.12-1.197,48.182-24.073,47.138-51.2v-51.456
				c2.84,0.16,5.689,0.256,8.533,0.256c84.831,0,153.6-68.769,153.6-153.6S443.231,102.4,358.4,102.4z M221.867,17.067h17.071
				l0.009,17.067h-17.079V17.067z M153.6,17.067h17.071l0.009,17.067H153.6V17.067z M85.333,17.067h17.071l0.009,17.067H85.333
				V17.067z M17.067,17.067h17.071l0.009,17.067H17.067V17.067z M17.067,51.2h17.067c9.421-0.011,17.056-7.646,17.067-17.067V17.067
				h17.067v17.067c0.011,9.421,7.645,17.056,17.067,17.067H102.4c9.421-0.011,17.056-7.646,17.067-17.067V17.067h17.067v17.067
				c0.011,9.421,7.646,17.056,17.067,17.067h17.067c9.421-0.011,17.056-7.646,17.067-17.067V17.067H204.8v17.067
				c0.011,9.421,7.646,17.056,17.067,17.067h17.067c9.421-0.011,17.056-7.646,17.067-17.067V17.067h17.067V179.2
				c-0.015,14.132-11.468,25.585-25.6,25.6h-230.4V51.2z M17.067,256h17.067c4.711,0.005,8.529,3.822,8.533,8.533v187.733
				c-0.005,4.711-3.822,8.529-8.533,8.533H17.067V256z M302.729,494.933H17.067v-17.067h17.067
				c14.132-0.015,25.585-11.468,25.6-25.6V264.533c-0.015-14.132-11.468-25.585-25.6-25.6H17.067v-17.067h230.4
				c23.553-0.028,42.639-19.114,42.667-42.667V17.067H332.8V460.8C333.829,478.498,320.415,493.724,302.729,494.933z
				 M349.867,280.027c2.733,1.012,5.62,1.544,8.533,1.573c14.138,0,25.6-11.462,25.6-25.6s-11.461-25.6-25.6-25.6
				c-2.914,0.029-5.801,0.561-8.533,1.572v-17.669c2.803-0.617,5.663-0.942,8.533-0.97c23.564,0,42.667,19.102,42.667,42.667
				s-19.103,42.667-42.667,42.667c-2.87-0.028-5.73-0.353-8.533-0.97V280.027z M349.867,256c0-4.713,3.82-8.533,8.533-8.533
				s8.533,3.82,8.533,8.533s-3.82,8.533-8.533,8.533C353.689,264.529,349.871,260.711,349.867,256z M358.4,392.533
				c-2.847,0-5.697-0.105-8.533-0.286v-77.25c2.823,0.452,5.675,0.697,8.533,0.735c32.99,0,59.733-26.744,59.733-59.733
				s-26.744-59.733-59.733-59.733c-2.859,0.038-5.711,0.284-8.533,0.735v-77.249c2.836-0.181,5.686-0.286,8.533-0.286
				c75.405,0,136.533,61.128,136.533,136.533S433.805,392.533,358.4,392.533z"/>
			<path d="M68.267,136.533H51.2c-9.421,0.011-17.056,7.646-17.067,17.067v17.067c0.011,9.421,7.645,17.056,17.067,17.067h17.067
				c9.421-0.011,17.056-7.645,17.067-17.067V153.6C85.323,144.179,77.688,136.544,68.267,136.533z M51.2,170.667V153.6h17.067
				l0.012,17.067H51.2z"/>
			<path d="M68.267,68.267H51.2c-9.421,0.011-17.056,7.645-17.067,17.067V102.4c0.011,9.421,7.645,17.056,17.067,17.067h17.067
				c9.421-0.011,17.056-7.645,17.067-17.067V85.333C85.323,75.912,77.688,68.277,68.267,68.267z M51.2,102.4V85.333h17.067
				l0.012,17.067H51.2z"/>
			<path d="M119.467,119.467h17.067c9.421-0.011,17.056-7.645,17.067-17.067V85.333c-0.011-9.421-7.646-17.056-17.067-17.067
				h-17.067c-9.421,0.011-17.056,7.645-17.067,17.067V102.4C102.411,111.821,110.045,119.456,119.467,119.467z M119.467,85.333
				h17.067l0.012,17.067h-17.079V85.333z"/>
			<path d="M187.733,119.467h51.2c9.421-0.011,17.056-7.645,17.067-17.067V85.333c-0.011-9.421-7.645-17.056-17.067-17.067h-51.2
				c-9.421,0.011-17.056,7.645-17.067,17.067V102.4C170.677,111.821,178.312,119.456,187.733,119.467z M187.733,85.333h51.2
				l0.012,17.067h-51.212V85.333z"/>
			<path d="M256,170.667V153.6c-0.011-9.421-7.645-17.056-17.067-17.067H119.467c-9.421,0.011-17.056,7.646-17.067,17.067v17.067
				c0.011,9.421,7.645,17.056,17.067,17.067h119.467C248.355,187.723,255.989,180.088,256,170.667z M119.467,170.667V153.6h119.467
				l0.012,17.067H119.467z"/>
			<path d="M464.358,200.85c-1.646-3.15-3.429-6.225-5.338-9.192c-1.639-2.581-4.534-4.088-7.589-3.949
				c-3.055,0.139-5.801,1.902-7.2,4.621s-1.234,5.979,0.43,8.544c1.633,2.55,3.157,5.175,4.571,7.875
				c1.472,2.819,4.39,4.586,7.571,4.583c1.375,0.002,2.73-0.333,3.946-0.975c2.005-1.047,3.512-2.848,4.188-5.007
				C465.615,205.193,465.406,202.854,464.358,200.85z"/>
			<path d="M431.925,161.9c-18.498-14.525-40.891-23.231-64.341-25.017c-3.052-0.255-6.007,1.146-7.742,3.67
				c-1.735,2.524-1.984,5.785-0.653,8.543c1.331,2.758,4.039,4.592,7.095,4.804h-0.001c20.092,1.53,39.277,8.99,55.125,21.433
				c2.399,1.885,5.622,2.345,8.453,1.207c2.831-1.139,4.838-3.702,5.264-6.724C435.552,166.795,434.331,163.777,431.925,161.9z"/>
		</g>
	</g>
</g>
<g>
</g>
<g>
</g>
<g>
</g>
<g>
</g>
<g>
</g>
<g>
</g>
<g>
</g>
<g>
</g>
<g>
</g>
<g>
</g>
<g>
</g>
<g>
</g>
<g>
</g>
<g>
</g>
<g>
</g>
</svg>
