<?xml version="1.0" encoding="iso-8859-1"?>
<!-- Generator: Adobe Illustrator 19.0.0, SVG Export Plug-In . SVG Version: 6.00 Build 0)  -->
<svg version="1.1" id="Capa_1" xmlns="http://www.w3.org/2000/svg" xmlns:xlink="http://www.w3.org/1999/xlink" x="0px" y="0px"
	 viewBox="0 0 512.002 512.002" style="enable-background:new 0 0 512.002 512.002;" xml:space="preserve">
<g>
	<g>
		<g>
			<path d="M421.518,4.844c-3.329-3.171-7.769-4.909-12.367-4.842L128.449,7.434c-0.156-0.008-0.29-0.09-0.448-0.09
				c-0.207,0-0.38,0.103-0.583,0.118l-25.458,0.674c-9.267,0.183-16.671,7.772-16.625,17.042v17.517
				c0.017,9.414,7.652,17.038,17.067,17.042h230.4v42.667H119.468c-14.132,0.015-25.585,11.468-25.6,25.6v324.267
				c0.015,14.132,11.468,25.585,25.6,25.6v17.067c0.012,9.421,7.646,17.054,17.067,17.067h238.933
				c9.421-0.012,17.054-7.646,17.067-17.067v-17.067c14.132-0.015,25.585-11.468,25.6-25.6V128.002
				c-0.015-14.132-11.468-25.585-25.6-25.6h-8.533V59.735h25.6c9.414-0.003,17.049-7.627,17.067-17.042v-25.65
				C426.685,12.445,424.824,8.039,421.518,4.844z M119.468,42.692l-17.067,0.002V25.202l17.067-0.453V42.692z M179.201,119.469
				h153.6v290.133c-0.012,9.421-7.646,17.054-17.067,17.067H196.268c-9.421-0.012-17.054-7.646-17.067-17.067V119.469z
				 M136.534,494.935v-17.067h238.942l0.008,17.067H136.534z M392.534,119.469c4.712,0.003,8.53,3.822,8.533,8.533v324.267
				c-0.003,4.712-3.822,8.53-8.533,8.533H119.468c-4.712-0.003-8.53-3.822-8.533-8.533V230.402h17.067
				c4.713,0,8.533-3.82,8.533-8.533s-3.82-8.533-8.533-8.533h-17.067v-17.067h17.067c4.713,0,8.533-3.82,8.533-8.533
				s-3.82-8.533-8.533-8.533h-17.067v-17.067h17.067c4.713,0,8.533-3.821,8.533-8.533c0-4.713-3.82-8.533-8.533-8.533h-17.067
				v-17.067c0.003-4.711,3.822-8.53,8.533-8.533h42.667v290.133c0.019,18.844,15.29,34.115,34.133,34.133h119.467
				c18.844-0.019,34.115-15.29,34.133-34.133V119.469H392.534z M349.868,102.402V59.735h17.067v42.667H349.868z M409.601,42.669
				l-34.12,0.003l-0.014-0.003h-34.133l-0.027,0.006l-204.773,0.017V24.296l273.067-7.252V42.669z"/>
			<path d="M204.801,384.002h59.733c4.713,0,8.533-3.82,8.533-8.533s-3.82-8.533-8.533-8.533h-59.733
				c-4.713,0-8.533,3.82-8.533,8.533S200.088,384.002,204.801,384.002z"/>
			<path d="M298.668,384.002h8.533c4.713,0,8.533-3.82,8.533-8.533s-3.82-8.533-8.533-8.533h-8.533c-4.713,0-8.533,3.82-8.533,8.533
				S293.955,384.002,298.668,384.002z"/>
		</g>
	</g>
</g>
<g>
</g>
<g>
</g>
<g>
</g>
<g>
</g>
<g>
</g>
<g>
</g>
<g>
</g>
<g>
</g>
<g>
</g>
<g>
</g>
<g>
</g>
<g>
</g>
<g>
</g>
<g>
</g>
<g>
</g>
</svg>
