<?xml version="1.0" encoding="iso-8859-1"?>
<!-- Generator: Adobe Illustrator 19.0.0, SVG Export Plug-In . SVG Version: 6.00 Build 0)  -->
<svg version="1.1" id="Capa_1" xmlns="http://www.w3.org/2000/svg" xmlns:xlink="http://www.w3.org/1999/xlink" x="0px" y="0px"
	 viewBox="0 0 512 512" style="enable-background:new 0 0 512 512;" xml:space="preserve">
<g>
	<g>
		<g>
			<path d="M89.6,145.067c-25.921,0-46.933,21.013-46.933,46.933c0.032,25.907,21.026,46.901,46.933,46.933
				c25.921,0,46.933-21.013,46.933-46.933C136.533,166.079,115.521,145.067,89.6,145.067z M89.6,221.867
				c-16.495,0-29.867-13.372-29.867-29.867c0.02-16.487,13.38-29.847,29.867-29.867c16.495,0,29.867,13.372,29.867,29.867
				C119.467,208.495,106.095,221.867,89.6,221.867z"/>
			<path d="M511.931,110.589c-0.019-1.007-0.219-2.002-0.589-2.939l-0.007-0.016l-0.018-0.045l-28.375-68.106l-0.107-0.257
				L470.867,10.5c-2.642-6.368-8.864-10.514-15.758-10.5H56.892c-6.894-0.014-13.116,4.132-15.758,10.5L29.165,39.228l-0.105,0.253
				L0.683,107.592l-0.017,0.04l-0.007,0.018c-0.37,0.937-0.569,1.932-0.589,2.939C0.064,110.71,0,110.811,0,110.933V460.8
				c0.012,9.421,7.646,17.054,17.067,17.067H25.6v8.533c0.015,14.132,11.468,25.585,25.6,25.6h409.6
				c14.132-0.015,25.585-11.468,25.6-25.6v-8.533h8.533c9.421-0.012,17.054-7.646,17.067-17.067V110.933
				C512,110.811,511.936,110.709,511.931,110.589z M469.336,51.2l21.33,51.2H348.558l-8.53-51.2H469.336z M455.117,17.067
				l7.11,17.067H337.185l-2.843-17.067H455.117z M194.961,17.067h122.078l2.844,17.067H192.117L194.961,17.067z M189.272,51.2
				h133.455l8.533,51.2H180.739L189.272,51.2z M179.2,119.467h153.6V460.8H179.2V119.467z M56.892,17.067h120.767l-2.843,17.067
				H49.78L56.892,17.067z M42.668,51.2h129.304l-8.53,51.2H21.333L42.668,51.2z M17.067,460.8V119.467h145.067V460.8H17.067z
				 M469.333,486.4c-0.003,4.712-3.822,8.53-8.533,8.533H51.2c-4.712-0.003-8.53-3.822-8.533-8.533v-8.533h426.667V486.4z
				 M477.867,460.8h-128V119.467h145.067L494.95,460.8H477.867z"/>
			<path d="M93.867,68.267H76.8c-4.713,0-8.533,3.82-8.533,8.533s3.82,8.533,8.533,8.533h17.067c4.713,0,8.533-3.82,8.533-8.533
				S98.579,68.267,93.867,68.267z"/>
			<path d="M264.533,68.267h-17.067c-4.713,0-8.533,3.82-8.533,8.533s3.82,8.533,8.533,8.533h17.067c4.713,0,8.533-3.82,8.533-8.533
				S269.246,68.267,264.533,68.267z"/>
			<path d="M418.133,85.333H435.2c4.713,0,8.533-3.82,8.533-8.533s-3.82-8.533-8.533-8.533h-17.067c-4.713,0-8.533,3.82-8.533,8.533
				S413.421,85.333,418.133,85.333z"/>
			<path d="M102.4,256H76.8c-4.713,0-8.533,3.82-8.533,8.533s3.82,8.533,8.533,8.533h25.6c4.713,0,8.533-3.82,8.533-8.533
				S107.113,256,102.4,256z"/>
			<path d="M102.4,290.133H76.8c-4.713,0-8.533,3.82-8.533,8.533s3.82,8.533,8.533,8.533h25.6c4.713,0,8.533-3.82,8.533-8.533
				S107.113,290.133,102.4,290.133z"/>
			<path d="M102.4,324.267H76.8c-4.713,0-8.533,3.821-8.533,8.533c0,4.713,3.82,8.533,8.533,8.533h25.6
				c4.713,0,8.533-3.821,8.533-8.533C110.933,328.087,107.113,324.267,102.4,324.267z"/>
		</g>
	</g>
</g>
<g>
</g>
<g>
</g>
<g>
</g>
<g>
</g>
<g>
</g>
<g>
</g>
<g>
</g>
<g>
</g>
<g>
</g>
<g>
</g>
<g>
</g>
<g>
</g>
<g>
</g>
<g>
</g>
<g>
</g>
</svg>
