<?xml version="1.0" encoding="iso-8859-1"?>
<!-- Generator: Adobe Illustrator 19.0.0, SVG Export Plug-In . SVG Version: 6.00 Build 0)  -->
<svg version="1.1" id="Capa_1" xmlns="http://www.w3.org/2000/svg" xmlns:xlink="http://www.w3.org/1999/xlink" x="0px" y="0px"
	 viewBox="0 0 512 512" style="enable-background:new 0 0 512 512;" xml:space="preserve">
<g>
	<g>
		<path d="M477.867,152.263v-32.796C477.867,52.475,380.413,0,256,0S34.133,52.475,34.133,119.467v32.793
			C11.862,172.989,0,196.729,0,221.183v153.6C0,451.725,112.45,512,256,512s256-60.275,256-137.217v-153.6
			C512,196.73,500.139,172.991,477.867,152.263z M460.583,115.347c-18.424-21.647-42.119-38.179-68.796-47.998
			c5.87-4.887,11.549-9.951,17.036-15.192C439.237,69.327,458.578,91.428,460.583,115.347z M305.118,129.239
			c1.247-2.861,1.936-5.935,2.029-9.055c24.395-11.072,47.563-24.669,69.125-40.568c40.457,14.929,69.179,36.964,79.795,61.21
			c-8.225,16.292-20.866,29.944-36.479,39.395l0,0C395.307,176.466,356.851,164.309,305.118,129.239z M348.833,210.301
			c-25.095-17.381-47.916-37.835-67.931-60.885c4.729-1.688,9.189-4.05,13.243-7.012c31.26,22.474,66.076,39.531,102.992,50.459
			C381.629,200.203,365.454,206.042,348.833,210.301z M326.501,215.35c-23.246,4.366-46.849,6.548-70.501,6.517
			c-4.629,0-9.215-0.111-13.778-0.271c2.768-23.049,7.564-45.808,14.333-68.014h0c1.704-0.012,3.388-0.069,5.044-0.184
			C280.78,176.475,302.558,197.263,326.501,215.35z M392.662,43.943L392.662,43.943c-27.055,24.547-57.739,44.769-90.966,59.952
			c-3.408-4.375-7.687-7.995-12.567-10.63c12.48-9.606,24.451-19.856,35.863-30.708c0.239-0.209,0.465-0.431,0.678-0.666
			c10.368-9.898,20.06-20.48,29.013-31.674C367.668,33.835,380.364,38.424,392.662,43.943z M271.648,85.095
			c-0.814-8.446-1.884-16.812-3.212-25.099c10.737,0.343,21.291,1.085,31.592,2.246C291.267,69.893,281.807,77.511,271.648,85.095z
			 M336.431,25.629c-6.061,7.185-12.807,14.375-20.138,21.557c-16.874-2.519-33.891-3.969-50.948-4.339
			c-1.784-8.708-3.878-17.28-6.228-25.739C285.115,17.255,311.026,20.111,336.431,25.629z M290.133,119.467
			c0,8.058-14.596,17.067-34.133,17.067c-19.537,0-34.133-9.008-34.133-17.067S236.463,102.4,256,102.4
			C275.538,102.4,290.133,111.408,290.133,119.467z M224.622,146.578L224.622,146.578c4.663,2.347,9.604,4.096,14.706,5.204
			c-6.705,22.503-11.446,45.545-14.167,68.868c-10.706-0.849-21.153-2.148-31.294-3.824
			C201.656,192.407,211.963,168.864,224.622,146.578z M176.977,213.629c-44.204-9.56-80.885-26.791-103.018-48.104
			c21.777-12.223,63.794-27.814,136.674-28.887C196.65,161.002,185.364,186.818,176.977,213.629z M135.64,79.734
			c24.712-8.86,50.4-14.719,76.51-17.45c4.091,9.391,7.99,19.293,11.698,29.705C195.002,84.584,165.411,80.473,135.64,79.734z
			 M241.477,17.367c6.428,22.223,10.797,44.99,13.052,68.014c-4.827,0.071-9.637,0.597-14.366,1.57
			c-4.751-13.402-9.818-26.072-15.205-37.897l-0.024-0.056c-4.728-10.376-9.688-20.103-14.88-29.182
			C220.286,18.591,230.78,17.764,241.477,17.367z M191.816,22.464c4.426,7.354,8.7,15.199,12.823,23.535
			C165.092,50.23,126.775,62.252,91.899,81.37c-10.677,1.074-20.24,2.533-28.615,4.141C84.678,56.164,132.647,32.597,191.816,22.464
			z M53.347,105.114c51.219-11.661,104.433-11.394,155.532,0.782c-2.632,4.039-4.048,8.75-4.079,13.571l0.015,0.209
			c-73.392,1.804-117.157,17.742-142.242,32.72c-7.136-9.519-11.114-21.034-11.373-32.929
			C51.222,114.604,51.945,109.77,53.347,105.114z M51.2,166.25c33.178,43.098,111.387,72.683,204.8,72.683
			s171.622-29.585,204.8-72.683v38.55c0,55.508-93.787,102.4-204.8,102.4S51.2,260.308,51.2,204.8V166.25z M34.133,419.291
			c-10.632-12.435-16.659-28.152-17.067-44.508v-103.5c5.024,6.986,10.742,13.446,17.067,19.281V419.291z M76.8,454.128
			c-9.032-5.08-17.599-10.947-25.6-17.533V304.451c8.165,5.762,16.719,10.954,25.6,15.537V454.128z M119.467,473.299
			c-9.002-3.165-17.561-6.623-25.6-10.366v-134.82c8.12,3.518,16.673,6.763,25.6,9.728V473.299z M162.133,485.259
			c-8.827-1.904-17.356-4.085-25.6-6.49V343.025c8.266,2.289,16.799,4.337,25.6,6.145V485.259z M204.8,492.127
			c-8.723-0.962-17.256-2.161-25.6-3.597V352.35c8.344,1.36,16.878,2.495,25.6,3.405V492.127z M247.467,494.824
			c-8.656-0.154-17.19-0.533-25.6-1.137V357.201c8.401,0.576,16.934,0.938,25.6,1.087V494.824z M290.133,493.688
			c-8.401,0.607-16.934,0.986-25.6,1.137V358.288c8.662-0.146,17.195-0.508,25.6-1.087V493.688z M332.8,488.529
			c-8.34,1.428-16.873,2.627-25.6,3.597V355.755c8.71-0.912,17.243-2.047,25.6-3.405V488.529z M375.467,478.769
			c-8.244,2.405-16.773,4.586-25.6,6.49V349.17c8.791-1.806,17.324-3.854,25.6-6.145V478.769z M418.133,462.933
			c-8.039,3.742-16.598,7.201-25.6,10.366V337.842c8.927-2.966,17.48-6.21,25.6-9.728V462.933z M460.8,436.595
			c-8.001,6.586-16.568,12.453-25.6,17.533v-134.14c8.881-4.583,17.435-9.775,25.6-15.537V436.595z M494.933,374.783
			c-0.408,16.356-6.435,32.073-17.067,44.508V290.564c6.324-5.835,12.042-12.294,17.067-19.28V374.783z M465.214,279.14
			c-0.99,0.559-1.854,1.315-2.542,2.22c-11.547,9.775-24.253,18.09-37.833,24.758c-1.334,0.275-2.581,0.873-3.631,1.741
			c-12.502,5.972-25.416,11.039-38.643,15.164c-0.884,0.135-1.74,0.411-2.536,0.818c-26.506,7.948-53.758,13.153-81.328,15.532
			l-0.034-0.007l-0.089,0.018c-13.828,1.256-28.041,1.948-42.578,1.948c-14.537,0-28.75-0.692-42.578-1.948l-0.089-0.018
			l-0.034,0.007c-27.569-2.379-54.822-7.584-81.328-15.532c-0.796-0.407-1.652-0.684-2.536-0.818
			c-13.229-4.125-26.145-9.193-38.649-15.166c-1.049-0.866-2.293-1.463-3.625-1.738c-13.581-6.668-26.289-14.985-37.837-24.761
			c-0.686-0.902-1.547-1.655-2.533-2.213c-18.919-17.199-29.725-36.955-29.725-57.962c0.474-16.206,6.499-31.758,17.067-44.053
			v27.67c0,66.992,97.454,119.467,221.867,119.467S477.867,271.792,477.867,204.8v-27.674c10.569,12.297,16.594,27.85,17.067,44.058
			C494.933,242.189,484.13,261.942,465.214,279.14z"/>
	</g>
</g>
<g>
</g>
<g>
</g>
<g>
</g>
<g>
</g>
<g>
</g>
<g>
</g>
<g>
</g>
<g>
</g>
<g>
</g>
<g>
</g>
<g>
</g>
<g>
</g>
<g>
</g>
<g>
</g>
<g>
</g>
</svg>
