<?xml version="1.0" encoding="iso-8859-1"?>
<!-- Generator: Adobe Illustrator 19.0.0, SVG Export Plug-In . SVG Version: 6.00 Build 0)  -->
<svg version="1.1" id="Capa_1" xmlns="http://www.w3.org/2000/svg" xmlns:xlink="http://www.w3.org/1999/xlink" x="0px" y="0px"
	 viewBox="0 0 512 512" style="enable-background:new 0 0 512 512;" xml:space="preserve">
<g>
	<g>
		<g>
			<path d="M482.134,204.8H473.6V85.333C473.547,38.227,435.373,0.054,388.267,0h-153.6c-47.106,0.054-85.279,38.227-85.333,85.333
				v8.533c-4.172,0-7.733,3.017-8.417,7.133l-7.344,44.067H89.6c-23.483,0.024-43.928,16.049-49.562,38.846
				c-0.023,0.081-0.084,0.138-0.105,0.22l-0.139,0.58l-0.032,0.104l-0.041,0.221l-0.093,0.421l-0.854,5.033l-0.018,0.171
				c-0.013,0.107-0.041,0.204-0.053,0.312c-0.01,0.102-0.017,0.263-0.024,0.41L14.507,335.853
				c-4.354,17.797-0.278,36.608,11.051,51.007c11.33,14.399,28.654,22.785,46.975,22.74H115.2c-0.001,2.263,0.898,4.434,2.499,6.035
				c1.6,1.6,3.771,2.499,6.035,2.499h8.533v25.6h-6.121c-6.025-0.011-10.922,4.858-10.946,10.883v44.142
				c0.041,7.342,6.016,13.265,13.358,13.242h101.283c7.342,0.024,13.317-5.9,13.358-13.242V409.6h34.133
				c18.219,0.058,35.461-8.228,46.799-22.489c11.338-14.261,15.523-32.928,11.358-50.665c-0.013-0.096,0.026-0.184,0.009-0.28
				l-24.567-146.983l-0.513-3.158c-0.044-0.431-0.146-0.855-0.304-1.258c-0.042-0.326-0.103-0.648-0.183-0.967
				c-0.101-0.404-0.286-0.764-0.396-1.163l-0.049-0.144c-6.108-22.135-26.259-37.457-49.221-37.426h-43.972L208.951,101
				c-0.684-4.116-4.244-7.133-8.417-7.133v-8.533c0.02-18.843,15.29-34.113,34.133-34.133h153.6
				c18.843,0.02,34.113,15.29,34.133,34.133V204.8h-8.533c-9.421,0.011-17.056,7.646-17.067,17.067V307.2
				c0.02,6.069,3.272,11.668,8.533,14.693V384c-0.001,2.263,0.898,4.434,2.499,6.035c1.6,1.6,3.771,2.499,6.035,2.499h68.267
				c2.263,0.001,4.434-0.898,6.035-2.499c1.6-1.6,2.499-3.771,2.499-6.035v-62.107c5.262-3.025,8.513-8.624,8.533-14.693v-85.333
				C499.19,212.445,491.555,204.811,482.134,204.8z M156.563,110.933h36.742l5.688,34.133h-48.117L156.563,110.933z
				 M226.134,494.933h-93.867V460.8h6.121c6.025,0.011,10.922-4.858,10.946-10.883V411.95c-0.024-6.025-4.921-10.894-10.946-10.883
				h-6.121v-25.6h78.854l15.013,19.925V494.933z M215.375,358.4H98.134v-17.067H243.2V358.4H215.375z M307.455,380.042
				c-7.952,8.045-18.809,12.548-30.121,12.492H243.2c0-1.852-0.603-3.654-1.717-5.133l-8.993-11.933H243.2
				c9.421-0.011,17.056-7.645,17.067-17.067v-17.067c-0.011-9.421-7.645-17.056-17.067-17.067H98.134
				c-9.421,0.011-17.056,7.646-17.067,17.067V358.4c0.011,9.421,7.645,17.056,17.067,17.067H115.2v17.067H72.534
				c-23.553-0.028-42.639-19.114-42.667-42.667c0.041-23.547,19.12-42.625,42.667-42.667h204.8
				c23.553,0.028,42.639,19.114,42.667,42.667C320.05,361.203,315.527,372.082,307.455,380.042z M260.267,162.133
				c15.428-0.044,28.954,10.3,32.954,25.2h0l0.009,0.05c0.107,0.695,0.259,1.383,0.454,2.058l0.454,2.883l0.029-0.004
				l18.261,109.316c-10.176-7.47-22.47-11.5-35.094-11.503h-204.8c-12.572-0.028-24.824,3.957-34.975,11.375l18.046-107.841
				c0.043-0.273,0.071-0.549,0.083-0.825l0.804-4.575l0.037-0.15c1.448-6.065,4.572-11.601,9.017-15.975
				c6.345-6.436,15.016-10.044,24.054-10.008H260.267z M388.267,34.133h-153.6c-28.264,0.031-51.169,22.936-51.2,51.2v8.533H166.4
				v-8.533c0.043-37.685,30.582-68.224,68.267-68.267h153.6c37.685,0.043,68.224,30.582,68.267,68.267V204.8h-17.067V85.333
				C439.436,57.069,416.531,34.164,388.267,34.133z M473.6,341.333h-8.533c-4.713,0-8.533,3.82-8.533,8.533s3.821,8.533,8.533,8.533
				h8.533v17.067h-51.2V358.4h8.533c4.713,0,8.533-3.82,8.533-8.533s-3.82-8.533-8.533-8.533H422.4v-17.067h51.2V341.333z
				 M482.134,307.2h-68.267v-85.333h68.267V307.2z"/>
			<path d="M289.139,341.936c-3.202-1.329-6.89-0.59-9.331,1.872c-1.559,1.635-2.443,3.799-2.475,6.059
				c0,4.713,3.821,8.533,8.533,8.533c4.713,0,8.533-3.82,8.533-8.533C294.421,346.4,292.341,343.266,289.139,341.936z"/>
		</g>
	</g>
</g>
<g>
</g>
<g>
</g>
<g>
</g>
<g>
</g>
<g>
</g>
<g>
</g>
<g>
</g>
<g>
</g>
<g>
</g>
<g>
</g>
<g>
</g>
<g>
</g>
<g>
</g>
<g>
</g>
<g>
</g>
</svg>
