<?xml version="1.0" encoding="iso-8859-1"?>
<!-- Generator: Adobe Illustrator 19.0.0, SVG Export Plug-In . SVG Version: 6.00 Build 0)  -->
<svg version="1.1" id="Capa_1" xmlns="http://www.w3.org/2000/svg" xmlns:xlink="http://www.w3.org/1999/xlink" x="0px" y="0px"
	 viewBox="0 0 511.996 511.996" style="enable-background:new 0 0 511.996 511.996;" xml:space="preserve">
<g>
	<g>
		<g>
			<path d="M383.998,255.996V110.929c-0.033-9.524-5.366-18.237-13.831-22.6l12.848-44.075c2.928-10.138-0.87-21.019-9.471-27.134
				L357.385,5.246c-9.575-6.95-22.534-6.95-32.108,0l-16.158,11.875c-8.6,6.114-12.398,16.995-9.471,27.133l12.848,44.075
				c-8.466,4.363-13.798,13.077-13.831,22.6v145.067c-14.132,0.015-25.585,11.468-25.6,25.6v136.533
				c-0.014,6.794,2.695,13.31,7.521,18.092c5.711,5.215,9.14,12.468,9.546,20.192v4.383c0.011,9.421,7.645,17.056,17.067,17.067
				v17.067c0.011,9.421,7.645,17.056,17.067,17.067h34.133c9.421-0.011,17.056-7.645,17.067-17.067v-17.067
				c9.421-0.011,17.056-7.646,17.067-17.067v-4.383c0.405-7.719,3.831-14.969,9.538-20.183c4.831-4.783,7.543-11.302,7.529-18.1
				V281.596C409.583,267.464,398.13,256.011,383.998,255.996z M319.227,30.871l16.158-11.875c3.559-2.533,8.333-2.533,11.892,0
				l16.158,11.875c1.137,0.851,2.046,1.971,2.646,3.258h-49.5C317.181,32.842,318.09,31.722,319.227,30.871z M363.214,51.196
				l-9.951,34.133H329.4l-9.951-34.133H363.214z M315.731,110.929c0.005-4.711,3.822-8.529,8.533-8.533h34.133
				c4.711,0.005,8.529,3.822,8.533,8.533v17.067h-51.2V110.929z M315.731,145.063h51.2v25.6h-51.2V145.063z M315.731,187.729h51.2
				v25.6h-51.2V187.729z M315.731,230.396h51.2v25.6h-51.2V230.396z M324.265,494.929v-17.067h34.138l0.009,17.067H324.265z
				 M392.531,418.129c0.001,2.265-0.907,4.435-2.521,6.025c-9.002,8.35-14.248,19.984-14.546,32.259v4.383h-68.267v-4.383
				c-0.299-12.279-5.548-23.916-14.554-32.267c-1.609-1.588-2.514-3.756-2.512-6.017V281.596c0.005-4.711,3.822-8.529,8.533-8.533
				h85.333c4.711,0.005,8.529,3.823,8.533,8.533V418.129z"/>
			<path d="M213.331,255.954V110.888c-0.033-9.524-5.366-18.237-13.831-22.6l12.848-44.067c2.931-10.138-0.868-21.021-9.471-27.133
				L186.719,5.213c-9.574-6.95-22.534-6.95-32.108,0l-16.154,11.875c-8.606,6.11-12.407,16.994-9.475,27.133l12.848,44.067
				c-8.465,4.363-13.798,13.076-13.831,22.6v145.067c-14.132,0.015-25.585,11.468-25.6,25.6v136.533
				c-0.014,6.794,2.694,13.31,7.521,18.092c5.711,5.215,9.14,12.468,9.546,20.192v4.383c0.011,9.421,7.645,17.056,17.067,17.067
				v17.067c0.011,9.421,7.645,17.056,17.067,17.067h34.133c9.421-0.011,17.056-7.645,17.067-17.067v-17.067
				c9.421-0.011,17.056-7.646,17.067-17.067v-4.383c0.405-7.719,3.831-14.969,9.538-20.183c4.831-4.783,7.543-11.302,7.529-18.1
				V281.554C238.916,267.422,227.463,255.97,213.331,255.954z M148.56,30.838l16.158-11.875c3.559-2.533,8.333-2.533,11.892,0
				l16.162,11.875c1.133,0.85,2.04,1.966,2.639,3.25H145.92C146.519,32.804,147.426,31.687,148.56,30.838z M192.548,51.154
				l-9.951,34.133h-23.865l-9.951-34.133H192.548z M145.065,110.888c0.005-4.711,3.822-8.529,8.533-8.533h34.133
				c4.711,0.005,8.529,3.822,8.533,8.533v17.067h-51.2V110.888z M145.065,145.021h51.2v25.6h-51.2V145.021z M145.065,187.688h51.2
				v25.6h-51.2V187.688z M145.065,230.354h51.2v25.6h-51.2V230.354z M153.598,494.888v-17.067h34.138l0.009,17.067H153.598z
				 M221.865,418.088c0.001,2.265-0.907,4.435-2.521,6.024c-9.002,8.35-14.248,19.984-14.546,32.259v4.383h-68.267v-4.383
				c-0.299-12.279-5.548-23.916-14.554-32.267c-1.609-1.588-2.514-3.756-2.512-6.017V281.554c0.005-4.711,3.822-8.529,8.533-8.533
				h85.333c4.711,0.005,8.529,3.822,8.533,8.533V418.088z"/>
		</g>
	</g>
</g>
<g>
</g>
<g>
</g>
<g>
</g>
<g>
</g>
<g>
</g>
<g>
</g>
<g>
</g>
<g>
</g>
<g>
</g>
<g>
</g>
<g>
</g>
<g>
</g>
<g>
</g>
<g>
</g>
<g>
</g>
</svg>
