<?xml version="1.0" encoding="iso-8859-1"?>
<!-- Generator: Adobe Illustrator 19.0.0, SVG Export Plug-In . SVG Version: 6.00 Build 0)  -->
<svg version="1.1" id="Capa_1" xmlns="http://www.w3.org/2000/svg" xmlns:xlink="http://www.w3.org/1999/xlink" x="0px" y="0px"
	 viewBox="0 0 512 512" style="enable-background:new 0 0 512 512;" xml:space="preserve">
<g>
	<g>
		<g>
			<path d="M486.4,170.667c14.132-0.015,25.585-11.468,25.6-25.6V25.6C511.985,11.468,500.532,0.015,486.4,0H25.6
				C11.468,0.015,0.015,11.468,0,25.6v119.467c0.015,14.132,11.468,25.585,25.6,25.6h187.733v17.067H25.6
				c-14.132,0.015-25.585,11.468-25.6,25.6V332.8c0.015,14.132,11.468,25.585,25.6,25.6h187.733v85.333H25.6
				c-14.132,0.015-25.585,11.468-25.6,25.6v34.133c-0.001,2.263,0.898,4.434,2.499,6.035c1.6,1.6,3.771,2.499,6.035,2.499h494.933
				c2.263,0.001,4.434-0.898,6.035-2.499c1.6-1.6,2.499-3.771,2.499-6.035v-34.133c-0.015-14.132-11.468-25.585-25.6-25.6H298.667
				V358.4H486.4c14.132-0.015,25.585-11.468,25.6-25.6V213.333c-0.015-14.132-11.468-25.585-25.6-25.6H298.667v-17.067H486.4z
				 M486.4,460.8c4.711,0.005,8.529,3.822,8.533,8.533v25.6H17.067v-25.6c0.005-4.711,3.822-8.529,8.533-8.533H486.4z
				 M230.4,443.733V358.4h51.2v85.333H230.4z M486.4,204.8c4.711,0.005,8.529,3.823,8.533,8.533V332.8
				c-0.005,4.711-3.822,8.529-8.533,8.533H25.6c-4.711-0.005-8.529-3.823-8.533-8.533V213.333c0.005-4.711,3.822-8.529,8.533-8.533
				H486.4z M230.4,187.733v-17.067h51.2v17.067H230.4z M25.6,153.6c-4.711-0.005-8.529-3.823-8.533-8.533V25.6
				c0.005-4.711,3.822-8.529,8.533-8.533h460.8c4.711,0.005,8.529,3.822,8.533,8.533v119.467c-0.005,4.711-3.822,8.529-8.533,8.533
				H25.6z"/>
			<path d="M452.267,42.667h-153.6c-4.713,0-8.533,3.82-8.533,8.533s3.82,8.533,8.533,8.533h153.6c4.713,0,8.533-3.82,8.533-8.533
				S456.979,42.667,452.267,42.667z"/>
			<path d="M452.267,76.8h-153.6c-4.713,0-8.533,3.82-8.533,8.533s3.82,8.533,8.533,8.533h153.6c4.713,0,8.533-3.821,8.533-8.533
				S456.979,76.8,452.267,76.8z"/>
			<path d="M452.267,110.933h-153.6c-4.713,0-8.533,3.82-8.533,8.533s3.82,8.533,8.533,8.533h153.6c4.713,0,8.533-3.82,8.533-8.533
				S456.979,110.933,452.267,110.933z"/>
			<path d="M298.667,247.467h153.6c4.713,0,8.533-3.82,8.533-8.533s-3.821-8.533-8.533-8.533h-153.6
				c-4.713,0-8.533,3.82-8.533,8.533S293.954,247.467,298.667,247.467z"/>
			<path d="M298.667,281.6h153.6c4.713,0,8.533-3.821,8.533-8.533c0-4.713-3.821-8.533-8.533-8.533h-153.6
				c-4.713,0-8.533,3.821-8.533,8.533C290.133,277.779,293.954,281.6,298.667,281.6z"/>
			<path d="M298.667,315.733h153.6c4.713,0,8.533-3.82,8.533-8.533s-3.821-8.533-8.533-8.533h-153.6
				c-4.713,0-8.533,3.82-8.533,8.533S293.954,315.733,298.667,315.733z"/>
			<path d="M68.267,307.2c18.851,0,34.133-15.282,34.133-34.133c-0.02-18.843-15.29-34.113-34.133-34.133
				c-18.851,0-34.133,15.282-34.133,34.133C34.133,291.918,49.415,307.2,68.267,307.2z M68.267,256
				c9.426,0,17.067,7.641,17.067,17.067c-0.011,9.421-7.645,17.056-17.067,17.067c-9.426,0-17.067-7.641-17.067-17.067
				S58.841,256,68.267,256z"/>
			<path d="M153.6,307.2c18.851,0,34.133-15.282,34.133-34.133c-0.02-18.843-15.29-34.113-34.133-34.133
				c-18.851,0-34.133,15.282-34.133,34.133C119.467,291.918,134.749,307.2,153.6,307.2z M153.6,256
				c9.426,0,17.067,7.641,17.067,17.067c-0.011,9.421-7.646,17.056-17.067,17.067c-9.426,0-17.067-7.641-17.067-17.067
				S144.174,256,153.6,256z"/>
			<path d="M68.267,51.2c-18.851,0-34.133,15.282-34.133,34.133s15.282,34.133,34.133,34.133S102.4,104.185,102.4,85.333
				C102.38,66.49,87.11,51.22,68.267,51.2z M68.267,102.4c-9.426,0-17.067-7.641-17.067-17.067s7.641-17.067,17.067-17.067
				s17.067,7.641,17.067,17.067C85.323,94.755,77.688,102.389,68.267,102.4z"/>
			<path d="M153.6,51.2c-18.851,0-34.133,15.282-34.133,34.133s15.282,34.133,34.133,34.133s34.133-15.282,34.133-34.133
				C187.713,66.49,172.443,51.22,153.6,51.2z M153.6,102.4c-9.426,0-17.067-7.641-17.067-17.067s7.641-17.067,17.067-17.067
				c9.426,0,17.067,7.641,17.067,17.067C170.656,94.755,163.021,102.389,153.6,102.4z"/>
			<path d="M221.183,82.092c-0.187-0.546-0.447-1.064-0.771-1.542c-0.338-0.425-0.679-0.85-1.021-1.275
				c-2.453-2.425-6.126-3.133-9.304-1.792c-1.033,0.433-1.984,1.039-2.813,1.792l-1.025,1.275c-0.324,0.477-0.583,0.996-0.771,1.542
				c-0.258,0.507-0.43,1.053-0.508,1.617c-0.1,0.536-0.157,1.08-0.171,1.625c-0.023,2.27,0.869,4.454,2.475,6.059
				c0.829,0.753,1.78,1.359,2.813,1.792c2.067,0.911,4.421,0.911,6.487,0c1.034-0.433,1.987-1.039,2.817-1.792
				c1.604-1.606,2.496-3.789,2.475-6.059c-0.016-0.545-0.073-1.088-0.171-1.625C221.614,83.145,221.441,82.599,221.183,82.092z"/>
			<path d="M213.333,281.6c4.713,0,8.533-3.821,8.533-8.533c0.02-3.467-2.059-6.601-5.261-7.931s-6.89-0.59-9.331,1.872
				c-1.559,1.635-2.443,3.799-2.475,6.059C204.8,277.779,208.621,281.6,213.333,281.6z"/>
		</g>
	</g>
</g>
<g>
</g>
<g>
</g>
<g>
</g>
<g>
</g>
<g>
</g>
<g>
</g>
<g>
</g>
<g>
</g>
<g>
</g>
<g>
</g>
<g>
</g>
<g>
</g>
<g>
</g>
<g>
</g>
<g>
</g>
</svg>
