<?xml version="1.0" encoding="iso-8859-1"?>
<!-- Generator: Adobe Illustrator 19.0.0, SVG Export Plug-In . SVG Version: 6.00 Build 0)  -->
<svg version="1.1" id="Capa_1" xmlns="http://www.w3.org/2000/svg" xmlns:xlink="http://www.w3.org/1999/xlink" x="0px" y="0px"
	 viewBox="0 0 512 512" style="enable-background:new 0 0 512 512;" xml:space="preserve">
<g>
	<g>
		<g>
			<path d="M221.867,51.2c2.27,0.022,4.453-0.87,6.058-2.475c1.605-1.605,2.497-3.788,2.475-6.058
				c-0.033-2.259-0.917-4.422-2.475-6.059c-0.816-0.771-1.772-1.379-2.817-1.792c-2.077-0.858-4.41-0.858-6.487,0
				c-1.054,0.392-2.012,1.002-2.813,1.792c-1.56,1.635-2.444,3.799-2.475,6.059c-0.022,2.27,0.87,4.453,2.475,6.058
				C217.413,50.33,219.597,51.222,221.867,51.2z"/>
			<path d="M252.754,50.517c2.066,0.911,4.421,0.911,6.487,0c1.034-0.432,1.987-1.038,2.817-1.791
				c1.604-1.606,2.496-3.789,2.475-6.059c0.02-3.467-2.059-6.601-5.261-7.931c-3.202-1.329-6.89-0.59-9.331,1.872
				c-0.773,0.815-1.383,1.772-1.796,2.817c-1.357,3.176-0.646,6.858,1.796,9.301C250.77,49.478,251.721,50.084,252.754,50.517z"/>
			<path d="M290.133,51.2c1.115-0.014,2.216-0.246,3.242-0.683c1.034-0.432,1.987-1.038,2.817-1.791
				c1.604-1.606,2.496-3.789,2.475-6.059c-0.033-2.259-0.917-4.422-2.475-6.059c-0.816-0.771-1.772-1.379-2.817-1.792
				c-2.077-0.858-4.41-0.858-6.487,0c-1.033,0.433-1.984,1.039-2.813,1.792c-1.56,1.635-2.444,3.799-2.475,6.059
				c-0.022,2.27,0.87,4.453,2.475,6.058C285.68,50.33,287.863,51.222,290.133,51.2z"/>
			<path d="M215.808,82.859c2.441,2.444,6.125,3.154,9.3,1.792c1.034-0.433,1.987-1.039,2.817-1.792
				c0.751-0.832,1.357-1.784,1.792-2.817c0.911-2.065,0.911-4.418,0-6.483c-0.413-1.044-1.021-2-1.792-2.817
				c-2.453-2.425-6.126-3.133-9.304-1.792c-1.033,0.433-1.984,1.039-2.813,1.792c-1.56,1.635-2.444,3.799-2.475,6.059
				c-0.029,1.119,0.204,2.229,0.679,3.242C214.447,81.075,215.055,82.028,215.808,82.859z"/>
			<path d="M249.941,82.859c3.365,3.3,8.752,3.3,12.117,0c0.751-0.832,1.357-1.784,1.792-2.817c0.438-1.026,0.67-2.127,0.683-3.242
				c-0.033-2.259-0.917-4.422-2.475-6.059c-2.05-2.002-4.956-2.866-7.767-2.308c-0.535,0.096-1.053,0.27-1.537,0.517
				c-0.543,0.185-1.059,0.443-1.533,0.767c-0.447,0.315-0.875,0.657-1.28,1.025c-0.773,0.815-1.383,1.772-1.796,2.817
				c-0.906,2.066-0.906,4.417,0,6.483C248.58,81.075,249.188,82.028,249.941,82.859z"/>
			<path d="M284.075,82.859c2.441,2.444,6.125,3.154,9.3,1.792c1.034-0.433,1.987-1.039,2.817-1.792
				c0.751-0.832,1.357-1.784,1.792-2.817c0.911-2.065,0.911-4.418,0-6.483c-0.413-1.044-1.021-2-1.792-2.817
				c-2.453-2.425-6.126-3.133-9.304-1.792c-1.033,0.433-1.984,1.039-2.813,1.792c-1.56,1.635-2.444,3.799-2.475,6.059
				c-0.029,1.119,0.204,2.229,0.679,3.242C282.714,81.075,283.321,82.028,284.075,82.859z"/>
			<path d="M229.717,107.692c-0.413-1.044-1.021-2-1.792-2.817c-2.476-2.38-6.121-3.082-9.304-1.792
				c-1.033,0.433-1.984,1.039-2.813,1.792c-0.773,0.815-1.383,1.772-1.796,2.817c-0.436,1.026-0.667,2.127-0.679,3.242
				c-0.038,2.248,0.858,4.412,2.475,5.975c1.616,1.599,3.786,2.515,6.059,2.558c4.699-0.032,8.501-3.834,8.533-8.533
				C230.386,109.818,230.154,108.717,229.717,107.692z"/>
			<path d="M259.242,103.084c-2.077-0.858-4.41-0.858-6.487,0c-2.141,0.78-3.828,2.467-4.608,4.608
				c-1.293,3.155-0.588,6.777,1.795,9.217c1.591,1.636,3.776,2.558,6.058,2.558c2.282,0,4.467-0.923,6.058-2.558
				c2.442-2.408,3.154-6.069,1.792-9.217C263.073,105.548,261.385,103.86,259.242,103.084z"/>
			<path d="M290.133,119.467c3.448-0.007,6.55-2.098,7.85-5.292c0.911-2.065,0.911-4.418,0-6.483
				c-0.433-1.034-1.039-1.986-1.792-2.817c-0.816-0.771-1.772-1.379-2.817-1.792c-2.077-0.858-4.41-0.858-6.487,0
				c-2.141,0.78-3.828,2.467-4.608,4.608c-0.436,1.026-0.667,2.128-0.679,3.242c-0.038,2.248,0.858,4.412,2.475,5.975
				C285.65,118.568,287.846,119.495,290.133,119.467z"/>
			<path d="M355.229,299.55l-13.705-22.833c-7.739-12.821-21.607-20.674-36.583-20.717h-6.275V150.613
				c20.429-7.236,34.096-26.541,34.133-48.213V51.2C332.769,22.936,309.864,0.031,281.6,0h-51.2
				c-28.264,0.031-51.169,22.936-51.2,51.2v51.2c0.037,21.672,13.704,40.978,34.133,48.213V256h-6.275
				c-14.976,0.043-28.844,7.896-36.583,20.717L156.77,299.55c-20.787,4.417-114.104,29.242-114.104,118.583
				c-0.001,3.025,1.601,5.825,4.208,7.358l145.067,85.333c1.312,0.769,2.805,1.174,4.325,1.175h119.467
				c1.52-0.001,3.013-0.406,4.325-1.175l145.067-85.333c2.608-1.534,4.209-4.333,4.208-7.358
				C469.333,328.792,376.017,303.967,355.229,299.55z M196.267,102.4V51.2c0.02-18.843,15.29-34.113,34.133-34.133h51.2
				c18.843,0.02,34.113,15.29,34.133,34.133v51.2c-0.02,18.843-15.29,34.113-34.133,34.133h-51.2
				C211.557,136.513,196.287,121.243,196.267,102.4z M230.4,293.272v-101.2c16.601,5.637,34.599,5.637,51.2,0v101.2
				C265.26,300.314,246.74,300.314,230.4,293.272z M281.6,311.539v38.328c0,1.692-8.233,8.533-25.6,8.533h-0.733
				c-16.871-0.233-24.867-6.917-24.867-8.533v-38.328C247.001,317.176,264.999,317.176,281.6,311.539z M230.4,173.806V153.6h51.2
				v20.206C265.26,180.848,246.74,180.848,230.4,173.806z M255.146,375.467H256c24.325,0,42.667-11.008,42.667-25.6V329.47
				c9.732,5.113,16.171,14.849,17.067,25.805c0,20.2-27.354,37.258-59.733,37.258s-59.733-17.058-59.733-37.258
				c0.896-10.956,7.335-20.692,17.067-25.805v20.396C213.333,364.358,230.867,375.125,255.146,375.467z M332.129,348.168
				c17.231,1.389,34.034,6.077,49.496,13.807c15.156,7.068,27.406,19.156,34.675,34.217l-105.584,61.237l-25.796-51.716
				c28.319-7.929,47.88-27.253,47.88-50.438C332.791,352.891,332.567,350.512,332.129,348.168z M227.081,405.713l-25.779,51.681
				L95.704,396.192c2.286-5.409,5.398-10.43,9.225-14.883l1.862-2.1c16.458-17.832,39.792-27.597,73.052-30.742
				c-0.411,2.247-0.626,4.525-0.643,6.808C179.2,378.46,198.761,397.784,227.081,405.713z M244.537,408.956
				c7.618,0.858,15.309,0.858,22.927,0l25.859,51.844h-74.646L244.537,408.956z M313.408,494.933H198.592l-138.75-81.617
				c3.658-81.142,99.446-97.033,103.6-97.683c2.502-0.392,4.702-1.872,6.008-4.042l15.659-26.092
				c4.643-7.693,12.964-12.406,21.95-12.433h6.275v37.142c-10.245,4.49-19.143,11.573-25.816,20.55
				c-2.013,0.118-4.042,0.203-6.018,0.358c-24.833,2.008-60.9,7.975-87.367,36.642l-2.058,2.325
				c-6.935,8.014-12.038,17.444-14.954,27.633c-1.062,3.755,0.557,7.752,3.933,9.708l119.55,69.292
				c0.101,0.058,0.218,0.079,0.321,0.133c0.058,0.031,0.091,0.087,0.15,0.117c0.339,0.15,0.687,0.276,1.043,0.379
				c0.227,0.078,0.441,0.185,0.674,0.244c0.68,0.178,1.38,0.271,2.083,0.277l0.004-0.001l0.004,0.001H307.2
				c0.155,0,0.303-0.052,0.457-0.06c0.506-0.021,1.009-0.088,1.503-0.2c0.482-0.128,0.951-0.299,1.403-0.509
				c0.119-0.053,0.244-0.072,0.362-0.131l0.051-0.04c0.165-0.081,0.347-0.118,0.507-0.21l119.467-69.292
				c3.365-1.954,4.983-5.936,3.933-9.683c-7.392-22.556-23.85-41.01-45.417-50.925c-20.359-10.002-42.596-15.606-65.264-16.45
				c-6.653-8.788-15.444-15.727-25.537-20.159v-37.142h6.275c8.986,0.027,17.307,4.74,21.95,12.433l15.659,26.092
				c1.305,2.176,3.512,3.658,6.021,4.042c1.017,0.158,99.821,16.308,103.588,97.683L313.408,494.933z"/>
			<path d="M256,221.867c-4.713,0-8.533,3.82-8.533,8.533V256c0,4.713,3.82,8.533,8.533,8.533c4.713,0,8.533-3.82,8.533-8.533v-25.6
				C264.533,225.687,260.713,221.867,256,221.867z"/>
		</g>
	</g>
</g>
<g>
</g>
<g>
</g>
<g>
</g>
<g>
</g>
<g>
</g>
<g>
</g>
<g>
</g>
<g>
</g>
<g>
</g>
<g>
</g>
<g>
</g>
<g>
</g>
<g>
</g>
<g>
</g>
<g>
</g>
</svg>
