<?xml version="1.0" encoding="iso-8859-1"?>
<!-- Generator: Adobe Illustrator 19.0.0, SVG Export Plug-In . SVG Version: 6.00 Build 0)  -->
<svg version="1.1" id="Capa_1" xmlns="http://www.w3.org/2000/svg" xmlns:xlink="http://www.w3.org/1999/xlink" x="0px" y="0px"
	 viewBox="0 0 512 512" style="enable-background:new 0 0 512 512;" xml:space="preserve">
<g>
	<g>
		<g>
			<path d="M509.502,36.631c-1.601-1.601-3.772-2.499-6.035-2.498h-8.533V17.067c0-4.713-3.82-8.533-8.533-8.533
				s-8.533,3.82-8.533,8.533v17.067H460.8V17.067C460.788,7.646,453.154,0.012,443.733,0h-102.4
				c-9.421,0.012-17.055,7.646-17.067,17.067v17.067H307.2V17.067c0-4.713-3.82-8.533-8.533-8.533s-8.533,3.82-8.533,8.533v17.067
				H281.6c-2.264-0.001-4.435,0.897-6.035,2.498c-1.601,1.601-2.499,3.772-2.498,6.035V281.6c0,14.138,11.461,25.6,25.6,25.6
				s25.6-11.462,25.6-25.6v-59.733h17.067v51.2c0.021,6.069,3.272,11.667,8.533,14.692V332.8
				c0.033,10.813,6.868,20.435,17.067,24.027v146.64c-0.001,2.264,0.897,4.435,2.498,6.035c1.601,1.601,3.772,2.499,6.035,2.498
				H409.6c2.264,0.001,4.435-0.897,6.035-2.498c1.601-1.601,2.499-3.772,2.498-6.035V356.828
				c10.199-3.592,17.033-13.214,17.067-24.028v-45.042c5.261-3.025,8.512-8.623,8.533-14.692v-51.2H460.8V281.6
				c0,14.138,11.461,25.6,25.6,25.6s25.6-11.462,25.6-25.6V42.667C512.001,40.403,511.103,38.232,509.502,36.631z M341.333,17.067
				h102.4v17.067h-102.4V17.067z M307.2,281.6c-0.003,4.711-3.822,8.53-8.533,8.533c-4.712-0.003-8.53-3.822-8.533-8.533v-8.533
				H307.2V281.6z M307.2,256h-17.067v-17.067H307.2V256z M307.2,213.333v8.533h-17.067V102.4H307.2V213.333z M401.067,494.933H384
				V358.4h17.067V494.933z M418.133,307.2H409.6c-4.713,0-8.533,3.82-8.533,8.533s3.82,8.533,8.533,8.533h8.533v8.533
				c-0.003,4.712-3.822,8.53-8.533,8.533h-34.133c-4.711-0.003-8.53-3.822-8.533-8.533v-8.533h8.533c4.713,0,8.533-3.82,8.533-8.533
				s-3.82-8.533-8.533-8.533h-8.533v-17.067h51.2V307.2z M460.8,204.8h-17.067c-9.421,0.012-17.054,7.646-17.067,17.067v51.2H358.4
				v-51.2c-0.012-9.421-7.646-17.054-17.067-17.067h-17.067V102.4H460.8V204.8z M494.933,281.6c-0.003,4.711-3.822,8.53-8.533,8.533
				c-4.712-0.003-8.53-3.822-8.533-8.533v-8.533h17.067V281.6z M494.933,256h-17.067v-17.067h17.067V256z M494.933,221.867h-17.067
				v-8.533V102.4h17.067V221.867z M494.933,85.333h-204.8V51.2h204.8V85.333z"/>
			<path d="M358.4,170.667h68.267c9.421-0.012,17.054-7.646,17.067-17.067v-17.067c-0.012-9.421-7.646-17.054-17.067-17.067H358.4
				c-9.421,0.012-17.054,7.646-17.067,17.067V153.6C341.346,163.021,348.979,170.654,358.4,170.667z M358.4,136.533h68.267
				l0.017,17.067H358.4V136.533z"/>
			<path d="M401.067,238.933H384c-4.713,0-8.533,3.82-8.533,8.533S379.287,256,384,256h17.067c4.713,0,8.533-3.82,8.533-8.533
				S405.78,238.933,401.067,238.933z"/>
			<path d="M401.067,204.8H384c-4.713,0-8.533,3.821-8.533,8.533c0,4.713,3.82,8.533,8.533,8.533h17.067
				c4.713,0,8.533-3.821,8.533-8.533C409.6,208.621,405.78,204.8,401.067,204.8z"/>
			<path d="M230.4,34.133h-8.533V17.067c0-4.713-3.821-8.533-8.533-8.533c-4.713,0-8.533,3.82-8.533,8.533v17.067h-17.067V17.067
				C187.721,7.646,180.087,0.012,170.667,0h-102.4C58.846,0.012,51.212,7.646,51.2,17.067v17.067H34.133V17.067
				c0-4.713-3.821-8.533-8.533-8.533s-8.533,3.82-8.533,8.533v17.067H8.533c-2.264-0.001-4.435,0.897-6.035,2.498
				S-0.001,40.403,0,42.667V281.6c0.015,14.132,11.468,25.585,25.6,25.6c14.132-0.015,25.585-11.468,25.6-25.6v-59.733h17.067v51.2
				c0.021,6.069,3.272,11.667,8.533,14.692V332.8c0.033,10.813,6.868,20.435,17.067,24.027v146.64
				c-0.001,2.264,0.897,4.435,2.498,6.035c1.601,1.601,3.772,2.499,6.035,2.498h34.133c2.264,0.001,4.435-0.897,6.035-2.498
				c1.601-1.601,2.499-3.772,2.498-6.035V356.828c10.199-3.592,17.033-13.214,17.067-24.028v-45.042
				c5.261-3.025,8.512-8.623,8.533-14.692v-51.2h17.067V281.6c0,14.138,11.461,25.6,25.6,25.6c14.138,0,25.6-11.462,25.6-25.6
				V42.667c0.001-2.264-0.897-4.435-2.498-6.035S232.664,34.132,230.4,34.133z M68.267,17.067h102.4v17.067h-102.4V17.067z
				 M34.133,281.6c-0.003,4.711-3.822,8.53-8.533,8.533c-4.711-0.003-8.53-3.822-8.533-8.533v-8.533h17.067V281.6z M34.133,256
				H17.067v-17.067h17.067V256z M34.133,213.333v8.533H17.067V102.4h17.067V213.333z M128,494.933h-17.067V358.4H128V494.933z
				 M145.067,307.2h-8.533c-4.713,0-8.533,3.82-8.533,8.533s3.82,8.533,8.533,8.533h8.533v8.533
				c-0.003,4.712-3.822,8.53-8.533,8.533H102.4c-4.712-0.003-8.53-3.822-8.533-8.533v-8.533h8.533c4.713,0,8.533-3.82,8.533-8.533
				s-3.82-8.533-8.533-8.533h-8.533v-17.067h51.2V307.2z M187.733,204.8h-17.067c-9.421,0.012-17.054,7.646-17.067,17.067v51.2
				H85.333v-51.2c-0.012-9.421-7.646-17.054-17.067-17.067H51.2V102.4h136.533V204.8z M221.867,281.6
				c-0.003,4.711-3.822,8.53-8.533,8.533c-4.712-0.003-8.53-3.822-8.533-8.533v-8.533h17.067V281.6z M221.867,256H204.8v-17.067
				h17.067V256z M221.867,221.867H204.8V102.4h17.067V221.867z M221.867,85.333h-204.8V51.2h204.8V85.333z"/>
			<path d="M85.333,170.667H153.6c9.421-0.012,17.054-7.646,17.067-17.067v-17.067c-0.012-9.421-7.646-17.054-17.067-17.067H85.333
				c-9.421,0.012-17.054,7.646-17.067,17.067V153.6C68.279,163.021,75.913,170.654,85.333,170.667z M85.333,136.533H153.6
				l0.017,17.067H85.333V136.533z"/>
			<path d="M128,238.933h-17.067c-4.713,0-8.533,3.82-8.533,8.533s3.82,8.533,8.533,8.533H128c4.713,0,8.533-3.82,8.533-8.533
				S132.713,238.933,128,238.933z"/>
			<path d="M128,204.8h-17.067c-4.713,0-8.533,3.821-8.533,8.533c0,4.713,3.82,8.533,8.533,8.533H128
				c4.713,0,8.533-3.821,8.533-8.533C136.533,208.621,132.713,204.8,128,204.8z"/>
		</g>
	</g>
</g>
<g>
</g>
<g>
</g>
<g>
</g>
<g>
</g>
<g>
</g>
<g>
</g>
<g>
</g>
<g>
</g>
<g>
</g>
<g>
</g>
<g>
</g>
<g>
</g>
<g>
</g>
<g>
</g>
<g>
</g>
</svg>
