<?xml version="1.0" encoding="iso-8859-1"?>
<!-- Generator: Adobe Illustrator 19.0.0, SVG Export Plug-In . SVG Version: 6.00 Build 0)  -->
<svg version="1.1" id="Capa_1" xmlns="http://www.w3.org/2000/svg" xmlns:xlink="http://www.w3.org/1999/xlink" x="0px" y="0px"
	 viewBox="0 0 512 512" style="enable-background:new 0 0 512 512;" xml:space="preserve">
<g>
	<g>
		<path d="M469.333,213.333C469.333,95.513,373.821,0,256,0S42.667,95.513,42.667,213.333C14.658,213.333,0,264.85,0,315.733
			c0,50.883,14.658,102.4,42.667,102.4v59.733c0.015,14.132,11.468,25.585,25.6,25.6h74.925c4.812,5.41,11.701,8.513,18.942,8.533
			H230.4c14.132-0.015,25.585-11.468,25.6-25.6v-17.067c-0.015-14.132-11.468-25.585-25.6-25.6h-68.267
			c-7.24,0.02-14.129,3.124-18.942,8.533H93.867v-34.133h10.106c2.953,8.515,10.199,14.825,19.039,16.58
			c8.84,1.755,17.947-1.307,23.93-8.047H179.2c14.132-0.015,25.585-11.468,25.6-25.6V230.4c-0.015-14.132-11.468-25.585-25.6-25.6
			h-32.258c-5.983-6.74-15.09-9.803-23.93-8.047s-16.086,8.066-19.039,16.581H93.867c-0.007-36.623,12.456-72.157,35.335-100.754
			l8.215,6.587c4.503,3.618,10.107,5.588,15.883,5.583c6.424-0.013,12.616-2.402,17.384-6.708
			c12.448-11.213,26.991-19.854,42.792-25.425c12.899-4.45,20.129-18.148,16.525-31.308l-2.144-7.496
			c18.601-3.483,37.687-3.483,56.288,0L282,61.317c-3.602,13.158,3.628,26.853,16.525,31.3c15.8,5.571,30.343,14.212,42.791,25.425
			c4.767,4.306,10.959,6.696,17.383,6.708c5.779,0.005,11.386-1.965,15.892-5.583l8.208-6.585
			c22.879,28.596,35.34,64.129,35.333,100.752h-10.106c-2.953-8.515-10.199-14.825-19.039-16.581s-17.947,1.307-23.93,8.047H332.8
			c-14.132,0.015-25.585,11.468-25.6,25.6v170.667c0.015,14.132,11.468,25.585,25.6,25.6h32.258c5.983,6.74,15.09,9.803,23.93,8.047
			c8.84-1.755,16.086-8.066,19.039-16.58h10.106v76.8c0.012,9.421,7.646,17.054,17.067,17.067h17.067
			c9.421-0.012,17.055-7.646,17.067-17.067v-76.8c28.008,0,42.667-51.517,42.667-102.4C512,264.85,497.342,213.333,469.333,213.333z
			 M153.6,469.333c0.003-4.712,3.822-8.53,8.533-8.533H230.4c4.711,0.003,8.53,3.822,8.533,8.533V486.4
			c-0.003,4.712-3.822,8.53-8.533,8.533h-68.267c-4.712-0.003-8.53-3.822-8.533-8.533V469.333z M153.6,392.533h8.533
			c4.713,0,8.533-3.82,8.533-8.533s-3.82-8.533-8.533-8.533H153.6V256h8.533c4.713,0,8.533-3.82,8.533-8.533
			s-3.82-8.533-8.533-8.533H153.6v-17.067h25.6c4.712,0.003,8.53,3.822,8.533,8.533v170.667c-0.003,4.711-3.822,8.53-8.533,8.533
			h-25.6V392.533z M119.467,221.867c0.003-4.712,3.822-8.53,8.533-8.533c4.712,0.003,8.53,3.822,8.533,8.533V409.6
			c0,4.713-3.82,8.533-8.533,8.533s-8.533-3.82-8.533-8.533V221.867z M358.4,238.933h-8.533c-4.713,0-8.533,3.82-8.533,8.533
			s3.82,8.533,8.533,8.533h8.533v119.467h-8.533c-4.713,0-8.533,3.82-8.533,8.533s3.82,8.533,8.533,8.533h8.533V409.6h-25.6
			c-4.711-0.003-8.53-3.822-8.533-8.533V230.4c0.003-4.712,3.822-8.53,8.533-8.533h25.6V238.933z M392.533,409.6
			c-0.003,4.711-3.822,8.53-8.533,8.533c-4.711-0.003-8.53-3.822-8.533-8.533V221.867c0-4.713,3.82-8.533,8.533-8.533
			s8.533,3.82,8.533,8.533V409.6z M22.019,363.164c-6.603-31.276-6.603-63.586,0-94.861l46.248,34.631v12.8v12.8L22.019,363.164z
			 M76.8,460.8v25.6h-8.533c-4.711-0.003-8.53-3.822-8.533-8.533v-59.733H76.8V460.8z M136.533,469.333V486.4H93.867v-17.067
			H136.533z M102.4,401.067H42.667c-4.734,0-10.582-7.419-15.5-20.428l41.1-30.782v0.01c0.015,14.132,11.468,25.585,25.6,25.6h8.533
			V401.067z M102.4,358.4h-8.533c-4.712-0.003-8.53-3.822-8.533-8.533V332.8v-8.533H102.4V358.4z M102.4,307.2H85.333v-25.6
			c0.003-4.712,3.822-8.53,8.533-8.533h8.533V307.2z M102.4,230.4V256h-8.533c-14.132,0.015-25.585,11.468-25.6,25.6v0.01
			l-41.1-30.782c4.918-13.008,10.766-20.428,15.5-20.428H102.4z M207.792,76.517c-17.91,6.32-34.395,16.116-48.508,28.825
			c-3.099,2.896-7.843,3.111-11.192,0.508l-7.604-6.096c18.288-18.615,40.794-32.547,65.611-40.614
			c1.029-0.329,2.05-0.677,3.088-0.985c0.657-0.198,1.344-0.326,2.005-0.517L213.583,66
			C214.786,70.492,212.231,75.132,207.792,76.517z M363.917,105.85c-3.352,2.603-8.098,2.388-11.2-0.508
			c-14.113-12.709-30.598-22.505-48.508-28.825c-4.437-1.382-6.992-6.019-5.792-10.508l2.389-8.371
			c0.54,0.156,1.1,0.261,1.638,0.422c1.385,0.413,2.754,0.877,4.127,1.326c3.702,1.219,7.358,2.537,10.939,4.011
			c0.659,0.27,1.336,0.504,1.993,0.783c4.329,1.851,8.548,3.908,12.675,6.115c0.727,0.387,1.446,0.789,2.167,1.188
			c8.531,4.722,16.62,10.201,24.171,16.371c0.364,0.297,0.724,0.597,1.086,0.898c4.156,3.462,8.116,7.145,11.906,10.999
			L363.917,105.85z M391.014,95.877c-0.148-0.302-0.314-0.595-0.497-0.877c-2.517-2.883-5.125-5.669-7.825-8.358
			c-3.874-3.875-7.964-7.484-12.146-10.968c-0.53-0.442-1.072-0.867-1.607-1.303c-3.851-3.133-7.816-6.1-11.893-8.9
			c-0.466-0.319-0.915-0.656-1.383-0.97c-4.513-3.025-9.139-5.856-13.9-8.454c-0.587-0.321-1.198-0.599-1.787-0.914
			c-3.954-2.1-7.985-4.045-12.094-5.835c-1.403-0.617-2.808-1.223-4.229-1.805c-3.946-1.608-7.949-3.077-12.01-4.405
			c-1.425-0.467-2.843-0.935-4.284-1.367c-3.472-1.035-6.965-2.014-10.508-2.839c-0.198-0.046-0.389,0.01-0.586-0.021
			c-26.462-6.302-54.033-6.305-80.496-0.009c-0.202,0.032-0.399-0.026-0.601,0.021c-3.177,0.733-6.281,1.656-9.394,2.555
			c-1.143,0.335-2.319,0.583-3.452,0.94c-5.4,1.675-10.67,3.646-15.848,5.811c-0.184,0.078-0.361,0.167-0.546,0.245
			c-5.142,2.171-10.144,4.616-15.042,7.257l-0.475,0.259c-15.067,8.175-28.865,18.498-40.96,30.644
			c-0.154,0.154-0.296,0.321-0.45,0.476c-2.55,2.58-5.091,5.172-7.5,7.921c-0.185,0.284-0.354,0.578-0.503,0.882
			c-28.485,32.504-44.191,74.25-44.196,117.469H59.733c0-108.395,87.872-196.267,196.267-196.267s196.267,87.872,196.267,196.267
			H435.2C435.195,170.12,419.492,128.379,391.014,95.877z M409.6,230.4h59.733c4.734,0,10.582,7.419,15.5,20.428l-41.1,30.782v-0.01
			c-0.015-14.132-11.468-25.585-25.6-25.6H409.6V230.4z M409.6,273.067h8.533c4.711,0.003,8.53,3.822,8.533,8.533v17.067v8.533
			H409.6V273.067z M409.6,324.267h17.067v25.6c-0.003,4.711-3.822,8.53-8.533,8.533H409.6V324.267z M435.2,494.933v-42.667h17.074
			l0.009,42.667H435.2z M435.2,435.2v-17.067h17.067l0.004,17.067H435.2z M469.333,401.067H409.6v-25.6h8.533
			c14.132-0.015,25.585-11.468,25.6-25.6v-0.01l41.1,30.782C479.916,393.647,474.068,401.067,469.333,401.067z M443.733,328.533
			v-25.6l46.248-34.631c3.393,15.579,5.054,31.486,4.952,47.431c0.102,15.944-1.559,31.851-4.952,47.431L443.733,328.533z"/>
	</g>
</g>
<g>
</g>
<g>
</g>
<g>
</g>
<g>
</g>
<g>
</g>
<g>
</g>
<g>
</g>
<g>
</g>
<g>
</g>
<g>
</g>
<g>
</g>
<g>
</g>
<g>
</g>
<g>
</g>
<g>
</g>
</svg>
