<?xml version="1.0" encoding="iso-8859-1"?>
<!-- Generator: Adobe Illustrator 19.0.0, SVG Export Plug-In . SVG Version: 6.00 Build 0)  -->
<svg version="1.1" id="Capa_1" xmlns="http://www.w3.org/2000/svg" xmlns:xlink="http://www.w3.org/1999/xlink" x="0px" y="0px"
	 viewBox="0 0 512 512" style="enable-background:new 0 0 512 512;" xml:space="preserve">
<g>
	<g>
		<g>
			<path d="M494.933,119.467V25.6c0.001-2.264-0.897-4.435-2.498-6.035s-3.772-2.499-6.035-2.498c-25.6,0-25.6-4.933-25.6-8.533
				c0.001-2.264-0.897-4.435-2.498-6.035c-1.601-1.601-3.772-2.499-6.035-2.498H332.8c-2.264-0.001-4.435,0.897-6.035,2.498
				c-1.601,1.601-2.499,3.772-2.498,6.035c0,3.6,0,8.533-25.6,8.533c-2.264-0.001-4.435,0.897-6.035,2.498s-2.499,3.772-2.498,6.035
				v93.867c-9.421,0.012-17.054,7.646-17.067,17.067v184.2c0.014,4.523,1.811,8.859,5,12.067l46.2,46.2v30.6
				c0.012,9.421,7.646,17.054,17.067,17.067h8.533v68.267c0.012,9.421,7.646,17.054,17.067,17.067h51.2
				c9.421-0.012,17.054-7.646,17.067-17.067v-68.267h8.533c9.421-0.012,17.055-7.646,17.067-17.067V379l46.2-46.2
				c3.189-3.208,4.986-7.543,5-12.067v-184.2C511.988,127.113,504.354,119.479,494.933,119.467z M460.8,31.25
				c5.555,1.602,11.288,2.507,17.067,2.692v85.525H460.8V31.25z M341.333,17.067h102.4v102.4h-102.4V17.067z M307.2,33.942
				c5.779-0.185,11.512-1.09,17.067-2.692v88.217H307.2V33.942z M366.933,494.933v-68.267h51.2l0.017,68.267H366.933z
				 M494.933,320.733l-46.2,46.2c-3.189,3.208-4.986,7.543-5,12.067v30.6h-102.4V379c-0.014-4.523-1.811-8.859-5-12.067l-46.2-46.2
				v-184.2l204.8,0.025V320.733z"/>
			<path d="M375.467,59.733h-8.533c-4.713,0-8.533,3.82-8.533,8.533s3.82,8.533,8.533,8.533h8.533c4.713,0,8.533-3.82,8.533-8.533
				S380.18,59.733,375.467,59.733z"/>
			<path d="M418.133,59.733H409.6c-4.713,0-8.533,3.82-8.533,8.533s3.82,8.533,8.533,8.533h8.533c4.713,0,8.533-3.82,8.533-8.533
				S422.846,59.733,418.133,59.733z"/>
			<path d="M324.267,256H460.8c9.421-0.012,17.054-7.646,17.067-17.067V179.2c-0.012-9.421-7.646-17.054-17.067-17.067H324.267
				c-9.421,0.012-17.054,7.646-17.067,17.067v59.733C307.212,248.354,314.846,255.988,324.267,256z M324.267,179.2H460.8
				l0.017,59.733h-136.55V179.2z"/>
			<path d="M435.2,273.067h-85.333c-4.713,0-8.533,3.821-8.533,8.533s3.82,8.533,8.533,8.533H435.2c4.713,0,8.533-3.82,8.533-8.533
				S439.913,273.067,435.2,273.067z"/>
			<path d="M435.2,307.2h-85.333c-4.713,0-8.533,3.82-8.533,8.533s3.82,8.533,8.533,8.533H435.2c4.713,0,8.533-3.82,8.533-8.533
				S439.913,307.2,435.2,307.2z"/>
			<path d="M435.2,341.333h-85.333c-4.713,0-8.533,3.82-8.533,8.533s3.82,8.533,8.533,8.533H435.2c4.713,0,8.533-3.82,8.533-8.533
				S439.913,341.333,435.2,341.333z"/>
			<path d="M221.867,119.467V25.6c0.001-2.264-0.897-4.435-2.498-6.035s-3.772-2.499-6.035-2.498c-25.6,0-25.6-4.933-25.6-8.533
				c0.001-2.264-0.897-4.435-2.498-6.035S181.464-0.001,179.2,0H59.733c-2.264-0.001-4.435,0.897-6.035,2.498
				S51.199,6.27,51.2,8.533c0,3.6,0,8.533-25.6,8.533c-2.264-0.001-4.435,0.897-6.035,2.498s-2.499,3.772-2.498,6.035v93.867
				C7.646,119.479,0.012,127.113,0,136.533v184.2c0.014,4.523,1.811,8.859,5,12.067L51.2,379v30.6
				c0.012,9.421,7.646,17.054,17.067,17.067H76.8v68.267c0.012,9.421,7.646,17.054,17.067,17.067h51.2
				c9.421-0.012,17.054-7.646,17.067-17.067v-68.267h8.533c9.421-0.012,17.054-7.646,17.067-17.067V379l46.2-46.2
				c3.189-3.208,4.986-7.543,5-12.067v-184.2C238.921,127.113,231.287,119.479,221.867,119.467z M187.733,31.25
				c5.555,1.602,11.288,2.507,17.067,2.692v85.525h-17.067V31.25z M68.267,17.067h102.4v102.4h-102.4V17.067z M34.133,33.942
				c5.779-0.185,11.512-1.09,17.067-2.692v88.217H34.133V33.942z M93.867,494.933v-68.267h51.2l0.017,68.267H93.867z
				 M221.867,320.733l-46.2,46.2c-3.189,3.208-4.986,7.543-5,12.067v30.6h-102.4V379c-0.014-4.523-1.811-8.859-5-12.067l-46.2-46.2
				v-184.2l204.8,0.025V320.733z"/>
			<path d="M102.4,59.733h-8.533c-4.713,0-8.533,3.82-8.533,8.533s3.821,8.533,8.533,8.533h8.533c4.713,0,8.533-3.82,8.533-8.533
				S107.113,59.733,102.4,59.733z"/>
			<path d="M145.067,59.733h-8.533c-4.713,0-8.533,3.82-8.533,8.533s3.82,8.533,8.533,8.533h8.533c4.713,0,8.533-3.82,8.533-8.533
				S149.779,59.733,145.067,59.733z"/>
			<path d="M51.2,256h136.533c9.421-0.012,17.054-7.646,17.067-17.067V179.2c-0.012-9.421-7.646-17.054-17.067-17.067H51.2
				c-9.421,0.012-17.054,7.646-17.067,17.067v59.733C34.146,248.354,41.779,255.988,51.2,256z M51.2,179.2h136.533l0.017,59.733
				H51.2V179.2z"/>
			<path d="M162.133,273.067H76.8c-4.713,0-8.533,3.821-8.533,8.533s3.82,8.533,8.533,8.533h85.333c4.713,0,8.533-3.82,8.533-8.533
				S166.846,273.067,162.133,273.067z"/>
			<path d="M162.133,307.2H76.8c-4.713,0-8.533,3.82-8.533,8.533s3.82,8.533,8.533,8.533h85.333c4.713,0,8.533-3.82,8.533-8.533
				S166.846,307.2,162.133,307.2z"/>
			<path d="M162.133,341.333H76.8c-4.713,0-8.533,3.82-8.533,8.533s3.82,8.533,8.533,8.533h85.333c4.713,0,8.533-3.82,8.533-8.533
				S166.846,341.333,162.133,341.333z"/>
		</g>
	</g>
</g>
<g>
</g>
<g>
</g>
<g>
</g>
<g>
</g>
<g>
</g>
<g>
</g>
<g>
</g>
<g>
</g>
<g>
</g>
<g>
</g>
<g>
</g>
<g>
</g>
<g>
</g>
<g>
</g>
<g>
</g>
</svg>
