<?xml version="1.0" encoding="iso-8859-1"?>
<!-- Generator: Adobe Illustrator 19.0.0, SVG Export Plug-In . SVG Version: 6.00 Build 0)  -->
<svg version="1.1" id="Capa_1" xmlns="http://www.w3.org/2000/svg" xmlns:xlink="http://www.w3.org/1999/xlink" x="0px" y="0px"
	 viewBox="0 0 512 512" style="enable-background:new 0 0 512 512;" xml:space="preserve">
<g>
	<g>
		<g>
			<path d="M445.733,366.933c8.711-9.71,8.711-24.423,0-34.133c6.739-7.519,8.426-18.299,4.307-27.518
				c-4.12-9.219-13.276-15.153-23.373-15.148H409.6V17.067C409.588,7.646,401.954,0.012,392.533,0H119.467
				c-9.421,0.012-17.054,7.646-17.067,17.067v273.067H85.333c-10.098-0.005-19.254,5.93-23.373,15.148
				c-4.12,9.219-2.433,19.999,4.307,27.518c-8.711,9.71-8.711,24.423,0,34.133c-8.711,9.71-8.711,24.423,0,34.133
				c-8.711,9.71-8.711,24.423,0,34.133c-8.711,9.71-8.711,24.423,0,34.133c-6.74,7.519-8.427,18.299-4.307,27.518
				c4.12,9.219,13.276,15.153,23.373,15.148h341.333c10.098,0.005,19.254-5.93,23.373-15.148c4.12-9.219,2.433-19.999-4.307-27.518
				c8.711-9.71,8.711-24.423,0-34.133c8.711-9.71,8.711-24.423,0-34.133C454.444,391.356,454.444,376.644,445.733,366.933z
				 M119.467,17.067h273.067v273.067h-68.267V256h25.6c4.713,0,8.533-3.82,8.533-8.533s-3.821-8.533-8.533-8.533h-34.133
				c-2.264-0.001-4.435,0.897-6.035,2.498s-2.499,3.772-2.498,6.035v42.667H204.8v-42.667c0.001-2.264-0.897-4.435-2.498-6.035
				s-3.772-2.499-6.035-2.498h-34.133c-4.713,0-8.533,3.82-8.533,8.533s3.821,8.533,8.533,8.533h25.6v34.133h-68.267V17.067z
				 M426.667,341.333c4.713,0,8.533,3.82,8.533,8.533s-3.82,8.533-8.533,8.533s-8.533,3.82-8.533,8.533s3.82,8.533,8.533,8.533
				s8.533,3.82,8.533,8.533s-3.82,8.533-8.533,8.533s-8.533,3.821-8.533,8.533s3.82,8.533,8.533,8.533s8.533,3.82,8.533,8.533
				s-3.82,8.533-8.533,8.533s-8.533,3.82-8.533,8.533s3.82,8.533,8.533,8.533s8.533,3.821,8.533,8.533
				c0,4.713-3.82,8.533-8.533,8.533s-8.533,3.82-8.533,8.533s3.82,8.533,8.533,8.533s8.533,3.82,8.533,8.533
				s-3.82,8.533-8.533,8.533H85.333c-4.713,0-8.533-3.82-8.533-8.533s3.82-8.533,8.533-8.533s8.533-3.82,8.533-8.533
				s-3.82-8.533-8.533-8.533s-8.533-3.821-8.533-8.533c0-4.713,3.82-8.533,8.533-8.533s8.533-3.82,8.533-8.533
				s-3.82-8.533-8.533-8.533s-8.533-3.82-8.533-8.533s3.82-8.533,8.533-8.533s8.533-3.82,8.533-8.533s-3.82-8.533-8.533-8.533
				S76.8,388.713,76.8,384s3.82-8.533,8.533-8.533s8.533-3.82,8.533-8.533s-3.82-8.533-8.533-8.533s-8.533-3.82-8.533-8.533
				s3.82-8.533,8.533-8.533s8.533-3.821,8.533-8.533c0-4.713-3.82-8.533-8.533-8.533s-8.533-3.82-8.533-8.533
				s3.82-8.533,8.533-8.533h341.333c4.713,0,8.533,3.82,8.533,8.533s-3.82,8.533-8.533,8.533s-8.533,3.821-8.533,8.533
				C418.133,337.513,421.954,341.333,426.667,341.333z"/>
			<path d="M221.867,179.2c9.421-0.012,17.054-7.646,17.067-17.067V128c-0.012-9.421-7.646-17.054-17.067-17.067h-59.733
				c-9.421,0.012-17.054,7.646-17.067,17.067v34.133c0.012,9.421,7.646,17.054,17.067,17.067H221.867z M162.133,128h59.733
				l0.017,34.133h-59.75V128z"/>
			<path d="M290.133,179.2h59.733c9.421-0.012,17.054-7.646,17.067-17.067V128c-0.012-9.421-7.646-17.054-17.067-17.067h-59.733
				c-9.421,0.012-17.054,7.646-17.067,17.067v34.133C273.079,171.554,280.713,179.188,290.133,179.2z M290.133,128h59.733
				l0.017,34.133h-59.75V128z"/>
			<path d="M204.8,443.733h-8.533v-93.867c-0.01-3.449-2.093-6.554-5.281-7.871c-3.188-1.317-6.855-0.588-9.297,1.849L164.634,360.9
				c-2.188,2.149-3.055,5.307-2.27,8.271c0.785,2.965,3.1,5.28,6.065,6.065c2.965,0.785,6.122-0.082,8.271-2.27l2.5-2.5v73.267
				h-8.533c-4.713,0-8.533,3.821-8.533,8.533c0,4.713,3.821,8.533,8.533,8.533H204.8c4.713,0,8.533-3.821,8.533-8.533
				C213.333,447.554,209.513,443.733,204.8,443.733z"/>
			<path d="M264.533,341.333h-17.067c-9.421,0.012-17.054,7.646-17.067,17.067v85.333c0.012,9.421,7.646,17.055,17.067,17.067
				h17.067c9.421-0.012,17.054-7.646,17.067-17.067V358.4C281.588,348.979,273.954,341.346,264.533,341.333z M247.467,443.733V358.4
				h17.067l0.017,85.333H247.467z"/>
			<path d="M332.8,341.333h-17.067c-9.421,0.012-17.054,7.646-17.067,17.067v85.333c0.012,9.421,7.646,17.055,17.067,17.067H332.8
				c9.421-0.012,17.055-7.646,17.067-17.067V358.4C349.855,348.979,342.221,341.346,332.8,341.333z M315.733,443.733V358.4H332.8
				l0.017,85.333H315.733z"/>
		</g>
	</g>
</g>
<g>
</g>
<g>
</g>
<g>
</g>
<g>
</g>
<g>
</g>
<g>
</g>
<g>
</g>
<g>
</g>
<g>
</g>
<g>
</g>
<g>
</g>
<g>
</g>
<g>
</g>
<g>
</g>
<g>
</g>
</svg>
