<?xml version="1.0" encoding="iso-8859-1"?>
<!-- Generator: Adobe Illustrator 19.0.0, SVG Export Plug-In . SVG Version: 6.00 Build 0)  -->
<svg version="1.1" id="Capa_1" xmlns="http://www.w3.org/2000/svg" xmlns:xlink="http://www.w3.org/1999/xlink" x="0px" y="0px"
	 viewBox="0 0 512 512" style="enable-background:new 0 0 512 512;" xml:space="preserve">
<g>
	<g>
		<g>
			<path d="M102.4,136.533H85.333c-9.421,0.012-17.054,7.646-17.067,17.067v17.067c0.012,9.421,7.646,17.054,17.067,17.067H102.4
				c9.421-0.012,17.054-7.646,17.067-17.067V153.6C119.454,144.179,111.821,136.546,102.4,136.533z M85.333,170.667V153.6H102.4
				l0.017,17.067H85.333z"/>
			<path d="M102.4,68.267H85.333c-9.421,0.012-17.054,7.646-17.067,17.067V102.4c0.012,9.421,7.646,17.054,17.067,17.067H102.4
				c9.421-0.012,17.054-7.646,17.067-17.067V85.333C119.454,75.913,111.821,68.279,102.4,68.267z M85.333,102.4V85.333H102.4
				l0.017,17.067H85.333z"/>
			<path d="M153.6,119.467h17.067c9.421-0.012,17.054-7.646,17.067-17.067V85.333c-0.012-9.421-7.646-17.054-17.067-17.067H153.6
				c-9.421,0.012-17.054,7.646-17.067,17.067V102.4C136.546,111.821,144.179,119.454,153.6,119.467z M153.6,85.333h17.067
				l0.017,17.067H153.6V85.333z"/>
			<path d="M221.867,119.467h51.2c9.421-0.012,17.054-7.646,17.067-17.067V85.333c-0.012-9.421-7.646-17.054-17.067-17.067h-51.2
				c-9.421,0.012-17.054,7.646-17.067,17.067V102.4C204.812,111.821,212.446,119.454,221.867,119.467z M221.867,85.333h51.2
				l0.017,17.067h-51.217V85.333z"/>
			<path d="M290.133,170.667V153.6c-0.012-9.421-7.646-17.054-17.067-17.067H153.6c-9.421,0.012-17.054,7.646-17.067,17.067v17.067
				c0.012,9.421,7.646,17.054,17.067,17.067h119.467C282.487,187.721,290.121,180.087,290.133,170.667z M153.6,170.667V153.6
				h119.467l0.017,17.067H153.6z"/>
			<path d="M498.758,153.6H392.533c-1.852-0.002-3.655,0.601-5.133,1.717l-11.933,8.993v-44.843h17.067
				c-0.001,2.264,0.897,4.435,2.498,6.035s3.772,2.499,6.035,2.498h68.267C492.897,128,512,108.897,512,85.333
				s-19.102-42.667-42.667-42.667h-68.267c-2.264-0.001-4.435,0.897-6.035,2.498s-2.499,3.772-2.498,6.035h-17.067V8.533
				c0.001-2.264-0.897-4.435-2.498-6.035S369.197-0.001,366.933,0H8.533C6.27-0.001,4.099,0.897,2.498,2.498S-0.001,6.27,0,8.533
				v494.933c-0.001,2.264,0.897,4.435,2.498,6.035c1.601,1.601,3.772,2.499,6.035,2.498h315.733
				c28.264-0.031,51.169-22.936,51.2-51.2V281.6h25.6c2.264,0.001,4.435-0.897,6.035-2.498c1.601-1.601,2.499-3.772,2.498-6.035
				v-8.533h25.6v6.125c-0.009,6.024,4.86,10.918,10.883,10.942h52.675c7.342-0.041,13.265-6.017,13.242-13.358V166.958
				C512.023,159.617,506.1,153.641,498.758,153.6z M409.6,59.733h59.733c14.138,0,25.6,11.461,25.6,25.6s-11.461,25.6-25.6,25.6
				H409.6V59.733z M375.467,68.267h17.067V102.4h-17.067V68.267z M256,17.067h17.075l0.009,17.067H256V17.067z M187.733,17.067
				h17.075l0.009,17.067h-17.084V17.067z M119.467,17.067h17.075l0.009,17.067h-17.084V17.067z M51.2,17.067h17.075l0.009,17.067
				H51.2V17.067z M17.067,85.333h17.067L34.15,102.4H17.067V85.333z M17.067,153.6h17.067l0.017,17.067H17.067V153.6z
				 M17.067,187.733h17.067c9.421-0.012,17.054-7.646,17.067-17.067V153.6c-0.012-9.421-7.646-17.054-17.067-17.067H17.067v-17.067
				h17.067c9.421-0.012,17.054-7.646,17.067-17.067V85.333c-0.012-9.421-7.646-17.054-17.067-17.067H17.067v-51.2h17.067v17.067
				C34.146,43.554,41.779,51.188,51.2,51.2h17.067c9.421-0.012,17.054-7.646,17.067-17.067V17.067H102.4v17.067
				c0.012,9.421,7.646,17.054,17.067,17.067h17.067c9.421-0.012,17.054-7.646,17.067-17.067V17.067h17.067v17.067
				c0.012,9.421,7.646,17.054,17.067,17.067H204.8c9.421-0.012,17.054-7.646,17.067-17.067V17.067h17.067v17.067
				c0.012,9.421,7.646,17.054,17.067,17.067h17.067c9.421-0.012,17.054-7.646,17.067-17.067V17.067H307.2V179.2
				c-0.015,14.132-11.468,25.585-25.6,25.6H17.067V187.733z M17.067,256h42.667c4.712,0.003,8.53,3.822,8.533,8.533v187.733
				c-0.003,4.712-3.822,8.53-8.533,8.533H17.067V256z M358.4,460.8c-0.019,18.844-15.29,34.115-34.133,34.133h-307.2v-17.067h42.667
				c14.132-0.015,25.585-11.468,25.6-25.6V264.533c-0.015-14.132-11.468-25.585-25.6-25.6H17.067v-17.067H281.6
				c23.553-0.028,42.639-19.114,42.667-42.667V17.067H358.4V460.8z M494.933,264.533h-42.667v-6.125
				c0.009-6.024-4.859-10.918-10.883-10.942h-37.967c-6.024,0.023-10.892,4.918-10.883,10.942v6.125h-17.067v-78.85l19.925-15.017
				h99.541V264.533z"/>
		</g>
	</g>
</g>
<g>
</g>
<g>
</g>
<g>
</g>
<g>
</g>
<g>
</g>
<g>
</g>
<g>
</g>
<g>
</g>
<g>
</g>
<g>
</g>
<g>
</g>
<g>
</g>
<g>
</g>
<g>
</g>
<g>
</g>
</svg>
