<?xml version="1.0" encoding="iso-8859-1"?>
<!-- Generator: Adobe Illustrator 19.0.0, SVG Export Plug-In . SVG Version: 6.00 Build 0)  -->
<svg version="1.1" id="Capa_1" xmlns="http://www.w3.org/2000/svg" xmlns:xlink="http://www.w3.org/1999/xlink" x="0px" y="0px"
	 viewBox="0 0 511.973 511.973" style="enable-background:new 0 0 511.973 511.973;" xml:space="preserve">
<g>
	<g>
		<g>
			<path d="M199.442,279.792h-0.05c-8.664-0.026-16.978,3.416-23.087,9.558c-12.744,12.797-12.723,33.495,0.047,46.266
				s33.468,12.794,46.266,0.051c6.131-6.14,9.571-14.465,9.563-23.143c-0.009-8.677-3.465-16.996-9.608-23.124
				C216.452,283.24,208.125,279.78,199.442,279.792z M210.55,323.6L210.55,323.6c-6.126,6.125-16.057,6.124-22.181-0.002
				c-6.125-6.126-6.124-16.057,0.002-22.181c2.917-2.931,6.886-4.572,11.021-4.558c4.193-0.128,8.24,1.55,11.113,4.608
				c2.942,2.929,4.6,6.906,4.608,11.057S213.48,320.66,210.55,323.6z"/>
			<path d="M506.979,61.418L450.554,4.993c-6.67-6.65-17.463-6.65-24.133,0l-73.329,73.329l-2.529-2.529
				c-8.06-8.038-21.102-8.045-29.171-0.017L141.989,255.179l-0.043,0.039L12.475,384.684c-16.633,16.675-16.633,43.667,0,60.342
				l54.467,54.467c16.675,16.633,43.667,16.633,60.342,0l129.471-129.467l0.078-0.086l179.363-179.363
				c8.033-8.066,8.025-21.111-0.017-29.167l-2.529-2.529l73.33-73.329C513.638,78.884,513.638,68.084,506.979,61.418z
				 M244.766,357.873l-8.511,8.511l-0.016,0.024L115.217,487.426c-10.005,9.983-26.203,9.983-36.208,0l-54.467-54.467
				c-9.979-10.007-9.979-26.202,0-36.208L145.57,275.727l0.013-0.009l8.472-8.472c25.041-24.96,65.562-24.936,90.574,0.053
				C269.641,292.288,269.702,332.809,244.766,357.873z M424.129,178.509L279.757,322.881c3.237-24.9-5.27-49.891-23.026-67.645
				c-17.756-17.754-42.748-26.258-67.648-23.018L333.459,87.842c0.67-0.666,1.577-1.038,2.522-1.035
				c0.945,0.003,1.85,0.382,2.515,1.052l8.542,8.542l0.017,0.025l68.492,68.492l0.025,0.017l8.533,8.533
				C425.503,174.854,425.514,177.11,424.129,178.509z M472.821,95.576l-11.092-11.092c-3.332-3.332-8.734-3.332-12.067,0
				s-3.332,8.734,0,12.067l11.092,11.092l-39.171,39.171l-56.425-56.425l39.171-39.171l11.092,11.092
				c3.332,3.332,8.734,3.332,12.067,0c3.332-3.332,3.332-8.735,0-12.067l-11.092-11.092l22.092-22.092l56.425,56.425L472.821,95.576
				z"/>
		</g>
	</g>
</g>
<g>
</g>
<g>
</g>
<g>
</g>
<g>
</g>
<g>
</g>
<g>
</g>
<g>
</g>
<g>
</g>
<g>
</g>
<g>
</g>
<g>
</g>
<g>
</g>
<g>
</g>
<g>
</g>
<g>
</g>
</svg>
