<?xml version="1.0" encoding="iso-8859-1"?>
<!-- Generator: Adobe Illustrator 19.0.0, SVG Export Plug-In . SVG Version: 6.00 Build 0)  -->
<svg version="1.1" id="Capa_1" xmlns="http://www.w3.org/2000/svg" xmlns:xlink="http://www.w3.org/1999/xlink" x="0px" y="0px"
	 viewBox="0 0 512 512" style="enable-background:new 0 0 512 512;" xml:space="preserve">
<g>
	<g>
		<g>
			<path d="M443.733,187.733c9.421-0.011,17.056-7.645,17.067-17.067V76.8c0-2.263-0.899-4.433-2.5-6.033L390.033,2.5
				c-1.6-1.6-3.77-2.5-6.033-2.5H76.8C62.668,0.015,51.215,11.468,51.2,25.6v119.467c0.011,9.421,7.645,17.056,17.067,17.067h17.067
				v51.2H68.267c-9.421,0.011-17.056,7.645-17.067,17.067v256c0.015,14.132,11.468,25.585,25.6,25.6h358.4
				c14.132-0.015,25.585-11.468,25.6-25.6v-256c-0.011-9.421-7.645-17.056-17.067-17.067H435.2v-25.6H443.733z M68.267,145.067
				v-51.2h17.067v51.2H68.267z M435.2,230.4h8.533v256c-0.005,4.711-3.822,8.529-8.533,8.533H76.8
				c-4.711-0.005-8.529-3.822-8.533-8.533v-256h17.067c9.421-0.011,17.056-7.646,17.067-17.067V93.867
				c-0.011-9.421-7.645-17.056-17.067-17.067H68.267V25.6c0.005-4.711,3.822-8.529,8.533-8.533h303.667l63.267,63.267v90.333H435.2
				c-9.421,0.011-17.056,7.645-17.067,17.067v25.6C418.144,222.755,425.779,230.389,435.2,230.4z"/>
			<path d="M358.4,42.667H153.6c-18.843,0.02-34.113,15.29-34.133,34.133v332.8c0.02,18.843,15.29,34.113,34.133,34.133h204.8
				c18.843-0.02,34.113-15.29,34.133-34.133V76.8C392.513,57.957,377.243,42.687,358.4,42.667z M375.467,409.6
				c-0.011,9.421-7.646,17.056-17.067,17.067H153.6c-9.421-0.011-17.056-7.645-17.067-17.067V128h238.933V409.6z M375.467,110.933
				H136.533V76.8c0.011-9.421,7.645-17.056,17.067-17.067h204.8c9.421,0.011,17.056,7.645,17.067,17.067V110.933z"/>
			<path d="M179.2,409.6h153.6c14.132-0.015,25.585-11.468,25.6-25.6v-25.6c-0.015-14.132-11.468-25.585-25.6-25.6H179.2
				c-14.132,0.015-25.585,11.468-25.6,25.6V384C153.615,398.132,165.068,409.585,179.2,409.6z M170.667,358.4
				c0.005-4.711,3.823-8.529,8.533-8.533h153.6c4.711,0.005,8.529,3.822,8.533,8.533V384c-0.005,4.711-3.822,8.529-8.533,8.533
				H179.2c-4.711-0.005-8.529-3.822-8.533-8.533V358.4z"/>
			<path d="M349.867,460.8H162.133c-4.713,0-8.533,3.82-8.533,8.533s3.82,8.533,8.533,8.533h187.733c4.713,0,8.533-3.82,8.533-8.533
				S354.579,460.8,349.867,460.8z"/>
			<path d="M247.467,76.8h-85.333c-4.713,0-8.533,3.82-8.533,8.533s3.82,8.533,8.533,8.533h85.333c4.713,0,8.533-3.821,8.533-8.533
				S252.18,76.8,247.467,76.8z"/>
			<path d="M307.2,76.8h-25.6c-4.713,0-8.533,3.82-8.533,8.533s3.82,8.533,8.533,8.533h25.6c4.713,0,8.533-3.821,8.533-8.533
				S311.913,76.8,307.2,76.8z"/>
			<path d="M349.867,76.8h-8.533c-4.713,0-8.533,3.82-8.533,8.533s3.82,8.533,8.533,8.533h8.533c4.713,0,8.533-3.821,8.533-8.533
				S354.579,76.8,349.867,76.8z"/>
			<path d="M170.667,230.4h51.2c2.263,0.001,4.434-0.898,6.035-2.499c1.6-1.6,2.499-3.771,2.499-6.035v-34.133
				c0.001-2.263-0.898-4.434-2.499-6.035c-1.6-1.6-3.771-2.499-6.035-2.499v-8.533c0-14.138-11.461-25.6-25.6-25.6
				s-25.6,11.462-25.6,25.6v8.533c-2.263-0.001-4.434,0.898-6.035,2.499c-1.6,1.6-2.499,3.771-2.499,6.035v34.133
				c-0.001,2.263,0.898,4.434,2.499,6.035C166.232,229.502,168.403,230.401,170.667,230.4z M187.733,170.667
				c0-4.713,3.82-8.533,8.533-8.533s8.533,3.82,8.533,8.533v8.533h-17.067V170.667z M179.2,196.267h34.133v17.067H179.2V196.267z"/>
		</g>
	</g>
</g>
<g>
</g>
<g>
</g>
<g>
</g>
<g>
</g>
<g>
</g>
<g>
</g>
<g>
</g>
<g>
</g>
<g>
</g>
<g>
</g>
<g>
</g>
<g>
</g>
<g>
</g>
<g>
</g>
<g>
</g>
</svg>
