<?xml version="1.0" encoding="iso-8859-1"?>
<!-- Generator: Adobe Illustrator 19.0.0, SVG Export Plug-In . SVG Version: 6.00 Build 0)  -->
<svg version="1.1" id="Capa_1" xmlns="http://www.w3.org/2000/svg" xmlns:xlink="http://www.w3.org/1999/xlink" x="0px" y="0px"
	 viewBox="0 0 512 512" style="enable-background:new 0 0 512 512;" xml:space="preserve">
<g>
	<g>
		<g>
			<path d="M494.933,153.6H486.4v-128C486.385,11.468,474.932,0.015,460.8,0H324.267c-14.132,0.015-25.585,11.468-25.6,25.6v128
				h-8.533c-9.421,0.011-17.056,7.645-17.067,17.067V409.6c0.011,9.421,7.645,17.056,17.067,17.067h51.2V460.8
				c0.011,9.421,7.645,17.056,17.067,17.067h8.533v17.067c0.011,9.421,7.646,17.056,17.067,17.067h17.067
				c9.421-0.011,17.056-7.645,17.067-17.067v-17.067h8.533c9.421-0.011,17.056-7.646,17.067-17.067v-34.133h51.2
				c9.421-0.011,17.056-7.645,17.067-17.067V170.667C511.989,161.245,504.355,153.611,494.933,153.6z M315.733,25.6
				c0.005-4.711,3.822-8.529,8.533-8.533H460.8c4.711,0.005,8.529,3.822,8.533,8.533v128h-153.6V25.6z M384,494.933v-17.067h17.071
				l0.008,17.067H384z M358.4,460.8v-34.133h68.271l0.008,34.133H358.4z M435.2,409.6H290.133V170.667h204.8l0.012,238.933H435.2z"
				/>
			<path d="M417.846,194.067c-1.065-3.861-4.648-6.481-8.65-6.325c-4.013,0.191-7.349,3.154-8.013,7.117l-13.058,78.208h-22.496
				c-8.354-0.025-15.488,6.022-16.833,14.267l-14.225,85.333c-0.824,4.948,0.571,10.009,3.814,13.836
				c3.243,3.827,8.007,6.033,13.023,6.031h25.488c8.231,0.002,15.29-5.873,16.783-13.967l8.433-45.767h30.512
				c5.303-0.001,10.304-2.466,13.534-6.671c3.23-4.205,4.323-9.672,2.958-14.796L417.846,194.067z M402.113,315.733
				c-8.231-0.002-15.29,5.873-16.783,13.967l-8.433,45.767h-25.492l14.225-85.333h22.496c8.347,0.021,15.476-6.015,16.833-14.25
				l6.563-39.317l21.129,79.167H402.113z"/>
			<path d="M221.867,153.6h-8.533v-128c-0.015-14.132-11.468-25.585-25.6-25.6H51.2C37.068,0.015,25.615,11.468,25.6,25.6v128
				h-8.533C7.645,153.611,0.011,161.245,0,170.667V409.6c0.011,9.421,7.645,17.056,17.067,17.067h51.2V460.8
				c0.011,9.421,7.645,17.056,17.067,17.067h8.533v17.067c0.011,9.421,7.645,17.056,17.067,17.067H128
				c9.421-0.011,17.056-7.645,17.067-17.067v-17.067h8.533c9.421-0.011,17.056-7.646,17.067-17.067v-34.133h51.2
				c9.421-0.011,17.056-7.645,17.067-17.067V170.667C238.923,161.245,231.288,153.611,221.867,153.6z M42.667,25.6
				c0.005-4.711,3.822-8.529,8.533-8.533h136.533c4.711,0.005,8.529,3.822,8.533,8.533v128h-153.6V25.6z M110.933,494.933v-17.067
				h17.071l0.008,17.067H110.933z M85.333,460.8v-34.133h68.271l0.008,34.133H85.333z M17.067,409.6V170.667h204.8l0.012,238.933
				H17.067z"/>
			<path d="M144.779,194.067c-1.035-3.882-4.638-6.516-8.651-6.325s-7.349,3.154-8.012,7.117l-13.058,78.208H92.563
				c-8.354-0.025-15.488,6.022-16.833,14.267l-14.225,85.333c-0.824,4.948,0.571,10.009,3.814,13.836
				c3.243,3.827,8.007,6.033,13.023,6.031h25.488c8.231,0.002,15.29-5.873,16.783-13.967l8.433-45.767h30.513
				c5.303-0.001,10.304-2.466,13.534-6.671c3.23-4.205,4.323-9.672,2.958-14.796L144.779,194.067z M129.046,315.733
				c-8.231-0.002-15.29,5.873-16.783,13.967l-8.433,45.767H78.338l14.225-85.333h22.496c8.346,0.021,15.476-6.015,16.833-14.25
				l6.563-39.317l21.129,79.167H129.046z"/>
		</g>
	</g>
</g>
<g>
</g>
<g>
</g>
<g>
</g>
<g>
</g>
<g>
</g>
<g>
</g>
<g>
</g>
<g>
</g>
<g>
</g>
<g>
</g>
<g>
</g>
<g>
</g>
<g>
</g>
<g>
</g>
<g>
</g>
</svg>
