<?xml version="1.0" encoding="iso-8859-1"?>
<!-- Generator: Adobe Illustrator 19.0.0, SVG Export Plug-In . SVG Version: 6.00 Build 0)  -->
<svg version="1.1" id="Capa_1" xmlns="http://www.w3.org/2000/svg" xmlns:xlink="http://www.w3.org/1999/xlink" x="0px" y="0px"
	 viewBox="0 0 512 512" style="enable-background:new 0 0 512 512;" xml:space="preserve">
<g>
	<g>
		<g>
			<path d="M494.933,179.2V17.067C494.923,7.645,487.288,0.011,477.867,0H307.2c-9.421,0.011-17.056,7.645-17.067,17.067V179.2
				c-9.421,0.011-17.056,7.645-17.067,17.067v204.8c0.011,9.421,7.645,17.056,17.067,17.067h51.2V460.8
				c0.011,9.421,7.645,17.056,17.067,17.067h8.533v17.067c0.011,9.421,7.646,17.056,17.067,17.067h17.067
				c9.421-0.011,17.056-7.645,17.067-17.067v-17.067h8.533c9.421-0.011,17.056-7.646,17.067-17.067v-42.667h51.2
				c9.421-0.011,17.056-7.646,17.067-17.067v-204.8C511.989,186.845,504.355,179.211,494.933,179.2z M307.2,17.067h170.667
				l0.012,162.133H307.2V17.067z M384,494.933v-17.067h17.071l0.008,17.067H384z M358.4,460.8v-42.667h68.267l0.012,42.667H358.4z
				 M290.133,401.067v-204.8h204.8l0.012,204.8H290.133z"/>
			<path d="M196.267,164.507V42.667C196.239,19.114,177.153,0.028,153.6,0H51.2C27.647,0.028,8.561,19.114,8.533,42.667v121.841
				C3.272,167.532,0.02,173.131,0,179.2v221.867c0.011,9.421,7.645,17.056,17.067,17.067H51.2V460.8
				c0.011,9.421,7.645,17.056,17.067,17.067H76.8v17.067c0.011,9.421,7.646,17.056,17.067,17.067h17.067
				c9.421-0.011,17.056-7.645,17.067-17.067v-17.067h8.533c9.421-0.011,17.056-7.646,17.067-17.067v-42.667h34.133
				c9.421-0.011,17.056-7.646,17.067-17.067V179.2C204.78,173.131,201.528,167.532,196.267,164.507z M25.6,42.667
				c0.015-14.132,11.468-25.585,25.6-25.6h102.4c14.132,0.015,25.585,11.468,25.6,25.6v119.467H25.6V42.667z M93.867,494.933
				v-17.067h17.071l0.008,17.067H93.867z M68.267,460.8v-42.667h68.267l0.012,42.667H68.267z M145.067,401.067h-128V179.2h170.667
				l0.012,221.867H145.067z"/>
			<path d="M366.933,51.2h-25.6c-9.421,0.011-17.056,7.645-17.067,17.067v17.067c0.011,9.421,7.646,17.056,17.067,17.067h25.6
				c9.421-0.011,17.056-7.646,17.067-17.067V68.267C383.989,58.845,376.355,51.211,366.933,51.2z M341.333,85.333V68.267h25.6
				l0.012,17.067H341.333z"/>
			<path d="M443.733,51.2h-25.6c-9.421,0.011-17.056,7.645-17.067,17.067v17.067c0.011,9.421,7.645,17.056,17.067,17.067h25.6
				c9.421-0.011,17.056-7.646,17.067-17.067V68.267C460.789,58.845,453.155,51.211,443.733,51.2z M418.133,85.333V68.267h25.6
				l0.013,17.067H418.133z"/>
			<path d="M452.267,238.933H435.2c-4.578-0.03-8.353,3.578-8.528,8.153c-0.176,4.574,3.312,8.462,7.878,8.783
				c-2.28,17.439-16.036,31.146-33.483,33.363v-46.765l2.5,2.5c2.151,2.178,5.304,3.037,8.262,2.251
				c2.958-0.786,5.269-3.097,6.055-6.055c0.786-2.958-0.073-6.111-2.251-8.262l-17.067-17.067c-0.077-0.077-0.181-0.099-0.26-0.173
				c-0.727-0.706-1.576-1.274-2.506-1.677l-0.03-0.008c-0.069-0.028-0.143-0.028-0.212-0.054c-0.877-0.33-1.804-0.51-2.741-0.533
				c-0.259-0.008-0.503,0.023-0.762,0.038c-0.762,0.042-1.515,0.188-2.237,0.435c-0.258,0.087-0.506,0.159-0.757,0.271
				c-0.95,0.405-1.817,0.982-2.559,1.7L369.433,232.9c-3.303,3.337-3.29,8.716,0.031,12.036c3.32,3.32,8.699,3.334,12.036,0.03
				l2.5-2.5v63.769c-20.622-2.676-35.586-20.958-34.133-41.702c0-4.713-3.82-8.533-8.533-8.533s-8.533,3.82-8.533,8.533
				c-1.535,30.239,21.051,56.309,51.2,59.098v10.741c-11.755,4.156-18.806,16.176-16.698,28.465
				c2.108,12.289,12.763,21.271,25.231,21.271c12.468,0,23.123-8.982,25.231-21.271c2.108-12.289-4.943-24.309-16.698-28.465
				v-27.807c26.857-2.495,48.154-23.717,50.744-50.565h0.456c4.713,0,8.533-3.82,8.533-8.533S456.979,238.933,452.267,238.933z
				 M392.533,366.933c-4.713,0-8.533-3.82-8.533-8.533s3.821-8.533,8.533-8.533c4.713,0,8.533,3.82,8.533,8.533
				C401.062,363.111,397.244,366.929,392.533,366.933z"/>
			<path d="M136.533,34.133H68.267c-14.132,0.015-25.585,11.468-25.6,25.6V76.8c0.015,14.132,11.468,25.585,25.6,25.6h68.267
				c14.132-0.015,25.585-11.468,25.6-25.6V59.733C162.118,45.601,150.665,34.149,136.533,34.133z M76.8,85.333h-8.533
				c-4.711-0.005-8.529-3.822-8.533-8.533V59.733c0.005-4.711,3.822-8.529,8.533-8.533H76.8V85.333z M110.933,85.333H93.867V51.2
				h17.067V85.333z M145.067,76.8c-0.005,4.711-3.822,8.529-8.533,8.533H128V51.2h8.533c4.711,0.005,8.529,3.822,8.533,8.533V76.8z"
				/>
		</g>
	</g>
</g>
<g>
</g>
<g>
</g>
<g>
</g>
<g>
</g>
<g>
</g>
<g>
</g>
<g>
</g>
<g>
</g>
<g>
</g>
<g>
</g>
<g>
</g>
<g>
</g>
<g>
</g>
<g>
</g>
<g>
</g>
</svg>
