<?xml version="1.0" encoding="iso-8859-1"?>
<!-- Generator: Adobe Illustrator 19.0.0, SVG Export Plug-In . SVG Version: 6.00 Build 0)  -->
<svg version="1.1" id="Capa_1" xmlns="http://www.w3.org/2000/svg" xmlns:xlink="http://www.w3.org/1999/xlink" x="0px" y="0px"
	 viewBox="0 0 512 512" style="enable-background:new 0 0 512 512;" xml:space="preserve">
<g>
	<g>
		<g>
			<path d="M451.908,0H60.092C27.118,0.038,0.397,26.759,0.358,59.733v392.533C0.397,485.241,27.118,511.962,60.092,512h391.817
				c32.974-0.038,59.695-26.759,59.733-59.733V59.733C511.603,26.759,484.882,0.038,451.908,0z M494.575,452.267
				c-0.028,23.553-19.114,42.639-42.667,42.667H60.092c-23.553-0.028-42.639-19.114-42.667-42.667V59.733
				c0.028-23.553,19.114-42.639,42.667-42.667h391.817c23.553,0.028,42.639,19.114,42.667,42.667V452.267z"/>
			<path d="M409.6,93.867H102.4c-23.553,0.028-42.639,19.114-42.667,42.667v199.279c-0.011,5.386,1.687,10.636,4.85,14.996
				l41.008,56.725c4.823,6.649,12.536,10.589,20.75,10.6h259.317c8.214-0.011,15.927-3.951,20.75-10.6l41.008-56.73
				c3.163-4.358,4.861-9.607,4.85-14.991V136.533C452.239,112.981,433.153,93.894,409.6,93.867z M435.2,335.812
				c0.004,1.794-0.562,3.544-1.617,4.996l-41.008,56.725c-1.607,2.217-4.178,3.53-6.917,3.534H126.342
				c-2.738-0.003-5.309-1.317-6.917-3.533l-41.008-56.721c-1.054-1.454-1.62-3.205-1.617-5V136.533
				c0.015-14.132,11.468-25.585,25.6-25.6h307.2c14.132,0.015,25.585,11.468,25.6,25.6V335.812z"/>
			<path d="M392.533,128H119.467c-14.132,0.015-25.585,11.468-25.6,25.6v172.096c0.01,5.687,1.903,11.211,5.383,15.708l25.417,32.7
				c4.834,6.263,12.306,9.92,20.217,9.896h222.234c7.91,0.024,15.381-3.632,20.217-9.892L412.75,341.4
				c3.481-4.496,5.374-10.018,5.383-15.704V153.6C418.118,139.468,406.665,128.015,392.533,128z M298.667,366.933h-85.333v-17.067
				h85.333V366.933z M401.067,325.696c-0.005,1.895-0.638,3.736-1.8,5.233l-25.417,32.708c-1.62,2.073-4.102,3.288-6.733,3.296
				h-51.383v-25.6c0.001-2.263-0.898-4.434-2.499-6.035c-1.6-1.6-3.771-2.499-6.035-2.499H204.8
				c-2.263-0.001-4.434,0.898-6.035,2.499c-1.6,1.6-2.499,3.771-2.499,6.035v25.6h-51.383c-2.631-0.008-5.113-1.223-6.733-3.296
				v-0.004l-25.417-32.7c-1.161-1.5-1.794-3.341-1.8-5.238V153.6c0.005-4.711,3.822-8.529,8.533-8.533h273.067
				c4.711,0.005,8.529,3.823,8.533,8.533V325.696z"/>
			<path d="M366.933,187.733H145.067c-9.421,0.011-17.056,7.646-17.067,17.067v42.667c0.011,9.421,7.645,17.056,17.067,17.067
				h221.867c9.421-0.011,17.056-7.645,17.067-17.067V204.8C383.989,195.379,376.355,187.744,366.933,187.733z M145.067,247.467
				V204.8h221.867l0.009,42.667H145.067z"/>
		</g>
	</g>
</g>
<g>
</g>
<g>
</g>
<g>
</g>
<g>
</g>
<g>
</g>
<g>
</g>
<g>
</g>
<g>
</g>
<g>
</g>
<g>
</g>
<g>
</g>
<g>
</g>
<g>
</g>
<g>
</g>
<g>
</g>
</svg>
