<?xml version="1.0" encoding="iso-8859-1"?>
<!-- Generator: Adobe Illustrator 19.0.0, SVG Export Plug-In . SVG Version: 6.00 Build 0)  -->
<svg version="1.1" id="Capa_1" xmlns="http://www.w3.org/2000/svg" xmlns:xlink="http://www.w3.org/1999/xlink" x="0px" y="0px"
	 viewBox="0 0 512 512" style="enable-background:new 0 0 512 512;" xml:space="preserve">
<g>
	<g>
		<g>
			<path d="M451.908,0H60.092C27.118,0.038,0.397,26.759,0.358,59.733v392.533C0.397,485.241,27.118,511.962,60.092,512h391.817
				c32.974-0.038,59.695-26.759,59.733-59.733V59.733C511.603,26.759,484.882,0.038,451.908,0z M494.575,452.267
				c-0.028,23.553-19.114,42.639-42.667,42.667H60.092c-23.553-0.028-42.639-19.114-42.667-42.667V59.733
				c0.028-23.553,19.114-42.639,42.667-42.667h391.817c23.553,0.028,42.639,19.114,42.667,42.667V452.267z"/>
			<path d="M256,170.667c-84.831,0-153.6,68.769-153.6,153.6c0.097,84.791,68.809,153.503,153.6,153.6
				c84.831,0,153.6-68.769,153.6-153.6S340.831,170.667,256,170.667z M256,460.8c-75.405,0-136.533-61.128-136.533-136.533
				C119.553,248.897,180.63,187.82,256,187.733c75.405,0,136.533,61.128,136.533,136.533S331.405,460.8,256,460.8z"/>
			<path d="M256,204.8c-65.98,0-119.467,53.487-119.467,119.467c0,3.02,0.231,5.982,0.453,8.946l-0.028,0.183v0.088
				c0,0.102,0.052,0.187,0.056,0.288c4.901,62.084,56.713,109.965,118.991,109.962s114.085-47.889,118.98-109.973
				c0.004-0.097,0.056-0.179,0.056-0.277c0-0.133-0.013-0.285-0.02-0.438c0.214-2.91,0.445-5.816,0.445-8.779
				C375.467,258.287,321.98,204.8,256,204.8z M256,221.867c35.833,0.045,69.032,18.829,87.524,49.521
				c-24.096-21.372-55.319-32.95-87.524-32.455c-32.315-0.518-63.635,11.176-87.702,32.746
				C186.752,240.822,220.045,221.912,256,221.867z M256,426.667c-52.879-0.073-97.025-40.358-101.924-93.009
				C158.777,290.066,203.396,256,256,256c52.759,0,97.507,34.262,101.944,77.284C353.23,386.094,309.019,426.591,256,426.667z"/>
			<path d="M204.8,153.6h17.067c9.421-0.011,17.056-7.646,17.067-17.067v-25.6c-0.011-9.421-7.646-17.056-17.067-17.067h-8.533
				v-8.533c0.02-18.843,15.29-34.113,34.133-34.133h17.067c18.843,0.02,34.113,15.29,34.133,34.133v8.533h-8.533
				c-9.421,0.011-17.056,7.645-17.067,17.067v25.6c0.011,9.421,7.645,17.056,17.067,17.067H307.2
				c9.421-0.011,17.056-7.646,17.067-17.067v-25.6c-0.02-6.069-3.272-11.668-8.533-14.692V85.333
				c-0.031-28.264-22.936-51.169-51.2-51.2h-17.067c-28.264,0.031-51.169,22.936-51.2,51.2v10.908
				c-5.262,3.025-8.513,8.623-8.533,14.692v25.6C187.744,145.955,195.379,153.589,204.8,153.6z M307.2,110.933l0.009,25.6h-17.075
				v-25.6H307.2z M204.8,110.933h17.067l0.008,25.6H204.8V110.933z"/>
		</g>
	</g>
</g>
<g>
</g>
<g>
</g>
<g>
</g>
<g>
</g>
<g>
</g>
<g>
</g>
<g>
</g>
<g>
</g>
<g>
</g>
<g>
</g>
<g>
</g>
<g>
</g>
<g>
</g>
<g>
</g>
<g>
</g>
</svg>
