<?xml version="1.0" encoding="iso-8859-1"?>
<!-- Generator: Adobe Illustrator 19.0.0, SVG Export Plug-In . SVG Version: 6.00 Build 0)  -->
<svg version="1.1" id="Capa_1" xmlns="http://www.w3.org/2000/svg" xmlns:xlink="http://www.w3.org/1999/xlink" x="0px" y="0px"
	 viewBox="0 0 512 512" style="enable-background:new 0 0 512 512;" xml:space="preserve">
<g>
	<g>
		<g>
			<path d="M451.908,0H60.092C27.118,0.038,0.397,26.759,0.358,59.733v392.533C0.397,485.241,27.118,511.962,60.092,512h391.817
				c32.974-0.038,59.695-26.759,59.733-59.733V59.733C511.603,26.759,484.882,0.038,451.908,0z M494.575,452.267
				c-0.028,23.553-19.114,42.639-42.667,42.667H60.092c-23.553-0.028-42.639-19.114-42.667-42.667V59.733
				c0.028-23.553,19.114-42.639,42.667-42.667h391.817c23.553,0.028,42.639,19.114,42.667,42.667V452.267z"/>
			<path d="M401.067,341.333V307.2H435.2c9.421-0.011,17.056-7.645,17.067-17.067v-204.8c-0.011-9.421-7.645-17.056-17.067-17.067
				H76.8c-9.421,0.011-17.056,7.645-17.067,17.067v204.8c0.011,9.421,7.645,17.056,17.067,17.067h34.133v34.133
				c0.011,9.421,7.645,17.056,17.067,17.067h25.6v42.667c0.011,9.421,7.645,17.056,17.067,17.067h170.667
				c9.421-0.011,17.056-7.646,17.067-17.067V358.4H384C393.421,358.389,401.056,350.755,401.067,341.333z M341.333,358.4v42.667
				H170.667V358.4c-0.011-9.421-7.646-17.056-17.067-17.067H128V307.2c-0.011-9.421-7.645-17.056-17.067-17.067H76.8v-204.8
				l358.4-0.012v204.813h-34.133c-9.421,0.011-17.056,7.645-17.067,17.067v34.133h-25.6
				C348.979,341.344,341.344,348.979,341.333,358.4z"/>
			<path d="M136.533,102.4H102.4c-2.263-0.001-4.434,0.898-6.035,2.499c-1.6,1.6-2.499,3.771-2.499,6.035V179.2
				c-0.001,2.263,0.898,4.434,2.499,6.035c1.6,1.6,3.771,2.499,6.035,2.499h34.133c2.263,0.001,4.434-0.898,6.035-2.499
				c1.6-1.6,2.499-3.771,2.499-6.035v-68.267c0.001-2.263-0.898-4.434-2.499-6.035C140.968,103.298,138.797,102.399,136.533,102.4z
				 M128,170.667h-17.067v-51.2H128V170.667z"/>
			<path d="M204.8,102.4h-34.133c-2.263-0.001-4.434,0.898-6.035,2.499c-1.6,1.6-2.499,3.771-2.499,6.035V179.2
				c-0.001,2.263,0.898,4.434,2.499,6.035c1.6,1.6,3.771,2.499,6.035,2.499H204.8c2.263,0.001,4.434-0.898,6.035-2.499
				c1.6-1.6,2.499-3.771,2.499-6.035v-68.267c0.001-2.263-0.898-4.434-2.499-6.035C209.234,103.298,207.063,102.399,204.8,102.4z
				 M196.267,170.667H179.2v-51.2h17.067V170.667z"/>
			<path d="M273.067,102.4h-34.133c-2.263-0.001-4.434,0.898-6.035,2.499c-1.6,1.6-2.499,3.771-2.499,6.035V179.2
				c-0.001,2.263,0.898,4.434,2.499,6.035c1.6,1.6,3.771,2.499,6.035,2.499h34.133c2.263,0.001,4.434-0.898,6.035-2.499
				c1.6-1.6,2.499-3.771,2.499-6.035v-68.267c0.001-2.263-0.898-4.434-2.499-6.035C277.501,103.298,275.33,102.399,273.067,102.4z
				 M264.533,170.667h-17.067v-51.2h17.067V170.667z"/>
			<path d="M341.333,102.4H307.2c-2.263-0.001-4.434,0.898-6.035,2.499c-1.6,1.6-2.499,3.771-2.499,6.035V179.2
				c-0.001,2.263,0.898,4.434,2.499,6.035c1.6,1.6,3.771,2.499,6.035,2.499h34.133c2.263,0.001,4.434-0.898,6.035-2.499
				c1.6-1.6,2.499-3.771,2.499-6.035v-68.267c0.001-2.263-0.898-4.434-2.499-6.035C345.768,103.298,343.597,102.399,341.333,102.4z
				 M332.8,170.667h-17.067v-51.2H332.8V170.667z"/>
			<path d="M415.635,185.235c1.6-1.6,2.499-3.771,2.499-6.035v-68.267c0.001-2.263-0.898-4.434-2.499-6.035
				c-1.6-1.6-3.771-2.499-6.035-2.499h-34.133c-2.263-0.001-4.434,0.898-6.035,2.499c-1.6,1.6-2.499,3.771-2.499,6.035V179.2
				c-0.001,2.263,0.898,4.434,2.499,6.035c1.6,1.6,3.771,2.499,6.035,2.499H409.6C411.863,187.734,414.034,186.835,415.635,185.235z
				 M401.067,170.667H384v-51.2h17.067V170.667z"/>
			<path d="M128,401.067H59.733c-2.263-0.001-4.434,0.898-6.035,2.499c-1.6,1.6-2.499,3.771-2.499,6.035v42.667
				c-0.001,2.263,0.898,4.434,2.499,6.035c1.6,1.6,3.771,2.499,6.035,2.499H128c2.263,0.001,4.434-0.898,6.035-2.499
				c1.6-1.6,2.499-3.771,2.499-6.035V409.6c0.001-2.263-0.898-4.434-2.499-6.035C132.434,401.965,130.263,401.066,128,401.067z
				 M119.467,443.733h-51.2v-25.6h51.2V443.733z"/>
			<path d="M452.267,401.067H384c-2.263-0.001-4.434,0.898-6.035,2.499c-1.6,1.6-2.499,3.771-2.499,6.035v42.667
				c-0.001,2.263,0.898,4.434,2.499,6.035c1.6,1.6,3.771,2.499,6.035,2.499h68.267c2.263,0.001,4.434-0.898,6.035-2.499
				c1.6-1.6,2.499-3.771,2.499-6.035V409.6c0.001-2.263-0.898-4.434-2.499-6.035C456.701,401.965,454.53,401.066,452.267,401.067z
				 M443.733,443.733h-51.2v-25.6h51.2V443.733z"/>
		</g>
	</g>
</g>
<g>
</g>
<g>
</g>
<g>
</g>
<g>
</g>
<g>
</g>
<g>
</g>
<g>
</g>
<g>
</g>
<g>
</g>
<g>
</g>
<g>
</g>
<g>
</g>
<g>
</g>
<g>
</g>
<g>
</g>
</svg>
