<?xml version="1.0" encoding="iso-8859-1"?>
<!-- Generator: Adobe Illustrator 19.0.0, SVG Export Plug-In . SVG Version: 6.00 Build 0)  -->
<svg version="1.1" id="Capa_1" xmlns="http://www.w3.org/2000/svg" xmlns:xlink="http://www.w3.org/1999/xlink" x="0px" y="0px"
	 viewBox="0 0 512 512" style="enable-background:new 0 0 512 512;" xml:space="preserve">
<g>
	<g>
		<g>
			<path d="M503.467,110.933c2.263,0.001,4.434-0.898,6.035-2.499c1.6-1.6,2.499-3.771,2.499-6.035V17.067
				C511.989,7.645,504.355,0.011,494.933,0H17.067C7.645,0.009,0.009,7.645,0,17.067V102.4c0,4.713,3.82,8.533,8.533,8.533
				s8.533,3.82,8.533,8.533S13.246,128,8.533,128S0,131.82,0,136.533v358.4c0.009,9.422,7.645,17.057,17.067,17.067h477.867
				c9.421-0.011,17.056-7.645,17.067-17.067v-358.4c0.001-2.263-0.898-4.434-2.499-6.035c-1.6-1.6-3.771-2.499-6.035-2.499
				c-4.713,0-8.533-3.82-8.533-8.533S498.754,110.933,503.467,110.933z M494.933,95.329c-10.228,3.617-17.067,13.288-17.067,24.137
				s6.838,20.52,17.067,24.137v351.329H17.067V143.604c10.229-3.617,17.067-13.288,17.067-24.137s-6.838-20.52-17.067-24.137V17.067
				h477.867V95.329z"/>
			<path d="M42.667,51.2c2.27,0.022,4.453-0.87,6.058-2.475c1.605-1.605,2.497-3.788,2.475-6.058
				c-0.033-2.259-0.917-4.422-2.475-6.059c-2.441-2.461-6.129-3.201-9.331-1.872s-5.281,4.464-5.261,7.931
				c-0.022,2.27,0.87,4.453,2.475,6.058C38.213,50.33,40.397,51.222,42.667,51.2z"/>
			<path d="M45.908,461.479c-2.079-0.85-4.409-0.85-6.487,0c-1.054,0.393-2.013,1.005-2.813,1.796
				c-2.461,2.441-3.201,6.129-1.872,9.331s4.464,5.281,7.931,5.261c2.259-0.034,4.422-0.918,6.059-2.475
				c0.752-0.831,1.358-1.783,1.792-2.817c0.437-1.026,0.669-2.127,0.683-3.242c-0.033-2.259-0.917-4.422-2.475-6.059
				C47.909,462.503,46.953,461.893,45.908,461.479z"/>
			<path d="M461.483,45.908c0.184,0.545,0.442,1.062,0.767,1.538c0.317,0.446,0.659,0.873,1.025,1.279c3.365,3.3,8.752,3.3,12.117,0
				c0.341-0.429,0.683-0.854,1.025-1.279c0.321-0.477,0.579-0.994,0.767-1.538c0.247-0.483,0.419-1.002,0.508-1.537
				c0.104-0.563,0.162-1.133,0.175-1.705c-0.013-0.544-0.071-1.086-0.175-1.621c-0.076-0.567-0.248-1.116-0.508-1.625
				c-0.189-0.542-0.446-1.057-0.767-1.533c-0.341-0.429-0.683-0.854-1.025-1.279c-3.421-3.158-8.695-3.158-12.117,0
				c-0.368,0.405-0.71,0.832-1.025,1.279c-0.324,0.474-0.582,0.99-0.767,1.533c-0.259,0.51-0.434,1.059-0.517,1.625
				c-0.097,0.535-0.153,1.077-0.167,1.621c0.014,0.571,0.07,1.141,0.167,1.704C461.063,44.906,461.237,45.424,461.483,45.908z"/>
			<path d="M469.333,477.867c2.27,0.022,4.453-0.87,6.058-2.475c1.605-1.605,2.497-3.788,2.475-6.058
				c-0.013-1.116-0.245-2.219-0.683-3.246c-0.412-1.044-1.02-1.998-1.792-2.813c-3.421-3.158-8.695-3.158-12.117,0
				c-0.772,0.814-1.38,1.769-1.792,2.813c-0.481,1.013-0.715,2.125-0.683,3.246c-0.022,2.27,0.87,4.453,2.475,6.058
				C464.88,476.997,467.063,477.889,469.333,477.867z"/>
			<path d="M93.867,452.267H166.4c16.487-0.02,29.847-13.38,29.867-29.867c0.008-7.066,5.734-12.792,12.8-12.8h93.867
				c7.066,0.008,12.792,5.734,12.8,12.8c0.02,16.487,13.38,29.847,29.867,29.867h72.533c18.843-0.02,34.113-15.29,34.133-34.133
				V93.867c-0.02-18.843-15.29-34.113-34.133-34.133H93.867c-18.842,0.022-34.112,15.291-34.133,34.133v324.267
				C59.755,436.976,75.024,452.245,93.867,452.267z M209.067,392.533h-89.6c-4.71-0.006-8.527-3.823-8.533-8.533V119.467
				c0.006-4.71,3.823-8.527,8.533-8.533h273.067c4.71,0.006,8.527,3.823,8.533,8.533V384c-0.006,4.71-3.823,8.527-8.533,8.533
				H209.067z M76.8,93.867c0.009-9.422,7.645-17.057,17.067-17.067h324.267c9.421,0.011,17.056,7.646,17.067,17.067v324.267
				c-0.011,9.421-7.645,17.056-17.067,17.067H345.6c-7.066-0.008-12.792-5.734-12.8-12.8c-0.024-4.438-1.048-8.813-2.996-12.8
				h62.729c14.132-0.015,25.585-11.468,25.6-25.6V119.467c-0.015-14.132-11.468-25.585-25.6-25.6H119.467
				c-14.132,0.015-25.585,11.468-25.6,25.6V384c0.015,14.132,11.468,25.585,25.6,25.6h62.729c-1.948,3.987-2.972,8.362-2.996,12.8
				c-0.008,7.066-5.734,12.792-12.8,12.8H93.867c-9.422-0.009-17.057-7.645-17.067-17.067V93.867z"/>
			<path d="M256,247.467c4.713,0,8.533-3.82,8.533-8.533s-3.82-8.533-8.533-8.533c-32.379,0-59.733-15.629-59.733-34.133
				s27.354-34.133,59.733-34.133s59.733,15.629,59.733,34.133c0,4.713,3.82,8.533,8.533,8.533s8.533-3.82,8.533-8.533
				c0-28.708-33.733-51.2-76.8-51.2s-76.8,22.492-76.8,51.2C179.2,224.975,212.933,247.467,256,247.467z"/>
			<path d="M341.333,298.667H170.667c-14.138,0-25.6,11.462-25.6,25.6c0,14.138,11.462,25.6,25.6,25.6h170.667
				c14.132-0.015,25.585-11.468,25.6-25.6C366.918,310.135,355.465,298.682,341.333,298.667z M341.333,332.8H170.667
				c-4.71-0.006-8.527-3.823-8.533-8.533c0.006-4.71,3.823-8.527,8.533-8.533h170.667c4.713,0,8.533,3.82,8.533,8.533
				S346.046,332.8,341.333,332.8z"/>
		</g>
	</g>
</g>
<g>
</g>
<g>
</g>
<g>
</g>
<g>
</g>
<g>
</g>
<g>
</g>
<g>
</g>
<g>
</g>
<g>
</g>
<g>
</g>
<g>
</g>
<g>
</g>
<g>
</g>
<g>
</g>
<g>
</g>
</svg>
