<?xml version="1.0" encoding="iso-8859-1"?>
<!-- Generator: Adobe Illustrator 19.0.0, SVG Export Plug-In . SVG Version: 6.00 Build 0)  -->
<svg version="1.1" id="Capa_1" xmlns="http://www.w3.org/2000/svg" xmlns:xlink="http://www.w3.org/1999/xlink" x="0px" y="0px"
	 viewBox="0 0 511.85 511.85" style="enable-background:new 0 0 511.85 511.85;" xml:space="preserve">
<g>
	<g>
		<path d="M509.35,159.383l-24.125-24.125l-0.009-0.013l-0.013-0.009l-18.092-18.092c-1.6-1.601-3.77-2.5-6.033-2.5
			s-4.433,0.899-6.033,2.5c-3.336,3.314-8.725,3.304-12.049-0.022c-3.324-3.326-3.332-8.714-0.018-12.049
			c1.601-1.6,2.5-3.77,2.5-6.033s-0.899-4.434-2.5-6.033l-24.137-24.137c-1.6-1.601-3.77-2.5-6.033-2.5
			c-2.263,0-4.434,0.899-6.033,2.5c-3.391,3.192-8.68,3.192-12.071,0c-3.325-3.335-3.325-8.732,0-12.067
			c1.601-1.6,2.5-3.77,2.5-6.033s-0.899-4.433-2.5-6.033L352.467,2.5c-1.6-1.601-3.77-2.5-6.033-2.5S342,0.899,340.4,2.5
			l-30.169,30.169L298.163,20.6c-6.752-6.45-17.382-6.45-24.133,0l-12.075,12.071c-6.647,6.672-6.645,17.463,0.004,24.133
			l12.069,12.069L261.961,80.94l-12.073-12.073c-6.673-6.645-17.463-6.643-24.133,0.004l-12.063,12.067
			c-3.203,3.199-5.003,7.541-5.004,12.068c-0.001,4.527,1.798,8.869,5,12.07l12.069,12.069l-12.071,12.071l-12.065-12.065
			c-6.755-6.443-17.38-6.445-24.138-0.004l-12.063,12.062c-6.659,6.667-6.661,17.468-0.004,24.138l12.069,12.069l-12.071,12.071
			L153.35,165.42c-6.757-6.439-17.378-6.44-24.137-0.004l-12.067,12.067c-6.656,6.668-6.656,17.465,0,24.133l12.069,12.069
			l-12.071,12.071l-12.069-12.069c-6.752-6.45-17.382-6.45-24.133,0l-12.075,12.071c-6.647,6.672-6.645,17.464,0.004,24.134
			L80.94,261.96l-12.067,12.067L56.8,261.954c-6.673-6.645-17.463-6.643-24.133,0.004l-12.062,12.067
			c-3.203,3.199-5.003,7.541-5.004,12.068c-0.001,4.527,1.798,8.869,5,12.07l12.069,12.069L2.5,340.4C0.899,342,0,344.17,0,346.433
			c0,2.263,0.899,4.434,2.5,6.033l42.237,42.237c1.6,1.601,3.77,2.5,6.033,2.5s4.434-0.899,6.033-2.5
			c3.336-3.314,8.725-3.304,12.049,0.022c3.324,3.326,3.332,8.714,0.018,12.049c-1.601,1.6-2.5,3.77-2.5,6.033
			c0,2.263,0.899,4.433,2.5,6.033l24.137,24.137c1.6,1.601,3.77,2.5,6.033,2.5c2.263,0,4.433-0.899,6.033-2.5
			c3.391-3.192,8.68-3.192,12.071,0c3.325,3.335,3.325,8.732,0,12.067c-1.601,1.6-2.5,3.77-2.5,6.033c0,2.263,0.899,4.434,2.5,6.033
			l18.092,18.092l0.008,0.013l0.013,0.008l24.125,24.125c1.6,1.601,3.77,2.5,6.033,2.5c2.263,0,4.433-0.899,6.033-2.5l337.9-337.9
			c1.601-1.6,2.5-3.77,2.5-6.033C511.85,163.154,510.951,160.983,509.35,159.383z M346.434,20.6l31.204,31.204
			c-4.674,9.791-2.67,21.464,5.002,29.135c7.672,7.671,19.346,9.674,29.136,4.998l14.138,14.138
			c-4.675,9.79-2.673,21.464,4.998,29.136c7.671,7.672,19.345,9.676,29.135,5.002l7.069,7.069l-24.135,24.135L322.298,44.735
			L346.434,20.6z M274.025,44.734l12.071-12.067l18.092,18.091l0.009,0.013l0.012,0.008l126.704,126.704l-12.071,12.071
			L292.13,62.839l-0.001-0.002l-0.002-0.001L274.025,44.734z M406.775,201.621l-12.067,12.067L274.027,93.007l12.067-12.067
			L406.775,201.621z M225.754,93.008l12.071-12.071l18.091,18.092l0.009,0.012l0.012,0.009l126.704,126.704l-12.071,12.071
			L243.867,111.121l-0.009-0.012l-0.013-0.009L225.754,93.008z M237.823,129.211l120.681,120.681l-12.069,12.069l-72.406-72.404
			l-0.004-0.007l-24.133-24.134l-0.008-0.006l-24.131-24.13L237.823,129.211z M259.458,216.183v24.142l-19.133,19.133h-24.142
			L259.458,216.183z M195.585,255.924l-12.067-12.067l60.339-60.34l12.067,12.067L195.585,255.924z M240.326,276.525l45.771,45.775
			l-12.071,12.067l-57.84-57.842H240.326z M255.925,267.992l12.067-12.067l42.242,42.238l-12.071,12.071L255.925,267.992z
			 M276.525,240.325v-24.14l57.842,57.84l-12.067,12.07L276.525,240.325z M177.483,141.279l12.067-12.066l42.24,42.239
			l-12.067,12.067L177.483,141.279z M189.552,177.481l18.104,18.104l-12.07,12.07l-18.104-18.104L189.552,177.481z M129.213,189.551
			l12.066-12.067l42.24,42.24l-12.067,12.067L129.213,189.551z M141.281,225.753l24.131,24.131l0.006,0.008l24.133,24.133
			l0.007,0.004l72.404,72.406l-12.069,12.069L129.211,237.823L141.281,225.753z M80.938,237.821l12.07-12.066l18.092,18.092
			l0.008,0.013l0.013,0.009l126.704,126.704l-12.071,12.071L99.043,255.927l-0.001-0.002l-0.002-0.001L80.938,237.821z
			 M93.006,274.028l120.682,120.681l-12.067,12.067L80.94,286.094L93.006,274.028z M32.667,286.096l12.07-12.07l18.092,18.092
			l0.009,0.013l0.012,0.009l126.704,126.704l-12.071,12.071L50.779,304.208l-0.008-0.012l-0.013-0.009L32.667,286.096z
			 M134.213,460.046c4.674-9.791,2.67-21.464-5.002-29.135c-7.672-7.671-19.346-9.674-29.136-4.998l-14.138-14.138
			c4.675-9.79,2.673-21.464-4.998-29.136c-7.671-7.672-19.345-9.676-29.135-5.002L20.6,346.433l24.135-24.135l120.682,120.681
			l-24.135,24.135L134.213,460.046z M165.417,491.25l-12.069-12.069l12.068-12.068l12.068,12.07L165.417,491.25z M189.551,467.116
			l-12.068-12.07l6.034-6.034l24.138-24.138l24.133-24.133l24.137-24.137l120.679-120.679l24.137-24.137l24.133-24.133
			l24.138-24.138l6.034-6.034l12.07,12.068L189.551,467.116z M479.183,177.484l-12.07-12.068l12.068-12.068l12.069,12.069
			L479.183,177.484z"/>
	</g>
</g>
<g>
</g>
<g>
</g>
<g>
</g>
<g>
</g>
<g>
</g>
<g>
</g>
<g>
</g>
<g>
</g>
<g>
</g>
<g>
</g>
<g>
</g>
<g>
</g>
<g>
</g>
<g>
</g>
<g>
</g>
</svg>
