<?xml version="1.0" encoding="iso-8859-1"?>
<!-- Generator: Adobe Illustrator 19.0.0, SVG Export Plug-In . SVG Version: 6.00 Build 0)  -->
<svg version="1.1" id="Capa_1" xmlns="http://www.w3.org/2000/svg" xmlns:xlink="http://www.w3.org/1999/xlink" x="0px" y="0px"
	 viewBox="0 0 512 512" style="enable-background:new 0 0 512 512;" xml:space="preserve">
<g>
	<g>
		<g>
			<path d="M213.333,196.267h-17.067c-4.713,0-8.533,3.82-8.533,8.533s3.82,8.533,8.533,8.533h17.067
				c4.713,0,8.533-3.821,8.533-8.533S218.046,196.267,213.333,196.267z"/>
			<path d="M213.333,230.4h-17.067c-4.713,0-8.533,3.82-8.533,8.533s3.82,8.533,8.533,8.533h17.067c4.713,0,8.533-3.82,8.533-8.533
				S218.046,230.4,213.333,230.4z"/>
			<path d="M213.333,264.533h-17.067c-4.713,0-8.533,3.821-8.533,8.533c0,4.713,3.82,8.533,8.533,8.533h17.067
				c4.713,0,8.533-3.821,8.533-8.533C221.867,268.354,218.046,264.533,213.333,264.533z"/>
			<path d="M264.533,196.267h-17.067c-4.713,0-8.533,3.82-8.533,8.533s3.82,8.533,8.533,8.533h17.067
				c4.713,0,8.533-3.821,8.533-8.533S269.246,196.267,264.533,196.267z"/>
			<path d="M264.533,230.4h-17.067c-4.713,0-8.533,3.82-8.533,8.533s3.82,8.533,8.533,8.533h17.067c4.713,0,8.533-3.82,8.533-8.533
				S269.246,230.4,264.533,230.4z"/>
			<path d="M264.533,264.533h-17.067c-4.713,0-8.533,3.821-8.533,8.533c0,4.713,3.82,8.533,8.533,8.533h17.067
				c4.713,0,8.533-3.821,8.533-8.533C273.067,268.354,269.246,264.533,264.533,264.533z"/>
			<path d="M315.733,196.267h-17.067c-4.713,0-8.533,3.82-8.533,8.533s3.82,8.533,8.533,8.533h17.067
				c4.713,0,8.533-3.821,8.533-8.533S320.446,196.267,315.733,196.267z"/>
			<path d="M315.733,230.4h-17.067c-4.713,0-8.533,3.82-8.533,8.533s3.82,8.533,8.533,8.533h17.067c4.713,0,8.533-3.82,8.533-8.533
				S320.446,230.4,315.733,230.4z"/>
			<path d="M315.733,264.533h-17.067c-4.713,0-8.533,3.821-8.533,8.533c0,4.713,3.82,8.533,8.533,8.533h17.067
				c4.713,0,8.533-3.821,8.533-8.533C324.267,268.354,320.446,264.533,315.733,264.533z"/>
			<path d="M213.333,298.667h-17.067c-4.713,0-8.533,3.82-8.533,8.533s3.82,8.533,8.533,8.533h17.067
				c4.713,0,8.533-3.82,8.533-8.533S218.046,298.667,213.333,298.667z"/>
			<path d="M264.533,298.667h-17.067c-4.713,0-8.533,3.82-8.533,8.533s3.82,8.533,8.533,8.533h17.067
				c4.713,0,8.533-3.82,8.533-8.533S269.246,298.667,264.533,298.667z"/>
			<path d="M315.733,298.667h-17.067c-4.713,0-8.533,3.82-8.533,8.533s3.82,8.533,8.533,8.533h17.067
				c4.713,0,8.533-3.82,8.533-8.533S320.446,298.667,315.733,298.667z"/>
			<path d="M358.4,332.8V179.2c-0.009-9.422-7.645-17.057-17.067-17.067H170.667c-9.422,0.009-17.057,7.645-17.067,17.067v153.6
				c0.009,9.422,7.645,17.057,17.067,17.067h170.667C350.755,349.857,358.391,342.222,358.4,332.8z M170.667,332.8V179.2h170.667
				l0.012,153.6H170.667z"/>
			<path d="M486.4,0h-76.8c-4.713,0-8.533,3.82-8.533,8.533s-3.821,8.533-8.533,8.533c-4.713,0-8.533-3.82-8.533-8.533
				S380.18,0,375.467,0H25.6C11.468,0.015,0.015,11.468,0,25.6v460.8c0.015,14.132,11.468,25.585,25.6,25.6h349.867
				c4.713,0,8.533-3.82,8.533-8.533s3.821-8.533,8.533-8.533c4.713,0,8.533,3.82,8.533,8.533S404.887,512,409.6,512h76.8
				c14.132-0.015,25.585-11.468,25.6-25.6V25.6C511.985,11.468,500.532,0.015,486.4,0z M494.933,486.4
				c-0.006,4.71-3.823,8.527-8.533,8.533h-69.729c-3.617-10.228-13.288-17.067-24.138-17.067c-10.849,0-20.52,6.838-24.137,17.067
				H25.6c-4.71-0.006-8.527-3.823-8.533-8.533V25.6c0.006-4.71,3.823-8.527,8.533-8.533h342.796
				c3.617,10.229,13.288,17.067,24.137,17.067c10.849,0,20.52-6.838,24.138-17.067H486.4c4.71,0.006,8.527,3.823,8.533,8.533V486.4z
				"/>
			<path d="M57.259,57.259c3.3-3.365,3.3-8.752,0-12.117c-3.422-3.159-8.696-3.159-12.117,0c-3.3,3.365-3.3,8.752,0,12.117
				C48.506,60.559,53.894,60.559,57.259,57.259z"/>
			<path d="M88.606,59.131c3.202-1.329,5.281-4.464,5.261-7.931c0.02-3.467-2.059-6.601-5.261-7.931
				c-3.202-1.329-6.89-0.59-9.331,1.872c-3.3,3.365-3.3,8.752,0,12.117C81.716,59.72,85.404,60.46,88.606,59.131z"/>
			<path d="M119.467,59.733c1.115-0.014,2.216-0.246,3.242-0.683c1.033-0.434,1.986-1.04,2.817-1.791c3.3-3.365,3.3-8.752,0-12.117
				c-0.83-0.755-1.783-1.362-2.817-1.796c-3.178-1.338-6.849-0.629-9.3,1.796c-1.559,1.635-2.443,3.799-2.475,6.059
				c0.016,2.263,0.902,4.432,2.475,6.059C115.044,58.816,117.208,59.7,119.467,59.733z"/>
			<path d="M153.6,59.733c2.27,0.022,4.453-0.87,6.058-2.475c1.605-1.605,2.497-3.788,2.475-6.058
				c-0.022-3.852-2.622-7.211-6.345-8.198c-3.723-0.988-7.646,0.641-9.575,3.975c-1.929,3.334-1.385,7.547,1.328,10.282
				C149.178,58.816,151.341,59.7,153.6,59.733z"/>
			<path d="M187.733,59.733c2.27,0.022,4.453-0.87,6.058-2.475c1.605-1.605,2.497-3.788,2.475-6.058
				c-0.022-3.852-2.622-7.211-6.345-8.198c-3.723-0.988-7.646,0.641-9.575,3.975c-1.929,3.334-1.385,7.547,1.328,10.282
				C183.311,58.816,185.474,59.7,187.733,59.733z"/>
			<path d="M221.867,59.733c2.27,0.022,4.453-0.87,6.058-2.475c1.605-1.605,2.497-3.788,2.475-6.058
				c-0.022-3.852-2.622-7.211-6.345-8.198c-3.723-0.988-7.646,0.641-9.575,3.975c-1.929,3.334-1.385,7.547,1.328,10.282
				C217.444,58.816,219.608,59.7,221.867,59.733z"/>
			<path d="M256,59.733c2.27,0.022,4.453-0.87,6.058-2.475c1.605-1.605,2.497-3.788,2.475-6.058
				c-0.022-3.852-2.622-7.211-6.345-8.198c-3.723-0.988-7.646,0.641-9.575,3.975c-1.929,3.334-1.385,7.547,1.328,10.282
				C251.578,58.816,253.741,59.7,256,59.733z"/>
			<path d="M290.133,59.733c2.27,0.022,4.453-0.87,6.058-2.475c1.605-1.605,2.497-3.788,2.475-6.058
				c-0.022-3.852-2.622-7.211-6.345-8.198c-3.723-0.988-7.646,0.641-9.575,3.975c-1.929,3.334-1.385,7.547,1.328,10.282
				C285.711,58.816,287.874,59.7,290.133,59.733z"/>
			<path d="M324.267,59.733c2.27,0.022,4.453-0.87,6.058-2.475c1.605-1.605,2.497-3.788,2.475-6.058
				c-0.022-3.852-2.622-7.211-6.345-8.198c-3.723-0.988-7.646,0.641-9.575,3.975c-1.929,3.334-1.385,7.547,1.328,10.282
				C319.844,58.816,322.008,59.7,324.267,59.733z"/>
			<path d="M355.154,59.05c1.027,0.438,2.13,0.67,3.246,0.683c2.259-0.034,4.422-0.918,6.059-2.475
				c1.571-1.628,2.457-3.797,2.475-6.059c-0.033-2.259-0.917-4.422-2.475-6.059c-2.477-2.379-6.12-3.082-9.305-1.796
				c-1.054,0.393-2.013,1.005-2.813,1.796c-3.3,3.365-3.3,8.752,0,12.117C353.143,58.046,354.101,58.657,355.154,59.05z"/>
			<path d="M429.939,59.13c3.202-1.329,5.281-4.463,5.261-7.93c0.02-3.467-2.059-6.601-5.261-7.931
				c-3.202-1.329-6.89-0.59-9.331,1.872c-3.3,3.365-3.3,8.752,0,12.117C423.049,59.719,426.737,60.459,429.939,59.13z"/>
			<path d="M464.072,59.13c3.202-1.329,5.281-4.463,5.261-7.93c0.02-3.467-2.059-6.601-5.261-7.931
				c-3.202-1.329-6.89-0.59-9.331,1.872c-3.3,3.365-3.3,8.752,0,12.117C457.183,59.719,460.87,60.459,464.072,59.13z"/>
			<path d="M51.2,93.867c3.45-0.014,6.556-2.096,7.879-5.282c1.323-3.187,0.606-6.856-1.82-9.31c-3.422-3.159-8.696-3.159-12.117,0
				c-2.462,2.441-3.201,6.129-1.872,9.331C44.599,91.808,47.733,93.887,51.2,93.867z"/>
			<circle cx="85.333" cy="85.333" r="8.568"/>
			<path d="M125.492,91.326c3.331-3.322,3.345-8.712,0.032-12.052c-3.427-3.145-8.69-3.145-12.117,0
				c-3.313,3.34-3.298,8.73,0.032,12.052S122.162,94.648,125.492,91.326z"/>
			<path d="M153.6,93.867c3.45-0.014,6.556-2.096,7.879-5.282c1.323-3.187,0.606-6.856-1.82-9.31c-3.346-3.346-8.771-3.346-12.117,0
				c-3.346,3.346-3.346,8.771,0,12.117C149.178,92.95,151.341,93.833,153.6,93.867z"/>
			<path d="M187.733,93.867c3.45-0.014,6.556-2.096,7.879-5.282c1.323-3.187,0.606-6.856-1.82-9.31
				c-3.346-3.346-8.771-3.346-12.117,0c-3.346,3.346-3.346,8.771,0,12.117C183.311,92.95,185.474,93.833,187.733,93.867z"/>
			<path d="M218.621,93.183c1.013,0.479,2.125,0.713,3.246,0.683c3.45-0.014,6.556-2.096,7.879-5.282
				c1.323-3.187,0.606-6.856-1.82-9.31c-2.453-2.425-6.125-3.133-9.304-1.796c-1.033,0.434-1.985,1.041-2.813,1.796
				c-3.3,3.365-3.3,8.752,0,12.117C216.638,92.143,217.589,92.749,218.621,93.183z"/>
			<path d="M256,93.867c1.119,0.029,2.229-0.205,3.242-0.683c1.033-0.434,1.986-1.04,2.817-1.792c3.3-3.365,3.3-8.752,0-12.117
				c-0.83-0.754-1.782-1.362-2.817-1.796c-3.178-1.338-6.849-0.629-9.3,1.796c-2.462,2.441-3.201,6.129-1.872,9.331
				S252.533,93.887,256,93.867z"/>
			<path d="M290.133,93.867c3.45-0.014,6.556-2.096,7.879-5.282c1.323-3.187,0.606-6.856-1.82-9.31
				c-3.346-3.346-8.771-3.346-12.117,0c-3.346,3.346-3.346,8.771,0,12.117C285.711,92.95,287.874,93.833,290.133,93.867z"/>
			<path d="M324.267,93.867c3.45-0.014,6.556-2.096,7.879-5.282c1.323-3.187,0.606-6.856-1.82-9.31
				c-3.346-3.346-8.771-3.346-12.117,0c-3.346,3.346-3.346,8.771,0,12.117C319.844,92.95,322.008,93.833,324.267,93.867z"/>
			<path d="M358.4,93.867c0.571-0.016,1.141-0.073,1.704-0.171c0.535-0.095,1.053-0.268,1.537-0.513
				c0.525-0.17,1.015-0.431,1.45-0.771c0.512-0.337,0.938-0.679,1.367-1.021c3.346-3.346,3.346-8.771,0-12.117
				s-8.771-3.346-12.117,0c-2.462,2.441-3.201,6.129-1.872,9.331C351.799,91.808,354.933,93.887,358.4,93.867z"/>
			<path d="M398.559,91.326c3.331-3.322,3.345-8.712,0.032-12.052c-3.427-3.145-8.69-3.145-12.117,0
				c-3.313,3.34-3.298,8.73,0.033,12.052C389.838,94.648,395.228,94.648,398.559,91.326z"/>
			<path d="M432.692,91.326c3.331-3.322,3.345-8.712,0.032-12.052c-3.427-3.145-8.69-3.145-12.117,0
				c-3.313,3.34-3.298,8.73,0.032,12.052C423.971,94.648,429.362,94.648,432.692,91.326z"/>
			<path d="M454.741,79.275c-3.313,3.34-3.298,8.73,0.032,12.052c3.331,3.322,8.721,3.322,12.052,0
				c3.331-3.322,3.345-8.712,0.032-12.052C463.431,76.13,458.168,76.13,454.741,79.275z"/>
			<path d="M47.954,127.317c1.014,0.479,2.125,0.713,3.246,0.683c3.45-0.014,6.556-2.096,7.879-5.282
				c1.323-3.187,0.606-6.856-1.82-9.31c-2.473-2.387-6.121-3.091-9.305-1.796c-1.033,0.434-1.984,1.041-2.813,1.796
				c-3.3,3.365-3.3,8.752,0,12.117C45.971,126.276,46.922,126.882,47.954,127.317z"/>
			<path d="M85.333,128c1.119,0.029,2.229-0.205,3.242-0.683c1.033-0.434,1.986-1.04,2.817-1.792
				c0.341-0.429,0.683-0.854,1.021-1.367c0.34-0.435,0.601-0.925,0.771-1.45c0.245-0.485,0.418-1.003,0.513-1.537
				c0.098-0.563,0.155-1.133,0.171-1.704c-0.033-2.259-0.917-4.422-2.475-6.059c-0.83-0.754-1.783-1.362-2.817-1.796
				c-3.182-1.294-6.828-0.59-9.3,1.796c-2.461,2.441-3.201,6.129-1.872,9.331C78.732,125.941,81.867,128.02,85.333,128z"/>
			<path d="M125.492,125.46c3.331-3.322,3.345-8.712,0.032-12.052c-3.427-3.145-8.69-3.145-12.117,0
				c-3.313,3.34-3.298,8.73,0.032,12.052S122.162,128.781,125.492,125.46z"/>
			<path d="M156.713,111.725c-3.726-1.522-8.007-0.205-10.235,3.146c-2.227,3.352-1.783,7.809,1.063,10.654
				c0.425,0.341,0.85,0.683,1.363,1.021c0.436,0.338,0.926,0.599,1.45,0.771c0.485,0.245,1.003,0.418,1.537,0.513
				c0.565,0.098,1.135,0.155,1.708,0.171c4.024-0.039,7.462-2.911,8.218-6.863C162.574,117.184,160.438,113.246,156.713,111.725z"/>
			<path d="M187.733,128c1.119,0.029,2.229-0.205,3.242-0.683c1.033-0.434,1.986-1.04,2.817-1.792
				c0.341-0.429,0.683-0.854,1.021-1.367c0.34-0.435,0.601-0.925,0.771-1.45c0.245-0.485,0.418-1.003,0.513-1.537
				c0.098-0.563,0.155-1.133,0.171-1.704c-0.033-2.259-0.917-4.422-2.475-6.059c-0.83-0.754-1.782-1.362-2.817-1.796
				c-3.183-1.285-6.825-0.582-9.301,1.796c-2.462,2.441-3.201,6.129-1.872,9.331C181.132,125.941,184.267,128.02,187.733,128z"/>
			<path d="M224.98,111.725c-3.726-1.522-8.007-0.205-10.235,3.146s-1.783,7.809,1.063,10.654c1.637,1.557,3.8,2.44,6.059,2.475
				c4.024-0.039,7.462-2.911,8.218-6.863S228.705,113.246,224.98,111.725z"/>
			<path d="M248.878,114.871c-2.227,3.352-1.783,7.809,1.063,10.654c1.637,1.557,3.8,2.44,6.059,2.475
				c4.024-0.039,7.462-2.911,8.218-6.863c0.756-3.953-1.38-7.89-5.105-9.412C255.387,110.203,251.106,111.519,248.878,114.871z"/>
			<path d="M290.133,128c1.119,0.029,2.229-0.205,3.242-0.683c1.033-0.434,1.986-1.04,2.817-1.792
				c0.341-0.429,0.683-0.854,1.021-1.367c0.34-0.435,0.601-0.925,0.771-1.45c0.245-0.485,0.418-1.003,0.513-1.537
				c0.098-0.563,0.155-1.133,0.171-1.704c-0.033-2.259-0.917-4.422-2.475-6.059c-0.83-0.754-1.782-1.362-2.817-1.796
				c-3.183-1.285-6.825-0.582-9.301,1.796c-2.462,2.441-3.201,6.129-1.872,9.331C283.532,125.941,286.667,128.02,290.133,128z"/>
			<path d="M327.38,111.725c-3.725-1.522-8.007-0.205-10.235,3.146c-2.227,3.352-1.783,7.809,1.063,10.654
				c1.637,1.557,3.8,2.44,6.059,2.475c4.024-0.039,7.462-2.911,8.218-6.863C333.241,117.184,331.105,113.246,327.38,111.725z"/>
			<path d="M360.617,111.19c-2.957-0.792-6.112,0.053-8.276,2.218c-2.462,2.441-3.201,6.129-1.872,9.331
				c1.329,3.202,4.464,5.281,7.931,5.261c0.571-0.016,1.141-0.073,1.704-0.171c0.535-0.095,1.053-0.268,1.537-0.513
				c0.525-0.17,1.015-0.431,1.45-0.771c0.512-0.338,0.938-0.679,1.367-1.021c2.164-2.164,3.01-5.319,2.218-8.276
				C365.884,114.292,363.574,111.983,360.617,111.19z"/>
			<path d="M395.775,111.612c-3.183-1.285-6.824-0.582-9.3,1.796c-2.461,2.441-3.201,6.129-1.872,9.331
				c1.329,3.202,4.464,5.281,7.931,5.261c1.119,0.029,2.229-0.205,3.242-0.683c1.033-0.434,1.986-1.04,2.817-1.792
				c0.341-0.429,0.683-0.854,1.021-1.367c0.34-0.435,0.601-0.925,0.771-1.45c0.245-0.485,0.418-1.003,0.513-1.537
				c0.098-0.563,0.155-1.133,0.171-1.704c-0.033-2.259-0.917-4.422-2.475-6.059C397.762,112.654,396.809,112.046,395.775,111.612z"
				/>
			<path d="M420.641,125.46c3.331,3.322,8.721,3.322,12.052,0c3.331-3.322,3.345-8.712,0.032-12.052
				c-3.427-3.145-8.69-3.145-12.117,0C417.295,116.748,417.31,122.138,420.641,125.46z"/>
			<path d="M454.741,113.408c-2.462,2.441-3.201,6.129-1.872,9.331c1.329,3.202,4.464,5.281,7.931,5.261
				c0.571-0.016,1.141-0.073,1.704-0.171c0.535-0.095,1.053-0.268,1.537-0.513c0.525-0.17,1.015-0.431,1.45-0.771
				c0.513-0.338,0.938-0.679,1.367-1.021c3.346-3.346,3.346-8.771,0-12.117C463.512,110.062,458.087,110.062,454.741,113.408z"/>
			<path d="M47.954,161.45c1.027,0.438,2.13,0.67,3.246,0.683c3.45-0.014,6.556-2.096,7.879-5.282
				c1.323-3.187,0.606-6.856-1.82-9.31c-2.453-2.425-6.125-3.133-9.305-1.795c-1.033,0.434-1.984,1.041-2.813,1.795
				c-3.3,3.365-3.3,8.752,0,12.117C45.971,160.41,46.922,161.016,47.954,161.45z"/>
			<circle cx="85.333" cy="153.6" r="8.568"/>
			<path d="M119.467,162.133c2.259-0.034,4.422-0.918,6.059-2.475c0.341-0.429,0.683-0.854,1.021-1.367
				c0.34-0.435,0.601-0.925,0.771-1.45c0.245-0.485,0.418-1.003,0.513-1.537c0.098-0.563,0.155-1.133,0.17-1.705
				c0.02-3.467-2.059-6.601-5.261-7.931c-3.202-1.329-6.89-0.59-9.331,1.872c-3.3,3.365-3.3,8.752,0,12.117
				C115.036,161.229,117.204,162.116,119.467,162.133z"/>
			<path d="M389.287,161.45c1.027,0.438,2.13,0.67,3.246,0.683c3.45-0.014,6.556-2.096,7.879-5.282
				c1.323-3.187,0.606-6.856-1.82-9.31c-2.453-2.425-6.125-3.133-9.305-1.795c-1.033,0.434-1.984,1.041-2.813,1.795
				c-3.3,3.365-3.3,8.752,0,12.117C387.304,160.41,388.255,161.016,389.287,161.45z"/>
			<path d="M420.641,159.593c3.331,3.322,8.721,3.322,12.052,0c3.331-3.322,3.345-8.712,0.032-12.052
				c-3.427-3.145-8.69-3.145-12.117,0C417.295,150.881,417.31,156.271,420.641,159.593z"/>
			<path d="M464.042,145.746c-3.179-1.33-6.845-0.622-9.3,1.795c-2.462,2.441-3.201,6.129-1.872,9.331s4.464,5.281,7.931,5.261
				c1.115-0.014,2.216-0.246,3.242-0.683c1.033-0.434,1.986-1.04,2.817-1.792c0.341-0.429,0.683-0.854,1.021-1.367
				c0.34-0.435,0.601-0.925,0.771-1.45c0.245-0.485,0.418-1.003,0.513-1.537c0.098-0.563,0.155-1.133,0.171-1.704
				c-0.033-2.259-0.917-4.422-2.475-6.059C466.029,146.787,465.076,146.18,464.042,145.746z"/>
			<path d="M43.346,190.975c0.188,0.544,0.447,1.062,0.771,1.538c0.316,0.447,0.658,0.874,1.025,1.279c3.365,3.3,8.752,3.3,12.117,0
				c0.366-0.405,0.707-0.833,1.021-1.279c0.324-0.476,0.583-0.993,0.771-1.538c0.245-0.485,0.418-1.003,0.513-1.538
				c0.098-0.563,0.155-1.133,0.171-1.704c-0.013-1.116-0.245-2.219-0.683-3.246c-0.434-1.032-1.04-1.983-1.791-2.813
				c-3.421-3.158-8.695-3.158-12.117,0c-0.754,0.828-1.362,1.78-1.796,2.813c-0.437,1.027-0.668,2.13-0.68,3.246
				c0.013,0.572,0.071,1.141,0.171,1.704C42.929,189.973,43.1,190.491,43.346,190.975z"/>
			<path d="M91.392,181.675c-2.474-2.385-6.12-3.089-9.304-1.796c-2.139,0.784-3.824,2.469-4.608,4.608
				c-0.437,1.027-0.668,2.13-0.68,3.247c0.016,2.263,0.902,4.432,2.475,6.059c0.83,0.752,1.781,1.358,2.813,1.792
				c1.014,0.479,2.126,0.713,3.246,0.683c0.571-0.016,1.141-0.073,1.704-0.171c0.535-0.095,1.053-0.268,1.537-0.513
				c0.544-0.187,1.062-0.447,1.538-0.771c0.425-0.338,0.85-0.679,1.279-1.021c0.341-0.429,0.683-0.854,1.021-1.279
				c0.324-0.476,0.583-0.993,0.771-1.538c0.245-0.485,0.418-1.003,0.513-1.537c0.098-0.563,0.155-1.133,0.171-1.704
				c0.03-1.121-0.205-2.232-0.683-3.246C92.749,183.456,92.144,182.504,91.392,181.675z"/>
			<path d="M125.525,181.675c-3.421-3.158-8.695-3.158-12.117,0c-0.754,0.828-1.362,1.78-1.796,2.813
				c-0.437,1.027-0.668,2.13-0.68,3.246c0.016,2.263,0.902,4.432,2.475,6.059c1.636,1.558,3.8,2.441,6.059,2.475
				c0.571-0.016,1.141-0.073,1.704-0.171c0.535-0.095,1.053-0.268,1.537-0.513c0.544-0.187,1.062-0.447,1.538-0.771
				c0.425-0.338,0.85-0.679,1.279-1.021c1.571-1.628,2.457-3.796,2.475-6.058c-0.013-1.116-0.245-2.219-0.683-3.246
				C126.883,183.456,126.277,182.504,125.525,181.675z"/>
			<path d="M398.592,181.675c-0.83-0.754-1.783-1.362-2.817-1.796c-3.178-1.338-6.849-0.629-9.301,1.796
				c-0.754,0.828-1.362,1.78-1.796,2.813c-0.436,1.027-0.667,2.13-0.679,3.246c0.014,0.572,0.071,1.141,0.171,1.704
				c0.091,0.535,0.263,1.053,0.508,1.537c0.188,0.544,0.447,1.062,0.771,1.538c0.341,0.425,0.683,0.85,1.025,1.279
				c0.425,0.341,0.85,0.683,1.279,1.021c0.475,0.323,0.991,0.582,1.533,0.771c0.485,0.245,1.003,0.418,1.537,0.513
				c0.565,0.098,1.136,0.155,1.708,0.171c1.119,0.029,2.229-0.205,3.242-0.683c1.033-0.434,1.986-1.04,2.817-1.792
				c1.571-1.627,2.457-3.796,2.475-6.058c-0.013-1.116-0.245-2.219-0.683-3.246C399.949,183.456,399.344,182.504,398.592,181.675z"
				/>
			<path d="M421.971,194.813c0.436,0.338,0.926,0.599,1.45,0.771c0.485,0.245,1.003,0.418,1.537,0.513
				c0.565,0.098,1.136,0.155,1.709,0.17c2.259-0.034,4.422-0.918,6.059-2.475c0.366-0.405,0.707-0.833,1.021-1.279
				c0.324-0.476,0.583-0.993,0.771-1.538c0.245-0.485,0.418-1.003,0.513-1.537c0.098-0.563,0.155-1.133,0.17-1.705
				c-0.013-1.116-0.245-2.219-0.683-3.246c-0.434-1.032-1.04-1.983-1.791-2.813c-3.421-3.158-8.695-3.158-12.117,0
				c-0.754,0.828-1.362,1.78-1.796,2.813c-0.437,1.027-0.668,2.13-0.68,3.246c0.016,2.263,0.902,4.432,2.475,6.059
				C421.033,194.133,421.458,194.475,421.971,194.813z"/>
			<path d="M466.859,181.675c-3.421-3.158-8.695-3.158-12.117,0c-0.754,0.828-1.362,1.78-1.796,2.813
				c-0.437,1.027-0.668,2.13-0.68,3.246c0.014,0.572,0.071,1.141,0.171,1.704c0.091,0.535,0.263,1.053,0.508,1.537
				c0.188,0.544,0.447,1.062,0.771,1.538c0.341,0.425,0.683,0.85,1.025,1.279c1.636,1.558,3.8,2.441,6.059,2.475
				c0.571-0.016,1.141-0.073,1.704-0.171c0.535-0.095,1.053-0.268,1.537-0.513c0.525-0.17,1.015-0.431,1.45-0.771
				c0.513-0.338,0.938-0.679,1.367-1.021c0.341-0.429,0.683-0.854,1.021-1.279c0.324-0.476,0.583-0.993,0.771-1.538
				c0.245-0.485,0.418-1.003,0.513-1.537c0.098-0.563,0.155-1.133,0.171-1.704c-0.013-1.116-0.245-2.219-0.683-3.246
				C468.216,183.456,467.61,182.504,466.859,181.675z"/>
			<path d="M53.418,213.59c-2.957-0.792-6.112,0.053-8.276,2.218c-1.559,1.635-2.443,3.799-2.475,6.059
				c0.013,0.572,0.071,1.141,0.171,1.704c0.091,0.535,0.263,1.053,0.508,1.537c0.188,0.544,0.447,1.062,0.771,1.538
				c0.341,0.425,0.683,0.85,1.025,1.279c0.404,0.368,0.831,0.709,1.279,1.021c0.475,0.323,0.991,0.582,1.533,0.771
				c0.485,0.245,1.003,0.418,1.538,0.513c0.565,0.094,1.136,0.151,1.708,0.171c0.571-0.016,1.141-0.073,1.704-0.171
				c0.535-0.095,1.053-0.268,1.537-0.513c0.544-0.188,1.062-0.447,1.538-0.771c0.447-0.314,0.874-0.655,1.279-1.021
				c2.165-2.165,3.01-5.319,2.218-8.276C58.684,216.692,56.374,214.383,53.418,213.59z"/>
			<path d="M80.637,228.945c0.436,0.338,0.926,0.599,1.45,0.771c0.485,0.245,1.003,0.418,1.538,0.513
				c0.565,0.098,1.136,0.155,1.708,0.171c1.119,0.029,2.229-0.205,3.242-0.683c1.033-0.434,1.986-1.04,2.817-1.792
				c3.3-3.365,3.3-8.752,0-12.117c-0.83-0.754-1.783-1.362-2.817-1.796c-3.178-1.338-6.849-0.629-9.3,1.796
				c-3.3,3.365-3.3,8.752,0,12.117C79.691,228.313,80.148,228.655,80.637,228.945z"/>
			<path d="M113.408,215.808c-1.559,1.635-2.443,3.799-2.475,6.059c0.013,0.572,0.071,1.141,0.171,1.704
				c0.091,0.535,0.263,1.053,0.508,1.537c0.188,0.544,0.447,1.062,0.771,1.538c0.341,0.425,0.683,0.85,1.025,1.279
				c1.636,1.558,3.8,2.441,6.058,2.475c0.571-0.016,1.141-0.073,1.704-0.171c0.535-0.095,1.053-0.268,1.537-0.513
				c0.544-0.188,1.062-0.447,1.538-0.771c0.447-0.314,0.874-0.655,1.279-1.021c3.346-3.346,3.346-8.771,0-12.117
				C122.179,212.462,116.754,212.462,113.408,215.808z"/>
			<path d="M395.806,213.936c-3.202-1.329-6.89-0.59-9.331,1.872c-2.461,2.441-3.201,6.129-1.872,9.331s4.464,5.281,7.931,5.261
				c0.571-0.016,1.141-0.073,1.704-0.171c0.535-0.095,1.053-0.268,1.537-0.513c0.544-0.188,1.062-0.447,1.538-0.771
				c0.929-0.585,1.715-1.371,2.3-2.3c0.324-0.476,0.583-0.993,0.771-1.537c0.245-0.485,0.418-1.003,0.513-1.537
				c0.098-0.563,0.155-1.133,0.171-1.704C401.087,218.4,399.008,215.265,395.806,213.936z"/>
			<path d="M426.667,230.4c1.119,0.029,2.229-0.205,3.242-0.683c1.033-0.434,1.986-1.04,2.817-1.792c3.3-3.365,3.3-8.752,0-12.117
				c-0.816-0.772-1.772-1.382-2.817-1.796c-2.061-0.938-4.427-0.938-6.487,0c-1.033,0.434-1.984,1.041-2.813,1.796
				c-2.462,2.441-3.201,6.129-1.872,9.331C420.065,228.341,423.2,230.42,426.667,230.4z"/>
			<path d="M464.072,213.936c-3.202-1.329-6.89-0.59-9.331,1.872c-3.3,3.365-3.3,8.752,0,12.117
				c0.404,0.368,0.831,0.709,1.279,1.021c0.475,0.323,0.991,0.582,1.533,0.771c0.485,0.245,1.003,0.418,1.537,0.513
				c0.565,0.099,1.136,0.156,1.709,0.171c0.571-0.02,1.14-0.077,1.704-0.171c0.535-0.095,1.053-0.268,1.537-0.513
				c0.544-0.188,1.062-0.447,1.537-0.771c0.447-0.314,0.874-0.655,1.28-1.021c0.341-0.429,0.683-0.854,1.021-1.279
				c0.324-0.476,0.583-0.993,0.771-1.538c0.245-0.485,0.418-1.003,0.513-1.537c0.098-0.563,0.155-1.133,0.171-1.705
				C469.354,218.4,467.274,215.265,464.072,213.936z"/>
			<path d="M57.259,249.941c-0.83-0.754-1.783-1.362-2.817-1.795c-3.179-1.33-6.845-0.622-9.3,1.795
				c-1.559,1.635-2.443,3.799-2.475,6.059c0.012,1.115,0.243,2.216,0.679,3.242c0.434,1.034,1.041,1.987,1.796,2.817
				c1.636,1.558,3.8,2.441,6.059,2.475c1.115-0.014,2.216-0.246,3.242-0.683c1.033-0.434,1.986-1.04,2.817-1.791
				c0.752-0.831,1.358-1.783,1.792-2.817c0.437-1.026,0.669-2.127,0.683-3.242C59.7,253.741,58.816,251.578,57.259,249.941z"/>
			<path d="M82.088,248.146c-1.033,0.434-1.984,1.041-2.813,1.795c-1.559,1.635-2.443,3.799-2.475,6.059
				c0.012,1.115,0.243,2.216,0.679,3.242c0.78,2.141,2.467,3.828,4.608,4.608c1.027,0.438,2.13,0.67,3.246,0.684
				c2.259-0.034,4.422-0.918,6.059-2.475c0.752-0.831,1.358-1.783,1.792-2.817c0.478-1.012,0.712-2.123,0.683-3.242
				c-0.033-2.259-0.917-4.422-2.475-6.059C88.935,247.524,85.268,246.816,82.088,248.146z"/>
			<path d="M122.708,248.146c-3.179-1.33-6.845-0.622-9.3,1.795c-1.559,1.635-2.443,3.799-2.475,6.059
				c0.012,1.115,0.243,2.216,0.679,3.242c0.434,1.034,1.041,1.987,1.796,2.817c1.636,1.558,3.8,2.441,6.059,2.475
				c1.115-0.014,2.216-0.246,3.242-0.683c2.143-0.777,3.831-2.465,4.608-4.608c0.438-1.026,0.67-2.127,0.684-3.242
				c-0.033-2.259-0.917-4.422-2.475-6.059C124.695,249.187,123.743,248.58,122.708,248.146z"/>
			<path d="M395.806,248.069c-3.202-1.329-6.89-0.59-9.331,1.872c-0.341,0.425-0.683,0.85-1.025,1.279
				c-0.323,0.475-0.582,0.991-0.771,1.533c-0.245,0.484-0.417,1.002-0.508,1.537c-0.1,0.564-0.157,1.136-0.171,1.709
				c0.012,1.115,0.243,2.216,0.679,3.242c0.434,1.034,1.041,1.987,1.795,2.817c1.636,1.558,3.8,2.441,6.059,2.475
				c2.262-0.018,4.431-0.904,6.059-2.475c0.752-0.831,1.358-1.783,1.792-2.817c0.437-1.026,0.669-2.127,0.683-3.242
				C401.087,252.533,399.008,249.399,395.806,248.069z"/>
			<path d="M432.725,249.941c-2.477-2.379-6.12-3.082-9.305-1.795c-1.033,0.434-1.984,1.041-2.813,1.795
				c-1.559,1.635-2.443,3.799-2.475,6.059c0.012,1.115,0.243,2.216,0.679,3.242c0.78,2.141,2.467,3.828,4.608,4.608
				c1.027,0.438,2.13,0.67,3.246,0.684c2.259-0.034,4.422-0.918,6.059-2.475c0.752-0.831,1.358-1.783,1.792-2.817
				c0.437-1.026,0.669-2.127,0.683-3.242C435.167,253.741,434.283,251.578,432.725,249.941z"/>
			<path d="M464.072,248.069c-3.202-1.329-6.89-0.59-9.331,1.872c-1.559,1.635-2.443,3.799-2.475,6.059
				c0.012,1.115,0.243,2.216,0.679,3.242c0.434,1.034,1.041,1.987,1.796,2.817c3.365,3.3,8.752,3.3,12.117,0
				c0.752-0.831,1.358-1.783,1.792-2.817c0.438-1.026,0.67-2.127,0.683-3.242C469.354,252.533,467.274,249.399,464.072,248.069z"/>
			<path d="M59.563,288.425c-0.095-0.535-0.268-1.053-0.513-1.537c-0.188-0.543-0.448-1.058-0.771-1.533
				c-0.338-0.429-0.679-0.854-1.021-1.279c-2.453-2.425-6.125-3.133-9.304-1.796c-1.044,0.413-1.999,1.023-2.813,1.796
				c-1.559,1.635-2.443,3.799-2.475,6.059c0.013,0.572,0.071,1.141,0.171,1.704c0.091,0.535,0.263,1.053,0.508,1.537
				c0.188,0.544,0.447,1.062,0.771,1.538c0.316,0.447,0.658,0.874,1.025,1.279c0.815,0.771,1.77,1.379,2.813,1.792
				c1.027,0.438,2.13,0.67,3.246,0.683c2.259-0.034,4.422-0.918,6.059-2.475c0.341-0.429,0.683-0.854,1.021-1.279
				c0.324-0.476,0.583-0.993,0.771-1.538c0.245-0.485,0.418-1.003,0.512-1.538c0.098-0.563,0.155-1.133,0.171-1.704
				C59.714,289.561,59.657,288.99,59.563,288.425z"/>
			<path d="M90.112,283.05c-0.476-0.324-0.993-0.583-1.538-0.771c-0.484-0.246-1.002-0.417-1.537-0.508
				c-2.808-0.531-5.699,0.327-7.763,2.304c-1.559,1.635-2.443,3.799-2.475,6.059c0.014,0.572,0.071,1.141,0.171,1.704
				c0.091,0.535,0.263,1.053,0.508,1.537c0.187,0.544,0.447,1.062,0.771,1.538c0.341,0.425,0.683,0.85,1.025,1.279
				c1.636,1.558,3.8,2.441,6.058,2.475c0.571-0.016,1.141-0.073,1.704-0.171c0.535-0.095,1.053-0.268,1.537-0.513
				c0.544-0.188,1.062-0.447,1.538-0.771c0.425-0.338,0.85-0.679,1.279-1.021c0.341-0.429,0.683-0.854,1.021-1.279
				c0.324-0.476,0.583-0.993,0.771-1.538c0.245-0.485,0.418-1.003,0.513-1.537c0.098-0.563,0.155-1.133,0.171-1.704
				c-0.033-2.259-0.917-4.422-2.475-6.059C90.963,283.733,90.537,283.392,90.112,283.05z"/>
			<path d="M122.708,282.279c-2.079-0.85-4.409-0.85-6.487,0c-1.044,0.413-1.999,1.023-2.813,1.796
				c-1.559,1.635-2.443,3.799-2.475,6.059c0.013,0.572,0.071,1.141,0.171,1.704c0.091,0.535,0.263,1.053,0.508,1.537
				c0.188,0.544,0.447,1.062,0.771,1.538c0.316,0.447,0.658,0.874,1.025,1.279c0.815,0.771,1.77,1.379,2.813,1.792
				c2.067,0.911,4.421,0.911,6.487,0c1.044-0.414,1.999-1.022,2.817-1.792c0.366-0.405,0.707-0.833,1.021-1.279
				c0.324-0.476,0.583-0.993,0.771-1.538c0.245-0.485,0.418-1.003,0.513-1.537c0.098-0.563,0.155-1.133,0.171-1.705
				c-0.033-2.259-0.917-4.422-2.475-6.059C124.709,283.303,123.753,282.693,122.708,282.279z"/>
			<path d="M397.313,283.05c-0.476-0.324-0.993-0.583-1.538-0.771c-0.484-0.246-1.002-0.417-1.537-0.508
				c-2.808-0.531-5.699,0.327-7.763,2.304c-1.559,1.635-2.443,3.799-2.475,6.059c0.014,0.572,0.071,1.141,0.171,1.704
				c0.091,0.535,0.263,1.053,0.508,1.537c0.188,0.544,0.447,1.062,0.771,1.538c0.341,0.425,0.683,0.85,1.025,1.279
				c1.636,1.558,3.8,2.441,6.058,2.475c0.571-0.016,1.141-0.073,1.704-0.171c0.535-0.095,1.053-0.268,1.537-0.513
				c0.544-0.188,1.062-0.447,1.538-0.771c0.425-0.338,0.85-0.679,1.279-1.021c0.341-0.429,0.683-0.854,1.021-1.279
				c0.324-0.476,0.583-0.993,0.771-1.538c0.245-0.485,0.418-1.003,0.513-1.537c0.098-0.563,0.155-1.133,0.171-1.704
				c-0.033-2.259-0.917-4.422-2.475-6.059C398.163,283.733,397.737,283.392,397.313,283.05z"/>
			<path d="M432.725,284.075c-0.816-0.772-1.772-1.382-2.817-1.796c-2.079-0.85-4.409-0.85-6.487,0
				c-1.044,0.413-1.999,1.023-2.813,1.796c-1.559,1.635-2.443,3.799-2.475,6.059c0.013,0.572,0.071,1.141,0.171,1.704
				c0.091,0.535,0.263,1.053,0.508,1.537c0.187,0.544,0.447,1.062,0.771,1.538c0.316,0.447,0.658,0.874,1.025,1.279
				c0.815,0.771,1.77,1.379,2.813,1.792c2.067,0.911,4.421,0.911,6.487,0c1.044-0.414,1.999-1.022,2.817-1.792
				c0.366-0.405,0.707-0.833,1.021-1.279c0.324-0.476,0.583-0.993,0.771-1.538c0.245-0.485,0.418-1.003,0.512-1.537
				c0.098-0.563,0.156-1.133,0.171-1.705C435.167,287.874,434.283,285.711,432.725,284.075z"/>
			<path d="M465.579,283.05c-0.476-0.324-0.993-0.583-1.537-0.771c-0.484-0.246-1.002-0.417-1.537-0.508
				c-2.81-0.574-5.721,0.29-7.763,2.304c-1.559,1.635-2.443,3.799-2.475,6.059c0.014,0.572,0.071,1.141,0.171,1.704
				c0.091,0.535,0.263,1.053,0.508,1.537c0.188,0.544,0.447,1.062,0.771,1.538c0.341,0.425,0.683,0.85,1.025,1.279
				c1.636,1.558,3.8,2.441,6.059,2.475c0.571-0.016,1.141-0.073,1.704-0.171c0.535-0.095,1.053-0.268,1.537-0.513
				c0.544-0.188,1.062-0.447,1.537-0.771c0.425-0.338,0.85-0.679,1.279-1.021c0.341-0.429,0.683-0.854,1.021-1.279
				c0.324-0.476,0.583-0.993,0.771-1.538c0.245-0.485,0.418-1.003,0.513-1.537c0.098-0.563,0.155-1.133,0.171-1.704
				c-0.033-2.259-0.917-4.422-2.475-6.059C466.429,283.733,466.004,283.392,465.579,283.05z"/>
			<path d="M59.05,321.021c-0.413-1.043-1.021-1.997-1.791-2.813c-0.83-0.754-1.782-1.362-2.817-1.796
				c-2.079-0.85-4.409-0.85-6.487,0c-1.033,0.434-1.985,1.041-2.813,1.796c-0.773,0.814-1.383,1.769-1.796,2.813
				c-0.437,1.027-0.667,2.13-0.679,3.246c0.013,0.572,0.071,1.141,0.171,1.704c0.091,0.535,0.263,1.053,0.508,1.537
				c0.17,0.525,0.431,1.015,0.771,1.45c0.341,0.513,0.683,0.938,1.025,1.367c0.83,0.752,1.781,1.358,2.813,1.792
				c2.067,0.911,4.421,0.911,6.487,0c1.033-0.434,1.986-1.04,2.817-1.792c0.341-0.429,0.683-0.854,1.021-1.367
				c0.34-0.435,0.601-0.925,0.771-1.45c0.245-0.485,0.418-1.003,0.512-1.538c0.098-0.563,0.155-1.133,0.171-1.704
				C59.72,323.15,59.488,322.048,59.05,321.021z"/>
			<path d="M88.575,316.413c-3.187-1.242-6.805-0.544-9.3,1.795c-0.754,0.828-1.362,1.78-1.796,2.813
				c-0.436,1.027-0.667,2.13-0.679,3.246c0.014,0.572,0.071,1.141,0.171,1.704c0.091,0.535,0.263,1.053,0.508,1.537
				c0.17,0.525,0.431,1.015,0.771,1.45c0.341,0.513,0.683,0.938,1.025,1.367c1.636,1.558,3.8,2.441,6.058,2.475
				c1.115-0.014,2.216-0.246,3.242-0.683c1.044-0.414,1.999-1.022,2.817-1.792c0.341-0.429,0.683-0.854,1.021-1.367
				c0.34-0.435,0.601-0.925,0.771-1.45c0.245-0.485,0.418-1.003,0.513-1.537c0.098-0.563,0.155-1.133,0.171-1.704
				c-0.033-2.259-0.917-4.422-2.475-6.059C90.576,317.436,89.62,316.826,88.575,316.413z"/>
			<path d="M125.525,318.208c-2.478-2.378-6.12-3.081-9.304-1.796c-1.033,0.434-1.985,1.041-2.813,1.796
				c-0.773,0.814-1.383,1.769-1.796,2.813c-0.436,1.027-0.667,2.13-0.679,3.246c0.013,0.572,0.071,1.141,0.171,1.704
				c0.091,0.535,0.263,1.053,0.508,1.537c0.17,0.525,0.431,1.015,0.771,1.45c0.293,0.49,0.636,0.949,1.025,1.367
				c0.83,0.752,1.781,1.358,2.813,1.792c1.027,0.438,2.13,0.67,3.246,0.683c0.571-0.016,1.141-0.073,1.704-0.171
				c0.535-0.095,1.053-0.268,1.537-0.513c0.544-0.187,1.062-0.447,1.538-0.771c0.425-0.338,0.85-0.679,1.279-1.021
				c0.341-0.429,0.683-0.854,1.021-1.367c0.34-0.435,0.601-0.925,0.771-1.45c0.245-0.485,0.418-1.003,0.513-1.537
				c0.098-0.563,0.155-1.133,0.171-1.704c-0.013-1.116-0.245-2.219-0.683-3.246C126.904,319.978,126.296,319.023,125.525,318.208z"
				/>
			<path d="M398.592,318.208c-0.83-0.754-1.783-1.362-2.817-1.796c-2.079-0.85-4.409-0.85-6.487,0
				c-1.033,0.434-1.985,1.041-2.813,1.796c-0.773,0.814-1.383,1.769-1.796,2.813c-0.436,1.027-0.667,2.13-0.679,3.246
				c0.014,0.572,0.071,1.141,0.171,1.704c0.091,0.535,0.263,1.053,0.508,1.537c0.17,0.525,0.431,1.015,0.771,1.45
				c0.341,0.513,0.683,0.938,1.025,1.367c0.83,0.752,1.781,1.358,2.813,1.792c2.067,0.911,4.421,0.911,6.487,0
				c1.033-0.434,1.986-1.04,2.817-1.792c0.341-0.429,0.683-0.854,1.021-1.367c0.34-0.435,0.601-0.925,0.771-1.45
				c0.245-0.485,0.418-1.003,0.513-1.537c0.098-0.563,0.155-1.133,0.171-1.704c-0.013-1.116-0.245-2.219-0.683-3.246
				C399.97,319.978,399.362,319.023,398.592,318.208z"/>
			<path d="M432.725,318.208c-0.816-0.772-1.772-1.382-2.817-1.795c-3.187-1.242-6.805-0.544-9.3,1.795
				c-0.754,0.828-1.362,1.78-1.796,2.813c-0.436,1.027-0.667,2.13-0.679,3.246c0.013,0.572,0.071,1.141,0.171,1.704
				c0.091,0.535,0.263,1.053,0.508,1.537c0.17,0.525,0.431,1.015,0.771,1.45c0.341,0.513,0.683,0.938,1.025,1.367
				c1.636,1.558,3.8,2.441,6.058,2.475c1.115-0.014,2.216-0.246,3.242-0.683c1.044-0.414,1.999-1.022,2.817-1.792
				c0.341-0.429,0.683-0.854,1.021-1.367c0.34-0.435,0.601-0.925,0.771-1.45c0.245-0.485,0.418-1.003,0.513-1.537
				c0.098-0.563,0.155-1.133,0.171-1.704C435.167,322.008,434.283,319.844,432.725,318.208z"/>
			<path d="M466.859,318.208c-2.478-2.378-6.12-3.081-9.304-1.796c-1.033,0.434-1.985,1.041-2.813,1.796
				c-0.773,0.814-1.383,1.769-1.796,2.813c-0.437,1.027-0.667,2.13-0.679,3.246c0.014,0.572,0.071,1.141,0.171,1.704
				c0.091,0.535,0.263,1.053,0.508,1.537c0.17,0.525,0.431,1.015,0.771,1.45c0.293,0.49,0.636,0.949,1.025,1.367
				c0.83,0.752,1.781,1.358,2.813,1.792c1.027,0.438,2.13,0.67,3.246,0.683c0.571-0.016,1.141-0.073,1.704-0.171
				c0.535-0.095,1.053-0.268,1.537-0.513c0.544-0.187,1.062-0.447,1.537-0.771c0.425-0.338,0.85-0.679,1.279-1.021
				c0.341-0.429,0.683-0.854,1.021-1.367c0.34-0.435,0.601-0.925,0.771-1.45c0.245-0.485,0.418-1.003,0.513-1.537
				c0.098-0.563,0.155-1.133,0.171-1.704c-0.013-1.116-0.245-2.219-0.683-3.246C468.237,319.978,467.629,319.023,466.859,318.208z"
				/>
			<path d="M57.258,352.342c-0.405-0.367-0.833-0.709-1.279-1.025c-0.476-0.324-0.993-0.583-1.538-0.771
				c-0.484-0.246-1.002-0.417-1.537-0.508c-1.663-0.348-3.393-0.171-4.95,0.508c-1.044,0.413-1.999,1.023-2.813,1.796
				c-1.559,1.635-2.443,3.799-2.475,6.059c0.018,0.571,0.075,1.141,0.171,1.704c0.091,0.535,0.263,1.053,0.508,1.537
				c0.17,0.525,0.431,1.015,0.771,1.45c0.341,0.512,0.683,0.938,1.025,1.367c0.815,0.77,1.77,1.379,2.813,1.792
				c1.027,0.438,2.13,0.67,3.246,0.683c0.571-0.016,1.141-0.073,1.704-0.171c0.535-0.095,1.053-0.268,1.537-0.513
				c0.544-0.187,1.062-0.447,1.538-0.771c0.425-0.338,0.85-0.679,1.279-1.021C60.558,361.094,60.558,355.707,57.258,352.342z"/>
			<path d="M82.088,350.546c-1.033,0.434-1.984,1.041-2.813,1.796c-3.3,3.365-3.3,8.752,0,12.117
				c0.83,0.752,1.781,1.358,2.813,1.792c2.067,0.911,4.421,0.911,6.487,0c1.033-0.434,1.986-1.04,2.817-1.792
				c0.387-0.418,0.73-0.877,1.021-1.367c0.34-0.435,0.601-0.925,0.771-1.45c0.245-0.485,0.418-1.003,0.513-1.537
				c0.094-0.564,0.151-1.133,0.171-1.704c-0.033-2.259-0.917-4.422-2.475-6.059C88.915,349.962,85.272,349.259,82.088,350.546z"/>
			<path d="M124.246,351.317c-0.476-0.324-0.993-0.583-1.538-0.771c-0.508-0.258-1.056-0.43-1.621-0.508
				c-1.095-0.258-2.235-0.258-3.329,0c-0.535,0.091-1.053,0.263-1.537,0.508c-0.543,0.188-1.058,0.448-1.533,0.771
				c-0.448,0.313-0.876,0.656-1.279,1.025c-1.559,1.635-2.443,3.799-2.475,6.059c0.018,0.571,0.075,1.141,0.171,1.704
				c0.091,0.535,0.263,1.053,0.508,1.537c0.17,0.525,0.431,1.015,0.771,1.45c0.341,0.512,0.683,0.938,1.025,1.367
				c0.425,0.341,0.85,0.683,1.279,1.021c0.475,0.323,0.991,0.582,1.533,0.771c0.485,0.245,1.003,0.418,1.537,0.513
				c0.565,0.094,1.136,0.151,1.709,0.171c2.259-0.034,4.422-0.918,6.059-2.475c0.341-0.429,0.683-0.854,1.021-1.367
				c0.34-0.435,0.601-0.925,0.771-1.45c0.245-0.485,0.418-1.003,0.513-1.537c0.094-0.564,0.151-1.133,0.17-1.705
				c-0.033-2.259-0.917-4.422-2.475-6.059C125.12,351.974,124.693,351.632,124.246,351.317z"/>
			<path d="M387.754,365.479c0.475,0.323,0.991,0.582,1.533,0.771c0.485,0.245,1.003,0.418,1.537,0.513
				c0.565,0.099,1.136,0.156,1.709,0.171c1.115-0.014,2.216-0.246,3.242-0.683c1.044-0.414,1.999-1.022,2.817-1.792
				c0.387-0.418,0.73-0.877,1.021-1.367c0.34-0.435,0.601-0.925,0.771-1.45c0.245-0.485,0.418-1.003,0.513-1.537
				c0.228-1.126,0.228-2.286,0-3.413c-0.095-0.535-0.268-1.052-0.513-1.537c-0.188-0.543-0.448-1.058-0.771-1.533
				c-0.312-0.448-0.653-0.876-1.021-1.279c-0.816-0.772-1.772-1.382-2.817-1.796c-1.557-0.679-3.287-0.857-4.95-0.508
				c-0.535,0.091-1.053,0.263-1.537,0.508c-0.543,0.188-1.058,0.448-1.533,0.771c-0.448,0.314-0.876,0.656-1.28,1.025
				c-3.3,3.365-3.3,8.752,0,12.117C386.9,364.799,387.325,365.141,387.754,365.479z"/>
			<path d="M432.725,352.341c-0.406-0.367-0.833-0.709-1.279-1.025c-0.476-0.324-0.993-0.583-1.538-0.771
				c-0.484-0.246-1.002-0.417-1.537-0.508c-1.093-0.258-2.232-0.258-3.325,0c-0.566,0.078-1.115,0.25-1.625,0.508
				c-0.543,0.188-1.058,0.448-1.533,0.771c-0.448,0.313-0.876,0.656-1.279,1.025c-1.559,1.635-2.443,3.799-2.475,6.059
				c0.018,0.571,0.075,1.141,0.171,1.704c0.091,0.535,0.263,1.053,0.508,1.537c0.17,0.525,0.431,1.015,0.771,1.45
				c0.341,0.512,0.683,0.938,1.025,1.367c1.636,1.558,3.8,2.441,6.058,2.475c0.571-0.02,1.14-0.077,1.704-0.171
				c0.535-0.095,1.053-0.268,1.537-0.513c0.544-0.187,1.062-0.447,1.538-0.771c0.425-0.338,0.85-0.679,1.279-1.021
				c0.341-0.429,0.683-0.854,1.021-1.367c0.34-0.435,0.601-0.925,0.771-1.45c0.245-0.485,0.418-1.003,0.513-1.537
				c0.094-0.564,0.151-1.133,0.171-1.704C435.167,356.141,434.283,353.978,432.725,352.341z"/>
			<path d="M453.716,363.092c0.293,0.49,0.636,0.949,1.025,1.367c0.83,0.752,1.781,1.358,2.813,1.792
				c2.066,0.911,4.421,0.911,6.487,0c1.033-0.434,1.986-1.04,2.817-1.792c3.3-3.365,3.3-8.752,0-12.117
				c-2.473-2.387-6.12-3.091-9.304-1.796c-1.033,0.434-1.984,1.041-2.813,1.796c-1.559,1.635-2.443,3.799-2.475,6.059
				c0.018,0.571,0.075,1.141,0.171,1.704c0.091,0.535,0.263,1.053,0.508,1.537C453.116,362.166,453.377,362.657,453.716,363.092z"/>
			<path d="M54.442,384.679c-3.178-1.338-6.849-0.629-9.301,1.796c-0.773,0.814-1.383,1.769-1.796,2.813
				c-0.437,1.027-0.667,2.13-0.679,3.246c-0.022,2.27,0.87,4.453,2.475,6.058c1.605,1.605,3.788,2.497,6.058,2.475
				c2.27,0.022,4.453-0.87,6.058-2.475c1.605-1.605,2.497-3.788,2.475-6.058c-0.013-1.116-0.245-2.219-0.683-3.246
				c-0.434-1.032-1.04-1.983-1.791-2.813C56.443,385.702,55.487,385.093,54.442,384.679z"/>
			<path d="M91.392,386.475c-0.429-0.341-0.854-0.683-1.279-1.025c-0.476-0.324-0.993-0.583-1.538-0.771
				c-0.484-0.245-1.002-0.417-1.537-0.508c-1.131-0.171-2.281-0.171-3.413,0c-0.535,0.091-1.053,0.263-1.537,0.508
				c-0.543,0.188-1.058,0.448-1.533,0.771c-0.429,0.341-0.854,0.683-1.279,1.025c-0.773,0.814-1.383,1.769-1.796,2.813
				c-0.437,1.027-0.668,2.13-0.68,3.246c0.032,2.259,0.916,4.423,2.475,6.059c0.425,0.341,0.85,0.683,1.279,1.021
				c0.475,0.323,0.991,0.582,1.533,0.771c0.485,0.245,1.003,0.418,1.538,0.512c0.565,0.094,1.136,0.151,1.708,0.171
				c0.571-0.02,1.141-0.077,1.704-0.171c0.535-0.095,1.053-0.268,1.537-0.512c0.544-0.188,1.062-0.447,1.538-0.771
				c0.425-0.337,0.85-0.679,1.279-1.021c1.557-1.637,2.441-3.8,2.475-6.059c-0.013-1.116-0.245-2.219-0.683-3.246
				C92.77,388.245,92.162,387.29,91.392,386.475z"/>
			<path d="M125.525,386.475c-0.83-0.754-1.782-1.362-2.817-1.796c-2.079-0.85-4.409-0.85-6.487,0
				c-2.139,0.784-3.824,2.469-4.608,4.608c-0.437,1.027-0.668,2.13-0.68,3.246c0.032,2.259,0.916,4.423,2.475,6.059
				c0.83,0.752,1.781,1.358,2.813,1.792c1.014,0.479,2.126,0.712,3.246,0.683c2.27,0.022,4.453-0.87,6.058-2.475
				c1.605-1.605,2.497-3.788,2.475-6.058c0.03-1.12-0.205-2.232-0.683-3.246C126.883,388.255,126.277,387.305,125.525,386.475z"/>
			<path d="M147.541,398.592c1.636,1.558,3.8,2.441,6.059,2.475c1.119,0.029,2.229-0.205,3.242-0.683
				c1.033-0.434,1.986-1.04,2.817-1.792c1.557-1.637,2.441-3.799,2.475-6.058c-0.013-1.116-0.245-2.219-0.683-3.246
				c-0.434-1.032-1.04-1.983-1.791-2.813c-0.83-0.754-1.782-1.362-2.817-1.796c-2.079-0.85-4.409-0.85-6.487,0
				c-1.033,0.434-1.985,1.041-2.813,1.796c-0.773,0.814-1.383,1.769-1.796,2.813c-0.906,2.068-0.906,4.42,0,6.487
				C146.159,396.819,146.769,397.776,147.541,398.592z"/>
			<path d="M195.583,389.288c-0.434-1.032-1.04-1.983-1.791-2.813c-0.429-0.341-0.854-0.683-1.279-1.025
				c-0.476-0.324-0.993-0.583-1.538-0.771c-0.484-0.245-1.002-0.417-1.537-0.508c-1.131-0.171-2.281-0.171-3.413,0
				c-0.535,0.091-1.053,0.263-1.537,0.508c-0.543,0.188-1.058,0.448-1.533,0.771c-0.429,0.341-0.854,0.683-1.279,1.025
				c-0.773,0.814-1.383,1.769-1.796,2.813c-0.437,1.027-0.668,2.13-0.68,3.246c0.032,2.259,0.916,4.423,2.475,6.059
				c0.425,0.341,0.85,0.683,1.279,1.021c0.475,0.323,0.991,0.582,1.533,0.771c0.485,0.245,1.003,0.418,1.537,0.513
				c1.126,0.228,2.286,0.228,3.413,0c0.535-0.095,1.053-0.268,1.537-0.513c0.544-0.187,1.062-0.447,1.538-0.771
				c0.425-0.337,0.85-0.679,1.279-1.021c1.557-1.637,2.441-3.8,2.475-6.059C196.253,391.417,196.021,390.314,195.583,389.288z"/>
			<path d="M227.925,386.475c-2.461-2.41-6.123-3.117-9.304-1.796c-1.044,0.413-1.999,1.023-2.813,1.796
				c-0.754,0.828-1.362,1.78-1.796,2.813c-0.436,1.027-0.667,2.13-0.679,3.246c0,4.713,3.82,8.533,8.533,8.533
				s8.533-3.821,8.533-8.533c-0.013-1.116-0.245-2.219-0.683-3.246C229.304,388.245,228.696,387.29,227.925,386.475z"/>
			<path d="M262.059,386.475c-0.816-0.772-1.772-1.382-2.817-1.796c-2.079-0.85-4.409-0.85-6.487,0
				c-1.033,0.434-1.985,1.041-2.813,1.796c-0.773,0.814-1.383,1.769-1.796,2.813c-0.906,2.068-0.906,4.42,0,6.487
				c0.414,1.045,1.023,2.001,1.796,2.817c0.83,0.752,1.781,1.358,2.813,1.792c1.014,0.479,2.126,0.712,3.246,0.683
				c2.27,0.022,4.453-0.87,6.058-2.475s2.497-3.788,2.475-6.058c-0.013-1.116-0.245-2.219-0.683-3.246
				C263.416,388.255,262.81,387.305,262.059,386.475z"/>
			<path d="M296.192,386.475c-0.429-0.341-0.854-0.683-1.367-1.025c-0.435-0.34-0.925-0.601-1.45-0.771
				c-0.484-0.245-1.002-0.417-1.537-0.508c-1.131-0.171-2.281-0.171-3.413,0c-0.535,0.091-1.053,0.263-1.537,0.508
				c-0.543,0.188-1.058,0.448-1.533,0.771c-0.429,0.341-0.854,0.683-1.279,1.025c-0.754,0.828-1.362,1.78-1.796,2.813
				c-0.437,1.027-0.668,2.13-0.68,3.246c0.032,2.259,0.916,4.423,2.475,6.059c0.425,0.341,0.85,0.683,1.279,1.021
				c0.475,0.323,0.991,0.582,1.533,0.771c0.485,0.245,1.003,0.418,1.537,0.513c1.126,0.228,2.286,0.228,3.413,0
				c0.535-0.095,1.053-0.268,1.537-0.513c0.525-0.17,1.015-0.431,1.45-0.771c0.513-0.337,0.938-0.679,1.367-1.021
				c1.557-1.637,2.441-3.8,2.475-6.059c-0.013-1.116-0.245-2.219-0.683-3.246C297.549,388.255,296.944,387.305,296.192,386.475z"/>
			<path d="M332.117,389.288c-0.434-1.032-1.04-1.983-1.791-2.813c-0.429-0.341-0.854-0.683-1.279-1.025
				c-0.476-0.324-0.993-0.583-1.538-0.771c-0.484-0.245-1.002-0.417-1.537-0.508c-1.663-0.348-3.393-0.171-4.95,0.508
				c-1.044,0.413-1.999,1.023-2.813,1.796c-0.754,0.828-1.362,1.78-1.796,2.813c-0.436,1.027-0.667,2.13-0.679,3.246
				c-0.022,2.27,0.87,4.453,2.475,6.058c1.605,1.605,3.788,2.497,6.058,2.475c0.571-0.016,1.141-0.073,1.704-0.171
				c0.535-0.095,1.053-0.268,1.537-0.512c0.544-0.188,1.062-0.447,1.538-0.771c0.425-0.337,0.85-0.679,1.279-1.021
				c1.557-1.637,2.441-3.8,2.475-6.059C332.787,391.417,332.555,390.314,332.117,389.288z"/>
			<path d="M350.546,389.287c-0.437,1.027-0.668,2.13-0.68,3.246c0.022,3.852,2.622,7.211,6.345,8.198
				c3.723,0.988,7.646-0.641,9.575-3.975c1.929-3.334,1.385-7.547-1.328-10.282c-2.457-2.417-6.124-3.125-9.305-1.795
				C353.015,385.463,351.33,387.148,350.546,389.287z"/>
			<path d="M398.592,386.475c-0.816-0.772-1.772-1.382-2.817-1.796c-1.557-0.679-3.287-0.857-4.95-0.508
				c-0.535,0.091-1.053,0.263-1.537,0.508c-0.543,0.188-1.058,0.448-1.533,0.771c-0.429,0.341-0.854,0.683-1.279,1.025
				c-0.754,0.828-1.362,1.78-1.796,2.813c-0.437,1.027-0.667,2.13-0.679,3.246c0.032,2.259,0.916,4.423,2.475,6.059
				c0.425,0.341,0.85,0.683,1.279,1.021c0.475,0.323,0.991,0.582,1.533,0.771c0.485,0.245,1.003,0.418,1.537,0.513
				c0.565,0.098,1.136,0.155,1.709,0.171c2.27,0.022,4.453-0.87,6.058-2.475s2.497-3.788,2.475-6.058
				c-0.013-1.116-0.245-2.219-0.683-3.246C399.949,388.255,399.344,387.305,398.592,386.475z"/>
			<path d="M432.725,386.475c-0.429-0.341-0.854-0.683-1.279-1.025c-0.476-0.324-0.993-0.583-1.538-0.771
				c-0.484-0.245-1.002-0.417-1.537-0.508c-1.131-0.171-2.281-0.171-3.413,0c-0.535,0.091-1.053,0.263-1.537,0.508
				c-0.524,0.172-1.014,0.433-1.45,0.771c-0.512,0.341-0.938,0.683-1.362,1.025c-0.754,0.828-1.362,1.78-1.796,2.813
				c-0.437,1.027-0.668,2.13-0.68,3.246c0.032,2.259,0.916,4.423,2.475,6.059c0.425,0.341,0.85,0.683,1.362,1.021
				c0.436,0.338,0.926,0.599,1.45,0.771c0.485,0.245,1.003,0.418,1.537,0.513c1.126,0.228,2.286,0.228,3.413,0
				c0.535-0.095,1.053-0.268,1.537-0.513c0.544-0.187,1.062-0.447,1.538-0.771c0.425-0.337,0.85-0.679,1.279-1.021
				c1.557-1.637,2.441-3.8,2.475-6.059c-0.013-1.116-0.245-2.219-0.683-3.246C434.083,388.255,433.477,387.305,432.725,386.475z"/>
			<path d="M466.859,386.475c-2.48-2.372-6.119-3.075-9.304-1.796c-2.139,0.784-3.824,2.469-4.608,4.608
				c-0.437,1.027-0.668,2.13-0.68,3.246c0.032,2.259,0.916,4.423,2.475,6.059c0.83,0.752,1.781,1.358,2.813,1.792
				c1.014,0.479,2.126,0.712,3.246,0.683c2.27,0.022,4.453-0.87,6.058-2.475s2.497-3.788,2.475-6.058
				c0.03-1.12-0.205-2.232-0.683-3.246C468.216,388.255,467.61,387.305,466.859,386.475z"/>
			<path d="M57.259,420.608c-3.421-3.158-8.695-3.158-12.117,0c-0.773,0.814-1.383,1.769-1.796,2.813
				c-0.906,2.068-0.906,4.42,0,6.487c0.414,1.045,1.023,2.001,1.795,2.817c1.636,1.558,3.8,2.441,6.059,2.475
				c0.544-0.016,1.086-0.073,1.621-0.171c0.565-0.082,1.112-0.255,1.621-0.513c0.525-0.17,1.015-0.431,1.45-0.771
				c0.513-0.338,0.938-0.679,1.367-1.021c0.77-0.817,1.378-1.773,1.792-2.817c0.911-2.067,0.911-4.421,0-6.487
				C58.637,422.378,58.029,421.423,57.259,420.608z"/>
			<path d="M91.392,420.608c-0.405-0.367-0.833-0.709-1.279-1.025c-0.476-0.324-0.993-0.583-1.538-0.771
				c-0.484-0.246-1.002-0.417-1.537-0.508c-1.123-0.258-2.29-0.258-3.413,0c-0.535,0.091-1.053,0.263-1.537,0.508
				c-0.543,0.188-1.058,0.448-1.533,0.771c-0.448,0.314-0.876,0.656-1.28,1.025c-0.773,0.814-1.383,1.769-1.796,2.813
				c-0.436,1.027-0.667,2.13-0.679,3.246c0.032,2.259,0.916,4.423,2.475,6.059c0.425,0.341,0.85,0.683,1.279,1.021
				c0.475,0.323,0.991,0.582,1.533,0.771c0.485,0.245,1.003,0.418,1.538,0.512c0.565,0.094,1.136,0.151,1.708,0.171
				c0.571-0.02,1.141-0.077,1.704-0.171c0.535-0.095,1.053-0.268,1.537-0.513c0.544-0.187,1.062-0.447,1.538-0.771
				c0.425-0.338,0.85-0.679,1.279-1.021c1.557-1.637,2.441-3.8,2.475-6.058c0.03-1.121-0.205-2.232-0.683-3.246
				C92.77,422.378,92.162,421.423,91.392,420.608z"/>
			<path d="M125.525,420.608c-0.83-0.754-1.782-1.362-2.817-1.796c-2.076-0.923-4.44-0.952-6.538-0.08
				c-2.098,0.871-3.746,2.566-4.558,4.688c-0.437,1.027-0.668,2.13-0.68,3.247c-0.022,2.27,0.87,4.453,2.475,6.058
				c1.605,1.605,3.788,2.497,6.058,2.475c1.115-0.014,2.216-0.246,3.242-0.683c1.033-0.434,1.986-1.04,2.817-1.792
				c1.557-1.637,2.441-3.799,2.475-6.058c-0.013-1.116-0.245-2.219-0.683-3.246C126.904,422.378,126.296,421.423,125.525,420.608z"
				/>
			<path d="M147.542,420.608c-0.754,0.828-1.362,1.78-1.796,2.813c-0.437,1.027-0.668,2.13-0.68,3.246
				c0.032,2.259,0.916,4.423,2.475,6.059c0.83,0.752,1.781,1.358,2.813,1.792c1.027,0.438,2.13,0.67,3.246,0.683
				c2.27,0.022,4.453-0.87,6.058-2.475c1.605-1.605,2.497-3.789,2.475-6.058c-0.013-1.116-0.245-2.219-0.683-3.246
				c-0.434-1.032-1.04-1.983-1.791-2.813C156.262,417.387,150.939,417.387,147.542,420.608z"/>
			<path d="M192.513,419.583c-0.476-0.324-0.993-0.583-1.538-0.771c-0.484-0.246-1.002-0.417-1.537-0.508
				c-2.809-0.562-5.715,0.301-7.763,2.304c-0.773,0.814-1.383,1.769-1.796,2.813c-0.906,2.068-0.906,4.42,0,6.487
				c0.414,1.045,1.023,2.001,1.795,2.818c1.636,1.558,3.8,2.441,6.059,2.475c0.571-0.02,1.14-0.077,1.704-0.171
				c0.535-0.095,1.053-0.268,1.537-0.513c0.544-0.187,1.062-0.447,1.538-0.771c0.425-0.338,0.85-0.679,1.279-1.021
				c1.557-1.637,2.441-3.8,2.475-6.058c-0.013-1.116-0.245-2.219-0.683-3.246c-0.413-1.043-1.021-1.997-1.791-2.813
				C193.387,420.241,192.959,419.899,192.513,419.583z"/>
			<path d="M227.925,420.608c-2.072-1.966-4.958-2.822-7.767-2.304c-0.535,0.091-1.053,0.263-1.537,0.508
				c-0.543,0.188-1.058,0.448-1.533,0.771c-0.448,0.314-0.876,0.656-1.28,1.025c-0.773,0.814-1.383,1.769-1.796,2.813
				c-0.436,1.027-0.667,2.13-0.679,3.246c0.032,2.259,0.916,4.423,2.475,6.059c0.425,0.341,0.85,0.683,1.279,1.021
				c0.475,0.323,0.991,0.582,1.533,0.771c0.485,0.245,1.003,0.418,1.537,0.513c0.565,0.094,1.136,0.151,1.709,0.17
				c2.27,0.022,4.453-0.87,6.058-2.475c1.605-1.605,2.497-3.789,2.475-6.058c0.03-1.121-0.205-2.232-0.683-3.246
				C229.304,422.378,228.696,421.423,227.925,420.608z"/>
			<path d="M262.059,420.608c-3.397-3.221-8.72-3.221-12.117,0c-0.754,0.828-1.362,1.78-1.796,2.813
				c-0.437,1.027-0.668,2.13-0.68,3.246c0.032,2.259,0.916,4.423,2.475,6.059c0.815,0.771,1.77,1.379,2.813,1.792
				c1.027,0.438,2.13,0.67,3.246,0.683c2.27,0.022,4.453-0.87,6.058-2.475c1.605-1.605,2.497-3.789,2.475-6.058
				c-0.013-1.116-0.245-2.219-0.683-3.246C263.416,422.389,262.81,421.438,262.059,420.608z"/>
			<path d="M296.192,420.608c-0.816-0.772-1.772-1.382-2.817-1.796c-3.182-1.296-6.829-0.591-9.301,1.796
				c-0.754,0.828-1.362,1.78-1.796,2.813c-0.437,1.027-0.667,2.13-0.679,3.246c-0.022,2.27,0.87,4.453,2.475,6.058
				c1.605,1.605,3.788,2.497,6.058,2.475c1.115-0.014,2.216-0.246,3.242-0.683c1.044-0.414,1.999-1.022,2.817-1.792
				c1.557-1.637,2.441-3.799,2.475-6.058c-0.013-1.116-0.245-2.219-0.683-3.246C297.549,422.389,296.944,421.438,296.192,420.608z"
				/>
			<path d="M329.046,419.583c-0.476-0.324-0.993-0.583-1.538-0.771c-0.484-0.246-1.002-0.417-1.537-0.508
				c-2.809-0.562-5.715,0.301-7.763,2.304c-0.773,0.814-1.383,1.769-1.796,2.813c-0.906,2.068-0.906,4.42,0,6.487
				c0.414,1.045,1.023,2.001,1.795,2.818c1.636,1.558,3.8,2.441,6.059,2.475c0.571-0.02,1.141-0.077,1.704-0.171
				c0.535-0.095,1.053-0.268,1.537-0.513c0.544-0.187,1.062-0.447,1.538-0.771c0.425-0.338,0.85-0.679,1.279-1.021
				c1.557-1.637,2.441-3.8,2.475-6.058c-0.013-1.116-0.245-2.219-0.683-3.246c-0.413-1.043-1.021-1.997-1.791-2.813
				C329.92,420.241,329.493,419.899,329.046,419.583z"/>
			<path d="M364.459,420.608c-2.072-1.966-4.958-2.822-7.767-2.304c-0.535,0.091-1.053,0.263-1.537,0.508
				c-0.543,0.188-1.058,0.448-1.533,0.771c-0.448,0.314-0.876,0.656-1.28,1.025c-0.773,0.814-1.383,1.769-1.796,2.813
				c-0.437,1.027-0.667,2.13-0.679,3.246c0.032,2.259,0.916,4.423,2.475,6.059c0.425,0.341,0.85,0.683,1.279,1.021
				c0.475,0.323,0.991,0.582,1.533,0.771c0.485,0.245,1.003,0.418,1.537,0.513c0.565,0.094,1.136,0.151,1.709,0.17
				c2.27,0.022,4.453-0.87,6.058-2.475c1.605-1.605,2.497-3.789,2.475-6.058c0.03-1.121-0.204-2.232-0.683-3.246
				C365.837,422.378,365.229,421.423,364.459,420.608z"/>
			<path d="M398.592,420.608c-3.397-3.221-8.72-3.221-12.117,0c-0.754,0.828-1.362,1.78-1.796,2.813
				c-0.437,1.027-0.668,2.13-0.68,3.246c0.032,2.259,0.916,4.423,2.475,6.059c0.815,0.771,1.77,1.379,2.813,1.792
				c1.027,0.438,2.13,0.67,3.246,0.683c2.27,0.022,4.453-0.87,6.058-2.475c1.605-1.605,2.497-3.789,2.475-6.058
				c-0.013-1.116-0.245-2.219-0.683-3.246C399.949,422.389,399.344,421.438,398.592,420.608z"/>
			<path d="M423.421,434.517c1.027,0.438,2.13,0.67,3.246,0.683c2.27,0.022,4.453-0.87,6.058-2.475
				c1.605-1.605,2.497-3.789,2.475-6.058c-0.013-1.116-0.245-2.219-0.683-3.246c-0.413-1.043-1.021-1.997-1.791-2.813
				c-2.493-2.347-6.116-3.046-9.304-1.796c-1.033,0.434-1.985,1.041-2.813,1.796c-0.773,0.814-1.383,1.769-1.796,2.813
				c-0.436,1.027-0.667,2.13-0.679,3.246c0.032,2.259,0.916,4.423,2.475,6.059C421.438,433.477,422.389,434.083,423.421,434.517z"/>
			<path d="M466.859,420.608c-0.405-0.367-0.833-0.709-1.279-1.025c-0.476-0.324-0.993-0.583-1.538-0.771
				c-0.484-0.246-1.002-0.417-1.537-0.508c-1.123-0.258-2.29-0.258-3.413,0c-0.535,0.091-1.053,0.263-1.537,0.508
				c-0.543,0.188-1.058,0.448-1.533,0.771c-0.448,0.314-0.876,0.656-1.28,1.025c-0.773,0.814-1.383,1.769-1.796,2.813
				c-0.476,1.015-0.708,2.126-0.679,3.246c0.032,2.259,0.916,4.423,2.475,6.059c0.425,0.341,0.85,0.683,1.279,1.021
				c0.475,0.323,0.991,0.582,1.533,0.771c0.485,0.245,1.003,0.418,1.537,0.513c1.126,0.228,2.286,0.228,3.413,0
				c0.535-0.095,1.053-0.268,1.537-0.513c0.544-0.188,1.062-0.447,1.538-0.771c0.425-0.338,0.85-0.679,1.279-1.021
				c1.557-1.637,2.441-3.8,2.475-6.059c-0.013-1.116-0.245-2.219-0.683-3.246C468.237,422.378,467.629,421.423,466.859,420.608z"/>
			<path d="M54.442,452.946c-2.079-0.85-4.409-0.85-6.487,0c-1.044,0.413-1.999,1.023-2.813,1.796
				c-2.462,2.441-3.201,6.129-1.872,9.331c1.329,3.202,4.464,5.281,7.931,5.261c2.259-0.034,4.422-0.918,6.059-2.475
				c0.752-0.831,1.358-1.783,1.792-2.817c0.437-1.026,0.669-2.127,0.683-3.242c-0.033-2.259-0.917-4.422-2.475-6.059
				C56.442,453.969,55.486,453.36,54.442,452.946z"/>
			<path d="M82.088,452.946c-1.033,0.434-1.984,1.041-2.813,1.796c-2.461,2.441-3.201,6.129-1.872,9.331s4.464,5.281,7.931,5.261
				c0.571-0.02,1.141-0.077,1.704-0.171c0.535-0.095,1.053-0.267,1.537-0.512c0.544-0.188,1.062-0.447,1.538-0.771
				c0.425-0.337,0.85-0.679,1.279-1.021c0.752-0.831,1.358-1.783,1.792-2.817c0.478-1.012,0.712-2.123,0.683-3.242
				c-0.033-2.259-0.917-4.422-2.475-6.059C88.918,452.356,85.271,451.653,82.088,452.946z"/>
			<path d="M122.708,452.946c-3.182-1.294-6.828-0.59-9.3,1.796c-0.754,0.828-1.362,1.78-1.796,2.813
				c-0.906,2.068-0.906,4.42,0,6.487c0.434,1.034,1.041,1.987,1.796,2.817c0.425,0.341,0.85,0.683,1.279,1.021
				c0.475,0.323,0.991,0.582,1.533,0.771c0.485,0.245,1.003,0.418,1.537,0.513c0.565,0.094,1.136,0.151,1.709,0.171
				c3.45-0.014,6.556-2.096,7.879-5.282c1.323-3.187,0.606-6.856-1.82-9.31C124.709,453.969,123.753,453.36,122.708,452.946z"/>
			<path d="M156.842,452.946c-2.079-0.85-4.409-0.85-6.487,0c-1.044,0.413-1.999,1.023-2.813,1.796
				c-1.559,1.635-2.443,3.799-2.475,6.059c0.012,1.115,0.243,2.216,0.679,3.242c0.434,1.034,1.041,1.987,1.795,2.817
				c3.346,3.346,8.771,3.346,12.117,0c3.346-3.346,3.346-8.771,0-12.117C158.842,453.969,157.886,453.36,156.842,452.946z"/>
			<path d="M193.792,454.741c-3.397-3.221-8.72-3.221-12.117,0c-2.165,2.164-3.01,5.319-2.218,8.276s3.102,5.266,6.058,6.059
				c2.957,0.792,6.112-0.053,8.276-2.217c0.752-0.831,1.358-1.783,1.792-2.817c0.911-2.067,0.911-4.421,0-6.487
				C195.15,456.522,194.544,455.571,193.792,454.741z"/>
			<path d="M218.621,452.946c-1.044,0.413-1.999,1.023-2.813,1.796c-2.462,2.441-3.201,6.129-1.872,9.331s4.464,5.281,7.931,5.261
				c0.571-0.02,1.14-0.077,1.704-0.171c0.535-0.095,1.053-0.267,1.537-0.512c0.544-0.188,1.062-0.447,1.538-0.771
				c0.425-0.337,0.85-0.679,1.279-1.021c0.752-0.831,1.358-1.783,1.792-2.817c0.437-1.026,0.669-2.127,0.683-3.242
				c-0.033-2.259-0.917-4.422-2.475-6.059C225.451,452.356,221.805,451.653,218.621,452.946z"/>
			<path d="M259.242,452.946c-2.079-0.85-4.409-0.85-6.487,0c-2.139,0.784-3.824,2.469-4.608,4.608c-0.906,2.068-0.906,4.42,0,6.487
				c0.414,1.045,1.023,2.001,1.795,2.817c3.365,3.3,8.752,3.3,12.117,0c0.752-0.831,1.358-1.783,1.792-2.817
				c0.479-1.012,0.713-2.123,0.683-3.242c-0.033-2.259-0.917-4.422-2.475-6.059C261.229,453.987,260.276,453.38,259.242,452.946z"/>
			<path d="M293.375,452.946c-3.182-1.294-6.828-0.59-9.3,1.796c-0.754,0.828-1.362,1.78-1.796,2.813
				c-0.906,2.068-0.906,4.42,0,6.487c0.434,1.034,1.041,1.987,1.796,2.817c0.425,0.341,0.85,0.683,1.279,1.021
				c0.475,0.323,0.991,0.582,1.533,0.771c0.485,0.245,1.003,0.418,1.537,0.513c0.565,0.094,1.136,0.151,1.709,0.171
				c3.45-0.014,6.556-2.096,7.879-5.282c1.323-3.187,0.606-6.856-1.82-9.31C295.376,453.969,294.42,453.36,293.375,452.946z"/>
			<path d="M327.508,452.946c-2.079-0.85-4.409-0.85-6.487,0c-1.044,0.413-1.999,1.023-2.813,1.796
				c-1.559,1.635-2.443,3.799-2.475,6.059c0.012,1.115,0.243,2.216,0.679,3.242c0.434,1.034,1.041,1.987,1.795,2.817
				c3.346,3.346,8.771,3.346,12.117,0c3.346-3.346,3.346-8.771,0-12.117C329.523,453.951,328.563,453.34,327.508,452.946z"/>
			<path d="M355.154,452.946c-1.044,0.413-1.999,1.023-2.813,1.796c-3.346,3.346-3.346,8.771,0,12.117
				c3.346,3.346,8.771,3.346,12.117,0c0.752-0.831,1.358-1.783,1.792-2.817c0.437-1.026,0.669-2.127,0.683-3.242
				c-0.033-2.259-0.917-4.422-2.475-6.059C361.982,452.362,358.339,451.659,355.154,452.946z"/>
			<path d="M429.908,452.946c-2.079-0.85-4.409-0.85-6.487,0c-2.139,0.784-3.824,2.469-4.608,4.608c-0.906,2.068-0.906,4.42,0,6.487
				c0.434,1.034,1.041,1.987,1.795,2.817c3.346,3.346,8.771,3.346,12.117,0c3.346-3.346,3.346-8.771,0-12.117
				C431.895,453.987,430.943,453.38,429.908,452.946z"/>
			<path d="M464.042,452.946c-3.182-1.294-6.828-0.59-9.3,1.796c-1.559,1.635-2.443,3.799-2.475,6.059
				c0.012,1.115,0.243,2.216,0.679,3.242c0.434,1.034,1.041,1.987,1.796,2.817c0.425,0.341,0.85,0.683,1.279,1.021
				c0.475,0.323,0.991,0.582,1.533,0.771c0.485,0.245,1.003,0.418,1.537,0.513c0.565,0.094,1.136,0.151,1.709,0.171
				c3.45-0.014,6.556-2.096,7.879-5.282c1.323-3.187,0.606-6.856-1.82-9.31C466.042,453.969,465.086,453.36,464.042,452.946z"/>
		</g>
	</g>
</g>
<g>
</g>
<g>
</g>
<g>
</g>
<g>
</g>
<g>
</g>
<g>
</g>
<g>
</g>
<g>
</g>
<g>
</g>
<g>
</g>
<g>
</g>
<g>
</g>
<g>
</g>
<g>
</g>
<g>
</g>
</svg>
