<?xml version="1.0" encoding="iso-8859-1"?>
<!-- Generator: Adobe Illustrator 19.0.0, SVG Export Plug-In . SVG Version: 6.00 Build 0)  -->
<svg version="1.1" id="Capa_1" xmlns="http://www.w3.org/2000/svg" xmlns:xlink="http://www.w3.org/1999/xlink" x="0px" y="0px"
	 viewBox="0 0 512.003 512.003" style="enable-background:new 0 0 512.003 512.003;" xml:space="preserve">
<g>
	<g>
		<g>
			<path d="M503.468,392.533h-22.067L449.768,360.9c-1.6-1.6-3.77-2.5-6.034-2.5h-9.838l-19.912-119.467h13.958
				c5.017,0,9.78-2.207,13.023-6.036s4.636-8.89,3.81-13.839L417.756,56.921c-1.354-8.238-8.485-14.276-16.833-14.254h-19.649
				l-4.734-28.404C375.192,6.019,368.058-0.025,359.705,0H126.697c-8.351-0.025-15.485,6.017-16.833,14.258L52.506,358.4h-2.877
				c-4.132-11.753-16.141-18.808-28.419-16.697c-12.278,2.111-21.24,12.773-21.209,25.231V486.4
				c-0.031,12.458,8.932,23.12,21.209,25.231c12.278,2.111,24.287-4.945,28.419-16.697h27.172c4.713,0,8.533-3.82,8.533-8.533
				v-17.067h34.133V486.4c0,4.713,3.82,8.533,8.533,8.533h221.867c4.713,0,8.533-3.82,8.533-8.533v-17.067h42.667V486.4
				c0,4.713,3.82,8.533,8.533,8.533h34.133c2.263-0.001,4.433-0.9,6.033-2.5l31.634-31.633h22.067c4.713,0,8.533-3.821,8.533-8.533
				v-51.2C512.001,396.354,508.181,392.533,503.468,392.533z M34.135,486.4c-0.006,4.71-3.823,8.527-8.533,8.533
				c-4.71-0.006-8.527-3.823-8.533-8.533v-51.2h17.067V486.4z M34.135,418.133H17.068v-51.2c0.006-4.71,3.823-8.527,8.533-8.533
				c4.71,0.006,8.527,3.823,8.533,8.533V418.133z M427.943,221.867H411.14l-4.267-25.6h16.803L427.943,221.867z M417.988,162.133
				l2.844,17.067h-16.803l-2.844-17.067H417.988z M415.144,145.067H398.34L395.496,128h16.804L415.144,145.067z M409.455,110.933
				h-16.804l-2.844-17.067h16.804L409.455,110.933z M400.922,59.733l2.844,17.067h-16.805l-2.844-17.067H400.922z M126.697,17.067
				h233.008l56.89,341.333H314.046l-6.098-27.45c-0.867-3.905-4.329-6.683-8.329-6.683H178.251c-4,0-7.462,2.779-8.329,6.683
				l-6.098,27.45H69.808L126.697,17.067z M296.564,358.4h-49.096v-17.067h45.304L296.564,358.4z M230.401,341.333V358.4h-49.096
				l3.792-17.067H230.401z M494.935,443.733h-17.067c-2.263,0.001-4.433,0.9-6.033,2.5l-31.634,31.633h-22.067V460.8
				c0-4.713-3.82-8.533-8.533-8.533h-59.733c-4.713,0-8.533,3.821-8.533,8.533v17.067h-204.8V460.8c0-4.713-3.82-8.533-8.533-8.533
				h-51.2c-4.713,0-8.533,3.821-8.533,8.533v17.067H51.201v-102.4h389l31.633,31.633c1.6,1.6,3.77,2.5,6.034,2.5h17.067V443.733z"/>
			<path d="M221.868,409.6v-8.533c0-4.713-3.821-8.533-8.533-8.533h-42.667c-4.713,0-8.533,3.821-8.533,8.533v8.533
				c-4.713,0-8.533,3.82-8.533,8.533v34.133c0,4.713,3.82,8.533,8.533,8.533h59.733c4.713,0,8.533-3.821,8.533-8.533v-34.133
				C230.401,413.421,226.581,409.6,221.868,409.6z M213.335,443.733h-42.667v-17.067c4.713,0,8.533-3.82,8.533-8.533V409.6h25.6
				v8.533c0,4.713,3.821,8.533,8.533,8.533V443.733z"/>
			<path d="M315.735,409.6v-8.533c0-4.713-3.82-8.533-8.533-8.533h-42.667c-4.713,0-8.533,3.821-8.533,8.533v8.533
				c-4.713,0-8.533,3.82-8.533,8.533v34.133c0,4.713,3.82,8.533,8.533,8.533h59.733c4.713,0,8.533-3.821,8.533-8.533v-34.133
				C324.268,413.421,320.447,409.6,315.735,409.6z M307.201,443.733h-42.667v-17.067c4.713,0,8.533-3.82,8.533-8.533V409.6h25.6
				v8.533c0,4.713,3.82,8.533,8.533,8.533V443.733z"/>
			<path d="M146.605,145.067h33.9c8.352,0.021,15.485-6.024,16.833-14.267l12.775-76.796c0.823-4.948-0.572-10.008-3.814-13.835
				c-3.242-3.827-8.004-6.035-13.02-6.036h-33.9c-8.354-0.025-15.488,6.022-16.833,14.267l-12.775,76.796
				c-0.823,4.948,0.572,10.008,3.814,13.835C136.828,142.858,141.59,145.065,146.605,145.067z M159.381,51.2l33.9-0.021V51.2
				L180.505,128h-33.9L159.381,51.2z"/>
			<path d="M129.135,273.067h42.533c8.603-0.011,15.856-6.415,16.933-14.95l0.265-2.116h15.935c4.713,0,8.533-3.821,8.533-8.533
				s-3.821-8.533-8.533-8.533h-13.802l2.133-17.067h11.669c4.713,0,8.533-3.821,8.533-8.533c0-4.713-3.821-8.533-8.533-8.533h-9.761
				c0.045-4.524-1.725-8.876-4.915-12.084c-3.19-3.208-7.533-5.002-12.057-4.982h-42.533c-8.603,0.011-15.856,6.415-16.933,14.95
				l-6.4,51.2c-0.607,4.857,0.901,9.741,4.14,13.411C119.581,270.964,124.24,273.066,129.135,273.067z M171.668,264.533V256h0.009
				L171.668,264.533z M135.535,204.8h42.533l-6.404,51.2h-42.529L135.535,204.8z"/>
			<path d="M288.135,172.783c1.077,8.535,8.331,14.939,16.933,14.95h42.533c4.895-0.001,9.554-2.104,12.794-5.773
				c3.24-3.669,4.749-8.553,4.144-13.41l-6.4-51.2c-1.079-8.536-8.334-14.94-16.937-14.95h-42.533
				c-4.895,0-9.554,2.103-12.793,5.772s-4.747,8.554-4.14,13.411L288.135,172.783z M341.205,119.467l6.396,51.2h-42.533l-6.4-51.2
				H341.205z"/>
			<path d="M352.001,204.8h-42.533c-4.895,0.001-9.554,2.104-12.794,5.773c-3.24,3.669-4.749,8.553-4.144,13.41l6.4,51.2
				c1.079,8.536,8.334,14.94,16.938,14.95h42.533c4.895,0,9.554-2.103,12.793-5.772s4.747-8.554,4.14-13.411l-6.4-51.2
				C367.858,211.215,360.604,204.811,352.001,204.8z M315.868,273.067l-6.4-51.2h42.533l6.4,51.2H315.868z"/>
			<path d="M264.535,76.8c3.45-0.014,6.556-2.096,7.879-5.282c1.323-3.187,0.606-6.856-1.82-9.31c-3.346-3.346-8.771-3.346-12.117,0
				c-3.346,3.346-3.346,8.771,0,12.117C260.112,75.883,262.276,76.767,264.535,76.8z"/>
			<path d="M341.335,76.8c3.45-0.014,6.556-2.096,7.879-5.282c1.323-3.187,0.606-6.856-1.82-9.31c-3.346-3.346-8.771-3.346-12.117,0
				c-3.346,3.346-3.346,8.771,0,12.117C336.912,75.883,339.076,76.767,341.335,76.8z"/>
			<path d="M298.668,76.8h8.533c4.713,0,8.533-3.82,8.533-8.533s-3.82-8.533-8.533-8.533h-8.533c-4.713,0-8.533,3.82-8.533,8.533
				S293.955,76.8,298.668,76.8z"/>
			<path d="M128.001,290.133c-14.138,0-25.6,11.461-25.6,25.6s11.461,25.6,25.6,25.6s25.6-11.462,25.6-25.6
				C153.586,301.601,142.133,290.149,128.001,290.133z M128.001,324.267c-4.713,0-8.533-3.82-8.533-8.533s3.82-8.533,8.533-8.533
				c4.713,0,8.533,3.82,8.533,8.533C136.529,320.444,132.712,324.261,128.001,324.267z"/>
		</g>
	</g>
</g>
<g>
</g>
<g>
</g>
<g>
</g>
<g>
</g>
<g>
</g>
<g>
</g>
<g>
</g>
<g>
</g>
<g>
</g>
<g>
</g>
<g>
</g>
<g>
</g>
<g>
</g>
<g>
</g>
<g>
</g>
</svg>
