<?xml version="1.0" encoding="iso-8859-1"?>
<!-- Generator: Adobe Illustrator 19.0.0, SVG Export Plug-In . SVG Version: 6.00 Build 0)  -->
<svg version="1.1" id="Capa_1" xmlns="http://www.w3.org/2000/svg" xmlns:xlink="http://www.w3.org/1999/xlink" x="0px" y="0px"
	 viewBox="0 0 512 512" style="enable-background:new 0 0 512 512;" xml:space="preserve">
<g>
	<g>
		<g>
			<path d="M426.667,76.8c2.263,0.001,4.434-0.898,6.035-2.499c1.6-1.6,2.499-3.771,2.499-6.035V25.6
				C435.185,11.468,423.732,0.015,409.6,0h-51.2c-2.263-0.001-4.434,0.898-6.035,2.499c-1.6,1.6-2.499,3.771-2.499,6.035v25.6H332.8
				v-25.6c0.001-2.263-0.898-4.434-2.499-6.035c-1.6-1.6-3.771-2.499-6.035-2.499h-102.4c-2.263-0.001-4.434,0.898-6.035,2.499
				c-1.6,1.6-2.499,3.771-2.499,6.035v25.6h-17.067v-25.6c0.001-2.263-0.898-4.434-2.499-6.035c-1.6-1.6-3.771-2.499-6.035-2.499
				H102.4C88.268,0.015,76.815,11.468,76.8,25.6v42.667c-0.001,2.263,0.898,4.434,2.499,6.035c1.6,1.6,3.771,2.499,6.035,2.499
				c9.426,0,17.067,7.641,17.067,17.067s-7.641,17.067-17.067,17.067c-2.263-0.001-4.434,0.898-6.035,2.499
				c-1.6,1.6-2.499,3.771-2.499,6.035V486.4c0.015,14.132,11.468,25.585,25.6,25.6h307.2c14.132-0.015,25.585-11.468,25.6-25.6
				V119.467c0.001-2.263-0.898-4.434-2.499-6.035c-1.6-1.6-3.771-2.499-6.035-2.499c-9.426,0-17.067-7.641-17.067-17.067
				S417.241,76.8,426.667,76.8z M298.667,17.067h17.067v17.067h-17.067V17.067z M264.533,17.067H281.6v17.067h-17.067V17.067z
				 M230.4,17.067h17.067v17.067H230.4V17.067z M418.133,126.921V486.4c-0.005,4.711-3.823,8.529-8.533,8.533H102.4
				c-4.711-0.005-8.529-3.822-8.533-8.533V126.921c15.071-3.894,25.6-17.488,25.6-33.054c0-15.566-10.529-29.161-25.6-33.054V25.6
				c0.005-4.711,3.822-8.529,8.533-8.533h76.8v51.2c0,4.713,3.82,8.533,8.533,8.533s8.533-3.82,8.533-8.533V51.2h17.067v17.067
				c0,4.713,3.82,8.533,8.533,8.533s8.533-3.82,8.533-8.533V51.2h17.067v17.067c0,4.713,3.82,8.533,8.533,8.533
				c4.713,0,8.533-3.82,8.533-8.533V51.2H281.6v17.067c0,4.713,3.821,8.533,8.533,8.533c4.713,0,8.533-3.82,8.533-8.533V51.2h17.067
				v17.067c0,4.713,3.82,8.533,8.533,8.533s8.533-3.82,8.533-8.533V51.2h17.067v17.067c0,4.713,3.82,8.533,8.533,8.533
				s8.533-3.82,8.533-8.533v-51.2H409.6c4.711,0.005,8.529,3.822,8.533,8.533v35.212c-15.071,3.894-25.6,17.488-25.6,33.054
				C392.533,109.432,403.062,123.027,418.133,126.921z"/>
			<path d="M121.175,51.029c0.533-0.096,1.049-0.269,1.533-0.513c0.524-0.171,1.015-0.432,1.45-0.771
				c0.46-0.297,0.89-0.639,1.283-1.021c1.597-1.617,2.513-3.786,2.558-6.059c0.001-2.859-1.445-5.525-3.842-7.083
				c-0.435-0.339-0.926-0.6-1.45-0.771c-0.483-0.244-1-0.416-1.533-0.508c-2.811-0.561-5.717,0.301-7.767,2.304
				c-1.561,1.634-2.445,3.799-2.475,6.059c0.014,1.115,0.246,2.216,0.683,3.242c0.433,1.034,1.039,1.987,1.792,2.817
				c1.626,1.572,3.796,2.459,6.058,2.475C120.04,51.184,120.61,51.127,121.175,51.029z"/>
			<path d="M398.592,36.608c-0.406-0.368-0.835-0.71-1.283-1.025c-0.474-0.324-0.99-0.583-1.533-0.771
				c-0.51-0.258-1.059-0.43-1.625-0.508c-2.783-0.561-5.661,0.303-7.675,2.304c-0.772,0.814-1.38,1.769-1.792,2.813
				c-0.911,2.066-0.911,4.421,0,6.487c0.432,1.034,1.038,1.987,1.792,2.817c1.636,1.558,3.8,2.441,6.059,2.475
				c0.542-0.016,1.083-0.073,1.617-0.171c0.566-0.082,1.115-0.255,1.625-0.513c0.543-0.188,1.059-0.447,1.533-0.771
				c0.425-0.338,0.858-0.679,1.284-1.021c0.771-0.816,1.379-1.772,1.792-2.817c0.911-2.066,0.911-4.421,0-6.487
				C399.993,38.367,399.382,37.408,398.592,36.608z"/>
			<path d="M119.467,162.133c0.573-0.02,1.143-0.077,1.708-0.171c0.533-0.096,1.049-0.269,1.533-0.512
				c0.524-0.171,1.015-0.432,1.45-0.771c0.479-0.271,0.912-0.615,1.283-1.021c0.392-0.406,0.762-0.833,1.108-1.279
				c0.321-0.477,0.579-0.994,0.767-1.538c0.247-0.483,0.419-1.002,0.508-1.537c0.104-0.563,0.162-1.133,0.175-1.704
				c-0.017-0.573-0.076-1.144-0.175-1.708c-0.089-0.536-0.261-1.054-0.508-1.537c-0.189-0.542-0.446-1.057-0.767-1.533
				c-0.344-0.448-0.714-0.875-1.108-1.279c-0.394-0.382-0.824-0.725-1.283-1.025c-0.435-0.339-0.926-0.6-1.45-0.771
				c-0.483-0.244-1-0.416-1.533-0.508c-2.811-0.575-5.724,0.289-7.767,2.304c-2.461,2.441-3.201,6.129-1.872,9.331
				C112.866,160.074,116,162.153,119.467,162.133z"/>
			<path d="M384,153.6c0.018,0.571,0.074,1.14,0.167,1.704c0.096,0.535,0.27,1.053,0.517,1.537c0.184,0.545,0.442,1.062,0.767,1.538
				c0.341,0.425,0.683,0.85,1.025,1.279c3.365,3.3,8.752,3.3,12.117,0c1.571-1.627,2.457-3.796,2.475-6.058
				c-0.013-1.116-0.245-2.219-0.683-3.246c-0.412-1.044-1.02-1.998-1.792-2.813c-2.441-2.461-6.129-3.201-9.33-1.871
				C386.06,147,383.98,150.134,384,153.6z"/>
			<path d="M127.317,466.088c-0.189-0.542-0.446-1.057-0.767-1.533c-0.344-0.448-0.714-0.875-1.108-1.279
				c-0.371-0.407-0.804-0.753-1.283-1.025c-0.435-0.339-0.926-0.6-1.45-0.771c-0.483-0.244-1-0.416-1.533-0.508
				c-2.811-0.575-5.724,0.289-7.767,2.304c-1.561,1.634-2.445,3.799-2.475,6.059c0.014,1.115,0.246,2.216,0.683,3.242
				c0.432,1.034,1.038,1.987,1.791,2.817c1.627,1.573,3.796,2.459,6.059,2.475c0.573-0.016,1.144-0.073,1.708-0.171
				c0.533-0.096,1.049-0.269,1.533-0.513c0.524-0.171,1.015-0.432,1.45-0.771c0.46-0.297,0.89-0.639,1.283-1.021
				c1.597-1.617,2.513-3.786,2.558-6.058c-0.013-0.573-0.071-1.145-0.175-1.708C127.735,467.089,127.564,466.571,127.317,466.088z"
				/>
			<path d="M398.592,463.275c-0.425-0.341-0.858-0.683-1.283-1.025c-0.474-0.324-0.99-0.583-1.533-0.771
				c-0.51-0.258-1.059-0.43-1.625-0.508c-2.78-0.518-5.64,0.34-7.675,2.304c-0.753,0.828-1.359,1.78-1.792,2.813
				c-0.911,2.067-0.911,4.421,0,6.487c0.433,1.034,1.039,1.987,1.792,2.817c1.636,1.558,3.799,2.442,6.058,2.476
				c0.542-0.016,1.083-0.073,1.617-0.171c0.566-0.082,1.115-0.255,1.625-0.513c0.543-0.188,1.059-0.447,1.533-0.771
				c0.449-0.313,0.878-0.654,1.284-1.021c0.771-0.816,1.379-1.772,1.792-2.817c0.911-2.067,0.911-4.421,0-6.487
				C399.972,465.044,399.364,464.089,398.592,463.275z"/>
			<path d="M162.133,324.267h-42.667c-2.263-0.001-4.434,0.898-6.035,2.499c-1.6,1.6-2.499,3.771-2.499,6.035v102.4
				c-0.001,2.263,0.898,4.434,2.499,6.035c1.6,1.6,3.771,2.499,6.035,2.499h42.667c2.263,0.001,4.434-0.898,6.035-2.499
				c1.6-1.6,2.499-3.771,2.499-6.035V332.8c0.001-2.263-0.898-4.434-2.499-6.035C166.568,325.165,164.397,324.266,162.133,324.267z
				 M153.6,426.667H128v-85.333h25.6V426.667z"/>
			<path d="M238.933,324.267h-42.667c-2.263-0.001-4.434,0.898-6.035,2.499c-1.6,1.6-2.499,3.771-2.499,6.035v102.4
				c-0.001,2.263,0.898,4.434,2.499,6.035c1.6,1.6,3.771,2.499,6.035,2.499h42.667c2.263,0.001,4.434-0.898,6.035-2.499
				c1.6-1.6,2.499-3.771,2.499-6.035V332.8c0.001-2.263-0.898-4.434-2.499-6.035C243.368,325.165,241.197,324.266,238.933,324.267z
				 M230.4,426.667h-25.6v-85.333h25.6V426.667z"/>
			<path d="M315.733,324.267h-42.667c-2.263-0.001-4.434,0.898-6.035,2.499c-1.6,1.6-2.499,3.771-2.499,6.035v102.4
				c-0.001,2.263,0.898,4.434,2.499,6.035c1.6,1.6,3.771,2.499,6.035,2.499h42.667c2.263,0.001,4.434-0.898,6.035-2.499
				c1.6-1.6,2.499-3.771,2.499-6.035V332.8c0.001-2.263-0.898-4.434-2.499-6.035C320.168,325.165,317.997,324.266,315.733,324.267z
				 M307.2,426.667h-25.6v-85.333h25.6V426.667z"/>
			<path d="M398.568,441.235c1.6-1.6,2.499-3.771,2.499-6.035V332.8c0.001-2.263-0.898-4.434-2.499-6.035
				c-1.6-1.6-3.771-2.499-6.035-2.499h-42.667c-2.263-0.001-4.434,0.898-6.035,2.499c-1.6,1.6-2.499,3.771-2.499,6.035v102.4
				c-0.001,2.263,0.898,4.434,2.499,6.035c1.6,1.6,3.771,2.499,6.035,2.499h42.667C394.797,443.734,396.968,442.835,398.568,441.235
				z M384,426.667h-25.6v-85.333H384V426.667z"/>
			<path d="M341.333,298.667c-0.001,2.263,0.898,4.434,2.499,6.035c1.6,1.6,3.771,2.499,6.035,2.499h42.667
				c2.263,0.001,4.434-0.898,6.035-2.499c1.6-1.6,2.499-3.771,2.499-6.035v-102.4c0.001-2.263-0.898-4.434-2.499-6.035
				c-1.6-1.6-3.771-2.499-6.035-2.499h-42.667c-2.263-0.001-4.434,0.898-6.035,2.499c-1.6,1.6-2.499,3.771-2.499,6.035v25.6h-17.067
				v-25.6c0.001-2.263-0.898-4.434-2.499-6.035c-1.6-1.6-3.771-2.499-6.035-2.499h-42.667c-2.263-0.001-4.434,0.898-6.035,2.499
				c-1.6,1.6-2.499,3.771-2.499,6.035v25.6h-17.067v-25.6c0.001-2.263-0.898-4.434-2.499-6.035c-1.6-1.6-3.771-2.499-6.035-2.499
				h-42.667c-2.263-0.001-4.434,0.898-6.035,2.499c-1.6,1.6-2.499,3.771-2.499,6.035v25.6h-17.067v-25.6
				c0.001-2.263-0.898-4.434-2.499-6.035c-1.6-1.6-3.771-2.499-6.035-2.499h-42.667c-2.263-0.001-4.434,0.898-6.035,2.499
				c-1.6,1.6-2.499,3.771-2.499,6.035v102.4c-0.001,2.263,0.898,4.434,2.499,6.035c1.6,1.6,3.771,2.499,6.035,2.499h42.667
				c2.263,0.001,4.434-0.898,6.035-2.499c1.6-1.6,2.499-3.771,2.499-6.035v-25.6h17.067v25.6c-0.001,2.263,0.898,4.434,2.499,6.035
				c1.6,1.6,3.771,2.499,6.035,2.499h42.667c2.263,0.001,4.434-0.898,6.035-2.499c1.6-1.6,2.499-3.771,2.499-6.035v-25.6h17.067
				v25.6c-0.001,2.263,0.898,4.434,2.499,6.035c1.6,1.6,3.771,2.499,6.035,2.499h42.667c2.263,0.001,4.434-0.898,6.035-2.499
				c1.6-1.6,2.499-3.771,2.499-6.035v-25.6h17.067V298.667z M153.6,224.241c-5.262,3.025-8.513,8.623-8.533,14.692V256
				c0.02,6.069,3.272,11.668,8.533,14.692v19.441H128V204.8h25.6V224.241z M358.4,270.692c5.262-3.025,8.513-8.623,8.533-14.692
				v-17.067c-0.02-6.069-3.272-11.668-8.533-14.692V204.8H384v85.333h-25.6V270.692z M281.6,204.8h25.6v17.067h-25.6V204.8z
				 M204.8,204.8h25.6v17.067h-25.6V204.8z M230.4,290.133h-25.6v-17.067h25.6V290.133z M307.2,290.133h-25.6v-17.067h25.6V290.133z
				 M162.133,256v-17.067h187.733L349.875,256H162.133z"/>
			<path d="M273.067,170.667H332.8c2.263,0.001,4.434-0.898,6.035-2.499c1.6-1.6,2.499-3.771,2.499-6.035V102.4
				c0.001-2.263-0.898-4.434-2.499-6.035c-1.6-1.6-3.771-2.499-6.035-2.499h-59.733c-2.263-0.001-4.434,0.898-6.035,2.499
				c-1.6,1.6-2.499,3.771-2.499,6.035v59.733c-0.001,2.263,0.898,4.434,2.499,6.035
				C268.632,169.768,270.803,170.667,273.067,170.667z M281.6,110.933h42.667V153.6H281.6V110.933z"/>
		</g>
	</g>
</g>
<g>
</g>
<g>
</g>
<g>
</g>
<g>
</g>
<g>
</g>
<g>
</g>
<g>
</g>
<g>
</g>
<g>
</g>
<g>
</g>
<g>
</g>
<g>
</g>
<g>
</g>
<g>
</g>
<g>
</g>
</svg>
