<?xml version="1.0" encoding="iso-8859-1"?>
<!-- Generator: Adobe Illustrator 19.0.0, SVG Export Plug-In . SVG Version: 6.00 Build 0)  -->
<svg version="1.1" id="Capa_1" xmlns="http://www.w3.org/2000/svg" xmlns:xlink="http://www.w3.org/1999/xlink" x="0px" y="0px"
	 viewBox="0 0 512 512" style="enable-background:new 0 0 512 512;" xml:space="preserve">
<g>
	<g>
		<g>
			<path d="M409.6,0H102.4C88.268,0.015,76.815,11.468,76.8,25.6v460.8c0.015,14.132,11.468,25.585,25.6,25.6h307.2
				c14.132-0.015,25.585-11.468,25.6-25.6V25.6C435.185,11.468,423.732,0.015,409.6,0z M298.667,17.067h17.067v17.067h-17.067
				V17.067z M264.533,17.067H281.6v17.067h-17.067V17.067z M230.4,17.067h17.067v17.067H230.4V17.067z M196.267,17.067h17.067
				v17.067h-17.067V17.067z M162.133,17.067H179.2v17.067h-17.067V17.067z M162.133,51.2h153.6v17.067h-153.6V51.2z M418.133,486.4
				c-0.005,4.711-3.823,8.529-8.533,8.533H102.4c-4.711-0.005-8.529-3.822-8.533-8.533V25.6c0.005-4.711,3.822-8.529,8.533-8.533
				h42.667v51.2c0.011,9.421,7.645,17.056,17.067,17.067h153.6c9.421-0.011,17.056-7.645,17.067-17.067v-51.2h76.8
				c4.711,0.005,8.529,3.822,8.533,8.533V486.4z"/>
			<path d="M113.408,48.725c0.425,0.341,0.85,0.683,1.275,1.021c0.477,0.324,0.996,0.583,1.542,0.771
				c0.483,0.245,1,0.418,1.534,0.512c0.565,0.098,1.135,0.155,1.708,0.171c0.542-0.016,1.083-0.073,1.617-0.171
				c0.566-0.082,1.115-0.255,1.625-0.513c0.543-0.188,1.059-0.447,1.533-0.771c0.425-0.338,0.858-0.679,1.284-1.021
				c0.771-0.816,1.379-1.772,1.792-2.817c0.911-2.066,0.911-4.421,0-6.487c-0.412-1.044-1.02-1.999-1.792-2.813
				c-0.406-0.368-0.835-0.71-1.283-1.025c-0.475-0.324-0.99-0.583-1.533-0.771c-0.51-0.258-1.059-0.43-1.625-0.508
				c-1.093-0.258-2.232-0.258-3.325,0c-0.534,0.091-1.051,0.263-1.533,0.508c-0.546,0.187-1.064,0.447-1.542,0.771
				c-0.446,0.315-0.872,0.657-1.275,1.025c-0.79,0.8-1.4,1.759-1.792,2.813c-0.911,2.066-0.911,4.421,0,6.487
				C112.029,46.953,112.637,47.909,113.408,48.725z"/>
			<path d="M387.75,49.746c0.477,0.324,0.996,0.583,1.542,0.771c0.483,0.245,1,0.418,1.533,0.513
				c0.565,0.098,1.136,0.155,1.708,0.171c0.542-0.016,1.083-0.073,1.617-0.171c0.566-0.082,1.115-0.255,1.625-0.513
				c0.543-0.188,1.059-0.447,1.533-0.771c0.425-0.338,0.858-0.679,1.284-1.021c3.3-3.365,3.3-8.752,0-12.117
				c-2.441-2.461-6.129-3.201-9.331-1.872c-3.202,1.329-5.281,4.463-5.261,7.93c0.03,2.26,0.914,4.424,2.475,6.059
				C386.9,49.067,387.325,49.408,387.75,49.746z"/>
			<path d="M125.525,463.275c-0.425-0.341-0.858-0.683-1.283-1.025c-0.475-0.324-0.99-0.583-1.533-0.771
				c-0.51-0.258-1.059-0.43-1.625-0.508c-1.093-0.258-2.232-0.258-3.325,0c-0.534,0.091-1.051,0.263-1.533,0.508
				c-0.546,0.187-1.064,0.447-1.542,0.771l-1.276,1.024c-0.772,0.814-1.38,1.769-1.792,2.813c-0.911,2.066-0.911,4.421,0,6.487
				c0.392,1.055,1.003,2.015,1.792,2.817c0.403,0.367,0.829,0.708,1.275,1.021c0.477,0.324,0.996,0.583,1.542,0.771
				c0.483,0.245,1,0.418,1.533,0.513c0.565,0.098,1.136,0.155,1.709,0.171c0.542-0.016,1.083-0.073,1.617-0.171
				c0.566-0.082,1.115-0.255,1.625-0.513c0.543-0.188,1.059-0.447,1.533-0.771c0.449-0.313,0.878-0.654,1.284-1.021
				c0.771-0.816,1.379-1.772,1.792-2.817c0.911-2.067,0.911-4.421,0-6.487C126.885,465.055,126.279,464.104,125.525,463.275z"/>
			<path d="M386.475,463.275c-3.3,3.365-3.3,8.752,0,12.117c3.365,3.3,8.752,3.3,12.117,0c3.346-3.346,3.346-8.771,0-12.117
				C395.245,459.929,389.821,459.929,386.475,463.275z"/>
			<path d="M392.533,426.667v-307.2c-0.011-9.421-7.645-17.056-17.067-17.067H136.533c-9.421,0.011-17.056,7.645-17.067,17.067
				v307.2c0.011,9.421,7.645,17.056,17.067,17.067h238.933C384.888,443.723,392.523,436.088,392.533,426.667z M136.533,426.667
				v-307.2h190.992l-153.6,307.2H136.533z M193.008,426.667l153.6-307.2h28.858l0.009,307.2H193.008z"/>
			<path d="M204.8,136.533h-34.133c-9.421,0.011-17.056,7.646-17.067,17.067v59.733c0.011,9.421,7.646,17.056,17.067,17.067H204.8
				c9.421-0.011,17.056-7.646,17.067-17.067V153.6C221.856,144.179,214.221,136.544,204.8,136.533z M170.667,213.333V153.6H204.8
				l0.009,59.733H170.667z"/>
		</g>
	</g>
</g>
<g>
</g>
<g>
</g>
<g>
</g>
<g>
</g>
<g>
</g>
<g>
</g>
<g>
</g>
<g>
</g>
<g>
</g>
<g>
</g>
<g>
</g>
<g>
</g>
<g>
</g>
<g>
</g>
<g>
</g>
</svg>
