<?xml version="1.0" encoding="iso-8859-1"?>
<!-- Generator: Adobe Illustrator 19.0.0, SVG Export Plug-In . SVG Version: 6.00 Build 0)  -->
<svg version="1.1" id="Capa_1" xmlns="http://www.w3.org/2000/svg" xmlns:xlink="http://www.w3.org/1999/xlink" x="0px" y="0px"
	 viewBox="0 0 512 512" style="enable-background:new 0 0 512 512;" xml:space="preserve">
<g>
	<g>
		<g>
			<path d="M366.34,204.211c-0.028-0.276-0.07-0.551-0.125-0.822c-4.822-36.529-34.902-64.489-71.686-66.633
				c-0.295-0.063-0.594-0.109-0.894-0.14h-0.083c-0.126,0-0.23,0.067-0.355,0.072c-1.024-0.041-2.029-0.155-3.062-0.155
				c-30.732,0.035-58.493,18.363-70.598,46.61c-0.063,0.136-0.129,0.262-0.185,0.402c-12.425,29.459-5.232,63.538,18.037,85.464
				c0.327,0.355,0.685,0.68,1.069,0.972c23.392,21.545,57.704,26.298,86.071,11.922c0.137-0.058,0.26-0.124,0.394-0.19
				c25.743-13.086,41.973-39.502,42.011-68.38C366.916,210.284,366.718,207.238,366.34,204.211z M305.467,155.669
				c21.482,5.746,38.008,22.925,42.919,44.613c-18.765,9.227-30.083,6.224-34.271,4.37c-2.013-5.533-5.872-10.203-10.928-13.22
				C307.649,180.038,308.446,167.537,305.467,155.669z M298.667,213.333c0,4.713-3.82,8.533-8.533,8.533
				c-4.711-0.005-8.529-3.822-8.533-8.533c0-4.713,3.82-8.533,8.533-8.533S298.667,208.62,298.667,213.333z M287.441,153.737
				L287.441,153.737c5.752,19.975,0.9,30.588-1.655,34.436c-4.325,0.76-8.378,2.631-11.762,5.429
				c-9.177-8.106-20.656-13.143-32.834-14.408C251.809,163.977,268.904,154.568,287.441,153.737z M241.318,247.646
				c-10.724-15.164-13.75-34.466-8.181-52.184c20.657,1.418,29.017,9.547,31.849,13.394c-0.86,4.294-0.49,8.744,1.066,12.837
				C255.303,227.554,246.655,236.628,241.318,247.646z M253.894,260.706c8.395-18.952,18.916-24.002,23.452-25.327
				c3.769,2.228,8.051,3.439,12.428,3.517c1.847,12.077,7.416,23.277,15.929,32.04C287.787,275.889,268.584,272.097,253.894,260.706
				z M322.282,263.596c-15.079-14.483-16.116-26.154-15.805-30.725c3.369-2.799,5.961-6.417,7.529-10.506
				c3.569,0.847,7.226,1.271,10.894,1.264c8.497-0.15,16.886-1.931,24.711-5.248C348.026,236.882,337.926,253.593,322.282,263.596z"
				/>
			<path d="M213.333,145.067c2.27,0.022,4.453-0.87,6.058-2.475c1.605-1.605,2.497-3.788,2.475-6.058
				c-0.013-1.116-0.245-2.219-0.683-3.246c-0.433-1.033-1.039-1.984-1.792-2.813c-3.421-3.158-8.695-3.158-12.117,0
				c-0.753,0.829-1.359,1.78-1.792,2.813c-0.438,1.027-0.67,2.13-0.683,3.246c-0.022,2.27,0.87,4.453,2.475,6.058
				C208.88,144.197,211.063,145.089,213.333,145.067z"/>
			<path d="M216.606,282.203c-3.202-1.329-6.89-0.59-9.331,1.872c-3.346,3.346-3.346,8.771,0,12.117
				c3.346,3.346,8.771,3.346,12.117,0c0.341-0.429,0.683-0.854,1.025-1.367c0.337-0.436,0.596-0.926,0.767-1.45
				c0.247-0.483,0.419-1.002,0.508-1.537c0.103-0.563,0.162-1.133,0.175-1.705C221.887,286.667,219.808,283.532,216.606,282.203z"/>
			<path d="M372.992,130.475c-0.425-0.341-0.858-0.683-1.367-1.025c-0.435-0.339-0.926-0.6-1.45-0.771
				c-0.51-0.258-1.059-0.43-1.625-0.508c-2.782-0.547-5.655,0.315-7.675,2.304c-0.753,0.829-1.359,1.78-1.792,2.813
				c-0.438,1.027-0.67,2.13-0.683,3.246c-0.022,2.27,0.87,4.453,2.475,6.058c1.605,1.605,3.789,2.497,6.058,2.475
				c0.542-0.016,1.083-0.073,1.617-0.171c0.566-0.082,1.115-0.255,1.625-0.513c0.524-0.171,1.015-0.432,1.45-0.771
				c0.49-0.291,0.949-0.633,1.367-1.021c1.557-1.637,2.44-3.8,2.475-6.059c-0.013-1.116-0.245-2.219-0.683-3.246
				C374.351,132.255,373.745,131.303,372.992,130.475z"/>
			<path d="M372.992,284.075c-0.425-0.341-0.858-0.683-1.367-1.025c-0.435-0.339-0.926-0.6-1.45-0.771
				c-0.51-0.258-1.059-0.43-1.625-0.508c-2.78-0.504-5.633,0.352-7.675,2.304c-0.753,0.829-1.359,1.78-1.792,2.813
				c-0.438,1.027-0.67,2.13-0.683,3.246c-0.022,2.27,0.87,4.453,2.475,6.058c1.605,1.605,3.789,2.497,6.058,2.475
				c0.542-0.016,1.083-0.073,1.617-0.171c0.566-0.082,1.115-0.255,1.625-0.512c0.524-0.171,1.015-0.432,1.45-0.771
				c0.508-0.338,0.942-0.679,1.367-1.021c0.341-0.429,0.683-0.854,1.025-1.279c0.321-0.477,0.579-0.994,0.767-1.538
				c0.247-0.483,0.419-1.002,0.508-1.537c0.104-0.563,0.162-1.133,0.175-1.704c-0.013-1.116-0.245-2.219-0.683-3.246
				C374.351,285.855,373.745,284.903,372.992,284.075z"/>
			<path d="M486.4,42.667H8.533C3.82,42.667,0,46.487,0,51.2s3.82,8.533,8.533,8.533h25.6V460.8c0,4.713,3.82,8.533,8.533,8.533
				s8.533-3.821,8.533-8.533v-34.133h42.667c2.263,0.001,4.434-0.898,6.035-2.499c1.6-1.6,2.499-3.771,2.499-6.035V384h17.067
				v34.133c-0.001,2.263,0.898,4.434,2.499,6.035c1.6,1.6,3.771,2.499,6.035,2.499h34.133c2.263,0.001,4.434-0.898,6.035-2.499
				c1.6-1.6,2.499-3.771,2.499-6.035v-25.6c0.013-2.521,1.136-4.909,3.068-6.528c1.933-1.619,4.48-2.305,6.965-1.876
				c4.276,1.097,7.206,5.031,7.033,9.442v24.563c-0.001,2.263,0.898,4.434,2.499,6.035c1.6,1.6,3.771,2.499,6.035,2.499h204.8
				c2.263,0.001,4.434-0.898,6.035-2.499c1.6-1.6,2.499-3.771,2.499-6.035V384h17.067v25.6c-0.001,2.263,0.898,4.434,2.499,6.035
				c1.6,1.6,3.771,2.499,6.035,2.499h25.6c4.713,0,8.533-3.821,8.533-8.533c0-4.713-3.82-8.533-8.533-8.533h-17.067V384H486.4
				c14.132-0.015,25.585-11.468,25.6-25.6V68.267C511.985,54.135,500.532,42.682,486.4,42.667z M51.2,247.467h25.6
				c4.711,0.005,8.529,3.822,8.533,8.533v8.533H76.8c-4.713,0-8.533,3.82-8.533,8.533s3.82,8.533,8.533,8.533h8.533v17.067H76.8
				c-4.713,0-8.533,3.82-8.533,8.533s3.82,8.533,8.533,8.533h8.533v8.533c-0.005,4.711-3.822,8.529-8.533,8.533H51.2V247.467z
				 M221.867,409.6H204.8v-16.029c0-0.353-0.077-0.688-0.091-1.037h17.157V409.6z M256,409.6h-17.067v-17.067H256V409.6z
				 M290.133,409.6h-17.067v-17.067h17.067V409.6z M324.267,409.6H307.2v-17.067h17.067V409.6z M358.4,409.6h-17.067v-17.067H358.4
				V409.6z M392.533,409.6h-17.067v-17.067h17.067V409.6z M494.933,298.667H409.6V281.6h17.067
				c9.421-0.011,17.056-7.645,17.067-17.067v-25.6c-0.011-9.421-7.645-17.056-17.067-17.067H409.6V204.8h17.067
				c9.421-0.011,17.056-7.645,17.067-17.067v-25.6c-0.011-9.421-7.645-17.056-17.067-17.067H409.6V128h85.333V298.667z
				 M409.6,264.533v-25.6h17.067l0.009,25.6H409.6z M409.6,187.733v-25.6h17.067l0.009,25.6H409.6z M494.933,110.933h-86.906
				C404.435,100.734,394.813,93.9,384,93.867H196.267c-14.132,0.015-25.585,11.468-25.6,25.6V307.2
				c0.015,14.132,11.468,25.585,25.6,25.6H384c10.813-0.033,20.435-6.868,24.028-17.067h86.906V358.4
				c-0.005,4.711-3.822,8.529-8.533,8.533h-76.8c-6.069,0.02-11.668,3.272-14.693,8.533h-197.04
				c-3.703-4.283-8.762-7.167-14.334-8.171c-7.437-1.262-15.052,0.815-20.819,5.677c-5.767,4.862-9.101,12.017-9.114,19.56V409.6
				h-17.067V384c-0.011-9.421-7.645-17.056-17.067-17.067H102.4c-9.421,0.011-17.056,7.645-17.067,17.067v25.6H51.2v-59.733h25.6
				c14.132-0.015,25.585-11.468,25.6-25.6V256c-0.015-14.132-11.468-25.585-25.6-25.6H51.2V59.733h435.2
				c4.711,0.005,8.529,3.822,8.533,8.533V110.933z M392.533,119.467V153.6v153.6c-0.005,4.711-3.822,8.529-8.533,8.533H196.267
				c-4.711-0.005-8.529-3.822-8.533-8.533V119.467c0.005-4.711,3.822-8.529,8.533-8.533H384
				C388.711,110.938,392.529,114.756,392.533,119.467z"/>
			<path d="M102.4,93.867H85.333c-9.421,0.011-17.056,7.646-17.067,17.067V128c0.011,9.421,7.645,17.056,17.067,17.067H102.4
				c9.421-0.011,17.056-7.645,17.067-17.067v-17.067C119.456,101.512,111.821,93.877,102.4,93.867z M85.333,128v-17.067H102.4
				L102.409,128H85.333z"/>
			<path d="M145.067,128c0.542-0.016,1.083-0.073,1.617-0.171c0.566-0.082,1.115-0.255,1.625-0.513
				c0.543-0.188,1.059-0.447,1.533-0.771c0.425-0.338,0.858-0.679,1.283-1.021c3.3-3.365,3.3-8.752,0-12.117
				c-0.425-0.342-0.858-0.683-1.283-1.025c-0.475-0.324-0.99-0.583-1.533-0.771c-0.51-0.258-1.059-0.43-1.625-0.508
				c-2.782-0.561-5.661,0.303-7.675,2.304c-0.753,0.829-1.359,1.78-1.792,2.813c-0.438,1.027-0.67,2.13-0.683,3.246
				c0.014,2.263,0.9,4.433,2.475,6.059C140.644,127.083,142.808,127.967,145.067,128z"/>
			<path d="M102.4,162.133H85.333c-9.421,0.011-17.056,7.646-17.067,17.067v17.067c0.011,9.421,7.645,17.056,17.067,17.067H102.4
				c9.421-0.011,17.056-7.645,17.067-17.067V179.2C119.456,169.779,111.821,162.144,102.4,162.133z M85.333,196.267V179.2H102.4
				l0.009,17.067H85.333z"/>
			<path d="M145.067,179.2c0.542-0.016,1.083-0.073,1.617-0.171c0.566-0.082,1.115-0.255,1.625-0.512
				c0.543-0.188,1.059-0.447,1.533-0.771c0.425-0.337,0.858-0.679,1.283-1.021c3.3-3.365,3.3-8.752,0-12.117
				c-0.425-0.342-0.858-0.683-1.283-1.025c-0.475-0.324-0.99-0.583-1.533-0.771c-0.51-0.258-1.059-0.43-1.625-0.508
				c-2.782-0.561-5.661,0.303-7.675,2.304c-1.561,1.634-2.445,3.799-2.475,6.059c0.014,2.263,0.9,4.433,2.475,6.059
				C140.644,178.283,142.808,179.167,145.067,179.2z"/>
			<path d="M149.842,197.717c-0.475-0.324-0.99-0.583-1.533-0.771c-0.51-0.258-1.059-0.43-1.625-0.508
				c-2.78-0.518-5.64,0.34-7.675,2.304c-0.753,0.829-1.359,1.78-1.792,2.813c-0.438,1.027-0.67,2.13-0.683,3.246
				c-0.022,2.27,0.87,4.453,2.475,6.058s3.788,2.497,6.058,2.475c0.542-0.016,1.083-0.073,1.617-0.171
				c0.566-0.082,1.115-0.255,1.625-0.513c0.543-0.188,1.059-0.447,1.533-0.771c0.449-0.313,0.878-0.654,1.284-1.021
				c3.3-3.365,3.3-8.752,0-12.117C150.719,198.374,150.291,198.031,149.842,197.717z"/>
		</g>
	</g>
</g>
<g>
</g>
<g>
</g>
<g>
</g>
<g>
</g>
<g>
</g>
<g>
</g>
<g>
</g>
<g>
</g>
<g>
</g>
<g>
</g>
<g>
</g>
<g>
</g>
<g>
</g>
<g>
</g>
<g>
</g>
</svg>
