<?xml version="1.0" encoding="iso-8859-1"?>
<!-- Generator: Adobe Illustrator 19.0.0, SVG Export Plug-In . SVG Version: 6.00 Build 0)  -->
<svg version="1.1" id="Capa_1" xmlns="http://www.w3.org/2000/svg" xmlns:xlink="http://www.w3.org/1999/xlink" x="0px" y="0px"
	 viewBox="0 0 512 512" style="enable-background:new 0 0 512 512;" xml:space="preserve">
<g>
	<g>
		<g>
			<path d="M511.991,349.82c-0.057-0.553-0.168-1.1-0.329-1.632c-0.066-0.577-0.189-1.146-0.369-1.698l-0.009-0.044l-44.075-100.742
				c-10.87-24.849-35.42-40.905-62.542-40.904H153.6V25.6C153.6,11.461,142.138,0,128,0s-25.6,11.461-25.6,25.6v179.564
				c-25.241,1.767-47.424,17.378-57.609,40.541L0.717,346.446l-0.01,0.046c-0.176,0.546-0.298,1.109-0.365,1.679
				c-0.163,0.537-0.275,1.089-0.332,1.647L0,349.867v68.267c0.033,10.813,6.868,20.435,17.067,24.027v10.106
				c0.015,14.132,11.468,25.585,25.6,25.6v17.067c0.009,9.422,7.645,17.057,17.067,17.067H102.4
				c9.422-0.009,17.057-7.645,17.067-17.067v-17.067h273.067v17.067c0.009,9.422,7.645,17.057,17.067,17.067h42.667
				c9.421-0.011,17.056-7.645,17.067-17.067v-17.067c14.132-0.015,25.585-11.468,25.6-25.6v-10.106
				c10.199-3.593,17.033-13.215,17.067-24.028v-68.267L511.991,349.82z M119.467,25.6c0.006-4.71,3.823-8.527,8.533-8.533
				c4.71,0.006,8.527,3.823,8.533,8.533v8.533h-17.067V25.6z M119.467,51.2h17.067v17.067h-17.067V51.2z M119.467,85.333h17.067
				V204.8h-17.067V85.333z M60.425,252.546c8.153-18.637,26.566-30.679,46.908-30.679h297.333
				c20.343-0.001,38.756,12.042,46.909,30.679l38.844,88.788H21.58L60.425,252.546z M59.733,494.933v-17.067h42.671l0.008,17.067
				H59.733z M409.6,494.933v-17.067h42.667l0.009,17.067H409.6z M477.867,452.267c-0.005,4.711-3.822,8.529-8.533,8.533H42.667
				c-4.71-0.006-8.527-3.823-8.533-8.533v-8.533h443.733V452.267z M494.933,418.133c-0.005,4.711-3.822,8.529-8.533,8.533H25.6
				c-4.71-0.006-8.527-3.823-8.533-8.533V358.4h477.867V418.133z"/>
			<path d="M119.467,401.067h17.067c4.713,0,8.533-3.821,8.533-8.533c0-4.713-3.82-8.533-8.533-8.533h-17.067
				c-4.713,0-8.533,3.821-8.533,8.533C110.933,397.246,114.754,401.067,119.467,401.067z"/>
			<path d="M170.667,401.067h17.067c4.713,0,8.533-3.821,8.533-8.533c0-4.713-3.82-8.533-8.533-8.533h-17.067
				c-4.713,0-8.533,3.821-8.533,8.533C162.133,397.246,165.954,401.067,170.667,401.067z"/>
			<path d="M221.867,401.067h17.067c4.713,0,8.533-3.821,8.533-8.533c0-4.713-3.82-8.533-8.533-8.533h-17.067
				c-4.713,0-8.533,3.821-8.533,8.533C213.333,397.246,217.154,401.067,221.867,401.067z"/>
			<path d="M273.067,401.067h17.067c4.713,0,8.533-3.821,8.533-8.533c0-4.713-3.82-8.533-8.533-8.533h-17.067
				c-4.713,0-8.533,3.821-8.533,8.533C264.533,397.246,268.354,401.067,273.067,401.067z"/>
			<path d="M324.267,401.067h17.067c4.713,0,8.533-3.821,8.533-8.533c0-4.713-3.82-8.533-8.533-8.533h-17.067
				c-4.713,0-8.533,3.821-8.533,8.533C315.733,397.246,319.554,401.067,324.267,401.067z"/>
			<path d="M375.467,401.067h17.067c4.713,0,8.533-3.821,8.533-8.533c0-4.713-3.821-8.533-8.533-8.533h-17.067
				c-4.713,0-8.533,3.821-8.533,8.533C366.933,397.246,370.754,401.067,375.467,401.067z"/>
			<path d="M99.845,258.555c-3.311-3.311-8.671-3.335-12.012-0.054l-17.067,17.067c-2.44,2.44-3.169,6.11-1.849,9.298
				c1.32,3.188,4.431,5.267,7.882,5.268c2.264,0.003,4.435-0.897,6.033-2.5L99.9,270.566
				C103.18,267.226,103.156,261.865,99.845,258.555z"/>
			<path d="M110.933,256c0.571-0.016,1.141-0.073,1.704-0.171c0.535-0.095,1.053-0.268,1.537-0.513
				c0.544-0.187,1.062-0.447,1.538-0.771c0.929-0.585,1.715-1.371,2.3-2.3c0.324-0.476,0.583-0.993,0.771-1.538
				c0.245-0.485,0.418-1.003,0.513-1.537c0.098-0.563,0.155-1.133,0.171-1.704c-0.033-2.259-0.917-4.422-2.475-6.059
				c-0.405-0.367-0.833-0.709-1.279-1.025c-0.476-0.324-0.993-0.583-1.538-0.771c-0.484-0.246-1.002-0.417-1.537-0.508
				c-2.81-0.574-5.721,0.29-7.763,2.304c-2.462,2.441-3.202,6.129-1.872,9.331C104.332,253.941,107.467,256.02,110.933,256z"/>
			<path d="M156.1,241.434L87.834,309.7c-1.601,1.6-2.5,3.77-2.5,6.033s0.899,4.433,2.5,6.033c1.6,1.601,3.77,2.5,6.033,2.5
				s4.433-0.899,6.033-2.5l68.267-68.267c3.296-3.338,3.279-8.711-0.038-12.029C164.811,238.154,159.438,238.137,156.1,241.434z"/>
		</g>
	</g>
</g>
<g>
</g>
<g>
</g>
<g>
</g>
<g>
</g>
<g>
</g>
<g>
</g>
<g>
</g>
<g>
</g>
<g>
</g>
<g>
</g>
<g>
</g>
<g>
</g>
<g>
</g>
<g>
</g>
<g>
</g>
</svg>
