<?xml version="1.0" encoding="iso-8859-1"?>
<!-- Generator: Adobe Illustrator 19.0.0, SVG Export Plug-In . SVG Version: 6.00 Build 0)  -->
<svg version="1.1" id="Capa_1" xmlns="http://www.w3.org/2000/svg" xmlns:xlink="http://www.w3.org/1999/xlink" x="0px" y="0px"
	 viewBox="0 0 512 512" style="enable-background:new 0 0 512 512;" xml:space="preserve">
<g>
	<g>
		<g>
			<path d="M315.733,349.867c32.99,0,59.733-26.744,59.733-59.733c-0.037-32.974-26.759-59.696-59.733-59.733
				c-32.99,0-59.733,26.744-59.733,59.733S282.744,349.867,315.733,349.867z M315.733,247.467c23.564,0,42.667,19.103,42.667,42.667
				c-0.028,23.553-19.114,42.639-42.667,42.667c-23.564,0-42.667-19.102-42.667-42.667S292.169,247.467,315.733,247.467z"/>
			<path d="M409.6,477.867c14.138,0,25.6-11.462,25.6-25.6c-0.015-14.132-11.468-25.585-25.6-25.6c-14.138,0-25.6,11.462-25.6,25.6
				C384,466.405,395.462,477.867,409.6,477.867z M409.6,443.733c4.713,0,8.533,3.821,8.533,8.533
				c-0.006,4.71-3.823,8.527-8.533,8.533c-4.713,0-8.533-3.821-8.533-8.533C401.067,447.554,404.887,443.733,409.6,443.733z"/>
			<path d="M298.667,298.667H332.8c4.713,0,8.533-3.82,8.533-8.533s-3.82-8.533-8.533-8.533h-34.133
				c-4.713,0-8.533,3.82-8.533,8.533S293.954,298.667,298.667,298.667z"/>
			<path d="M443.733,145.067h-93.867V102.4c0-4.713-3.821-8.533-8.533-8.533v-8.533C341.281,38.227,303.107,0.052,256,0H153.6
				c-47.107,0.052-85.281,38.227-85.333,85.333V204.8h-8.533c-9.422,0.009-17.057,7.645-17.067,17.067V307.2
				c0.019,6.07,3.271,11.669,8.533,14.693V384c0,4.713,3.82,8.533,8.533,8.533H128c4.713,0,8.533-3.82,8.533-8.533v-62.107
				c5.262-3.024,8.514-8.624,8.533-14.693v-85.333c-0.009-9.422-7.645-17.057-17.067-17.067h-8.533V85.333
				c0.022-18.842,15.291-34.112,34.133-34.133H256c18.842,0.022,34.112,15.291,34.133,34.133v8.533c-4.713,0-8.533,3.82-8.533,8.533
				v42.667h-93.867c-14.132,0.015-25.585,11.468-25.6,25.6V486.4c0.015,14.132,11.468,25.585,25.6,25.6h256
				c14.132-0.015,25.585-11.468,25.6-25.6V170.667C469.318,156.535,457.865,145.082,443.733,145.067z M119.467,341.333h-8.533
				c-4.713,0-8.533,3.82-8.533,8.533s3.821,8.533,8.533,8.533h8.533v17.067h-51.2V358.4H76.8c4.713,0,8.533-3.82,8.533-8.533
				s-3.82-8.533-8.533-8.533h-8.533v-17.067h51.2V341.333z M128,221.867l0.012,85.333H59.733v-85.333H128z M256,34.133H153.6
				c-28.264,0.031-51.169,22.936-51.2,51.2V204.8H85.333V85.333c0.043-37.685,30.582-68.224,68.267-68.267H256
				c37.685,0.043,68.224,30.582,68.267,68.267v8.533H307.2v-8.533C307.169,57.069,284.264,34.164,256,34.133z M332.8,110.933v34.133
				h-34.133v-34.133H332.8z M452.267,486.4c-0.006,4.71-3.823,8.527-8.533,8.533h-256c-4.71-0.006-8.527-3.823-8.533-8.533V204.8
				h273.067V486.4z M452.267,187.733H179.2v-17.067c0.006-4.71,3.823-8.527,8.533-8.533h256c4.71,0.006,8.527,3.823,8.533,8.533
				V187.733z"/>
		</g>
	</g>
</g>
<g>
</g>
<g>
</g>
<g>
</g>
<g>
</g>
<g>
</g>
<g>
</g>
<g>
</g>
<g>
</g>
<g>
</g>
<g>
</g>
<g>
</g>
<g>
</g>
<g>
</g>
<g>
</g>
<g>
</g>
</svg>
