<?xml version="1.0" encoding="iso-8859-1"?>
<!-- Generator: Adobe Illustrator 19.0.0, SVG Export Plug-In . SVG Version: 6.00 Build 0)  -->
<svg version="1.1" id="Capa_1" xmlns="http://www.w3.org/2000/svg" xmlns:xlink="http://www.w3.org/1999/xlink" x="0px" y="0px"
	 viewBox="0 0 512 512" style="enable-background:new 0 0 512 512;" xml:space="preserve">
<g>
	<g>
		<g>
			<path d="M431.875,7.533C384.888,2.675,322.425,0,256,0S127.113,2.675,80.125,7.533C6.129,15.183,0,24.479,0,34.133v325.463
				c0.01,5.539,2.673,10.739,7.163,13.983c4.382,3.212,10.052,4.09,15.2,2.354c24.199-8.046,87.987-14.184,165.371-16.507V460.8
				h-42.667c-14.138,0-25.6,11.461-25.6,25.6s11.461,25.6,25.6,25.6h221.867c14.138,0,25.6-11.461,25.6-25.6s-11.461-25.6-25.6-25.6
				h-42.667V359.426c77.383,2.323,141.171,8.461,165.367,16.507c5.148,1.748,10.826,0.869,15.204-2.354
				c4.49-3.245,7.153-8.444,7.163-13.983V34.133C512,24.479,505.871,15.183,431.875,7.533z M366.933,477.867
				c4.71,0.006,8.527,3.823,8.533,8.533c-0.006,4.71-3.823,8.527-8.533,8.533H145.067c-4.713,0-8.533-3.82-8.533-8.533
				s3.82-8.533,8.533-8.533H366.933z M236.428,395.426c11.752,8.224,27.392,8.224,39.145,0c11.752-8.224,17.11-22.918,13.409-36.776
				c6.137,0.086,12.21,0.197,18.219,0.331V460.8H204.8V358.981c6.013-0.133,12.085-0.244,18.219-0.331
				C219.318,372.508,224.676,387.202,236.428,395.426z M238.933,366.933c0.007-2.978,0.803-5.901,2.308-8.471
				c4.903-0.031,9.806-0.062,14.759-0.062c4.953,0,9.856,0.031,14.759,0.062c1.504,2.57,2.301,5.493,2.308,8.471
				c0,9.426-7.641,17.067-17.067,17.067S238.933,376.359,238.933,366.933z M275.747,341.417c-0.267-0.023-0.521-0.006-0.79-0.004
				c-6.271-0.049-12.59-0.076-18.958-0.08c-6.384,0-12.715,0.027-18.991,0.08c-0.252-0.001-0.489-0.018-0.74,0.003
				c-101.498,0.826-188.184,7.969-219.203,18.18V36.65C31.192,28.171,118.642,17.067,256,17.067s224.813,11.104,238.933,19.588
				l0.087,323.088C463.921,349.395,377.239,342.243,275.747,341.417z"/>
			<path d="M470.996,47.342C440.329,41.25,365.621,34.133,256,34.133S71.671,41.25,41.004,47.342
				c-3.994,0.794-6.871,4.299-6.871,8.371v272.162c-0.002,2.264,0.897,4.435,2.498,6.036c1.601,1.601,3.772,2.499,6.036,2.498
				c0.452-0.001,0.904-0.037,1.35-0.108c55.342-8.87,145.792-12.033,211.983-12.033s156.638,3.163,211.983,12.033
				c2.468,0.397,4.986-0.308,6.888-1.93c1.902-1.622,2.997-3.996,2.995-6.496V55.713C477.866,51.641,474.99,48.136,470.996,47.342z
				 M460.8,317.971c-67.989-7.697-136.379-11.293-204.8-10.771c-68.421-0.523-136.811,3.074-204.8,10.771V62.829
				C84.617,57.208,155.163,51.2,256,51.2s171.383,6.008,204.8,11.629V317.971z"/>
			<path d="M82.833,134.033l25.6-25.6c3.281-3.341,3.256-8.701-0.054-12.012s-8.671-3.335-12.012-0.054l-25.6,25.6
				c-2.188,2.149-3.055,5.307-2.27,8.271c0.785,2.965,3.1,5.28,6.065,6.065C77.527,137.088,80.684,136.221,82.833,134.033z"/>
			<path d="M128,85.333c0.571-0.016,1.141-0.073,1.704-0.171c0.535-0.095,1.053-0.268,1.537-0.513
				c0.525-0.17,1.015-0.431,1.45-0.771c0.513-0.338,0.938-0.679,1.367-1.021c3.3-3.365,3.3-8.752,0-12.117
				c-2.493-2.347-6.116-3.046-9.304-1.796c-1.054,0.393-2.013,1.005-2.813,1.795c-2.462,2.441-3.201,6.129-1.872,9.331
				C121.399,83.274,124.533,85.354,128,85.333z"/>
			<path d="M173.167,70.767L79.3,164.634c-2.188,2.149-3.055,5.307-2.27,8.271c0.785,2.965,3.1,5.28,6.065,6.065
				c2.965,0.785,6.122-0.082,8.271-2.27l93.867-93.867c3.281-3.341,3.256-8.701-0.054-12.012
				C181.868,67.511,176.508,67.486,173.167,70.767z"/>
		</g>
	</g>
</g>
<g>
</g>
<g>
</g>
<g>
</g>
<g>
</g>
<g>
</g>
<g>
</g>
<g>
</g>
<g>
</g>
<g>
</g>
<g>
</g>
<g>
</g>
<g>
</g>
<g>
</g>
<g>
</g>
<g>
</g>
</svg>
