<?xml version="1.0" encoding="iso-8859-1"?>
<!-- Generator: Adobe Illustrator 19.0.0, SVG Export Plug-In . SVG Version: 6.00 Build 0)  -->
<svg version="1.1" id="Capa_1" xmlns="http://www.w3.org/2000/svg" xmlns:xlink="http://www.w3.org/1999/xlink" x="0px" y="0px"
	 viewBox="0 0 512 512" style="enable-background:new 0 0 512 512;" xml:space="preserve">
<g>
	<g>
		<g>
			<path d="M504.467,253.467l-32.621-32.621c-4.795-4.828-11.325-7.534-18.129-7.512H339.871c-2.266,0.006-4.44-0.894-6.037-2.5
				l-15.588-15.587c-4.795-4.828-11.325-7.533-18.129-7.512h-9.983v-17.067c-0.019-6.07-3.271-11.669-8.533-14.693V8.533
				C281.6,3.821,277.78,0,273.067,0h-34.133c-4.713,0-8.533,3.82-8.533,8.533v147.44c-5.262,3.024-8.514,8.624-8.533,14.693v17.067
				h-9.983c-6.802-0.021-13.33,2.683-18.125,7.508l-15.592,15.591c-1.598,1.606-3.772,2.506-6.037,2.5H58.283
				c-6.802-0.021-13.33,2.683-18.125,7.508l-32.65,32.65C2.686,258.288-0.018,264.815,0,271.617v182.1
				c-0.018,6.802,2.685,13.328,7.508,18.125l32.65,32.65c4.796,4.823,11.323,7.527,18.125,7.509h36.996
				c6.818-0.019,13.353-2.726,18.188-7.533l1-1h283.067l1.025,1.025c4.797,4.823,11.323,7.527,18.125,7.508h37.033
				c6.802,0.018,13.328-2.685,18.125-7.508l32.65-32.65c4.823-4.797,7.527-11.323,7.508-18.125V271.654
				C511.981,264.836,509.274,258.301,504.467,253.467z M247.467,17.067h17.067V153.6h-17.067V17.067z M238.933,170.667h34.133
				v17.067h-34.133V170.667z M131.533,486.4l14.563-14.562c1.603-1.61,3.783-2.511,6.054-2.504h207.663
				c2.297-0.007,4.501,0.906,6.121,2.533l14.533,14.533H131.533z M494.933,453.717c0.006,2.273-0.897,4.455-2.509,6.059
				l-32.65,32.65c-1.604,1.612-3.785,2.515-6.059,2.509h-37.033c-2.273,0.006-4.455-0.897-6.059-2.509l-3.522-3.522l-0.005-0.005
				L378,459.8c-4.813-4.84-11.362-7.552-18.187-7.534H152.15c-6.802-0.021-13.33,2.683-18.125,7.508l-29.122,29.122l-0.005,0.005
				L101.4,492.4c-1.628,1.616-3.827,2.526-6.121,2.533H58.283c-2.273,0.006-4.455-0.897-6.059-2.509l-32.649-32.65
				c-1.611-1.604-2.515-3.785-2.509-6.059v-182.1c-0.006-2.273,0.897-4.455,2.509-6.059l32.654-32.654
				c1.603-1.609,3.782-2.511,6.054-2.504h113.846c6.794,0.019,13.314-2.682,18.104-7.5l15.596-15.596
				c1.603-1.61,3.783-2.511,6.054-2.504h88.233c2.274-0.007,4.455,0.896,6.059,2.508l15.591,15.592
				c4.79,4.818,11.31,7.519,18.104,7.5h113.846c2.274-0.007,4.455,0.896,6.059,2.508l32.625,32.625
				c1.616,1.628,2.526,3.827,2.533,6.121V453.717z"/>
			<path d="M68.267,298.667h17.067c9.422-0.009,17.057-7.645,17.067-17.067v-17.067c-0.009-9.422-7.645-17.057-17.067-17.067H68.267
				c-9.422,0.009-17.057,7.645-17.067,17.067V281.6C51.21,291.022,58.845,298.657,68.267,298.667z M68.267,264.533h17.067
				l0.013,17.067H68.267V264.533z"/>
			<path d="M170.667,247.467H153.6c-9.422,0.009-17.057,7.645-17.067,17.067V281.6c0.009,9.422,7.645,17.057,17.067,17.067h17.067
				c9.422-0.009,17.057-7.645,17.067-17.067v-17.067C187.724,255.112,180.089,247.476,170.667,247.467z M153.6,281.6v-17.067h17.067
				l0.012,17.067H153.6z"/>
			<path d="M221.867,298.667h17.067c9.422-0.009,17.057-7.645,17.067-17.067v-17.067c-0.009-9.422-7.645-17.057-17.067-17.067
				h-17.067c-9.422,0.009-17.057,7.645-17.067,17.067V281.6C204.81,291.022,212.445,298.657,221.867,298.667z M221.867,264.533
				h17.067l0.012,17.067h-17.079V264.533z"/>
			<path d="M307.2,247.467h-17.067c-9.422,0.009-17.057,7.645-17.067,17.067V281.6c0.009,9.422,7.645,17.057,17.067,17.067H307.2
				c9.422-0.009,17.057-7.645,17.067-17.067v-17.067C324.257,255.112,316.622,247.476,307.2,247.467z M290.133,281.6v-17.067H307.2
				l0.012,17.067H290.133z"/>
			<path d="M375.467,247.467H358.4c-9.422,0.009-17.057,7.645-17.067,17.067V281.6c0.009,9.422,7.645,17.057,17.067,17.067h17.067
				c9.422-0.009,17.057-7.645,17.067-17.067v-17.067C392.524,255.112,384.889,247.476,375.467,247.467z M358.4,281.6v-17.067h17.067
				l0.012,17.067H358.4z"/>
			<path d="M443.733,247.467h-17.067c-9.422,0.009-17.057,7.645-17.067,17.067V281.6c0.009,9.422,7.645,17.057,17.067,17.067h17.067
				c9.422-0.009,17.057-7.645,17.067-17.067v-17.067C460.791,255.112,453.155,247.476,443.733,247.467z M426.667,281.6v-17.067
				h17.067l0.013,17.067H426.667z"/>
			<path d="M170.667,315.733H153.6c-9.422,0.009-17.057,7.645-17.067,17.067v17.067c0.009,9.422,7.645,17.057,17.067,17.067h17.067
				c9.422-0.009,17.057-7.645,17.067-17.067V332.8C187.724,323.378,180.089,315.743,170.667,315.733z M153.6,349.867V332.8h17.067
				l0.012,17.067H153.6z"/>
			<path d="M102.4,315.733H68.267c-9.422,0.009-17.057,7.645-17.067,17.067v17.067c0.009,9.422,7.645,17.057,17.067,17.067H102.4
				c9.422-0.009,17.057-7.645,17.067-17.067V332.8C119.457,323.378,111.822,315.743,102.4,315.733z M68.267,349.867V332.8H102.4
				l0.012,17.067H68.267z"/>
			<path d="M221.867,366.933h17.067c9.422-0.009,17.057-7.645,17.067-17.067V332.8c-0.009-9.422-7.645-17.057-17.067-17.067h-17.067
				c-9.422,0.009-17.057,7.645-17.067,17.067v17.067C204.81,359.289,212.445,366.924,221.867,366.933z M221.867,332.8h17.067
				l0.012,17.067h-17.079V332.8z"/>
			<path d="M307.2,315.733h-17.067c-9.422,0.009-17.057,7.645-17.067,17.067v17.067c0.009,9.422,7.645,17.057,17.067,17.067H307.2
				c9.422-0.009,17.057-7.645,17.067-17.067V332.8C324.257,323.378,316.622,315.743,307.2,315.733z M290.133,349.867V332.8H307.2
				l0.012,17.067H290.133z"/>
			<path d="M375.467,315.733H358.4c-9.422,0.009-17.057,7.645-17.067,17.067v17.067c0.009,9.422,7.645,17.057,17.067,17.067h17.067
				c9.422-0.009,17.057-7.645,17.067-17.067V332.8C392.524,323.378,384.889,315.743,375.467,315.733z M358.4,349.867V332.8h17.067
				l0.012,17.067H358.4z"/>
			<path d="M443.733,315.733h-17.067c-9.422,0.009-17.057,7.645-17.067,17.067v17.067c0.009,9.422,7.645,17.057,17.067,17.067
				h17.067c9.422-0.009,17.057-7.645,17.067-17.067V332.8C460.791,323.378,453.155,315.743,443.733,315.733z M426.667,349.867V332.8
				h17.067l0.013,17.067H426.667z"/>
			<path d="M170.667,384H153.6c-9.422,0.009-17.057,7.645-17.067,17.067v17.067c0.009,9.422,7.645,17.057,17.067,17.067h17.067
				c9.422-0.009,17.057-7.645,17.067-17.067v-17.067C187.724,391.645,180.089,384.009,170.667,384z M153.6,418.133v-17.067h17.067
				l0.012,17.067H153.6z"/>
			<path d="M102.4,384H68.267c-9.422,0.009-17.057,7.645-17.067,17.067v17.067c0.009,9.422,7.645,17.057,17.067,17.067H102.4
				c9.422-0.009,17.057-7.645,17.067-17.067v-17.067C119.457,391.645,111.822,384.009,102.4,384z M68.267,418.133v-17.067H102.4
				l0.012,17.067H68.267z"/>
			<path d="M307.2,384h-85.333c-9.422,0.009-17.057,7.645-17.067,17.067v17.067c0.009,9.422,7.645,17.057,17.067,17.067H307.2
				c9.422-0.009,17.057-7.645,17.067-17.067v-17.067C324.257,391.645,316.622,384.009,307.2,384z M307.2,418.133h-85.333v-17.067
				H307.2V418.133z"/>
			<path d="M375.467,384H358.4c-9.422,0.009-17.057,7.645-17.067,17.067v17.067c0.009,9.422,7.645,17.057,17.067,17.067h17.067
				c9.422-0.009,17.057-7.645,17.067-17.067v-17.067C392.524,391.645,384.889,384.009,375.467,384z M358.4,418.133v-17.067h17.067
				l0.012,17.067H358.4z"/>
			<path d="M443.733,384h-17.067c-9.422,0.009-17.057,7.645-17.067,17.067v17.067c0.009,9.422,7.645,17.057,17.067,17.067h17.067
				c9.422-0.009,17.057-7.645,17.067-17.067v-17.067C460.791,391.645,453.155,384.009,443.733,384z M426.667,418.133v-17.067h17.067
				l0.013,17.067H426.667z"/>
		</g>
	</g>
</g>
<g>
</g>
<g>
</g>
<g>
</g>
<g>
</g>
<g>
</g>
<g>
</g>
<g>
</g>
<g>
</g>
<g>
</g>
<g>
</g>
<g>
</g>
<g>
</g>
<g>
</g>
<g>
</g>
<g>
</g>
</svg>
