<?xml version="1.0" encoding="iso-8859-1"?>
<!-- Generator: Adobe Illustrator 19.0.0, SVG Export Plug-In . SVG Version: 6.00 Build 0)  -->
<svg version="1.1" id="Capa_1" xmlns="http://www.w3.org/2000/svg" xmlns:xlink="http://www.w3.org/1999/xlink" x="0px" y="0px"
	 viewBox="0 0 512.025 512.025" style="enable-background:new 0 0 512.025 512.025;" xml:space="preserve">
<g>
	<g>
		<path d="M512.006,34.496c-0.001-2.263-0.9-4.433-2.5-6.033L483.539,2.5c-1.6-1.601-3.77-2.5-6.033-2.5s-4.433,0.899-6.033,2.5
			l-72.002,71.994l-0.457-0.457c-1.6-1.601-3.77-2.5-6.033-2.5s-4.433,0.899-6.033,2.5l-30.3,30.296l-5.496-5.495
			c-16.805-16.801-40.073-25.484-63.776-23.8c-23.703,1.684-45.509,13.57-59.77,32.579l-29.642,39.521
			c-11.264,15.015-22.261,30.291-33.12,45.68c-13.522,7.537-25.542,13.989-36.68,19.675c-13.758,7.162-26.033,13.141-37.596,18.313
			c-5.884,2.559-11.899,4.804-18.021,6.725c-8.366,2.553-16.508,5.792-24.342,9.683c-33.446,18.041-43.6,71.383-46.413,93.458
			c-2.227,16.273-2.357,32.765-0.388,49.071c1.333,17.3,7.078,33.969,16.688,48.417c2.433,3.047,5.065,5.93,7.879,8.629L64.66,485.6
			c3.034,3.205,6.339,6.141,9.879,8.775c2.862,1.964,5.88,3.689,9.025,5.158c18.948,8.633,39.595,12.892,60.412,12.463
			c9.132-0.028,18.254-0.639,27.308-1.829c22.096-2.813,75.437-12.962,93.512-46.463c3.881-7.822,7.113-15.949,9.663-24.3
			c1.928-6.144,4.184-12.181,6.758-18.083c5.142-11.504,11.121-23.775,18.308-37.579c5.654-11.079,11.921-22.759,19.587-36.505
			c15.421-10.878,30.669-21.951,45.743-33.22l39.525-29.638v-0.004c19.011-14.257,30.899-36.062,32.584-59.765
			c1.684-23.703-7.001-46.971-23.805-63.772l-5.494-5.493l30.298-30.298c1.601-1.6,2.5-3.77,2.5-6.033s-0.899-4.433-2.5-6.033
			l-0.456-0.456l71.997-71.994C511.106,38.929,512.005,36.759,512.006,34.496z M241.255,117.858
			c7.756-10.297,18.407-18.048,30.59-22.26l7.36,7.36c3.811,3.85,3.811,10.05,0,13.9l-19.934,19.929l-18.409-18.406L241.255,117.858
			z M211.614,157.379l18.906-25.207l16.683,16.681l-19.935,19.93c-3.9,3.683-9.996,3.683-13.896,0l-5.813-5.813
			C208.933,161.127,210.235,159.217,211.614,157.379z M56.252,262.262c6.996-3.432,14.259-6.291,21.717-8.55
			c1.881-0.629,3.791-1.306,5.694-1.962l-7.007,13.258c-14.31,27.139-33.645,51.314-56.976,71.238
			C22.858,316.396,32.213,275.229,56.252,262.262z M258.277,433.983c-2.256,7.439-5.107,14.685-8.525,21.667
			c-13.004,24.102-54.197,33.455-74.049,36.632c19.926-23.334,44.105-42.67,71.249-56.978l13.291-7.024
			C259.586,430.186,258.906,432.101,258.277,433.983z M284.36,375.925c-5.128,9.842-9.642,18.929-13.706,27.547l-31.681,16.745
			c-34.207,18.011-63.948,43.451-87.04,74.455c-20.893,1.558-41.849-2.06-61.01-10.534c-2.296-1.068-4.501-2.319-6.596-3.742
			c-2.714-2.079-5.256-4.374-7.6-6.862l-38.688-38.813c-2.265-2.162-4.39-4.465-6.362-6.896
			c-7.755-12.097-12.345-25.949-13.346-40.283c-1.11-9.14-1.446-18.356-1.006-27.553c30.982-23.09,56.409-52.816,74.418-87.002
			l16.725-31.643c8.632-4.072,17.709-8.578,27.516-13.686c2.52-1.285,5.109-2.63,7.727-3.997
			c-29.584,43.671-57.657,88.45-83.493,134.151c-15.198,26.96-10.573,60.743,11.311,82.627
			c21.884,21.884,55.667,26.508,82.627,11.311c45.566-25.755,90.367-53.533,133.924-83.018
			C286.815,371.157,285.562,373.567,284.36,375.925z M354.614,300.362c-1.839,1.379-3.75,2.682-5.595,4.055l-5.814-5.813
			c-3.811-3.848-3.811-10.048,0-13.896l19.935-19.932l16.681,16.681L354.614,300.362z M394.139,270.721l-0.526,0.395l-18.405-18.405
			l19.935-19.932c3.9-3.683,9.996-3.683,13.896,0l7.361,7.361C412.188,252.322,404.437,262.969,394.139,270.721z M420,219.822
			c-10.717-9.214-26.667-8.829-36.928,0.89l-51.933,51.925c-10.478,10.513-10.478,27.52,0,38.033l3.889,3.889
			c-60.672,44.407-123.87,85.254-189.277,122.336c-20.284,11.471-45.729,8.005-62.206-8.473
			c-16.478-16.478-19.943-41.922-8.473-62.206c37.085-65.4,77.935-128.591,122.345-189.255l3.888,3.889
			c10.513,10.478,27.52,10.478,38.033,0l51.933-51.925c10.087-10.137,10.461-26.401,0.851-36.991
			c0.358-0.006,0.717-0.038,1.075-0.038c17.211,0,33.718,6.837,45.888,19.008l11.526,11.525l0.003,0.005l13.44,13.439
			l-39.864,39.862l-0.922-0.921c-6.671-6.645-17.46-6.643-24.129,0.004l-26.879,26.879c-6.654,6.67-6.654,17.467,0,24.137
			l0.912,0.912l-84.849,84.842c-2.156,2.156-2.997,5.297-2.208,8.242c0.789,2.944,3.089,5.244,6.033,6.033
			c2.944,0.789,6.086-0.053,8.242-2.208l84.849-84.842l0.917,0.917l0.004,0.004c6.671,6.646,17.461,6.644,24.129-0.004
			l26.888-26.883c6.647-6.672,6.645-17.464-0.004-24.133l-0.915-0.914l39.864-39.86l13.443,13.441l0.008,0.005l11.521,11.52
			C413.491,185.337,420.314,202.267,420,219.822z M325.106,200.783l-26.879,26.883l-0.009-0.009l-13.891-13.896l26.879-26.879
			L325.106,200.783z M395.598,143.278l-26.883-26.879l24.266-24.261l13.442,13.438l12.983,12.983l0.012,0.008l0.446,0.446
			L395.598,143.278z M425.439,100.458l-6.951-6.95l-6.95-6.95L477.505,20.6l13.9,13.896L425.439,100.458z"/>
	</g>
</g>
<g>
</g>
<g>
</g>
<g>
</g>
<g>
</g>
<g>
</g>
<g>
</g>
<g>
</g>
<g>
</g>
<g>
</g>
<g>
</g>
<g>
</g>
<g>
</g>
<g>
</g>
<g>
</g>
<g>
</g>
</svg>
