<?xml version="1.0" encoding="iso-8859-1"?>
<!-- Generator: Adobe Illustrator 19.0.0, SVG Export Plug-In . SVG Version: 6.00 Build 0)  -->
<svg version="1.1" id="Capa_1" xmlns="http://www.w3.org/2000/svg" xmlns:xlink="http://www.w3.org/1999/xlink" x="0px" y="0px"
	 viewBox="0 0 512 512" style="enable-background:new 0 0 512 512;" xml:space="preserve">
<g>
	<g>
		<g>
			<path d="M469.333,0H42.667C19.114,0.028,0.028,19.114,0,42.667v426.667C0.028,492.886,19.114,511.972,42.667,512h426.667
				c23.553-0.028,42.639-19.114,42.667-42.667V42.667C511.972,19.114,492.886,0.028,469.333,0z M494.933,469.333
				c-0.015,14.132-11.468,25.585-25.6,25.6H42.667c-14.132-0.015-25.585-11.468-25.6-25.6V42.667
				c0.015-14.132,11.468-25.585,25.6-25.6h426.667c14.132,0.015,25.585,11.468,25.6,25.6V469.333z"/>
			<path d="M256,34.133C133.466,34.133,34.133,133.466,34.133,256S133.466,477.867,256,477.867S477.867,378.534,477.867,256
				C477.73,133.523,378.477,34.27,256,34.133z M256,460.8c-113.108,0-204.8-91.692-204.8-204.8S142.892,51.2,256,51.2
				S460.8,142.892,460.8,256C460.671,369.054,369.054,460.671,256,460.8z"/>
			<path d="M256,68.267C152.318,68.267,68.267,152.318,68.267,256S152.318,443.733,256,443.733S443.733,359.682,443.733,256
				C443.616,152.366,359.634,68.384,256,68.267z M256,426.667c-94.257,0-170.667-76.41-170.667-170.667S161.743,85.333,256,85.333
				S426.667,161.743,426.667,256C426.56,350.213,350.213,426.56,256,426.667z"/>
			<path d="M59.733,85.333c14.138,0,25.6-11.461,25.6-25.6s-11.461-25.6-25.6-25.6s-25.6,11.461-25.6,25.6
				C34.149,73.865,45.601,85.318,59.733,85.333z M59.733,51.2c4.713,0,8.533,3.82,8.533,8.533s-3.82,8.533-8.533,8.533
				s-8.533-3.82-8.533-8.533C51.205,55.022,55.022,51.205,59.733,51.2z"/>
			<path d="M59.733,426.667c-14.138,0-25.6,11.462-25.6,25.6c0,14.138,11.461,25.6,25.6,25.6s25.6-11.462,25.6-25.6
				C85.318,438.135,73.865,426.682,59.733,426.667z M59.733,460.8c-4.713,0-8.533-3.821-8.533-8.533c0-4.713,3.82-8.533,8.533-8.533
				s8.533,3.821,8.533,8.533C68.262,456.978,64.444,460.795,59.733,460.8z"/>
			<path d="M452.267,34.133c-14.138,0-25.6,11.461-25.6,25.6s11.462,25.6,25.6,25.6c14.138,0,25.6-11.461,25.6-25.6
				C477.851,45.601,466.399,34.149,452.267,34.133z M452.267,68.267c-4.713,0-8.533-3.82-8.533-8.533s3.821-8.533,8.533-8.533
				c4.713,0,8.533,3.82,8.533,8.533C460.795,64.444,456.978,68.262,452.267,68.267z"/>
			<path d="M452.267,426.667c-14.138,0-25.6,11.462-25.6,25.6c0,14.138,11.462,25.6,25.6,25.6c14.138,0,25.6-11.462,25.6-25.6
				C477.851,438.135,466.399,426.682,452.267,426.667z M452.267,460.8c-4.713,0-8.533-3.821-8.533-8.533
				c0-4.713,3.821-8.533,8.533-8.533c4.713,0,8.533,3.821,8.533,8.533C460.795,456.978,456.978,460.795,452.267,460.8z"/>
			<path d="M281.358,107.233c-1.455-2.852-4.382-4.651-7.583-4.663l-51.883-0.171h-0.025c-2.992,0.025-5.757,1.602-7.3,4.166
				s-1.644,5.745-0.266,8.401c2.779,5.314,24.368,49.033,11.113,91.719c-40.589-28.617-92.311-22.469-103.063-20.769
				c-3.161,0.501-5.776,2.727-6.775,5.767l-16.2,49.287c-1.417,4.447,0.967,9.213,5.375,10.746c1.362,0.469,2.82,0.592,4.242,0.358
				c5.898-0.991,54.146-8.042,90.654,17.774c-39.77,29.764-49.896,80.854-51.596,91.605c-0.5,3.159,0.805,6.333,3.383,8.225
				l41.875,30.633c1.459,1.055,3.216,1.619,5.017,1.613c0.477,0,0.954-0.037,1.425-0.113c2.271-0.384,4.295-1.657,5.625-3.537
				c0.77-1.093,1.272-2.352,1.467-3.675c0.874-5.928,9.078-53.975,44.916-80.727c16.013,47.009,61.478,72.437,71.176,77.385
				c2.85,1.451,6.272,1.187,8.867-0.683l42.075-30.354c3.781-2.782,4.64-8.078,1.933-11.913c-0.817-1.159-1.911-2.094-3.183-2.721
				c-5.36-2.665-48.492-25.317-62.879-67.611c49.619-0.708,87.865-36.138,95.571-43.835c2.266-2.262,3.076-5.601,2.1-8.65
				l-15.875-49.396c-0.939-2.846-3.292-4.997-6.21-5.677c-2.918-0.681-5.98,0.208-8.081,2.344
				c-4.195,4.281-39.175,38.307-83.802,38.91C308.115,164.247,286.292,116.94,281.358,107.233z M268.367,119.621
				c6.625,14.622,20.654,52.663,8.052,89.474c-10.432-4.563-22.096-5.485-33.116-2.618c6.401-29.134,3.539-59.54-8.186-86.968
				L268.367,119.621z M119.733,233.679L119.733,233.679l10.383-31.583c15.952-1.794,56.472-3.39,87.6,20.009
				c-7.571,8.497-12.062,19.295-12.75,30.655C179.237,237.675,149.438,231.004,119.733,233.679z M192.667,378.692L192.667,378.692
				l-26.834-19.629c3.231-15.715,14.215-54.722,46.066-77.103c5.725,9.833,14.594,17.451,25.178,21.626
				C214.813,323.385,199.287,349.642,192.667,378.692z M222.588,262.679c-3.161-15.948,5.382-31.908,20.406-38.123
				c15.023-6.215,32.345-0.954,41.375,12.566c9.029,13.52,7.253,31.536-4.243,43.032v0.004c-6.389,6.415-15.079,10.008-24.133,9.979
				C239.733,290.122,225.749,278.627,222.588,262.679z M379.358,193.963l10.167,31.654c-11.865,10.821-43.7,35.877-82.588,35.296
				c0.152-1.616,0.237-3.245,0.237-4.888c0.014-9.707-2.752-19.216-7.969-27.402C328.879,225.691,356.898,213.574,379.358,193.963z
				 M295.404,288.687c11.955,27.296,32.13,50.181,57.712,65.463l-26.958,19.454c-13.951-7.934-47.65-30.437-59.096-67.631
				c9.522-2.075,18.245-6.846,25.129-13.744C293.327,291.094,294.39,289.907,295.404,288.687z"/>
		</g>
	</g>
</g>
<g>
</g>
<g>
</g>
<g>
</g>
<g>
</g>
<g>
</g>
<g>
</g>
<g>
</g>
<g>
</g>
<g>
</g>
<g>
</g>
<g>
</g>
<g>
</g>
<g>
</g>
<g>
</g>
<g>
</g>
</svg>
