<?xml version="1.0" encoding="iso-8859-1"?>
<!-- Generator: Adobe Illustrator 19.0.0, SVG Export Plug-In . SVG Version: 6.00 Build 0)  -->
<svg version="1.1" id="Capa_1" xmlns="http://www.w3.org/2000/svg" xmlns:xlink="http://www.w3.org/1999/xlink" x="0px" y="0px"
	 viewBox="0 0 512 512" style="enable-background:new 0 0 512 512;" xml:space="preserve">
<g>
	<g>
		<g>
			<path d="M51.2,418.1h68.267c2.263,0.001,4.434-0.898,6.035-2.499c1.6-1.6,2.499-3.771,2.499-6.035V187.7
				c0.001-2.263-0.898-4.434-2.499-6.035c-1.6-1.6-3.771-2.499-6.035-2.499H51.2c-2.263-0.001-4.434,0.898-6.035,2.499
				c-1.6,1.6-2.499,3.771-2.499,6.035v221.867c-0.001,2.263,0.898,4.434,2.499,6.035C46.766,417.202,48.937,418.101,51.2,418.1z
				 M59.733,196.233h51.2v76.8h-51.2V196.233z M59.733,290.1h51.2v76.8h-51.2V290.1z M59.733,383.967h51.2v17.067h-51.2V383.967z"/>
			<path d="M162.133,418.1H230.4c2.263,0.001,4.434-0.898,6.035-2.499c1.6-1.6,2.499-3.771,2.499-6.035V187.7
				c0.001-2.263-0.898-4.434-2.499-6.035c-1.6-1.6-3.771-2.499-6.035-2.499h-68.267c-2.263-0.001-4.434,0.898-6.035,2.499
				c-1.6,1.6-2.499,3.771-2.499,6.035v221.867c-0.001,2.263,0.898,4.434,2.499,6.035C157.699,417.202,159.87,418.101,162.133,418.1z
				 M170.667,196.233h51.2v76.8h-51.2V196.233z M170.667,290.1h51.2v76.8h-51.2V290.1z M170.667,383.967h51.2v17.067h-51.2V383.967z
				"/>
			<path d="M281.6,418.1h68.267c2.263,0.001,4.434-0.898,6.035-2.499s2.499-3.771,2.499-6.035V187.7
				c0.001-2.263-0.898-4.434-2.499-6.035c-1.6-1.6-3.771-2.499-6.035-2.499H281.6c-2.263-0.001-4.434,0.898-6.035,2.499
				c-1.6,1.6-2.499,3.771-2.499,6.035v221.867c-0.001,2.263,0.898,4.434,2.499,6.035C277.166,417.202,279.337,418.101,281.6,418.1z
				 M290.133,196.233h51.2v76.8h-51.2V196.233z M290.133,290.1h51.2v76.8h-51.2V290.1z M290.133,383.967h51.2v17.067h-51.2V383.967z
				"/>
			<path d="M392.533,418.1H460.8c2.263,0.001,4.434-0.898,6.035-2.499c1.6-1.6,2.499-3.771,2.499-6.035V187.7
				c0.001-2.263-0.898-4.434-2.499-6.035c-1.6-1.6-3.771-2.499-6.035-2.499h-68.267c-2.263-0.001-4.434,0.898-6.035,2.499
				c-1.6,1.6-2.499,3.771-2.499,6.035v221.867c-0.001,2.263,0.898,4.434,2.499,6.035C388.099,417.202,390.27,418.101,392.533,418.1z
				 M401.067,196.233h51.2v76.8h-51.2V196.233z M401.067,290.1h51.2v76.8h-51.2V290.1z M401.067,383.967h51.2v17.067h-51.2V383.967z
				"/>
			<path d="M76.8,435.167c-2.263-0.001-4.434,0.898-6.035,2.499c-1.6,1.6-2.499,3.771-2.499,6.035v25.6
				c0,4.713,3.82,8.533,8.533,8.533s8.533-3.82,8.533-8.533v-25.6c0.001-2.263-0.898-4.434-2.499-6.035
				C81.234,436.065,79.063,435.166,76.8,435.167z"/>
			<path d="M196.267,435.167c-2.263-0.001-4.434,0.898-6.035,2.499c-1.6,1.6-2.499,3.771-2.499,6.035v25.6
				c0,4.713,3.82,8.533,8.533,8.533s8.533-3.82,8.533-8.533v-25.6c0.001-2.263-0.898-4.434-2.499-6.035
				C200.701,436.065,198.53,435.166,196.267,435.167z"/>
			<path d="M315.733,435.167c-2.263-0.001-4.434,0.898-6.035,2.499c-1.6,1.6-2.499,3.771-2.499,6.035v25.6
				c0,4.713,3.82,8.533,8.533,8.533s8.533-3.82,8.533-8.533v-25.6c0.001-2.263-0.898-4.434-2.499-6.035
				C320.168,436.065,317.997,435.166,315.733,435.167z"/>
			<path d="M426.667,435.167c-2.263-0.001-4.434,0.898-6.035,2.499c-1.6,1.6-2.499,3.771-2.499,6.035v25.6
				c0,4.713,3.82,8.533,8.533,8.533s8.533-3.82,8.533-8.533v-25.6c0.001-2.263-0.898-4.434-2.499-6.035
				C431.101,436.065,428.93,435.166,426.667,435.167z"/>
			<path d="M511.971,144.885c-0.031-0.945-0.219-1.878-0.557-2.761c-0.089-0.24-0.168-0.468-0.276-0.697
				c-0.082-0.177-0.117-0.367-0.213-0.539l-42.667-76.8c-1.504-2.709-4.359-4.389-7.458-4.388h-12.046L418,4.354
				c-2.312-4.072-7.474-5.519-11.566-3.244c-4.093,2.275-5.588,7.423-3.35,11.536L429.229,59.7h-48.742L349.733,4.354
				c-2.312-4.072-7.474-5.519-11.566-3.244c-4.093,2.275-5.588,7.423-3.35,11.536L360.962,59.7h-19.629
				c-2.628,0-5.108,1.212-6.725,3.283c-1.616,2.071-2.188,4.772-1.55,7.321l5.875,23.529H173.067l5.875-23.529
				c0.638-2.549,0.066-5.25-1.55-7.321c-1.616-2.071-4.097-3.283-6.725-3.283h-11.096l26.146-47.054
				c2.238-4.113,0.743-9.261-3.35-11.536c-4.093-2.275-9.254-0.827-11.566,3.244L140.046,59.7H82.771l26.146-47.054
				c2.237-4.113,0.743-9.261-3.35-11.536c-4.093-2.275-9.254-0.827-11.566,3.244L63.246,59.7H51.2
				c-3.099-0.002-5.954,1.678-7.458,4.388l-42.667,76.8c-0.096,0.172-0.131,0.364-0.213,0.541c-0.107,0.228-0.186,0.455-0.274,0.694
				c-0.338,0.884-0.526,1.818-0.558,2.764c0,0.052-0.03,0.095-0.03,0.148v341.333c0.015,14.132,11.468,25.585,25.6,25.6h460.8
				c14.132-0.015,25.585-11.468,25.6-25.6V145.033C512,144.981,511.971,144.937,511.971,144.885z M56.225,76.767h103.508
				l-5.875,23.529c-0.638,2.549-0.066,5.25,1.55,7.321c1.617,2.071,4.097,3.283,6.725,3.283h187.733
				c2.628,0,5.108-1.212,6.725-3.283c1.617-2.071,2.188-4.772,1.55-7.321l-5.875-23.529h103.508l33.192,59.733H23.033L56.225,76.767
				z M494.933,486.367c-0.005,4.711-3.822,8.529-8.533,8.533H25.6c-4.711-0.005-8.529-3.822-8.533-8.533v-332.8h477.867V486.367z"/>
		</g>
	</g>
</g>
<g>
</g>
<g>
</g>
<g>
</g>
<g>
</g>
<g>
</g>
<g>
</g>
<g>
</g>
<g>
</g>
<g>
</g>
<g>
</g>
<g>
</g>
<g>
</g>
<g>
</g>
<g>
</g>
<g>
</g>
</svg>
