<?xml version="1.0" encoding="iso-8859-1"?>
<!-- Generator: Adobe Illustrator 19.0.0, SVG Export Plug-In . SVG Version: 6.00 Build 0)  -->
<svg version="1.1" id="Capa_1" xmlns="http://www.w3.org/2000/svg" xmlns:xlink="http://www.w3.org/1999/xlink" x="0px" y="0px"
	 viewBox="0 0 512 512" style="enable-background:new 0 0 512 512;" xml:space="preserve">
<g>
	<g>
		<g>
			<path d="M50.52,282.037L50.52,282.037c-0.319,0.62-0.56,1.278-0.718,1.957c-16.93,46.565-3.116,98.747,34.636,130.837
				c0.278,0.293,0.577,0.565,0.895,0.813c38.044,32.155,92.1,37.185,135.423,12.601c0.385-0.194,0.754-0.418,1.103-0.671
				c43.303-24.59,66.513-73.714,58.01-122.781c-0.004-0.17-0.063-0.329-0.077-0.498c-8.948-53.169-52.447-93.727-106.112-98.937
				C120.016,200.149,69.528,231.582,50.52,282.037z M85.428,391.876c-16.547-18.635-25.689-42.689-25.695-67.609
				c-0.004-10.439,1.595-20.818,4.741-30.772c6.045-1.293,12.271-1.509,18.392-0.638c-10.947,27.322-6.899,58.371,10.687,81.972
				C90.111,380.132,87.379,385.863,85.428,391.876z M132.233,340.386c-10.167,5.436-19.468,12.355-27.598,20.53
				c-12.17-18.95-14.152-42.702-5.293-63.407c10.882,4.852,20.819,11.593,29.351,19.91c-0.461,2.253-0.693,4.548-0.693,6.848
				C128.039,329.91,129.494,335.452,132.233,340.386z M144.406,353.294c6.668,4.39,14.771,6.042,22.624,4.611
				c1.65,11.416,4.966,22.528,9.842,32.981c-21.992,4.943-45.001-1.391-61.364-16.894
				C123.812,365.404,133.603,358.392,144.406,353.294z M99.839,405.353c0.855-6.096,2.772-11.995,5.663-17.43
				c21.91,19.682,52.476,26.561,80.705,18.162c3.799,5.044,8.248,9.565,13.231,13.444
				C166.068,432.754,128.194,427.363,99.839,405.353z M183.291,350.842c6.26-4.915,10.6-11.868,12.265-19.651
				c7.992,1.664,16.131,2.518,24.294,2.551c3.2,0,6.529-0.211,9.896-0.538c-2.972,22.276-16.705,41.667-36.731,51.865
				C187.767,374.327,184.475,362.737,183.291,350.842z M264.533,324.267c-0.035,34.986-17.943,67.529-47.479,86.282
				c-5.393-2.887-10.243-6.69-14.333-11.238c25.803-14.013,42.597-40.299,44.469-69.601c6.066-1.866,11.856-4.534,17.217-7.932
				C264.428,322.613,264.533,323.427,264.533,324.267z M262.039,302.061c-4.576,4.156-9.85,7.472-15.58,9.794
				c-5.101-34.318-30.45-62.143-64.146-70.411c-0.78-6.285-2.396-12.437-4.804-18.295
				C219.244,229.543,252.795,260.863,262.039,302.061z M182.792,259.214c25.453,8.14,43.837,30.355,47.071,56.881
				c-11.904,1.25-23.937,0.35-35.522-2.659c-3.178-9.493-10.364-17.112-19.654-20.841
				C179.039,281.935,181.772,270.683,182.792,259.214z M179.2,324.267c0,9.426-7.641,17.067-17.067,17.067
				s-17.067-7.641-17.067-17.067c0.011-9.421,7.646-17.056,17.067-17.067C171.559,307.2,179.2,314.841,179.2,324.267z
				 M156.945,290.658L156.945,290.658c-7.81,1.204-14.954,5.099-20.197,11.01c-8.578-7.681-18.235-14.062-28.664-18.942
				c12.878-16.831,32.856-26.71,54.049-26.727c1.214,0,2.398,0.12,3.597,0.182C164.868,268.104,161.893,279.777,156.945,290.658z
				 M157.674,222.093c3.254,5.207,5.561,10.949,6.814,16.96c-0.79-0.022-1.56-0.119-2.355-0.119
				c-28.561,0.014-55.219,14.321-71.018,38.114c-6.179-1.43-12.521-2.032-18.859-1.79
				C89.465,243.811,121.86,223.648,157.674,222.093z"/>
			<path d="M341.933,323.863c4.865,5.675,11.967,8.94,19.442,8.937h62.317c7.475,0.003,14.577-3.262,19.442-8.937l20.033-23.383
				c3.977-4.64,6.164-10.548,6.167-16.658V230.4c-0.015-14.132-11.468-25.585-25.6-25.6h-102.4
				c-14.132,0.015-25.585,11.468-25.6,25.6v53.421c0.003,6.111,2.19,12.019,6.167,16.658L341.933,323.863z M332.8,230.4
				c0.005-4.711,3.823-8.529,8.533-8.533h102.4c4.711,0.005,8.529,3.822,8.533,8.533v53.421c-0.003,2.035-0.73,4.002-2.05,5.55
				l-20.05,23.383c-1.617,1.895-3.984,2.984-6.475,2.979h-62.317c-2.493,0.003-4.862-1.085-6.483-2.979l-20.042-23.383
				c-1.32-1.548-2.047-3.515-2.05-5.55V230.4z"/>
			<path d="M358.4,290.133c2.263,0.001,4.434-0.898,6.035-2.499c1.6-1.6,2.499-3.771,2.499-6.035v-8.533
				c0-4.713-3.82-8.533-8.533-8.533s-8.533,3.821-8.533,8.533v8.533c-0.001,2.263,0.898,4.434,2.499,6.035
				C353.966,289.235,356.137,290.134,358.4,290.133z"/>
			<path d="M392.533,264.533c2.263,0.001,4.434-0.898,6.035-2.499c1.6-1.6,2.499-3.771,2.499-6.035v-8.533
				c0-4.713-3.821-8.533-8.533-8.533c-4.713,0-8.533,3.82-8.533,8.533V256c-0.001,2.263,0.898,4.434,2.499,6.035
				C388.099,263.635,390.27,264.534,392.533,264.533z"/>
			<path d="M426.667,290.133c2.263,0.001,4.434-0.898,6.035-2.499c1.6-1.6,2.499-3.771,2.499-6.035v-8.533
				c0-4.713-3.82-8.533-8.533-8.533s-8.533,3.821-8.533,8.533v8.533c-0.001,2.263,0.898,4.434,2.499,6.035
				C422.232,289.235,424.403,290.134,426.667,290.133z"/>
			<path d="M341.333,452.267h102.4c14.132-0.015,25.585-11.468,25.6-25.6v-51.2c-0.015-14.132-11.468-25.585-25.6-25.6h-102.4
				c-14.132,0.015-25.585,11.468-25.6,25.6v51.2C315.749,440.799,327.201,452.251,341.333,452.267z M401.067,366.933h42.667
				c4.711,0.005,8.529,3.822,8.533,8.533v51.2c-0.005,4.711-3.822,8.529-8.533,8.533h-42.667V366.933z M332.8,375.467
				c0.005-4.711,3.823-8.529,8.533-8.533H384V435.2h-42.667c-4.711-0.005-8.529-3.822-8.533-8.533V375.467z"/>
			<path d="M358.4,418.133c2.263,0.001,4.434-0.898,6.035-2.499c1.6-1.6,2.499-3.771,2.499-6.035v-17.067
				c0-4.713-3.82-8.533-8.533-8.533s-8.533,3.821-8.533,8.533V409.6c-0.001,2.263,0.898,4.434,2.499,6.035
				C353.966,417.235,356.137,418.134,358.4,418.133z"/>
			<path d="M431.442,393.983c-0.474-0.324-0.99-0.583-1.533-0.771c-0.483-0.244-1-0.416-1.534-0.508
				c-1.124-0.258-2.292-0.258-3.417,0c-0.534,0.091-1.051,0.263-1.533,0.508c-0.546,0.187-1.064,0.447-1.542,0.771
				c-0.446,0.315-0.872,0.657-1.275,1.025c-1.561,1.634-2.445,3.799-2.475,6.059c-0.031,1.119,0.203,2.23,0.683,3.242
				c0.433,1.034,1.039,1.987,1.792,2.817c3.365,3.3,8.752,3.3,12.117,0c0.753-0.83,1.359-1.783,1.792-2.817
				c0.437-1.026,0.669-2.127,0.683-3.242c-0.033-2.259-0.917-4.422-2.475-6.059C432.319,394.64,431.891,394.298,431.442,393.983z"/>
			<path d="M59.733,477.867c14.138,0,25.6-11.462,25.6-25.6c0-14.138-11.461-25.6-25.6-25.6s-25.6,11.462-25.6,25.6
				C34.149,466.399,45.601,477.851,59.733,477.867z M59.733,443.733c4.713,0,8.533,3.821,8.533,8.533
				c0,4.713-3.82,8.533-8.533,8.533s-8.533-3.821-8.533-8.533C51.205,447.556,55.022,443.738,59.733,443.733z"/>
			<path d="M59.733,221.867c14.138,0,25.6-11.462,25.6-25.6s-11.461-25.6-25.6-25.6s-25.6,11.461-25.6,25.6
				C34.149,210.399,45.601,221.851,59.733,221.867z M59.733,187.733c4.713,0,8.533,3.82,8.533,8.533s-3.82,8.533-8.533,8.533
				s-8.533-3.82-8.533-8.533C51.205,191.556,55.022,187.738,59.733,187.733z"/>
			<path d="M264.533,221.867c14.138,0,25.6-11.462,25.6-25.6s-11.462-25.6-25.6-25.6s-25.6,11.461-25.6,25.6
				C238.949,210.399,250.401,221.851,264.533,221.867z M264.533,187.733c4.713,0,8.533,3.82,8.533,8.533s-3.821,8.533-8.533,8.533
				S256,200.98,256,196.267C256.005,191.556,259.822,187.738,264.533,187.733z"/>
			<path d="M264.533,426.667c-14.138,0-25.6,11.462-25.6,25.6c0,14.138,11.461,25.6,25.6,25.6s25.6-11.462,25.6-25.6
				C290.118,438.135,278.665,426.682,264.533,426.667z M264.533,460.8c-4.713,0-8.533-3.821-8.533-8.533
				c0-4.713,3.82-8.533,8.533-8.533s8.533,3.821,8.533,8.533C273.062,456.978,269.244,460.795,264.533,460.8z"/>
			<path d="M511.79,144.024c0.006-0.343-0.01-0.687-0.048-1.028L484.075,32.317C479.347,13.311,462.269-0.023,442.684,0H69.316
				c-19.585-0.023-36.663,13.31-41.391,32.317L0.258,142.996c-0.038,0.342-0.054,0.685-0.048,1.029
				c-0.093,0.342-0.163,0.69-0.21,1.042v332.8C0.02,496.71,15.29,511.98,34.133,512h443.733c18.843-0.02,34.113-15.29,34.133-34.133
				v-332.8C511.953,144.715,511.883,144.366,511.79,144.024z M44.475,36.458c2.842-11.403,13.089-19.403,24.841-19.392h373.367
				c11.752-0.011,22,7.988,24.842,19.392l25.016,100.075H19.459L44.475,36.458z M494.933,477.867
				c-0.011,9.421-7.645,17.056-17.067,17.067H34.133c-9.421-0.011-17.056-7.645-17.067-17.067V153.6h477.867V477.867z"/>
			<path d="M256,42.667c-34.05,0-59.733,14.675-59.733,34.133S221.95,110.933,256,110.933c34.05,0,59.733-14.675,59.733-34.133
				S290.05,42.667,256,42.667z M256,93.867c-26.042,0-42.667-10.108-42.667-17.067c0-6.958,16.625-17.067,42.667-17.067
				s42.667,10.108,42.667,17.067C298.667,83.758,282.042,93.867,256,93.867z"/>
		</g>
	</g>
</g>
<g>
</g>
<g>
</g>
<g>
</g>
<g>
</g>
<g>
</g>
<g>
</g>
<g>
</g>
<g>
</g>
<g>
</g>
<g>
</g>
<g>
</g>
<g>
</g>
<g>
</g>
<g>
</g>
<g>
</g>
</svg>
