<?xml version="1.0" encoding="iso-8859-1"?>
<!-- Generator: Adobe Illustrator 19.0.0, SVG Export Plug-In . SVG Version: 6.00 Build 0)  -->
<svg version="1.1" id="Capa_1" xmlns="http://www.w3.org/2000/svg" xmlns:xlink="http://www.w3.org/1999/xlink" x="0px" y="0px"
	 viewBox="0 0 512 512" style="enable-background:new 0 0 512 512;" xml:space="preserve">
<g>
	<g>
		<g>
			<path d="M494.933,29.867H8.533C3.82,29.867,0,33.687,0,38.4s3.82,8.533,8.533,8.533h25.6V473.6c0,4.713,3.82,8.533,8.533,8.533
				s8.533-3.821,8.533-8.533v-42.667h17.067V448c0.011,9.421,7.645,17.056,17.067,17.067h25.6
				c9.421-0.011,17.056-7.645,17.067-17.067v-17.067h42.667v25.6c0.011,9.421,7.645,17.056,17.067,17.067h25.6
				c9.421-0.011,17.056-7.646,17.067-17.067v-16.112c-0.194-4.348,2.679-8.239,6.892-9.333c2.374-0.447,4.826,0.123,6.761,1.57
				c1.934,1.447,3.173,3.639,3.414,6.043v26.367c0.011,9.421,7.646,17.056,17.067,17.067h25.6
				c9.421-0.011,17.056-7.646,17.067-17.067v-25.941c0.023-2.225,0.94-4.347,2.546-5.888c1.605-1.541,3.763-2.371,5.988-2.303
				c4.711,0.005,8.529,3.822,8.533,8.533v25.6c0.011,9.421,7.646,17.056,17.067,17.067h25.6c9.421-0.011,17.056-7.646,17.067-17.067
				v-34.133h110.933c9.421-0.011,17.056-7.646,17.067-17.067V46.933C511.989,37.512,504.355,29.877,494.933,29.867z
				 M494.933,413.867H384c-9.421,0.011-17.056,7.645-17.067,17.067v34.133h-25.6v-25.6c-0.027-6.841-2.78-13.388-7.649-18.193
				c-4.869-4.805-11.452-7.471-18.293-7.407c-13.943,0.016-25.243,11.315-25.259,25.259v25.941h-25.6l-0.008-26.767
				c-0.355-7.399-3.891-14.284-9.698-18.884c-5.807-4.6-13.318-6.465-20.603-5.116c-12.356,2.523-21.145,13.513-20.891,26.121
				v16.112h-25.6v-25.6c-0.011-9.421-7.645-17.056-17.067-17.067H128c-9.421,0.011-17.056,7.645-17.067,17.067V448h-25.6v-17.067
				c-0.011-9.421-7.645-17.056-17.067-17.067H51.2v-179.2h34.133c4.713,0,8.533-3.821,8.533-8.533c0-4.713-3.821-8.533-8.533-8.533
				H51.2v-17.067h34.133c4.713,0,8.533-3.82,8.533-8.533s-3.821-8.533-8.533-8.533H51.2V166.4h34.133
				c4.713,0,8.533-3.82,8.533-8.533s-3.821-8.533-8.533-8.533H51.2v-17.067h34.133c4.713,0,8.533-3.82,8.533-8.533
				s-3.821-8.533-8.533-8.533H51.2V98.133h34.133c4.713,0,8.533-3.82,8.533-8.533s-3.821-8.533-8.533-8.533H51.2V46.933
				l443.733-0.013V413.867z"/>
			<path d="M119.467,98.133H128c4.713,0,8.533-3.82,8.533-8.533s-3.82-8.533-8.533-8.533h-8.533c-4.713,0-8.533,3.82-8.533,8.533
				S114.754,98.133,119.467,98.133z"/>
			<path d="M119.467,132.267H128c4.713,0,8.533-3.82,8.533-8.533s-3.82-8.533-8.533-8.533h-8.533c-4.713,0-8.533,3.82-8.533,8.533
				S114.754,132.267,119.467,132.267z"/>
			<path d="M119.467,166.4H128c4.713,0,8.533-3.82,8.533-8.533s-3.82-8.533-8.533-8.533h-8.533c-4.713,0-8.533,3.82-8.533,8.533
				S114.754,166.4,119.467,166.4z"/>
			<path d="M119.467,200.533H128c4.713,0,8.533-3.82,8.533-8.533s-3.82-8.533-8.533-8.533h-8.533c-4.713,0-8.533,3.82-8.533,8.533
				S114.754,200.533,119.467,200.533z"/>
			<path d="M119.467,234.667H128c4.713,0,8.533-3.821,8.533-8.533c0-4.713-3.82-8.533-8.533-8.533h-8.533
				c-4.713,0-8.533,3.821-8.533,8.533C110.933,230.846,114.754,234.667,119.467,234.667z"/>
			<path d="M315.733,260.267v102.4c0.015,14.132,11.468,25.585,25.6,25.6h102.4c14.132-0.015,25.585-11.468,25.6-25.6v-102.4
				c-0.015-14.132-11.468-25.585-25.6-25.6h-102.4C327.201,234.682,315.749,246.135,315.733,260.267z M332.8,260.267
				c0.005-4.711,3.823-8.529,8.533-8.533h102.4c4.711,0.005,8.529,3.822,8.533,8.533v102.4c-0.005,4.711-3.822,8.529-8.533,8.533
				h-102.4c-4.711-0.005-8.529-3.822-8.533-8.533V260.267z"/>
			<path d="M196.267,311.467v51.2c0.015,14.132,11.468,25.585,25.6,25.6h51.2c14.132-0.015,25.585-11.468,25.6-25.6v-51.2
				c-0.015-14.132-11.468-25.585-25.6-25.6h-51.2C207.735,285.882,196.282,297.335,196.267,311.467z M281.6,311.467v51.2
				c-0.005,4.711-3.823,8.529-8.533,8.533h-51.2c-4.711-0.005-8.529-3.822-8.533-8.533v-51.2c0.005-4.711,3.822-8.529,8.533-8.533
				h51.2C277.778,302.938,281.595,306.756,281.6,311.467z"/>
			<path d="M128,311.467v51.2c0,14.138,11.461,25.6,25.6,25.6c14.138,0,25.6-11.461,25.6-25.6v-51.2c0-14.138-11.461-25.6-25.6-25.6
				C139.461,285.867,128,297.328,128,311.467z M145.067,311.467c0-4.713,3.821-8.533,8.533-8.533c4.713,0,8.533,3.82,8.533,8.533
				v51.2c0,4.713-3.821,8.533-8.533,8.533c-4.713,0-8.533-3.82-8.533-8.533V311.467z"/>
			<path d="M170.667,192h21.497l26.386,32.979c6.852,8.562,18.364,11.862,28.712,8.231s17.273-13.402,17.271-24.368v-101.95
				c0-10.968-6.928-20.739-17.277-24.369c-10.349-3.63-21.863-0.328-28.715,8.236l-26.379,32.975h-21.496
				c-9.421,0.011-17.056,7.645-17.067,17.067v34.133C153.611,184.355,161.245,191.989,170.667,192z M204.8,135.262l27.067-33.841
				c2.324-2.905,6.229-4.025,9.739-2.794c3.51,1.231,5.86,4.545,5.861,8.265v101.95c0.001,3.718-2.347,7.032-5.855,8.264
				c-3.508,1.232-7.412,0.114-9.736-2.789L204.8,180.471V135.262z M170.667,140.8h17.067v34.133h-17.067V140.8z"/>
			<path d="M281.6,174.933c2.263,0.001,4.434-0.898,6.035-2.499c1.6-1.6,2.499-3.771,2.499-6.035v-17.067
				c0-4.713-3.82-8.533-8.533-8.533s-8.533,3.82-8.533,8.533V166.4c-0.001,2.263,0.898,4.434,2.499,6.035
				C277.166,174.035,279.337,174.934,281.6,174.933z"/>
			<path d="M315.733,192c2.263,0.001,4.434-0.898,6.035-2.499c1.6-1.6,2.499-3.771,2.499-6.035v-51.2
				c0-4.713-3.82-8.533-8.533-8.533s-8.533,3.82-8.533,8.533v51.2c-0.001,2.263,0.898,4.434,2.499,6.035
				C311.299,191.102,313.47,192.001,315.733,192z"/>
			<path d="M349.867,217.6c2.263,0.001,4.434-0.898,6.035-2.499c1.6-1.6,2.499-3.771,2.499-6.035v-102.4
				c0-4.713-3.82-8.533-8.533-8.533s-8.533,3.82-8.533,8.533v102.4c-0.001,2.263,0.898,4.434,2.499,6.035
				C345.432,216.702,347.603,217.601,349.867,217.6z"/>
			<path d="M447.483,96.679c0.477,0.324,0.996,0.583,1.542,0.771c0.483,0.245,1,0.418,1.533,0.513
				c0.565,0.098,1.135,0.155,1.708,0.171c2.27,0.022,4.453-0.87,6.058-2.475s2.497-3.788,2.475-6.058
				c0.027-1.12-0.206-2.232-0.683-3.246c-1.467-3.849-5.542-6.03-9.558-5.117c-0.534,0.091-1.051,0.263-1.533,0.508
				c-0.546,0.187-1.064,0.447-1.542,0.771l-1.275,1.025c-0.772,0.814-1.38,1.769-1.792,2.813c-0.481,1.013-0.715,2.125-0.683,3.246
				c0.03,2.26,0.914,4.424,2.475,6.059C446.633,96,447.058,96.341,447.483,96.679z"/>
			<path d="M446.208,129.792c0.403,0.367,0.829,0.708,1.275,1.021c0.477,0.324,0.996,0.583,1.542,0.771
				c0.483,0.245,1,0.418,1.533,0.512c0.565,0.098,1.136,0.155,1.709,0.171c2.259-0.035,4.422-0.918,6.059-2.475
				c0.771-0.816,1.379-1.772,1.792-2.817c0.476-1.013,0.71-2.123,0.683-3.242c-0.033-2.259-0.917-4.422-2.475-6.059
				c-2.05-2.003-4.956-2.865-7.767-2.304c-0.534,0.091-1.051,0.263-1.533,0.508c-0.546,0.187-1.064,0.447-1.542,0.771l-1.276,1.025
				c-1.561,1.634-2.445,3.799-2.475,6.059c-0.031,1.119,0.203,2.23,0.683,3.242C444.829,128.019,445.437,128.976,446.208,129.792z"
				/>
			<path d="M447.483,164.946c0.477,0.324,0.996,0.583,1.542,0.771c0.483,0.245,1,0.418,1.533,0.513
				c0.565,0.098,1.135,0.155,1.708,0.171c2.259-0.035,4.422-0.918,6.059-2.475c0.341-0.429,0.683-0.854,1.025-1.279
				c0.321-0.477,0.579-0.994,0.767-1.538c0.247-0.483,0.419-1.002,0.508-1.537c0.099-0.563,0.158-1.133,0.175-1.705
				c0.022-2.57-1.124-5.012-3.115-6.638c-1.991-1.626-4.612-2.26-7.127-1.725c-0.534,0.091-1.051,0.263-1.533,0.508
				c-0.546,0.187-1.064,0.447-1.542,0.771l-1.275,1.025c-3.3,3.365-3.3,8.752,0,12.117
				C446.611,164.291,447.037,164.632,447.483,164.946z"/>
			<path d="M447.483,199.079c0.477,0.324,0.996,0.583,1.542,0.771c0.483,0.245,1,0.418,1.533,0.513
				c0.565,0.098,1.135,0.155,1.708,0.171c3.265,0.014,6.252-1.835,7.695-4.764s1.09-6.424-0.91-9.005s-5.297-3.794-8.493-3.127
				c-0.534,0.091-1.051,0.263-1.533,0.508c-0.546,0.187-1.064,0.447-1.542,0.771l-1.275,1.025c-3.3,3.365-3.3,8.752,0,12.117
				C446.611,198.425,447.037,198.766,447.483,199.079z"/>
		</g>
	</g>
</g>
<g>
</g>
<g>
</g>
<g>
</g>
<g>
</g>
<g>
</g>
<g>
</g>
<g>
</g>
<g>
</g>
<g>
</g>
<g>
</g>
<g>
</g>
<g>
</g>
<g>
</g>
<g>
</g>
<g>
</g>
</svg>
