<?xml version="1.0" encoding="iso-8859-1"?>
<!-- Generator: Adobe Illustrator 19.0.0, SVG Export Plug-In . SVG Version: 6.00 Build 0)  -->
<svg version="1.1" id="Capa_1" xmlns="http://www.w3.org/2000/svg" xmlns:xlink="http://www.w3.org/1999/xlink" x="0px" y="0px"
	 viewBox="0 0 512 512" style="enable-background:new 0 0 512 512;" xml:space="preserve">
<g>
	<g>
		<g>
			<path d="M494.933,0H17.067C7.645,0.009,0.009,7.645,0,17.067v477.867c0.009,9.422,7.645,17.057,17.067,17.067h477.867
				c9.421-0.011,17.056-7.645,17.067-17.067V17.067C511.989,7.645,504.355,0.011,494.933,0z M17.067,494.933V17.067h477.867
				l0.009,477.867H17.067z"/>
			<path d="M102.4,136.533v238.933c0.022,18.842,15.291,34.112,34.133,34.133h238.933c18.842-0.022,34.112-15.291,34.133-34.133
				V136.533c-0.022-18.842-15.291-34.112-34.133-34.133H136.533C117.691,102.422,102.422,117.691,102.4,136.533z M392.533,375.467
				c-0.009,9.422-7.645,17.057-17.067,17.067H136.533c-9.422-0.009-17.057-7.645-17.067-17.067v-4.748
				c5.164,3.075,11.056,4.714,17.067,4.748h238.933c6.01-0.034,11.902-1.674,17.067-4.748V375.467z M392.533,341.333
				c-0.009,9.422-7.645,17.057-17.067,17.067H136.533c-9.422-0.009-17.057-7.645-17.067-17.067V170.667
				c0.009-9.422,7.645-17.057,17.067-17.067h238.933c9.422,0.009,17.057,7.645,17.067,17.067V341.333z M392.533,136.533v4.748
				c-5.164-3.075-11.056-4.714-17.067-4.748H136.533c-6.01,0.034-11.902,1.674-17.067,4.748v-4.748
				c0.009-9.422,7.645-17.057,17.067-17.067h238.933C384.888,119.476,392.524,127.112,392.533,136.533z"/>
			<path d="M460.8,34.133H349.867c-9.422,0.009-17.057,7.645-17.067,17.067v17.067H179.2V51.2
				c-0.009-9.422-7.645-17.057-17.067-17.067H51.2c-9.422,0.009-17.057,7.645-17.067,17.067v51.2
				c0.009,9.422,7.645,17.057,17.067,17.067h17.067V204.8H51.2c-9.422,0.009-17.057,7.645-17.067,17.067v68.267
				c0.009,9.422,7.645,17.057,17.067,17.067h17.067v85.333H51.2c-9.422,0.009-17.057,7.645-17.067,17.067v51.2
				c0.009,9.422,7.645,17.057,17.067,17.067h110.933c9.422-0.009,17.057-7.645,17.067-17.067v-17.067h153.6V460.8
				c0.009,9.422,7.645,17.057,17.067,17.067H460.8c9.421-0.011,17.056-7.646,17.067-17.067v-51.2
				c-0.011-9.421-7.646-17.056-17.067-17.067h-17.067V307.2H460.8c9.421-0.011,17.056-7.645,17.067-17.067v-68.267
				c-0.011-9.421-7.646-17.056-17.067-17.067h-17.067v-85.333H460.8c9.421-0.011,17.056-7.645,17.067-17.067V51.2
				C477.856,41.779,470.221,34.144,460.8,34.133z M460.8,102.4h-17.067c-9.421,0.011-17.056,7.645-17.067,17.067V204.8
				c0.011,9.421,7.646,17.056,17.067,17.067H460.8v68.267h-17.067c-9.421,0.011-17.056,7.645-17.067,17.067v85.333
				c0.011,9.421,7.646,17.056,17.067,17.067H460.8v51.2H349.867v-17.067c-0.009-9.422-7.645-17.057-17.067-17.067H179.2
				c-9.422,0.009-17.057,7.645-17.067,17.067V460.8H51.2v-51.2h17.067c9.422-0.009,17.057-7.645,17.067-17.067V307.2
				c-0.009-9.422-7.645-17.057-17.067-17.067H51.2v-68.267h17.067c9.422-0.009,17.057-7.645,17.067-17.067v-85.333
				c-0.009-9.422-7.645-17.057-17.067-17.067H51.2V51.2h110.933v17.067c0.009,9.422,7.645,17.057,17.067,17.067h153.6
				c9.422-0.009,17.057-7.645,17.067-17.067V51.2H460.8V102.4z"/>
			<path d="M256,170.667c-38.279,0-68.267,18.742-68.267,42.667C187.733,237.258,217.721,256,256,256s68.267-18.742,68.267-42.667
				C324.267,189.408,294.279,170.667,256,170.667z M256,238.933c-30.175,0-51.2-13.492-51.2-25.6c0-12.108,21.025-25.6,51.2-25.6
				s51.2,13.492,51.2,25.6C307.2,225.442,286.175,238.933,256,238.933z"/>
			<path d="M196.267,307.2h76.8c4.713,0,8.533-3.82,8.533-8.533s-3.821-8.533-8.533-8.533h-76.8c-4.713,0-8.533,3.82-8.533,8.533
				S191.554,307.2,196.267,307.2z"/>
			<path d="M315.733,290.133H307.2c-4.713,0-8.533,3.82-8.533,8.533s3.82,8.533,8.533,8.533h8.533c4.713,0,8.533-3.82,8.533-8.533
				S320.446,290.133,315.733,290.133z"/>
			<path d="M315.733,324.267H256c-4.713,0-8.533,3.821-8.533,8.533c0,4.713,3.82,8.533,8.533,8.533h59.733
				c4.713,0,8.533-3.821,8.533-8.533C324.267,328.087,320.446,324.267,315.733,324.267z"/>
			<path d="M221.867,324.267h-25.6c-4.713,0-8.533,3.821-8.533,8.533c0,4.713,3.82,8.533,8.533,8.533h25.6
				c4.713,0,8.533-3.821,8.533-8.533C230.4,328.087,226.58,324.267,221.867,324.267z"/>
		</g>
	</g>
</g>
<g>
</g>
<g>
</g>
<g>
</g>
<g>
</g>
<g>
</g>
<g>
</g>
<g>
</g>
<g>
</g>
<g>
</g>
<g>
</g>
<g>
</g>
<g>
</g>
<g>
</g>
<g>
</g>
<g>
</g>
</svg>
