<?xml version="1.0" encoding="iso-8859-1"?>
<!-- Generator: Adobe Illustrator 19.0.0, SVG Export Plug-In . SVG Version: 6.00 Build 0)  -->
<svg version="1.1" id="Capa_1" xmlns="http://www.w3.org/2000/svg" xmlns:xlink="http://www.w3.org/1999/xlink" x="0px" y="0px"
	 viewBox="0 0 512 512" style="enable-background:new 0 0 512 512;" xml:space="preserve">
<g>
	<g>
		<g>
			<path d="M486.4,110.933H8.533c-4.713,0-8.533,3.821-8.533,8.533S3.82,128,8.533,128h25.6v264.533c0,4.713,3.82,8.533,8.533,8.533
				s8.533-3.82,8.533-8.533v-25.6h17.067V384c0.009,9.422,7.645,17.057,17.067,17.067H102.4c9.422-0.009,17.057-7.645,17.067-17.067
				v-17.067h17.067V384c0.009,9.422,7.645,17.057,17.067,17.067h34.133c9.422-0.009,17.057-7.645,17.067-17.067v-17.067h17.067V384
				c0.009,9.422,7.645,17.057,17.067,17.067h110.933c9.422-0.009,17.057-7.645,17.067-17.067v-17.067H384v25.6
				c0,4.713,3.821,8.533,8.533,8.533h25.6c4.713,0,8.533-3.82,8.533-8.533s-3.82-8.533-8.533-8.533h-17.067v-17.067H486.4
				c14.132-0.015,25.585-11.468,25.6-25.6v-204.8C511.985,122.401,500.532,110.949,486.4,110.933z M85.333,384v-17.067h17.071
				L102.412,384H85.333z M153.6,384v-17.067h34.138L187.746,384H153.6z M238.933,384v-17.067h110.938L349.879,384H238.933z
				 M494.933,230.4H443.23c-0.023-0.209-0.07-0.412-0.095-0.621c-0.021-0.256-0.07-0.497-0.115-0.753
				c-4.807-36.545-34.895-64.525-71.693-66.67c-0.295-0.063-0.593-0.11-0.894-0.14h-0.088c-0.126,0-0.23,0.067-0.354,0.072
				c-1.022-0.041-2.026-0.155-3.058-0.155c-30.735,0.036-58.498,18.367-70.602,46.619c-0.06,0.131-0.124,0.251-0.178,0.384
				c-12.429,29.459-5.239,63.54,18.031,85.468c0.33,0.358,0.691,0.686,1.078,0.98c23.389,21.541,57.696,26.293,86.059,11.921
				c0.143-0.06,0.27-0.13,0.41-0.198c22.999-11.718,38.585-34.193,41.497-59.84h51.703v93.867c-0.006,4.71-3.823,8.527-8.533,8.533
				H51.2v-102.4h51.703c2.026,18.003,10.369,34.705,23.547,47.138c0.33,0.358,0.691,0.686,1.078,0.98
				c23.389,21.541,57.696,26.293,86.059,11.921c0.143-0.06,0.27-0.13,0.41-0.198c28.85-14.444,45.445-45.52,41.403-77.529
				c-0.021-0.256-0.07-0.497-0.115-0.753c-4.807-36.545-34.895-64.525-71.693-66.67c-0.295-0.063-0.593-0.11-0.894-0.14h-0.087
				c-0.126,0-0.23,0.067-0.354,0.072c-1.022-0.04-2.026-0.155-3.058-0.155c-30.735,0.036-58.498,18.367-70.602,46.619
				c-0.06,0.131-0.124,0.251-0.178,0.384c-2.856,6.784-4.715,13.947-5.517,21.264H51.2V128h435.2
				c4.71,0.006,8.527,3.823,8.533,8.533V230.4z M362.585,213.773c-4.324,0.76-8.377,2.63-11.76,5.428
				c-9.178-8.106-20.658-13.143-32.837-14.408c10.62-15.217,27.716-24.627,46.255-25.457
				C369.988,199.31,365.143,209.921,362.585,213.773z M375.467,238.933c0,4.713-3.82,8.533-8.533,8.533
				c-4.71-0.006-8.527-3.823-8.533-8.533c0-4.713,3.82-8.533,8.533-8.533S375.467,234.221,375.467,238.933z M341.786,234.456
				c-0.86,4.294-0.49,8.743,1.066,12.836c-10.75,5.859-19.399,14.933-24.737,25.952c-7.103-10.031-10.917-22.019-10.915-34.31
				c-0.003-6.062,0.92-12.088,2.737-17.871C330.594,222.48,338.954,230.609,341.786,234.456z M354.146,260.98L354.146,260.98
				c3.769,2.228,8.052,3.44,12.43,3.518c1.848,12.076,7.416,23.276,15.929,32.039c-17.916,4.953-37.119,1.162-51.809-10.228
				C339.088,267.355,349.609,262.304,354.146,260.98z M379.985,217.03c4.46-11.394,5.256-23.895,2.277-35.763
				c21.484,5.744,38.014,22.924,42.924,44.614c-18.783,9.25-30.09,6.228-34.271,4.369
				C388.901,224.717,385.041,220.048,379.985,217.03z M383.277,258.472c3.369-2.799,5.962-6.417,7.53-10.507
				c3.571,0.847,7.228,1.271,10.898,1.264c8.496-0.151,16.883-1.934,24.706-5.25c-1.583,18.5-11.681,35.21-27.323,45.214v0
				C384.009,274.714,382.967,263.043,383.277,258.472z M194.529,181.268c21.484,5.744,38.014,22.924,42.924,44.614
				c-18.779,9.247-30.088,6.229-34.271,4.37c-2.013-5.534-5.874-10.204-10.93-13.221
				C196.712,205.636,197.508,193.135,194.529,181.268z M238.677,243.98c-1.583,18.5-11.681,35.21-27.323,45.214
				c-15.078-14.48-16.121-26.151-15.811-30.721c3.369-2.799,5.962-6.417,7.53-10.507c3.571,0.847,7.228,1.271,10.898,1.264
				C222.467,249.078,230.854,247.296,238.677,243.98z M194.771,296.537c-17.916,4.953-37.119,1.162-51.809-10.228
				c8.392-18.954,18.913-24.005,23.451-25.329c3.769,2.228,8.052,3.44,12.43,3.518C180.691,276.574,186.259,287.773,194.771,296.537
				z M179.2,247.467c-4.71-0.006-8.527-3.823-8.533-8.533c0-4.713,3.82-8.533,8.533-8.533s8.533,3.821,8.533,8.533
				S183.913,247.467,179.2,247.467z M174.852,213.773c-4.324,0.76-8.377,2.63-11.76,5.428c-9.178-8.106-20.658-13.143-32.837-14.408
				c10.62-15.217,27.716-24.627,46.255-25.457C182.254,199.31,177.409,209.921,174.852,213.773z M154.053,234.456
				c-0.86,4.294-0.49,8.743,1.066,12.836c-10.75,5.859-19.399,14.933-24.736,25.952c-7.103-10.031-10.917-22.019-10.915-34.31
				c-0.003-6.062,0.92-12.088,2.737-17.871C142.86,222.48,151.221,230.609,154.053,234.456z"/>
			<path d="M469.333,145.067H435.2c-4.713,0-8.533,3.82-8.533,8.533s3.82,8.533,8.533,8.533h34.133c4.713,0,8.533-3.82,8.533-8.533
				S474.046,145.067,469.333,145.067z"/>
			<path d="M435.2,332.8h34.133c4.713,0,8.533-3.82,8.533-8.533s-3.82-8.533-8.533-8.533H435.2c-4.713,0-8.533,3.82-8.533,8.533
				S430.487,332.8,435.2,332.8z"/>
			<path d="M110.933,145.067H76.8c-4.713,0-8.533,3.82-8.533,8.533s3.82,8.533,8.533,8.533h34.133c4.713,0,8.533-3.82,8.533-8.533
				S115.646,145.067,110.933,145.067z"/>
			<path d="M110.933,315.733H76.8c-4.713,0-8.533,3.82-8.533,8.533s3.82,8.533,8.533,8.533h34.133c4.713,0,8.533-3.82,8.533-8.533
				S115.646,315.733,110.933,315.733z"/>
			<path d="M290.133,145.067H256c-4.713,0-8.533,3.82-8.533,8.533s3.82,8.533,8.533,8.533h34.133c4.713,0,8.533-3.82,8.533-8.533
				S294.846,145.067,290.133,145.067z"/>
			<path d="M256,315.733c-4.713,0-8.533,3.82-8.533,8.533s3.82,8.533,8.533,8.533h34.133c4.713,0,8.533-3.82,8.533-8.533
				s-3.82-8.533-8.533-8.533H256z"/>
		</g>
	</g>
</g>
<g>
</g>
<g>
</g>
<g>
</g>
<g>
</g>
<g>
</g>
<g>
</g>
<g>
</g>
<g>
</g>
<g>
</g>
<g>
</g>
<g>
</g>
<g>
</g>
<g>
</g>
<g>
</g>
<g>
</g>
</svg>
