<?xml version="1.0" encoding="iso-8859-1"?>
<!-- Generator: Adobe Illustrator 19.0.0, SVG Export Plug-In . SVG Version: 6.00 Build 0)  -->
<svg version="1.1" id="Capa_1" xmlns="http://www.w3.org/2000/svg" xmlns:xlink="http://www.w3.org/1999/xlink" x="0px" y="0px"
	 viewBox="0 0 511.85 511.85" style="enable-background:new 0 0 511.85 511.85;" xml:space="preserve">
<g>
	<g>
		<g>
			<path d="M509.35,159.383l-24.125-24.125l-0.009-0.013l-0.013-0.009l-18.092-18.092c-1.6-1.601-3.77-2.5-6.033-2.5
				s-4.433,0.899-6.033,2.5c-3.336,3.314-8.725,3.304-12.049-0.022c-3.324-3.326-3.332-8.714-0.018-12.049
				c1.601-1.6,2.5-3.77,2.5-6.033s-0.899-4.434-2.5-6.033l-24.137-24.137c-1.6-1.601-3.77-2.5-6.033-2.5
				c-2.263,0-4.434,0.899-6.033,2.5c-3.391,3.192-8.68,3.192-12.071,0c-3.325-3.335-3.325-8.732,0-12.067
				c1.601-1.6,2.5-3.77,2.5-6.033s-0.899-4.433-2.5-6.033L352.467,2.5c-1.6-1.601-3.77-2.5-6.033-2.5S342,0.899,340.4,2.5L2.5,340.4
				C0.899,342,0,344.17,0,346.433s0.899,4.433,2.5,6.033l42.237,42.237c1.6,1.601,3.77,2.5,6.033,2.5s4.434-0.899,6.033-2.5
				c3.336-3.314,8.725-3.304,12.049,0.022c3.324,3.326,3.332,8.714,0.018,12.049c-1.601,1.6-2.5,3.77-2.5,6.033
				c0,2.263,0.899,4.433,2.5,6.033l24.137,24.137c1.6,1.601,3.77,2.5,6.033,2.5c2.263,0,4.433-0.899,6.033-2.5
				c3.391-3.192,8.68-3.192,12.071,0c3.325,3.335,3.325,8.732,0,12.067c-1.601,1.6-2.5,3.77-2.5,6.033
				c0,2.263,0.899,4.434,2.5,6.033l18.092,18.092l0.008,0.013l0.013,0.008l24.125,24.125c1.6,1.601,3.77,2.5,6.033,2.5
				c2.263,0,4.433-0.899,6.033-2.5l337.9-337.9c1.601-1.6,2.5-3.77,2.5-6.033C511.85,163.154,510.951,160.983,509.35,159.383z
				 M134.213,460.046c4.674-9.791,2.67-21.464-5.002-29.135c-7.672-7.671-19.346-9.674-29.136-4.998l-14.138-14.138
				c4.675-9.79,2.673-21.464-4.998-29.136c-7.671-7.672-19.345-9.676-29.135-5.002L20.6,346.433L346.434,20.6l31.204,31.204
				c-4.674,9.791-2.67,21.464,5.002,29.135c7.672,7.671,19.346,9.674,29.136,4.998l14.138,14.138
				c-4.675,9.79-2.673,21.464,4.998,29.136c7.671,7.672,19.345,9.676,29.135,5.002l7.069,7.069L141.281,467.115L134.213,460.046z
				 M165.417,491.25l-12.069-12.069l12.068-12.068l12.068,12.07L165.417,491.25z M189.551,467.116l-12.068-12.07l277.564-277.564
				l12.07,12.068L189.551,467.116z M479.183,177.484l-12.07-12.068l12.068-12.068l12.069,12.069L479.183,177.484z"/>
			<path d="M62.813,340.404c-1.576-1.63-3.747-2.551-6.015-2.551s-4.438,0.921-6.015,2.551c-1.606,1.605-2.497,3.789-2.475,6.059
				c-0.021,2.245,0.872,4.402,2.475,5.975c1.596,1.629,3.778,2.55,6.059,2.558c2.255-0.009,4.409-0.932,5.971-2.558
				c0.823-0.759,1.466-1.693,1.879-2.733c0.438-1.026,0.67-2.127,0.683-3.242c-0.022-1.142-0.253-2.271-0.683-3.329
				C64.28,342.094,63.637,341.161,62.813,340.404z"/>
			<path d="M346.463,65.375c4.665-0.115,8.419-3.869,8.533-8.533c-0.008-2.28-0.93-4.463-2.558-6.059
				c-3.372-3.202-8.661-3.202-12.033,0c-1.606,1.605-2.497,3.789-2.475,6.059c-0.022,2.244,0.872,4.4,2.475,5.971
				C341.999,64.444,344.181,65.367,346.463,65.375z"/>
			<path d="M129.213,322.3c-6.667-6.662-17.471-6.662-24.138,0l-18.1,18.1c-6.654,6.67-6.654,17.467,0,24.138l48.271,48.271
				c3.2,3.201,7.54,5,12.067,5s8.867-1.799,12.067-5l18.104-18.104c3.201-3.2,5-7.54,5-12.067c0-4.526-1.799-8.867-5-12.067
				L129.213,322.3z M165.421,382.633l-0.004,0.004l-18.104,18.104l-48.271-48.275l18.104-18.1l48.279,48.258L165.421,382.633z"/>
			<path d="M183.513,267.987c-6.67-6.649-17.462-6.647-24.129,0.004l-18.104,18.104c-6.654,6.668-6.654,17.465,0,24.133
				L189.55,358.5c6.669,6.656,17.468,6.656,24.137,0l18.1-18.1c3.201-3.2,5-7.54,5-12.067c0-4.526-1.799-8.867-5-12.067
				L183.513,267.987z M201.617,346.433l-48.271-48.271l18.104-18.104l48.279,48.267L201.617,346.433z"/>
			<path d="M237.825,213.692c-6.75-6.455-17.385-6.457-24.138-0.004l-18.096,18.1c-3.203,3.199-5.003,7.541-5.004,12.068
				c-0.001,4.527,1.798,8.869,5,12.07l48.271,48.271c6.668,6.656,17.466,6.656,24.133,0l18.104-18.1l0.004-0.004
				c6.647-6.672,6.645-17.464-0.004-24.133L237.825,213.692z M255.925,292.129l-48.271-48.271l18.1-18.104l48.279,48.271
				L255.925,292.129z"/>
			<path d="M364.537,86.975c-6.669-6.656-17.468-6.656-24.137,0l-90.508,90.508c-3.201,3.2-5,7.54-5,12.067s1.799,8.867,5,12.067
				l48.275,48.279c6.672,6.646,17.463,6.644,24.133-0.004l90.508-90.513c3.201-3.2,5-7.54,5-12.067c0-4.526-1.799-8.867-5-12.067
				L364.537,86.975z M400.746,147.308l-0.004,0.004l-12.071,12.071l-6.033-6.033c-2.156-2.155-5.297-2.997-8.242-2.208
				c-2.944,0.789-5.244,3.089-6.033,6.033c-0.789,2.944,0.053,6.086,2.208,8.242l6.033,6.033l-12.068,12.068l-6.036-6.034
				c-2.156-2.156-5.297-2.997-8.242-2.208c-2.945,0.789-5.244,3.089-6.033,6.033s0.053,6.086,2.208,8.242l6.036,6.034l-12.07,12.07
				l-6.033-6.033c-2.155-2.155-5.297-2.997-8.242-2.208c-2.944,0.789-5.244,3.089-6.033,6.033c-0.789,2.944,0.053,6.086,2.208,8.242
				l6.033,6.033l-18.104,18.104l-48.271-48.275l90.513-90.508l48.279,48.258L400.746,147.308z"/>
			<path d="M322.3,153.35l-24.137,24.133c-2.156,2.156-2.997,5.297-2.208,8.242c0.789,2.944,3.089,5.244,6.033,6.033
				c2.944,0.789,6.086-0.053,8.242-2.208l24.137-24.133c3.332-3.332,3.332-8.735,0-12.067
				C331.035,150.018,325.632,150.018,322.3,153.35z"/>
			<path d="M343.904,135.262c0.032,4.699,3.834,8.501,8.533,8.533c2.259-0.033,4.422-0.917,6.059-2.475
				c1.591-1.614,2.481-3.792,2.475-6.059c0.01-1.137-0.194-2.267-0.6-3.329c-0.443-1.022-1.08-1.949-1.875-2.729
				c-3.351-3.253-8.682-3.253-12.033,0C344.848,130.809,343.929,132.986,343.904,135.262z"/>
		</g>
	</g>
</g>
<g>
</g>
<g>
</g>
<g>
</g>
<g>
</g>
<g>
</g>
<g>
</g>
<g>
</g>
<g>
</g>
<g>
</g>
<g>
</g>
<g>
</g>
<g>
</g>
<g>
</g>
<g>
</g>
<g>
</g>
</svg>
