<?xml version="1.0" encoding="iso-8859-1"?>
<!-- Generator: Adobe Illustrator 19.0.0, SVG Export Plug-In . SVG Version: 6.00 Build 0)  -->
<svg version="1.1" id="Capa_1" xmlns="http://www.w3.org/2000/svg" xmlns:xlink="http://www.w3.org/1999/xlink" x="0px" y="0px"
	 viewBox="0 0 512 512" style="enable-background:new 0 0 512 512;" xml:space="preserve">
<g>
	<g>
		<g>
			<path d="M119.467,34.133c-47.128,0-85.333,38.205-85.333,85.333c0.052,47.107,38.227,85.281,85.333,85.333
				c47.128,0,85.333-38.205,85.333-85.333S166.595,34.133,119.467,34.133z M119.467,187.733c-37.703,0-68.267-30.564-68.267-68.267
				c0.043-37.685,30.582-68.224,68.267-68.267c37.703,0,68.267,30.564,68.267,68.267S157.169,187.733,119.467,187.733z"/>
			<path d="M119.467,68.267c-28.277,0-51.2,22.923-51.2,51.2c0.031,28.264,22.936,51.169,51.2,51.2c28.277,0,51.2-22.923,51.2-51.2
				S147.744,68.267,119.467,68.267z M119.467,153.6c-18.851,0-34.133-15.282-34.133-34.133
				c0.022-18.842,15.291-34.112,34.133-34.133c18.851,0,34.133,15.282,34.133,34.133S138.318,153.6,119.467,153.6z"/>
			<path d="M119.467,221.867c-47.128,0-85.333,38.205-85.333,85.333c0.052,47.107,38.227,85.281,85.333,85.333
				c47.128,0,85.333-38.205,85.333-85.333S166.595,221.867,119.467,221.867z M119.467,375.467
				c-37.703,0-68.267-30.564-68.267-68.267c0.043-37.685,30.582-68.224,68.267-68.267c37.703,0,68.267,30.564,68.267,68.267
				S157.169,375.467,119.467,375.467z"/>
			<path d="M119.467,256c-28.277,0-51.2,22.923-51.2,51.2c0.031,28.264,22.936,51.169,51.2,51.2c28.277,0,51.2-22.923,51.2-51.2
				S147.744,256,119.467,256z M119.467,341.333c-18.851,0-34.133-15.282-34.133-34.133c0.022-18.842,15.291-34.112,34.133-34.133
				c18.851,0,34.133,15.282,34.133,34.133S138.318,341.333,119.467,341.333z"/>
			<path d="M392.533,221.867c-47.128,0-85.333,38.205-85.333,85.333s38.205,85.333,85.333,85.333
				c47.128,0,85.333-38.205,85.333-85.333C477.814,260.093,439.64,221.919,392.533,221.867z M392.533,375.467
				c-37.703,0-68.267-30.564-68.267-68.267s30.564-68.267,68.267-68.267c37.703,0,68.267,30.564,68.267,68.267
				C460.757,344.885,430.218,375.424,392.533,375.467z"/>
			<path d="M392.533,256c-28.277,0-51.2,22.923-51.2,51.2s22.923,51.2,51.2,51.2c28.277,0,51.2-22.923,51.2-51.2
				C443.702,278.936,420.797,256.031,392.533,256z M392.533,341.333c-18.851,0-34.133-15.282-34.133-34.133
				s15.282-34.133,34.133-34.133c18.851,0,34.133,15.282,34.133,34.133C426.645,326.042,411.376,341.312,392.533,341.333z"/>
			<path d="M196.267,0h-153.6C19.114,0.028,0.028,19.114,0,42.667v426.667C0.028,492.886,19.114,511.972,42.667,512h153.6
				c23.553-0.028,42.639-19.114,42.667-42.667V42.667C238.906,19.114,219.819,0.028,196.267,0z M221.867,469.333
				c-0.015,14.132-11.468,25.585-25.6,25.6h-153.6c-14.132-0.015-25.585-11.468-25.6-25.6V42.667
				c0.015-14.132,11.468-25.585,25.6-25.6h153.6c14.132,0.015,25.585,11.468,25.6,25.6V469.333z"/>
			<path d="M392.533,34.133c-47.128,0-85.333,38.205-85.333,85.333s38.205,85.333,85.333,85.333
				c47.128,0,85.333-38.205,85.333-85.333C477.814,72.36,439.64,34.186,392.533,34.133z M392.533,187.733
				c-37.703,0-68.267-30.564-68.267-68.267S354.831,51.2,392.533,51.2c37.703,0,68.267,30.564,68.267,68.267
				C460.757,157.151,430.218,187.69,392.533,187.733z"/>
			<path d="M392.533,68.267c-28.277,0-51.2,22.923-51.2,51.2s22.923,51.2,51.2,51.2c28.277,0,51.2-22.923,51.2-51.2
				C443.702,91.203,420.797,68.298,392.533,68.267z M392.533,153.6c-18.851,0-34.133-15.282-34.133-34.133
				s15.282-34.133,34.133-34.133c18.851,0,34.133,15.282,34.133,34.133C426.645,138.309,411.376,153.578,392.533,153.6z"/>
			<path d="M469.333,0h-153.6c-23.553,0.028-42.639,19.114-42.667,42.667v426.667c0.028,23.553,19.114,42.639,42.667,42.667h153.6
				c23.553-0.028,42.639-19.114,42.667-42.667V42.667C511.972,19.114,492.886,0.028,469.333,0z M494.933,469.333
				c-0.015,14.132-11.468,25.585-25.6,25.6h-153.6c-14.132-0.015-25.585-11.468-25.6-25.6V42.667
				c0.015-14.132,11.468-25.585,25.6-25.6h153.6c14.132,0.015,25.585,11.468,25.6,25.6V469.333z"/>
			<path d="M136.533,426.667h-76.8c-4.713,0-8.533,3.82-8.533,8.533s3.82,8.533,8.533,8.533h76.8c4.713,0,8.533-3.82,8.533-8.533
				S141.246,426.667,136.533,426.667z"/>
			<path d="M179.2,426.667h-8.533c-4.713,0-8.533,3.82-8.533,8.533s3.82,8.533,8.533,8.533h8.533c4.713,0,8.533-3.82,8.533-8.533
				S183.913,426.667,179.2,426.667z"/>
			<path d="M392.533,409.6c-18.851,0-34.133,15.282-34.133,34.133c0,18.851,15.282,34.133,34.133,34.133
				c18.851,0,34.133-15.282,34.133-34.133C426.645,424.891,411.376,409.622,392.533,409.6z M409.018,448.203
				c-2.002,7.452-8.768,12.622-16.484,12.597c-7.716,0.025-14.482-5.146-16.484-12.597c-2.002-7.451,1.262-15.317,7.951-19.163v6.16
				c0,4.713,3.821,8.533,8.533,8.533c4.713,0,8.533-3.82,8.533-8.533v-6.16C407.756,432.885,411.02,440.751,409.018,448.203z"/>
			<path d="M327.508,418.813c-3.182-1.294-6.828-0.59-9.3,1.796c-0.773,0.814-1.383,1.769-1.796,2.813
				c-0.906,2.068-0.906,4.42,0,6.487c0.394,1.055,1.006,2.015,1.796,2.817c2.165,2.165,5.319,3.01,8.276,2.218
				c2.957-0.792,5.266-3.102,6.059-6.059c0.792-2.957-0.053-6.112-2.218-8.276C329.495,419.854,328.543,419.246,327.508,418.813z"/>
			<path d="M454.741,420.608c-3.313,3.34-3.298,8.73,0.032,12.052c3.331,3.322,8.721,3.322,12.052,0
				c3.331-3.322,3.345-8.712,0.032-12.052C463.431,417.463,458.168,417.463,454.741,420.608z"/>
		</g>
	</g>
</g>
<g>
</g>
<g>
</g>
<g>
</g>
<g>
</g>
<g>
</g>
<g>
</g>
<g>
</g>
<g>
</g>
<g>
</g>
<g>
</g>
<g>
</g>
<g>
</g>
<g>
</g>
<g>
</g>
<g>
</g>
</svg>
