<?xml version="1.0" encoding="iso-8859-1"?>
<!-- Generator: Adobe Illustrator 19.0.0, SVG Export Plug-In . SVG Version: 6.00 Build 0)  -->
<svg version="1.1" id="Capa_1" xmlns="http://www.w3.org/2000/svg" xmlns:xlink="http://www.w3.org/1999/xlink" x="0px" y="0px"
	 viewBox="0 0 512 512" style="enable-background:new 0 0 512 512;" xml:space="preserve">
<g>
	<g>
		<g>
			<path d="M418.133,0h-93.867c-0.975,0.025-1.939,0.219-2.848,0.575c-1.876-0.351-3.777-0.544-5.685-0.575H93.867
				C75.024,0.02,59.753,15.29,59.733,34.133v443.733c0.02,18.843,15.29,34.113,34.133,34.133h324.267
				c18.843-0.02,34.113-15.29,34.133-34.133V34.133C452.247,15.29,436.976,0.02,418.133,0z M332.8,477.867
				c-0.011,9.421-7.645,17.056-17.067,17.067H93.867c-9.421-0.011-17.056-7.645-17.067-17.067V34.133
				c0.011-9.421,7.645-17.056,17.067-17.067h221.867c9.421,0.011,17.056,7.646,17.067,17.067V477.867z M435.2,477.867
				c-0.011,9.421-7.646,17.056-17.067,17.067h-73.015c3.074-5.164,4.714-11.056,4.748-17.067V34.133
				c-0.034-6.01-1.674-11.902-4.748-17.067h73.015c9.421,0.011,17.056,7.646,17.067,17.067V477.867z"/>
			<path d="M298.667,34.133H110.933c-9.421,0.011-17.056,7.645-17.067,17.067v409.6c0.011,9.421,7.646,17.056,17.067,17.067h187.733
				c9.421-0.011,17.056-7.646,17.067-17.067V51.2C315.723,41.779,308.088,34.144,298.667,34.133z M298.667,460.8l-187.733,0.012V256
				h187.733V460.8z M298.667,238.933H110.933v-51.2H153.6V204.8c0.011,9.421,7.646,17.056,17.067,17.067h68.267
				c9.421-0.011,17.056-7.646,17.067-17.067v-17.067h42.667V238.933z M170.667,204.8v-17.067h68.267V204.8H170.667z
				 M298.667,170.667H110.933v-51.2h187.733V170.667z M298.667,102.4H110.933V51.2h187.733V102.4z"/>
			<path d="M204.8,358.4c23.564,0,42.667-19.103,42.667-42.667c-0.028-23.553-19.114-42.639-42.667-42.667
				c-23.564,0-42.667,19.103-42.667,42.667S181.236,358.4,204.8,358.4z M204.8,290.133c14.138,0,25.6,11.461,25.6,25.6
				c-0.015,14.132-11.468,25.585-25.6,25.6c-14.138,0-25.6-11.462-25.6-25.6S190.662,290.133,204.8,290.133z"/>
			<path d="M209.492,385.45c-0.435-0.339-0.926-0.6-1.45-0.771c-0.51-0.258-1.059-0.43-1.625-0.508
				c-2.78-0.504-5.633,0.352-7.675,2.304c-2.461,2.441-3.201,6.129-1.872,9.331c1.329,3.202,4.464,5.281,7.93,5.261
				c0.542-0.016,1.083-0.073,1.617-0.171c0.566-0.082,1.115-0.255,1.625-0.512c0.524-0.171,1.015-0.432,1.45-0.771
				c0.46-0.297,0.89-0.639,1.283-1.021c1.636-1.591,2.558-3.776,2.558-6.058s-0.923-4.467-2.558-6.058
				C210.404,386.068,209.971,385.722,209.492,385.45z"/>
		</g>
	</g>
</g>
<g>
</g>
<g>
</g>
<g>
</g>
<g>
</g>
<g>
</g>
<g>
</g>
<g>
</g>
<g>
</g>
<g>
</g>
<g>
</g>
<g>
</g>
<g>
</g>
<g>
</g>
<g>
</g>
<g>
</g>
</svg>
