<?xml version="1.0" encoding="iso-8859-1"?>
<!-- Generator: Adobe Illustrator 19.0.0, SVG Export Plug-In . SVG Version: 6.00 Build 0)  -->
<svg version="1.1" id="Capa_1" xmlns="http://www.w3.org/2000/svg" xmlns:xlink="http://www.w3.org/1999/xlink" x="0px" y="0px"
	 viewBox="0 0 512 512" style="enable-background:new 0 0 512 512;" xml:space="preserve">
<g>
	<g>
		<g>
			<path d="M486.4,0H25.6C11.468,0.015,0.015,11.468,0,25.6v341.333c0.015,14.132,11.468,25.585,25.6,25.6h162.133V460.8H128
				c-18.843,0.02-34.113,15.29-34.133,34.133v8.533c-0.001,2.263,0.898,4.434,2.499,6.035c1.6,1.6,3.771,2.499,6.035,2.499h307.2
				c2.263,0.001,4.434-0.898,6.035-2.499c1.6-1.6,2.499-3.771,2.499-6.035v-8.533c-0.02-18.843-15.29-34.113-34.133-34.133h-59.733
				v-68.267H486.4c14.132-0.015,25.585-11.468,25.6-25.6V25.6C511.985,11.468,500.532,0.015,486.4,0z M384,477.867
				c9.421,0.011,17.056,7.645,17.067,17.067H110.933c0.011-9.421,7.645-17.056,17.067-17.067H384z M204.8,460.8v-68.267h102.4V460.8
				H204.8z M494.933,366.933c-0.005,4.711-3.822,8.529-8.533,8.533H25.6c-4.711-0.005-8.529-3.822-8.533-8.533v-42.667h477.867
				V366.933z M494.933,307.2H17.067v-256h477.867V307.2z M494.933,34.133H17.067V25.6c0.005-4.711,3.822-8.529,8.533-8.533h460.8
				c4.711,0.005,8.529,3.822,8.533,8.533V34.133z"/>
			<path d="M45.142,355.925c3.365,3.3,8.752,3.3,12.117,0c0.753-0.83,1.359-1.783,1.792-2.817c0.911-2.067,0.911-4.421,0-6.487
				c-0.433-1.033-1.039-1.984-1.792-2.813c-3.421-3.158-8.695-3.158-12.117,0c-0.753,0.829-1.359,1.78-1.792,2.813
				c-0.911,2.066-0.911,4.421,0,6.487C43.783,354.142,44.389,355.095,45.142,355.925z"/>
			<path d="M85.333,358.4c3.873,0,7.262-2.603,8.263-6.345c1-3.742-0.639-7.688-3.995-9.621c-3.356-1.933-7.592-1.369-10.327,1.374
				c-2.461,2.441-3.201,6.129-1.872,9.331S81.867,358.42,85.333,358.4z"/>
			<path d="M119.467,358.4c0.573-0.02,1.143-0.077,1.708-0.171c0.533-0.096,1.049-0.269,1.533-0.513
				c0.524-0.171,1.015-0.432,1.45-0.771c0.46-0.297,0.89-0.639,1.283-1.021c1.613-1.607,2.531-3.782,2.558-6.058
				c-0.043-2.273-0.959-4.443-2.558-6.059c-0.394-0.382-0.824-0.725-1.283-1.025c-0.435-0.339-0.926-0.6-1.45-0.771
				c-0.483-0.244-1-0.416-1.533-0.508c-2.811-0.575-5.724,0.289-7.767,2.304c-0.753,0.829-1.359,1.78-1.792,2.813
				c-0.438,1.027-0.67,2.13-0.683,3.246c-0.022,2.27,0.87,4.453,2.475,6.058C115.013,357.53,117.197,358.422,119.467,358.4z"/>
			<path d="M264.533,418.133h-17.067c-4.713,0-8.533,3.82-8.533,8.533s3.82,8.533,8.533,8.533h17.067
				c4.713,0,8.533-3.82,8.533-8.533S269.246,418.133,264.533,418.133z"/>
			<path d="M40.429,136.303c2.965,0.785,6.122-0.082,8.271-2.27l25.6-25.6c3.281-3.341,3.256-8.701-0.054-12.012
				s-8.671-3.335-12.012-0.054l-25.6,25.6c-2.188,2.149-3.055,5.307-2.27,8.271C35.148,133.203,37.464,135.518,40.429,136.303z"/>
			<path d="M86.017,80.042c0.184,0.545,0.442,1.062,0.767,1.538c0.317,0.446,0.659,0.873,1.025,1.279
				c1.636,1.558,3.8,2.441,6.059,2.475c0.573-0.016,1.144-0.073,1.708-0.171c0.533-0.096,1.049-0.269,1.533-0.513
				c0.543-0.188,1.059-0.447,1.533-0.771c0.425-0.338,0.858-0.679,1.284-1.021c0.341-0.429,0.683-0.854,1.025-1.279
				c0.321-0.477,0.579-0.994,0.767-1.538c0.247-0.483,0.419-1.002,0.508-1.537c0.103-0.563,0.162-1.133,0.175-1.705
				c-0.033-2.259-0.917-4.422-2.475-6.059c-0.425-0.341-0.858-0.683-1.283-1.025c-0.475-0.324-0.99-0.583-1.533-0.771
				c-0.483-0.244-1-0.416-1.534-0.508c-2.811-0.561-5.717,0.301-7.767,2.304c-1.561,1.634-2.445,3.799-2.475,6.059
				c0.014,0.571,0.07,1.141,0.167,1.704C85.596,79.039,85.77,79.557,86.017,80.042z"/>
			<path d="M42.916,172.896c0.786,2.958,3.097,5.269,6.055,6.055s6.111-0.073,8.262-2.251L151.1,82.833
				c1.601-1.6,2.5-3.77,2.5-6.033s-0.899-4.433-2.5-6.033c-1.6-1.601-3.77-2.5-6.033-2.5s-4.433,0.899-6.033,2.5l-93.867,93.867
				C42.988,166.785,42.129,169.937,42.916,172.896z"/>
		</g>
	</g>
</g>
<g>
</g>
<g>
</g>
<g>
</g>
<g>
</g>
<g>
</g>
<g>
</g>
<g>
</g>
<g>
</g>
<g>
</g>
<g>
</g>
<g>
</g>
<g>
</g>
<g>
</g>
<g>
</g>
<g>
</g>
</svg>
