<?xml version="1.0" encoding="iso-8859-1"?>
<!-- Generator: Adobe Illustrator 19.0.0, SVG Export Plug-In . SVG Version: 6.00 Build 0)  -->
<svg version="1.1" id="Capa_1" xmlns="http://www.w3.org/2000/svg" xmlns:xlink="http://www.w3.org/1999/xlink" x="0px" y="0px"
	 viewBox="0 0 512 512" style="enable-background:new 0 0 512 512;" xml:space="preserve">
<g>
	<g>
		<g>
			<path d="M443.51,178.092c0.002-0.381-0.024-0.761-0.077-1.138L402.067,25.167C398.001,10.324,384.523,0.025,369.133,0H142.867
				c-15.389,0.025-28.867,10.324-32.933,25.167L68.567,176.954c-0.053,0.378-0.078,0.758-0.077,1.14
				c-0.1,0.363-0.175,0.733-0.223,1.106V384c0.028,23.553,19.114,42.639,42.667,42.667h8.533v8c0,0.135,0.025,0.268,0.026,0.403
				l-0.026,0.13c0,0.091,0.049,0.165,0.051,0.255c0.118,7.154,2.035,14.164,5.573,20.383L144.9,490.5
				c7.608,13.282,21.736,21.482,37.042,21.5h148.117c15.306-0.018,29.434-8.218,37.042-21.5l19.808-34.658
				c3.538-6.22,5.455-13.231,5.573-20.386c0.003-0.09,0.051-0.165,0.051-0.255l-0.026-0.13c0.001-0.135,0.026-0.268,0.026-0.403
				v-8.001h8.533c23.553-0.028,42.639-19.114,42.667-42.667V179.2C443.685,178.826,443.61,178.456,443.51,178.092z M126.4,29.65
				c2.034-7.421,8.772-12.57,16.467-12.583h226.267c7.694,0.014,14.433,5.163,16.467,12.583l38.429,141.017H87.971L126.4,29.65z
				 M372.092,447.371l-19.808,34.663c-4.563,7.97-13.041,12.891-22.225,12.9H181.942c-9.184-0.009-17.662-4.93-22.225-12.9
				l-19.808-34.667c-0.591-1.171-1.089-2.385-1.492-3.633h235.167C373.182,444.983,372.683,446.199,372.092,447.371z
				 M375.467,426.667H332.8V409.6c0-4.713-3.82-8.533-8.533-8.533s-8.533,3.82-8.533,8.533v17.067h-17.067V409.6
				c0-4.713-3.82-8.533-8.533-8.533s-8.533,3.82-8.533,8.533v17.067h-17.067V409.6c0-4.713-3.82-8.533-8.533-8.533
				c-4.713,0-8.533,3.82-8.533,8.533v17.067H230.4V409.6c0-4.713-3.821-8.533-8.533-8.533c-4.713,0-8.533,3.82-8.533,8.533v17.067
				h-17.067V409.6c0-4.713-3.82-8.533-8.533-8.533s-8.533,3.82-8.533,8.533v17.067h-42.667V384h238.933V426.667z M375.467,366.933
				H136.533V332.8h238.933V366.933z M139.172,315.733l19.228-70.512c1.016-3.71,4.386-6.284,8.233-6.288h178.733
				c3.847,0.004,7.217,2.577,8.233,6.288l19.228,70.512H139.172z M426.667,384c-0.015,14.132-11.468,25.585-25.6,25.6h-8.533
				v-85.333c0-0.759-0.101-1.514-0.3-2.246l-22.167-81.292c-3.056-11.125-13.162-18.843-24.7-18.862H166.633
				c-11.538,0.02-21.643,7.737-24.7,18.862l-22.167,81.292c-0.199,0.732-0.3,1.487-0.3,2.246V409.6h-8.533
				c-14.132-0.015-25.585-11.468-25.6-25.6V187.733h341.333V384z"/>
			<path d="M298.6,41.609c-0.426-3.404-2.849-6.222-6.15-7.154c-3.302-0.932-6.84,0.204-8.983,2.883L251.9,76.8h-21.5
				c-3.81,0.001-7.158,2.525-8.208,6.188l-17.067,59.733c-0.736,2.575-0.22,5.347,1.393,7.485c1.613,2.138,4.137,3.395,6.815,3.394
				H256c3.914-0.001,7.326-2.665,8.275-6.463l6.925-27.671h27.467c2.448,0.001,4.778-1.05,6.398-2.885s2.373-4.278,2.069-6.706
				L298.6,41.609z M264.534,102.4c-3.914,0.001-7.326,2.665-8.275,6.462l-6.925,27.671H224.65l12.183-42.667H256
				c2.593-0.002,5.046-1.18,6.667-3.204l21.508-26.883L289,102.4H264.534z"/>
		</g>
	</g>
</g>
<g>
</g>
<g>
</g>
<g>
</g>
<g>
</g>
<g>
</g>
<g>
</g>
<g>
</g>
<g>
</g>
<g>
</g>
<g>
</g>
<g>
</g>
<g>
</g>
<g>
</g>
<g>
</g>
<g>
</g>
</svg>
