<?xml version="1.0" encoding="iso-8859-1"?>
<!-- Generator: Adobe Illustrator 19.0.0, SVG Export Plug-In . SVG Version: 6.00 Build 0)  -->
<svg version="1.1" id="Capa_1" xmlns="http://www.w3.org/2000/svg" xmlns:xlink="http://www.w3.org/1999/xlink" x="0px" y="0px"
	 viewBox="0 0 504.609 504.609" style="enable-background:new 0 0 504.609 504.609;" xml:space="preserve">
<g>
	<g>
		<g>
			<path d="M283.771,255.254c-2.513-0.646-5.184-0.093-7.234,1.497c-2.05,1.59-3.25,4.039-3.25,6.634v13.598h-33.574v-13.598
				c0-2.595-1.199-5.044-3.25-6.634c-2.05-1.59-4.721-2.143-7.234-1.497c-32.832,8.475-59.859,31.731-73.134,62.933
				c-13.275,31.202-11.291,66.802,5.371,96.334l0.031,0.063c0.166,0.293,0.277,0.613,0.446,0.904c0.357,0.61,0.791,1.172,1.29,1.673
				l0.047,0.061c0.688,0.66,1.485,1.196,2.354,1.587c0.222,0.106,0.44,0.192,0.672,0.279c0.923,0.367,1.905,0.565,2.899,0.586
				h28.541v28.537c0.02,0.992,0.218,1.973,0.585,2.895c0.087,0.235,0.175,0.454,0.281,0.678c0.39,0.868,0.926,1.664,1.585,2.351
				l0.055,0.043c0.501,0.5,1.064,0.935,1.675,1.295c0.295,0.171,0.619,0.284,0.916,0.452l0.047,0.023
				c33.273,18.782,73.949,18.782,107.222,0l0.049-0.024c0.296-0.168,0.619-0.28,0.914-0.451c0.611-0.359,1.173-0.794,1.675-1.295
				l0.055-0.043c0.658-0.687,1.194-1.482,1.584-2.35c0.107-0.225,0.196-0.446,0.283-0.682c0.366-0.922,0.564-1.901,0.583-2.893
				v-28.537h28.541c0.994-0.02,1.976-0.218,2.899-0.585c0.233-0.087,0.451-0.174,0.674-0.28c0.869-0.39,1.665-0.927,2.353-1.586
				l0.047-0.061c0.499-0.501,0.932-1.063,1.29-1.673c0.168-0.29,0.279-0.609,0.445-0.901l0.033-0.067
				c9.236-16.355,14.086-34.82,14.08-53.602C365.661,311.141,331.979,267.656,283.771,255.254z M338.812,402.885h-31.951
				c-2.226-0.001-4.362,0.884-5.936,2.458c-1.574,1.574-2.458,3.709-2.458,5.936v31.947c-26.435,13.139-57.499,13.139-83.934,0
				v-31.947c0.001-2.226-0.884-4.362-2.458-5.936c-1.574-1.574-3.709-2.458-5.936-2.458H174.19
				c-11.803-23.257-13.242-50.415-3.961-74.789c9.28-24.374,28.417-43.698,52.699-53.215v10.496
				c-0.001,2.226,0.884,4.361,2.458,5.936s3.709,2.458,5.936,2.458h50.361c2.226,0.001,4.361-0.884,5.936-2.458
				s2.458-3.709,2.458-5.936v-10.496c24.282,9.517,43.419,28.842,52.699,53.215C352.054,352.47,350.616,379.628,338.812,402.885z"/>
			<path d="M273.288,310.557h-33.574c-2.226-0.001-4.362,0.884-5.936,2.458c-1.574,1.574-2.458,3.709-2.458,5.936v50.361
				c-0.001,2.226,0.884,4.362,2.458,5.936c1.574,1.574,3.709,2.458,5.936,2.458h33.574c2.226,0.001,4.362-0.884,5.936-2.458
				c1.574-1.574,2.458-3.709,2.458-5.936v-50.361c0.001-2.226-0.884-4.361-2.458-5.936
				C277.649,311.441,275.514,310.557,273.288,310.557z M264.894,360.918h-16.787v-33.574h16.787V360.918z"/>
			<path d="M200.181,312.991c-3.258,3.285-3.244,8.587,0.032,11.854c3.276,3.267,8.578,3.267,11.854,0
				c3.276-3.267,3.29-8.569,0.032-11.854C208.732,309.889,203.548,309.889,200.181,312.991z"/>
			<path d="M191.788,363.352c-3.258,3.285-3.244,8.587,0.032,11.854c3.276,3.267,8.578,3.267,11.854,0
				c3.276-3.267,3.29-8.569,0.032-11.854C200.338,360.25,195.155,360.25,191.788,363.352z"/>
			<path d="M312.821,324.91c2.904-2.848,3.387-7.354,1.152-10.752c-2.235-3.399-6.563-4.741-10.329-3.203
				c-3.766,1.538-5.917,5.526-5.133,9.518c0.784,3.992,4.283,6.871,8.35,6.871C309.083,327.311,311.211,326.442,312.821,324.91z"/>
			<path d="M319.453,362.001c-3.301-1.901-7.468-1.347-10.157,1.351c-3.246,3.31-3.246,8.608,0,11.918
				c1.6,1.547,3.734,2.419,5.959,2.435c3.809,0,7.143-2.56,8.127-6.241C324.366,367.784,322.754,363.902,319.453,362.001z"/>
			<path d="M245.044,413.143c-1.958-1.599-4.537-2.223-7.01-1.697c-0.525,0.09-1.033,0.259-1.508,0.5
				c-0.537,0.184-1.047,0.439-1.516,0.758l-1.254,1.008c-0.759,0.801-1.358,1.74-1.763,2.766c-0.431,1.01-0.659,2.095-0.671,3.193
				c0.014,2.226,0.885,4.361,2.434,5.959c0.418,0.336,0.836,0.672,1.254,1.004c0.47,0.319,0.98,0.574,1.516,0.758
				c0.475,0.241,0.983,0.411,1.508,0.504c0.555,0.096,1.117,0.153,1.681,0.168c2.222-0.034,4.349-0.903,5.959-2.434
				c0.336-0.422,0.672-0.84,1.008-1.344c0.331-0.429,0.586-0.911,0.754-1.426c0.243-0.475,0.412-0.985,0.5-1.512
				c0.102-0.553,0.159-1.114,0.172-1.677C248.129,417.144,247.002,414.742,245.044,413.143z"/>
			<path d="M270.099,411.947c-1.028,0.406-1.969,1.006-2.771,1.766c-1.568,1.586-2.443,3.729-2.434,5.959
				c-0.027,0.564,0.028,1.128,0.164,1.676c0.095,0.526,0.266,1.036,0.508,1.512c0.164,0.517,0.42,1,0.754,1.426
				c0.289,0.481,0.627,0.932,1.008,1.345c0.803,0.758,1.744,1.356,2.771,1.763c1.009,0.43,2.092,0.658,3.189,0.671
				c0.534-0.015,1.065-0.071,1.59-0.168c0.557-0.081,1.096-0.251,1.598-0.504c0.516-0.168,0.998-0.425,1.426-0.758
				c0.5-0.332,0.926-0.668,1.344-1.004c3.246-3.31,3.246-8.608,0-11.918C276.796,411.405,273.234,410.717,270.099,411.947z"/>
			<path d="M424.187,116.604c0.012-0.296,0.007-0.592-0.014-0.887v-0.004l-0.483-2.204l-18.05-82.583
				C400.633,12.685,384.064,0.031,365.149,0H139.46c-19.06,0.071-35.701,12.922-40.59,31.344l-17.991,82.342l-0.444,2.027v0.004
				c-0.022,0.295-0.026,0.592-0.014,0.888c-0.078,0.297-0.139,0.599-0.182,0.903v184.656c0.047,20.36,14.704,37.748,34.763,41.239
				c-0.755,5.809-1.152,11.658-1.189,17.515c0,2.073,0.223,4.09,0.312,6.142c-0.023,0.255-0.148,0.48-0.148,0.739
				c0.05,0.413,0.133,0.822,0.247,1.222c2.577,52.537,33.872,99.387,81.417,121.886c47.545,22.499,103.616,16.991,145.875-14.329
				c42.259-31.32,63.839-83.364,56.144-135.398c16.112-6.234,26.727-21.74,26.71-39.016V117.508
				C424.327,117.204,424.266,116.902,424.187,116.604z M115.206,35.344c2.983-10.956,12.932-18.558,24.287-18.557h225.623
				c11.219-0.036,21.099,7.381,24.197,18.164l16.238,74.164H99.058L115.206,35.344z M256.501,486.82
				c-69.534,0-125.902-56.368-125.902-125.902s56.368-125.902,125.902-125.902s125.902,56.368,125.902,125.902
				C382.325,430.42,326.002,486.742,256.501,486.82z M138.029,281.499l0.998-11.316c0.019-0.172,0.113-0.315,0.122-0.49
				c3.829-60.828,53.495-108.651,114.424-110.18c60.929-1.529,112.931,43.744,119.806,104.303c0.015,0.14,0.098,0.249,0.119,0.386
				l1.526,17.38c-26.441-39.57-70.885-63.335-118.476-63.352S164.497,241.947,138.029,281.499z M407.583,302.164
				c0.008,8.758-4.557,16.885-12.042,21.434l-5.368-61.373c-0.015-0.177-0.117-0.316-0.144-0.489
				c-7.927-69.048-67.199-120.657-136.681-119.011c-69.482,1.645-126.244,56.003-130.894,125.348
				c-0.023,0.162-0.119,0.291-0.134,0.456l-5.14,58.308c-11.72-2.402-20.14-12.709-20.155-24.673V125.902h310.557V302.164z"/>
			<path d="M373.403,40.611c-0.668-4.057-4.175-7.035-8.287-7.037l-225.631,0.041c-4.112,0.002-7.619,2.979-8.287,7.037
				l-6.869,41.926c-0.395,2.431,0.297,4.912,1.892,6.789c1.595,1.876,3.933,2.959,6.395,2.961h239.377
				c2.463-0.002,4.8-1.085,6.395-2.961c1.595-1.876,2.286-4.358,1.892-6.789L373.403,40.611z M142.493,75.541l4.123-25.139
				l211.369-0.041l4.131,25.18H142.493z"/>
		</g>
	</g>
</g>
<g>
</g>
<g>
</g>
<g>
</g>
<g>
</g>
<g>
</g>
<g>
</g>
<g>
</g>
<g>
</g>
<g>
</g>
<g>
</g>
<g>
</g>
<g>
</g>
<g>
</g>
<g>
</g>
<g>
</g>
</svg>
