<?xml version="1.0" encoding="iso-8859-1"?>
<!-- Generator: Adobe Illustrator 19.0.0, SVG Export Plug-In . SVG Version: 6.00 Build 0)  -->
<svg version="1.1" id="Capa_1" xmlns="http://www.w3.org/2000/svg" xmlns:xlink="http://www.w3.org/1999/xlink" x="0px" y="0px"
	 viewBox="0 0 512 512" style="enable-background:new 0 0 512 512;" xml:space="preserve">
<g>
	<g>
		<g>
			<path d="M434.967,221.599c0.249-1.067,0.288-2.171,0.117-3.253l-18.967-115.2c-0.277-1.68-1.048-3.24-2.217-4.479l-74.033-78.25
				C327.561,7.432,310.473,0.053,292.583,0h-73.167c-17.89,0.053-34.977,7.432-47.283,20.417L98.1,98.667
				c-1.168,1.239-1.94,2.799-2.217,4.479l-18.967,115.2c-0.171,1.081-0.131,2.185,0.117,3.251c-0.108,0.396-0.186,0.8-0.234,1.208
				v113.75c-0.054,16.304,6.04,32.028,17.067,44.038v71.675c0.038,32.974,26.759,59.695,59.733,59.733h204.8
				c32.974-0.038,59.695-26.759,59.733-59.733v-71.675c11.027-12.009,17.121-27.734,17.067-44.038v-113.75
				C435.152,222.397,435.074,221.994,434.967,221.599z M112.292,108.5l72.242-76.35c9.075-9.588,21.682-15.039,34.883-15.083h73.167
				c13.202,0.044,25.808,5.495,34.883,15.083l72.242,76.35l14.677,89.153L358.775,139.6c-12.349-12.853-29.401-20.122-47.225-20.133
				h-111.1c-17.817,0.009-34.863,7.274-47.208,20.121l-55.628,58.066L112.292,108.5z M401.067,452.267
				c-0.028,23.553-19.114,42.639-42.667,42.667H153.6c-23.553-0.028-42.639-19.114-42.667-42.667v-98.971l64.258-67.079
				c8.064-8.381,19.186-13.127,30.817-13.15h99.983c11.63,0.023,22.753,4.769,30.817,13.15l64.258,67.079V452.267z M115.361,324.005
				l12.089-72.539l64.808-67.65c8.064-8.381,19.186-13.127,30.817-13.15h65.85c11.63,0.023,22.753,4.769,30.817,13.15l64.808,67.65
				l12.089,72.539l-47.514-49.597c-11.286-11.732-26.854-18.376-43.133-18.408h-99.983c-16.279,0.032-31.847,6.676-43.133,18.408
				L115.361,324.005z M418.133,336.554c-0.045,2.662-0.305,5.316-0.779,7.936l-16.405-98.428c-0.283-1.693-1.07-3.262-2.258-4.5
				l-66.633-69.554c-11.286-11.732-26.854-18.376-43.133-18.408h-65.85c-16.279,0.032-31.847,6.676-43.133,18.408l-66.633,69.554
				c-1.189,1.238-1.976,2.807-2.258,4.5l-16.405,98.428c-0.473-2.62-0.734-5.274-0.779-7.936V226.233l71.708-74.85
				c9.122-9.487,21.714-14.848,34.875-14.85h111.1c13.168,0.004,25.766,5.37,34.892,14.862l71.692,74.838V336.554z"/>
			<path d="M187.733,375.467H153.6c-2.263-0.001-4.434,0.898-6.035,2.499c-1.6,1.6-2.499,3.771-2.499,6.035v68.267
				c-0.001,2.263,0.898,4.434,2.499,6.035c1.6,1.6,3.771,2.499,6.035,2.499h34.133c2.263,0.001,4.434-0.898,6.035-2.499
				c1.6-1.6,2.499-3.771,2.499-6.035V384c0.001-2.263-0.898-4.434-2.499-6.035C192.168,376.365,189.997,375.466,187.733,375.467z
				 M179.2,443.733h-17.067v-51.2H179.2V443.733z"/>
			<path d="M273.067,307.2h-34.133c-2.263-0.001-4.434,0.898-6.035,2.499c-1.6,1.6-2.499,3.771-2.499,6.035V384
				c-0.001,2.263,0.898,4.434,2.499,6.035c1.6,1.6,3.771,2.499,6.035,2.499h34.133c2.263,0.001,4.434-0.898,6.035-2.499
				c1.6-1.6,2.499-3.771,2.499-6.035v-68.267c0.001-2.263-0.898-4.434-2.499-6.035C277.501,308.098,275.33,307.199,273.067,307.2z
				 M264.533,375.467h-17.067v-51.2h17.067V375.467z"/>
			<path d="M318.232,377.965c-1.6,1.6-2.499,3.771-2.499,6.035v68.267c-0.001,2.263,0.898,4.434,2.499,6.035
				c1.6,1.6,3.771,2.499,6.035,2.499H358.4c2.263,0.001,4.434-0.898,6.035-2.499c1.6-1.6,2.499-3.771,2.499-6.035V384
				c0.001-2.263-0.898-4.434-2.499-6.035c-1.6-1.6-3.771-2.499-6.035-2.499h-34.133
				C322.003,375.466,319.832,376.365,318.232,377.965z M332.8,392.533h17.067v51.2H332.8V392.533z"/>
		</g>
	</g>
</g>
<g>
</g>
<g>
</g>
<g>
</g>
<g>
</g>
<g>
</g>
<g>
</g>
<g>
</g>
<g>
</g>
<g>
</g>
<g>
</g>
<g>
</g>
<g>
</g>
<g>
</g>
<g>
</g>
<g>
</g>
</svg>
