<?xml version="1.0" encoding="iso-8859-1"?>
<!-- Generator: Adobe Illustrator 19.0.0, SVG Export Plug-In . SVG Version: 6.00 Build 0)  -->
<svg version="1.1" id="Capa_1" xmlns="http://www.w3.org/2000/svg" xmlns:xlink="http://www.w3.org/1999/xlink" x="0px" y="0px"
	 viewBox="0 0 512 512" style="enable-background:new 0 0 512 512;" xml:space="preserve">
<g>
	<g>
		<g>
			<path d="M511.935,298.345c-0.016-0.974-0.199-1.938-0.543-2.849l-12.775-31.938c-3.848-9.699-13.22-16.071-23.654-16.083
				L400.488,73.7l-20.683-57.45c-4.636-12.725-18.688-19.307-31.431-14.722s-19.382,18.61-14.848,31.372l12.733,35.367h-24.61
				l-19.373-51.654C298.501,6.641,288.966,0.033,278.304,0h-44.608c-10.662,0.034-20.198,6.642-23.975,16.613l-19.369,51.654
				h-24.609L178.475,32.9c4.534-12.762-2.104-26.787-14.848-31.372s-26.796,1.997-31.431,14.722L111.513,73.7L37.037,247.475
				c-10.434,0.011-19.807,6.384-23.654,16.083L0.608,295.496c-0.344,0.911-0.528,1.875-0.543,2.849
				C0.06,298.458,0,298.553,0,298.667V486.4c0.015,14.132,11.468,25.585,25.6,25.6h460.8c14.132-0.015,25.585-11.468,25.6-25.6
				V298.667C512,298.553,511.94,298.458,511.935,298.345z M350.504,20.258c1.717-2.121,4.415-3.195,7.119-2.832
				c2.705,0.363,5.025,2.108,6.122,4.607l16.645,46.233h-15.993l-14.815-41.15C348.74,24.819,349.085,22.253,350.504,20.258z
				 M225.7,22.608c1.26-3.325,4.44-5.53,7.996-5.542h44.608c3.554,0.011,6.733,2.214,7.992,5.538l17.122,45.662h-94.837
				L225.7,22.608z M148.254,22.033c1.097-2.499,3.417-4.245,6.122-4.607s5.403,0.711,7.119,2.832
				c1.419,1.994,1.764,4.56,0.921,6.858l-14.815,41.15h-15.993L148.254,22.033z M125.092,85.333h190.614l0.028,0.004l0.023-0.004
				h71.152l69.483,162.133H55.608L125.092,85.333z M29.233,269.9c1.284-3.249,4.427-5.379,7.921-5.367h437.692
				c3.493-0.012,6.637,2.118,7.921,5.367l8.096,20.233H21.138L29.233,269.9z M494.933,486.4c-0.006,4.71-3.823,8.527-8.533,8.533
				H25.6c-4.71-0.006-8.527-3.823-8.533-8.533V307.2h477.867V486.4z"/>
			<path d="M128,477.867h256c14.132-0.015,25.585-11.468,25.6-25.6v-102.4c-0.015-14.132-11.468-25.585-25.6-25.6H128
				c-14.132,0.015-25.585,11.468-25.6,25.6v102.4C102.415,466.399,113.868,477.851,128,477.867z M119.467,349.867
				c0.006-4.71,3.823-8.527,8.533-8.533h256c4.71,0.006,8.527,3.823,8.533,8.533v10.106c-2.733-1.012-5.62-1.544-8.533-1.572H128
				c-2.914,0.029-5.801,0.561-8.533,1.572V349.867z M119.467,384c0.006-4.71,3.823-8.527,8.533-8.533h256
				c4.71,0.006,8.527,3.823,8.533,8.533v68.267c-0.006,4.71-3.823,8.527-8.533,8.533H128c-4.71-0.006-8.527-3.823-8.533-8.533V384z"
				/>
			<path d="M137.212,404.308c0.187,0.544,0.447,1.062,0.771,1.537c0.316,0.447,0.658,0.874,1.025,1.28
				c0.83,0.752,1.781,1.358,2.813,1.792c1.027,0.438,2.13,0.67,3.246,0.683c0.571-0.016,1.141-0.073,1.704-0.171
				c0.535-0.095,1.053-0.267,1.537-0.512c0.544-0.188,1.062-0.447,1.538-0.771c0.425-0.337,0.85-0.679,1.279-1.021
				c0.366-0.405,0.707-0.833,1.021-1.279c0.324-0.476,0.583-0.993,0.771-1.538c0.245-0.485,0.418-1.003,0.513-1.537
				c0.094-0.564,0.151-1.133,0.171-1.704c-0.013-1.116-0.245-2.219-0.683-3.246c-0.434-1.032-1.04-1.983-1.791-2.813
				c-0.429-0.341-0.854-0.683-1.279-1.025c-0.476-0.324-0.993-0.583-1.538-0.771c-0.484-0.246-1.002-0.417-1.537-0.508
				c-1.663-0.348-3.393-0.171-4.95,0.508c-2.139,0.784-3.824,2.469-4.608,4.608c-0.437,1.027-0.668,2.13-0.68,3.247
				c0.018,0.571,0.075,1.141,0.171,1.704C136.795,403.306,136.967,403.824,137.212,404.308z"/>
			<path d="M137.212,438.442c0.187,0.544,0.447,1.062,0.771,1.538c0.316,0.447,0.658,0.874,1.025,1.279
				c0.83,0.752,1.781,1.358,2.813,1.792c1.027,0.438,2.13,0.67,3.246,0.683c0.571-0.016,1.141-0.073,1.704-0.171
				c0.535-0.095,1.053-0.268,1.537-0.513c0.544-0.187,1.062-0.447,1.538-0.771c0.929-0.585,1.715-1.371,2.3-2.3
				c0.324-0.476,0.583-0.993,0.771-1.538c0.245-0.485,0.418-1.003,0.513-1.537c0.098-0.563,0.155-1.133,0.171-1.704
				c-0.013-1.116-0.245-2.219-0.683-3.246c-0.434-1.032-1.04-1.983-1.791-2.813c-2.453-2.425-6.125-3.133-9.304-1.796
				c-2.139,0.784-3.824,2.469-4.608,4.608c-0.437,1.027-0.668,2.13-0.68,3.247c0.014,0.572,0.071,1.141,0.171,1.704
				C136.795,437.439,136.967,437.958,137.212,438.442z"/>
			<path d="M171.346,404.308c0.187,0.544,0.447,1.062,0.771,1.537c0.316,0.447,0.658,0.874,1.025,1.28
				c0.404,0.368,0.831,0.709,1.279,1.021c0.475,0.323,0.991,0.582,1.533,0.771c0.485,0.245,1.003,0.418,1.537,0.513
				c0.565,0.098,1.136,0.155,1.709,0.171c2.259-0.034,4.422-0.918,6.059-2.475c0.341-0.429,0.683-0.854,1.021-1.279
				c0.324-0.476,0.583-0.993,0.771-1.538c0.245-0.485,0.418-1.003,0.513-1.537c0.098-0.563,0.155-1.133,0.17-1.705
				c-0.013-1.116-0.245-2.219-0.683-3.246c-0.434-1.032-1.04-1.983-1.791-2.813c-2.072-1.966-4.958-2.822-7.767-2.304
				c-0.535,0.091-1.053,0.263-1.537,0.508c-0.543,0.188-1.058,0.448-1.533,0.771c-0.429,0.341-0.854,0.683-1.279,1.025
				c-0.754,0.828-1.362,1.78-1.796,2.813c-0.437,1.027-0.668,2.13-0.68,3.246c0.013,0.572,0.071,1.141,0.171,1.704
				C170.929,403.306,171.1,403.824,171.346,404.308z"/>
			<path d="M174.42,442.28c0.475,0.323,0.991,0.582,1.533,0.771c0.485,0.245,1.003,0.418,1.537,0.513
				c0.565,0.098,1.136,0.155,1.709,0.17c1.119,0.029,2.229-0.205,3.242-0.683c1.044-0.414,1.999-1.022,2.817-1.792
				c1.557-1.637,2.441-3.799,2.475-6.058c-0.013-1.116-0.245-2.219-0.683-3.246c-0.434-1.032-1.04-1.983-1.791-2.813
				c-0.816-0.772-1.772-1.382-2.817-1.796c-3.183-1.285-6.824-0.582-9.301,1.796c-0.754,0.828-1.362,1.78-1.796,2.813
				c-0.437,1.027-0.667,2.13-0.679,3.246c0.032,2.259,0.916,4.423,2.475,6.059C173.566,441.6,173.991,441.942,174.42,442.28z"/>
			<path d="M213.333,409.6c0.571-0.02,1.14-0.077,1.704-0.171c0.535-0.095,1.053-0.267,1.537-0.512
				c0.544-0.188,1.062-0.447,1.538-0.771c0.447-0.314,0.874-0.655,1.279-1.021c1.557-1.637,2.44-3.8,2.475-6.059
				c-0.013-1.116-0.245-2.219-0.683-3.246c-0.413-1.043-1.021-1.997-1.791-2.813c-0.429-0.341-0.854-0.683-1.279-1.025
				c-0.476-0.324-0.993-0.583-1.538-0.771c-0.484-0.246-1.002-0.417-1.537-0.508c-1.123-0.258-2.29-0.258-3.413,0
				c-0.535,0.091-1.053,0.263-1.537,0.508c-0.543,0.188-1.058,0.448-1.533,0.771c-0.429,0.341-0.854,0.683-1.279,1.025
				c-0.773,0.814-1.383,1.769-1.796,2.813c-0.437,1.027-0.668,2.13-0.68,3.246c-0.022,2.27,0.87,4.453,2.475,6.058
				S211.063,409.622,213.333,409.6z"/>
			<path d="M213.333,443.733c0.571-0.02,1.14-0.077,1.704-0.171c0.535-0.095,1.053-0.268,1.537-0.513
				c0.544-0.187,1.062-0.447,1.538-0.771c0.425-0.338,0.85-0.679,1.279-1.021c3.3-3.365,3.3-8.752,0-12.117
				c-0.429-0.342-0.854-0.683-1.279-1.025c-0.476-0.324-0.993-0.583-1.538-0.771c-0.484-0.245-1.002-0.417-1.537-0.508
				c-3.198-0.67-6.498,0.544-8.499,3.126c-2.002,2.582-2.355,6.08-0.909,9.01C207.075,441.903,210.066,443.751,213.333,443.733z"/>
			<path d="M242.687,408.146c0.475,0.323,0.991,0.582,1.533,0.771c0.51,0.258,1.059,0.431,1.625,0.513
				c0.535,0.098,1.077,0.155,1.621,0.171c2.27,0.022,4.453-0.87,6.058-2.475c1.605-1.605,2.497-3.788,2.475-6.058
				c-0.013-1.116-0.245-2.219-0.683-3.246c-0.413-1.043-1.021-1.997-1.791-2.813c-2.044-1.953-4.898-2.809-7.679-2.304
				c-0.566,0.078-1.115,0.25-1.625,0.508c-0.543,0.188-1.058,0.448-1.533,0.771c-0.448,0.314-0.876,0.656-1.28,1.025
				c-0.773,0.814-1.383,1.769-1.796,2.813c-0.436,1.027-0.667,2.13-0.679,3.246c0.032,2.259,0.916,4.423,2.475,6.059
				C241.833,407.467,242.258,407.809,242.687,408.146z"/>
			<path d="M242.687,442.28c0.475,0.323,0.991,0.582,1.533,0.771c0.51,0.258,1.059,0.431,1.625,0.513
				c0.535,0.098,1.077,0.155,1.621,0.17c2.27,0.022,4.453-0.87,6.058-2.475c1.605-1.605,2.497-3.788,2.475-6.058
				c-0.013-1.116-0.245-2.219-0.683-3.246c-0.434-1.032-1.04-1.983-1.791-2.813c-2.044-1.953-4.898-2.809-7.679-2.304
				c-0.566,0.078-1.115,0.25-1.625,0.508c-0.543,0.188-1.058,0.448-1.533,0.771c-0.429,0.341-0.854,0.683-1.279,1.025
				c-0.773,0.814-1.383,1.769-1.796,2.813c-0.437,1.027-0.668,2.13-0.68,3.246c0.032,2.259,0.916,4.423,2.475,6.059
				C241.833,441.6,242.258,441.942,242.687,442.28z"/>
			<path d="M275.541,407.125c0.83,0.752,1.781,1.358,2.813,1.792c1.014,0.479,2.126,0.712,3.246,0.683
				c2.259-0.034,4.422-0.918,6.059-2.475c0.77-0.817,1.378-1.773,1.792-2.817c0.478-1.012,0.712-2.123,0.683-3.242
				c-0.033-2.259-0.917-4.422-2.475-6.059c-2.453-2.425-6.125-3.133-9.305-1.796c-1.033,0.434-1.984,1.041-2.813,1.796
				c-1.559,1.635-2.443,3.799-2.475,6.059c0.012,1.115,0.243,2.216,0.679,3.242C274.16,405.353,274.769,406.309,275.541,407.125z"/>
			<path d="M273.746,438.442c0.188,0.544,0.447,1.062,0.771,1.538c0.341,0.425,0.683,0.85,1.025,1.279
				c0.83,0.752,1.781,1.358,2.813,1.792c1.027,0.438,2.13,0.67,3.246,0.683c2.259-0.034,4.422-0.918,6.059-2.475
				c0.366-0.405,0.707-0.833,1.021-1.279c0.324-0.476,0.583-0.993,0.771-1.538c0.245-0.485,0.418-1.003,0.513-1.537
				c0.094-0.564,0.151-1.133,0.171-1.705c-0.033-2.259-0.917-4.422-2.475-6.059c-2.477-2.379-6.12-3.082-9.305-1.796
				c-1.033,0.434-1.984,1.041-2.813,1.796c-1.559,1.635-2.443,3.799-2.475,6.059c0.018,0.571,0.075,1.141,0.171,1.704
				C273.329,437.439,273.5,437.958,273.746,438.442z"/>
			<path d="M315.733,409.6c0.571-0.02,1.141-0.077,1.704-0.171c0.535-0.095,1.053-0.267,1.537-0.512
				c0.544-0.188,1.062-0.447,1.538-0.771c0.425-0.337,0.85-0.679,1.279-1.021c3.3-3.365,3.3-8.752,0-12.117
				c-0.429-0.342-0.854-0.683-1.279-1.025c-0.476-0.324-0.993-0.583-1.538-0.771c-0.484-0.246-1.002-0.417-1.537-0.508
				c-2.809-0.562-5.715,0.301-7.763,2.304c-2.461,2.441-3.201,6.129-1.872,9.331C309.133,407.541,312.267,409.62,315.733,409.6z"/>
			<path d="M323.583,431.954c-0.188-0.543-0.448-1.058-0.771-1.533c-0.337-0.429-0.679-0.854-1.021-1.279
				c-3.421-3.158-8.695-3.158-12.117,0c-0.341,0.425-0.683,0.85-1.025,1.279c-0.323,0.475-0.582,0.991-0.771,1.533
				c-0.246,0.484-0.417,1.002-0.508,1.537c-0.096,0.565-0.153,1.136-0.171,1.708c-0.022,2.27,0.87,4.453,2.475,6.058
				c1.605,1.605,3.789,2.497,6.058,2.475c0.571-0.02,1.141-0.077,1.704-0.171c0.535-0.095,1.053-0.268,1.537-0.513
				c0.544-0.187,1.062-0.447,1.538-0.771c0.425-0.338,0.85-0.679,1.279-1.021c1.557-1.637,2.441-3.8,2.475-6.059
				c-0.02-0.573-0.077-1.143-0.171-1.708C324.001,432.957,323.828,432.439,323.583,431.954z"/>
			<path d="M349.867,426.667h17.067c4.713,0,8.533-3.82,8.533-8.533s-3.82-8.533-8.533-8.533h-17.067
				c-4.713,0-8.533,3.82-8.533,8.533S345.154,426.667,349.867,426.667z"/>
			<path d="M59.733,443.733c14.132-0.015,25.585-11.468,25.6-25.6V384c0-14.138-11.461-25.6-25.6-25.6s-25.6,11.462-25.6,25.6
				v34.133C34.149,432.265,45.601,443.718,59.733,443.733z M51.2,384c0.006-4.71,3.823-8.527,8.533-8.533
				c4.71,0.006,8.527,3.823,8.533,8.533v10.106c-5.496-2.097-11.571-2.097-17.067,0V384z M59.733,409.6
				c4.713,0,8.533,3.82,8.533,8.533c-0.006,4.71-3.823,8.527-8.533,8.533c-4.713,0-8.533-3.82-8.533-8.533
				S55.021,409.6,59.733,409.6z"/>
			<path d="M264.533,34.133h-17.067c-4.713,0-8.533,3.82-8.533,8.533s3.82,8.533,8.533,8.533h17.067c4.713,0,8.533-3.82,8.533-8.533
				S269.246,34.133,264.533,34.133z"/>
			<path d="M391.571,189.442l-16.992-59.729c-3.341-11.208-13.684-18.862-25.379-18.779H162.8
				c-11.694-0.083-22.037,7.569-25.379,18.775l-16.992,59.733c-2.17,7.57-0.63,15.72,4.154,21.975
				c5.023,6.645,12.895,10.521,21.225,10.45h220.383c8.33,0.071,16.202-3.805,21.225-10.45
				C392.201,205.162,393.741,197.011,391.571,189.442z M373.8,201.129c-1.813,2.358-4.634,3.72-7.608,3.671H145.808
				c-2.974,0.049-5.796-1.313-7.608-3.671c-1.547-1.99-2.05-4.599-1.354-7.021l16.992-59.737c1.242-3.878,4.892-6.472,8.963-6.371
				h186.4c4.072-0.102,7.723,2.495,8.962,6.375l16.992,59.733C375.85,196.531,375.347,199.139,373.8,201.129z"/>
			<path d="M452.267,443.733c14.132-0.015,25.585-11.468,25.6-25.6V384c0-14.138-11.462-25.6-25.6-25.6
				c-14.138,0-25.6,11.462-25.6,25.6v34.133C426.682,432.265,438.135,443.718,452.267,443.733z M443.733,384
				c0.006-4.71,3.823-8.527,8.533-8.533c4.71,0.006,8.527,3.823,8.533,8.533v10.106c-5.496-2.097-11.571-2.097-17.067,0V384z
				 M452.267,409.6c4.713,0,8.533,3.82,8.533,8.533c-0.006,4.71-3.823,8.527-8.533,8.533c-4.713,0-8.533-3.82-8.533-8.533
				S447.554,409.6,452.267,409.6z"/>
		</g>
	</g>
</g>
<g>
</g>
<g>
</g>
<g>
</g>
<g>
</g>
<g>
</g>
<g>
</g>
<g>
</g>
<g>
</g>
<g>
</g>
<g>
</g>
<g>
</g>
<g>
</g>
<g>
</g>
<g>
</g>
<g>
</g>
</svg>
