<?xml version="1.0" encoding="iso-8859-1"?>
<!-- Generator: Adobe Illustrator 19.0.0, SVG Export Plug-In . SVG Version: 6.00 Build 0)  -->
<svg version="1.1" id="Capa_1" xmlns="http://www.w3.org/2000/svg" xmlns:xlink="http://www.w3.org/1999/xlink" x="0px" y="0px"
	 viewBox="0 0 512 512" style="enable-background:new 0 0 512 512;" xml:space="preserve">
<g>
	<g>
		<g>
			<path d="M392.533,426.667H119.467c-4.713,0-8.533,3.82-8.533,8.533v25.6c0,4.713,3.82,8.533,8.533,8.533S128,465.513,128,460.8
				v-17.067h17.067c0,4.713,3.821,8.533,8.533,8.533c4.713,0,8.533-3.82,8.533-8.533H179.2c0,4.713,3.82,8.533,8.533,8.533
				s8.533-3.82,8.533-8.533h17.067c0,4.713,3.82,8.533,8.533,8.533s8.533-3.82,8.533-8.533h17.067c0,4.713,3.82,8.533,8.533,8.533
				s8.533-3.82,8.533-8.533H281.6c0,4.713,3.82,8.533,8.533,8.533s8.533-3.82,8.533-8.533h17.067c0,4.713,3.82,8.533,8.533,8.533
				s8.533-3.82,8.533-8.533h17.067c0,4.713,3.82,8.533,8.533,8.533s8.533-3.82,8.533-8.533H384V460.8
				c0,4.713,3.821,8.533,8.533,8.533c4.713,0,8.533-3.82,8.533-8.533v-25.6C401.067,430.487,397.246,426.667,392.533,426.667z"/>
			<path d="M511.967,230.238c-0.057-0.565-0.169-1.123-0.336-1.665c-0.08-0.56-0.215-1.112-0.404-1.645
				c-0.023-0.052-0.015-0.108-0.039-0.16l-59.042-125.471c-7.075-14.922-22.094-24.452-38.608-24.496h-50.571L324.433,19
				c-7.902-11.882-21.23-19.016-35.5-19h-65.867c-14.27-0.016-27.598,7.118-35.5,19l-38.533,57.8H98.462
				c-16.515,0.044-31.535,9.576-38.608,24.5L0.812,226.767c-0.024,0.052-0.016,0.108-0.039,0.16
				c-0.189,0.534-0.324,1.085-0.404,1.645c-0.167,0.543-0.28,1.101-0.336,1.666C0.032,230.295,0,230.343,0,230.4v179.2
				c0.022,18.842,15.291,34.112,34.133,34.133h8.533v59.733c0,4.713,3.82,8.533,8.533,8.533h349.867
				c2.262-0.013,4.428-0.912,6.036-2.503l59.728-59.728c1.591-1.608,2.489-3.774,2.503-6.036h8.533
				c18.842-0.022,34.112-15.291,34.133-34.133V230.4C512,230.343,511.968,230.295,511.967,230.238z M180.922,59.733h32.411
				c4.713,0,8.533-3.82,8.533-8.533s-3.821-8.533-8.533-8.533H192.3l9.467-14.2c4.741-7.129,12.738-11.409,21.3-11.4h65.867
				c8.562-0.009,16.559,4.271,21.3,11.4l3.778,5.667h-23.878c-4.713,0-8.533,3.82-8.533,8.533s3.82,8.533,8.533,8.533h35.256
				l17.067,25.6H169.544L180.922,59.733z M75.296,108.571c4.243-8.957,13.256-14.677,23.167-14.704h315.075
				c9.91,0.027,18.922,5.745,23.167,14.7l53.316,113.3H21.98L75.296,108.571z M452.267,440.2l-54.733,54.733h-30.6V486.4
				c0-4.713-3.82-8.533-8.533-8.533s-8.533,3.82-8.533,8.533v8.533h-25.6V486.4c0-4.713-3.82-8.533-8.533-8.533
				s-8.533,3.82-8.533,8.533v8.533h-25.6V486.4c0-4.713-3.821-8.533-8.533-8.533c-4.713,0-8.533,3.82-8.533,8.533v8.533h-25.6V486.4
				c0-4.713-3.82-8.533-8.533-8.533s-8.533,3.82-8.533,8.533v8.533h-25.6V486.4c0-4.713-3.82-8.533-8.533-8.533
				s-8.533,3.82-8.533,8.533v8.533h-25.6V486.4c0-4.713-3.821-8.533-8.533-8.533s-8.533,3.82-8.533,8.533v8.533h-76.8v-102.4h34.133
				v8.533c0,4.713,3.82,8.533,8.533,8.533s8.533-3.82,8.533-8.533v-8.533h25.6v8.533c0,4.713,3.82,8.533,8.533,8.533
				s8.533-3.82,8.533-8.533v-8.533h25.6v8.533c0,4.713,3.82,8.533,8.533,8.533s8.533-3.82,8.533-8.533v-8.533h25.6v8.533
				c0,4.713,3.82,8.533,8.533,8.533s8.533-3.82,8.533-8.533v-8.533h25.6v8.533c0,4.713,3.821,8.533,8.533,8.533
				c4.713,0,8.533-3.82,8.533-8.533v-8.533h25.6v8.533c0,4.713,3.82,8.533,8.533,8.533s8.533-3.82,8.533-8.533v-8.533h25.6v8.533
				c0,4.713,3.82,8.533,8.533,8.533s8.533-3.82,8.533-8.533v-8.533h25.6v8.533c0,4.713,3.821,8.533,8.533,8.533
				s8.533-3.82,8.533-8.533v-8.533h42.667V440.2z M63.04,375.467l28.443-85.333h329.033l28.443,85.333H63.04z M494.933,409.6
				c-0.009,9.422-7.645,17.057-17.067,17.067h-8.533V384c-0.215-0.887-0.361-1.79-0.438-2.7l-32.188-96.567
				c-2.32-6.971-8.844-11.673-16.191-11.667H91.483c-7.347-0.006-13.872,4.695-16.192,11.667L43.104,381.3
				c-0.076,0.91-0.223,1.813-0.437,2.7v42.667h-8.533c-9.422-0.009-17.057-7.645-17.067-17.067V238.933h477.867V409.6z"/>
			<path d="M187.733,307.2H153.6c-3.915,0-7.328,2.664-8.279,6.462l-8.533,34.133c-0.636,2.549-0.063,5.25,1.554,7.321
				c1.617,2.071,4.098,3.282,6.725,3.283h42.667c4.713,0,8.533-3.82,8.533-8.533v-34.133
				C196.267,311.021,192.446,307.2,187.733,307.2z M179.2,341.333h-23.204l4.267-17.067H179.2V341.333z"/>
			<path d="M366.679,313.663c-0.951-3.798-4.364-6.462-8.279-6.462h-34.133c-4.713,0-8.533,3.82-8.533,8.533v34.133
				c0,4.713,3.82,8.533,8.533,8.533h42.667c2.628-0.001,5.108-1.212,6.725-3.283c1.617-2.071,2.19-4.771,1.554-7.321
				L366.679,313.663z M332.8,341.333v-17.067h18.938l4.267,17.067H332.8z"/>
			<path d="M110.783,324.704c-2.147-0.717-4.491-0.55-6.515,0.463c-2.024,1.013-3.563,2.789-4.276,4.937l-5.687,17.067
				c-0.972,2.895-0.323,6.088,1.702,8.374s5.116,3.315,8.107,2.7c2.991-0.615,5.425-2.782,6.382-5.682l5.687-17.067
				c0.716-2.147,0.549-4.491-0.463-6.515C114.707,326.957,112.931,325.418,110.783,324.704z"/>
			<path d="M412.008,330.104c-0.958-2.899-3.392-5.066-6.382-5.682c-2.991-0.616-6.083,0.414-8.107,2.7
				c-2.025,2.286-2.674,5.479-1.702,8.374l5.688,17.067c0.958,2.899,3.392,5.066,6.382,5.682c2.991,0.616,6.083-0.414,8.107-2.7
				c2.025-2.286,2.674-5.479,1.702-8.374L412.008,330.104z"/>
		</g>
	</g>
</g>
<g>
</g>
<g>
</g>
<g>
</g>
<g>
</g>
<g>
</g>
<g>
</g>
<g>
</g>
<g>
</g>
<g>
</g>
<g>
</g>
<g>
</g>
<g>
</g>
<g>
</g>
<g>
</g>
<g>
</g>
</svg>
