<?xml version="1.0" encoding="iso-8859-1"?>
<!-- Generator: Adobe Illustrator 19.0.0, SVG Export Plug-In . SVG Version: 6.00 Build 0)  -->
<svg version="1.1" id="Capa_1" xmlns="http://www.w3.org/2000/svg" xmlns:xlink="http://www.w3.org/1999/xlink" x="0px" y="0px"
	 viewBox="0 0 512 512" style="enable-background:new 0 0 512 512;" xml:space="preserve">
<g>
	<g>
		<g>
			<path d="M148.6,447.975c2.206,12.448,13.084,21.479,25.725,21.358h163.35c12.64,0.121,23.517-8.908,25.725-21.354l11.704-68.267
				c1.251-7.348-0.808-14.874-5.625-20.563c-5.001-5.912-12.361-9.31-20.104-9.283h-186.75c-7.744-0.027-15.103,3.371-20.104,9.283
				c-4.817,5.688-6.876,13.214-5.625,20.563L148.6,447.975z M155.571,370.15c1.761-2.062,4.343-3.239,7.054-3.217h186.75
				c2.711-0.022,5.293,1.155,7.054,3.217c1.588,1.836,2.267,4.288,1.85,6.679l-11.704,68.27c-0.82,4.241-4.582,7.27-8.9,7.167
				h-163.35c-4.32,0.104-8.083-2.928-8.9-7.171l-11.704-68.267C153.303,374.438,153.983,371.986,155.571,370.15z"/>
			<path d="M93.867,426.667c14.138,0,25.6-11.462,25.6-25.6c-0.015-14.132-11.468-25.585-25.6-25.6c-14.138,0-25.6,11.462-25.6,25.6
				C68.267,415.205,79.728,426.667,93.867,426.667z M93.867,392.533c4.713,0,8.533,3.821,8.533,8.533
				c-0.006,4.71-3.823,8.527-8.533,8.533c-4.713,0-8.533-3.82-8.533-8.533S89.154,392.533,93.867,392.533z"/>
			<path d="M418.134,426.667c14.138,0,25.6-11.462,25.6-25.6c0-14.138-11.462-25.6-25.6-25.6c-14.132,0.015-25.585,11.468-25.6,25.6
				C392.534,415.205,403.995,426.667,418.134,426.667z M418.134,392.533c4.71,0.006,8.527,3.823,8.533,8.533
				c0,4.713-3.82,8.533-8.533,8.533s-8.533-3.82-8.533-8.533S413.421,392.533,418.134,392.533z"/>
			<path d="M179.879,395.775c0.188,0.544,0.447,1.062,0.771,1.538c0.316,0.447,0.658,0.874,1.025,1.28
				c0.815,0.771,1.77,1.379,2.813,1.792c1.014,0.479,2.126,0.712,3.246,0.683c2.259-0.034,4.422-0.918,6.059-2.475
				c0.366-0.406,0.707-0.833,1.021-1.279c0.324-0.476,0.583-0.993,0.771-1.538c0.245-0.485,0.418-1.003,0.513-1.537
				c0.094-0.564,0.151-1.133,0.17-1.705c-0.013-1.116-0.245-2.219-0.683-3.246c-0.413-1.043-1.021-1.997-1.792-2.813
				c-2.477-2.379-6.12-3.083-9.304-1.796c-1.054,0.393-2.013,1.005-2.813,1.795c-1.559,1.635-2.443,3.799-2.475,6.059
				c0.018,0.571,0.075,1.141,0.171,1.704C179.462,394.773,179.634,395.291,179.879,395.775z"/>
			<path d="M198.774,432.66c3.331,3.322,8.721,3.322,12.052,0s3.345-8.712,0.032-12.052c-3.427-3.145-8.69-3.145-12.117,0
				C195.429,423.948,195.443,429.338,198.774,432.66z"/>
			<path d="M232.907,432.66c3.331,3.322,8.721,3.322,12.052,0c3.331-3.322,3.345-8.712,0.032-12.052
				c-3.427-3.145-8.69-3.145-12.117,0C229.562,423.948,229.577,429.338,232.907,432.66z"/>
			<path d="M267.041,432.66c3.331,3.322,8.721,3.322,12.052,0s3.345-8.712,0.032-12.052c-3.427-3.145-8.69-3.145-12.117,0
				C263.696,423.948,263.71,429.338,267.041,432.66z"/>
			<path d="M301.174,432.66c3.331,3.322,8.721,3.322,12.052,0c3.331-3.322,3.345-8.712,0.033-12.052
				c-3.427-3.145-8.69-3.145-12.117,0C297.829,423.948,297.843,429.338,301.174,432.66z"/>
			<path d="M214.013,395.775c0.187,0.544,0.447,1.062,0.771,1.538c0.341,0.425,0.683,0.85,1.025,1.279c3.365,3.3,8.752,3.3,12.117,0
				c0.341-0.429,0.683-0.854,1.021-1.279c0.324-0.476,0.583-0.993,0.771-1.538c0.245-0.485,0.418-1.003,0.513-1.537
				c0.094-0.564,0.151-1.133,0.171-1.704c-0.033-2.259-0.917-4.422-2.475-6.059c-2.453-2.425-6.125-3.133-9.304-1.796
				c-1.033,0.434-1.985,1.041-2.813,1.796c-0.773,0.814-1.383,1.769-1.796,2.813c-0.436,1.027-0.667,2.13-0.679,3.246
				c0.018,0.571,0.075,1.141,0.171,1.704C213.596,394.773,213.767,395.291,214.013,395.775z"/>
			<path d="M248.146,395.775c0.187,0.544,0.447,1.062,0.771,1.538c0.316,0.447,0.658,0.874,1.025,1.28c3.365,3.3,8.752,3.3,12.117,0
				c0.366-0.406,0.707-0.833,1.021-1.279c0.324-0.476,0.583-0.993,0.771-1.538c0.245-0.485,0.418-1.003,0.513-1.537
				c0.094-0.564,0.151-1.133,0.171-1.705c-0.033-2.259-0.917-4.422-2.475-6.059c-0.802-0.79-1.762-1.402-2.817-1.796
				c-2.079-0.85-4.408-0.85-6.487,0c-1.054,0.393-2.013,1.005-2.813,1.796c-0.773,0.814-1.383,1.769-1.796,2.813
				c-0.437,1.027-0.667,2.13-0.679,3.246c0.018,0.571,0.075,1.141,0.171,1.704C247.729,394.773,247.9,395.291,248.146,395.775z"/>
			<path d="M290.134,401.067c0.571-0.02,1.14-0.077,1.704-0.171c0.535-0.095,1.053-0.268,1.537-0.512
				c0.545-0.188,1.062-0.447,1.538-0.771c0.447-0.314,0.874-0.655,1.28-1.021c3.3-3.365,3.3-8.752,0-12.117v-0.001
				c-0.405-0.367-0.833-0.709-1.279-1.025c-0.476-0.324-0.993-0.583-1.538-0.771c-0.484-0.245-1.002-0.417-1.537-0.508
				c-3.197-0.669-6.497,0.544-8.498,3.126c-2.001,2.582-2.354,6.079-0.909,9.009C283.877,399.236,286.867,401.084,290.134,401.067z"
				/>
			<path d="M321.021,400.383c1.027,0.438,2.13,0.67,3.246,0.683c2.259-0.034,4.422-0.918,6.059-2.475
				c0.77-0.817,1.378-1.773,1.792-2.817c0.437-1.026,0.669-2.127,0.683-3.242c-0.033-2.259-0.917-4.422-2.475-6.059
				c-2.473-2.387-6.121-3.091-9.305-1.795c-1.044,0.413-1.999,1.023-2.813,1.795c-3.3,3.365-3.3,8.752,0,12.117
				C319.023,399.362,319.978,399.97,321.021,400.383z"/>
			<path d="M494.134,143.65l-7.113-85.329c-0.778-8.825-8.145-15.607-17.004-15.654h-51.883
				c-9.422,0.009-17.057,7.645-17.067,17.067v85.333c0.019,6.07,3.271,11.669,8.533,14.693v45.705l-25.471-46.698
				c-7.476-13.708-21.844-22.237-37.458-22.233h-17.129l-7.633-15.267c-4.79-9.621-13.861-16.398-24.446-18.264L281.484,7.129
				C280.798,3.015,277.238,0,273.067,0h-34.133c-4.171,0-7.731,3.015-8.417,7.129l-15.979,95.873
				c-10.584,1.866-19.656,8.643-24.446,18.264l-7.633,15.267h-17.129c-15.614-0.003-29.983,8.525-37.458,22.233L102.4,205.465
				V159.76c5.262-3.024,8.514-8.624,8.533-14.693V59.733c-0.009-9.422-7.645-17.057-17.067-17.067H41.983
				c-8.857,0.047-16.224,6.827-17.004,15.65l-7.113,85.329c-0.397,4.545,1.058,9.058,4.035,12.515
				c2.977,3.457,7.224,5.566,11.778,5.847l-8.067,153.275c-0.004,0.076,0.036,0.146,0.033,0.222
				c-0.002,0.08-0.046,0.147-0.046,0.228v162.133c0.022,18.842,15.291,34.112,34.133,34.133h392.533
				c18.842-0.022,34.112-15.291,34.133-34.133V315.733c0-0.081-0.044-0.148-0.046-0.228c-0.002-0.076,0.037-0.146,0.033-0.222
				l-8.067-153.275c4.553-0.282,8.799-2.389,11.776-5.846S494.53,148.195,494.134,143.65z M418.134,59.733h17.485l4.267,85.333
				h-21.752V59.733z M461.238,162.133l7.633,145.067h-42.204v-68.267v-76.8H461.238z M246.163,17.067h19.675l14.223,85.333H231.94
				L246.163,17.067z M205.359,128.9c2.874-5.796,8.793-9.454,15.262-9.433h70.758c6.469-0.021,12.388,3.637,15.262,9.433
				l3.817,7.633H201.542L205.359,128.9z M102.4,241.108l40.454-74.167c4.484-8.227,13.106-13.345,22.475-13.342h181.342
				c9.369-0.003,17.991,5.115,22.475,13.342l40.454,74.167V307.2H102.4V241.108z M76.382,59.733h17.485l0.012,85.333H72.115
				L76.382,59.733z M85.334,162.133V307.2H43.129l7.633-145.067H85.334z M34.875,145.067l7.108-85.333h17.315l-4.267,85.333H34.875z
				 M469.334,477.867c-0.009,9.422-7.645,17.057-17.067,17.067H59.734c-9.422-0.009-17.057-7.645-17.067-17.067v-153.6h426.667
				V477.867z M456.97,145.067l-4.267-85.333h17.31l7.113,85.333H456.97z"/>
			<path d="M196.267,187.733h119.467c4.713,0,8.533-3.82,8.533-8.533s-3.82-8.533-8.533-8.533H196.267
				c-4.713,0-8.533,3.82-8.533,8.533S191.554,187.733,196.267,187.733z"/>
			<path d="M170.667,221.867h170.667c4.713,0,8.533-3.821,8.533-8.533c0-4.713-3.82-8.533-8.533-8.533H170.667
				c-4.713,0-8.533,3.821-8.533,8.533C162.133,218.046,165.954,221.867,170.667,221.867z"/>
			<path d="M366.934,238.933H145.067c-4.713,0-8.533,3.82-8.533,8.533s3.82,8.533,8.533,8.533h221.867
				c4.713,0,8.533-3.82,8.533-8.533S371.646,238.933,366.934,238.933z"/>
		</g>
	</g>
</g>
<g>
</g>
<g>
</g>
<g>
</g>
<g>
</g>
<g>
</g>
<g>
</g>
<g>
</g>
<g>
</g>
<g>
</g>
<g>
</g>
<g>
</g>
<g>
</g>
<g>
</g>
<g>
</g>
<g>
</g>
</svg>
