<?xml version="1.0" encoding="iso-8859-1"?>
<!-- Generator: Adobe Illustrator 19.0.0, SVG Export Plug-In . SVG Version: 6.00 Build 0)  -->
<svg version="1.1" id="Capa_1" xmlns="http://www.w3.org/2000/svg" xmlns:xlink="http://www.w3.org/1999/xlink" x="0px" y="0px"
	 viewBox="0 0 512 512" style="enable-background:new 0 0 512 512;" xml:space="preserve">
<g>
	<g>
		<g>
			<path d="M375.467,435.2H136.533c-4.713,0-8.533,3.82-8.533,8.533s3.82,8.533,8.533,8.533h238.933c4.713,0,8.533-3.82,8.533-8.533
				S380.18,435.2,375.467,435.2z"/>
			<path d="M511.967,230.238c-0.201-1.113-0.448-2.218-0.74-3.311c-0.023-0.052-0.015-0.108-0.039-0.16l-59.042-125.471
				c-7.075-14.922-22.094-24.452-38.608-24.496h-50.571L324.433,19c-7.902-11.882-21.23-19.016-35.5-19h-65.867
				c-14.27-0.016-27.598,7.118-35.5,19l-38.533,57.8H98.463c-16.515,0.044-31.535,9.576-38.608,24.5L0.812,226.767
				c-0.024,0.052-0.016,0.108-0.039,0.16c-0.189,0.534-0.324,1.085-0.404,1.645c-0.167,0.543-0.28,1.101-0.336,1.666
				C0.032,230.295,0,230.343,0,230.4v179.2c0.022,18.842,15.291,34.112,34.133,34.133h8.533v8.533
				c0.009,9.422,7.645,17.057,17.067,17.067h19.375c2.948-0.009,5.689,1.511,7.242,4.017l19.104,30.613
				c3.102,5.013,8.584,8.056,14.479,8.037H384c5.368-0.012,10.42-2.538,13.65-6.825l24.321-32.425
				c1.615-2.146,4.143-3.411,6.829-3.417h23.467c9.422-0.009,17.057-7.645,17.067-17.067v-8.533h8.533
				c18.842-0.022,34.112-15.291,34.133-34.133V230.4C512,230.343,511.968,230.295,511.967,230.238z M180.922,59.733h32.411
				c4.713,0,8.533-3.82,8.533-8.533s-3.821-8.533-8.533-8.533H192.3l9.467-14.2c4.741-7.129,12.738-11.409,21.3-11.4h65.867
				c8.562-0.009,16.559,4.271,21.3,11.4l3.778,5.667h-23.878c-4.713,0-8.533,3.82-8.533,8.533s3.82,8.533,8.533,8.533h35.256
				l17.067,25.6H169.544L180.922,59.733z M75.296,108.571c4.243-8.957,13.256-14.677,23.167-14.704h315.075
				c9.91,0.027,18.922,5.745,23.167,14.7l53.316,113.3H21.98L75.296,108.571z M452.267,452.267H428.8
				c-8.052,0.019-15.631,3.808-20.479,10.238L384,494.933h-17.067V486.4c0-4.713-3.82-8.533-8.533-8.533s-8.533,3.82-8.533,8.533
				v8.533h-25.6V486.4c0-4.713-3.82-8.533-8.533-8.533s-8.533,3.82-8.533,8.533v8.533h-25.6V486.4c0-4.713-3.821-8.533-8.533-8.533
				c-4.713,0-8.533,3.82-8.533,8.533v8.533h-25.6V486.4c0-4.713-3.82-8.533-8.533-8.533s-8.533,3.82-8.533,8.533v8.533h-25.6V486.4
				c0-4.713-3.82-8.533-8.533-8.533s-8.533,3.82-8.533,8.533v8.533h-25.6V486.4c0-4.713-3.821-8.533-8.533-8.533
				s-8.533,3.82-8.533,8.533v8.533h-16.6l-19.104-30.617c-4.656-7.516-12.879-12.078-21.721-12.05H59.733v-59.733h34.133v8.533
				c0,4.713,3.82,8.533,8.533,8.533s8.533-3.82,8.533-8.533v-8.533h25.6v8.533c0,4.713,3.82,8.533,8.533,8.533
				s8.533-3.82,8.533-8.533v-8.533h25.6v8.533c0,4.713,3.82,8.533,8.533,8.533s8.533-3.82,8.533-8.533v-8.533h25.6v8.533
				c0,4.713,3.82,8.533,8.533,8.533s8.533-3.82,8.533-8.533v-8.533h25.6v8.533c0,4.713,3.821,8.533,8.533,8.533
				c4.713,0,8.533-3.82,8.533-8.533v-8.533h25.6v8.533c0,4.713,3.82,8.533,8.533,8.533s8.533-3.82,8.533-8.533v-8.533h25.6v8.533
				c0,4.713,3.82,8.533,8.533,8.533s8.533-3.82,8.533-8.533v-8.533h25.6v8.533c0,4.713,3.821,8.533,8.533,8.533
				s8.533-3.82,8.533-8.533v-8.533h42.667V452.267z M63.04,375.467l28.443-85.333h329.033l28.443,85.333H63.04z M494.933,409.6
				c-0.009,9.422-7.645,17.057-17.067,17.067h-8.533V384c-0.215-0.887-0.361-1.79-0.438-2.7l-32.188-96.567
				c-2.32-6.971-8.844-11.673-16.191-11.667H91.483c-7.347-0.006-13.872,4.695-16.192,11.667L43.104,381.3
				c-0.076,0.91-0.223,1.813-0.437,2.7v42.667h-8.533c-9.422-0.009-17.057-7.645-17.067-17.067V238.933h477.867V409.6z"/>
		</g>
	</g>
</g>
<g>
</g>
<g>
</g>
<g>
</g>
<g>
</g>
<g>
</g>
<g>
</g>
<g>
</g>
<g>
</g>
<g>
</g>
<g>
</g>
<g>
</g>
<g>
</g>
<g>
</g>
<g>
</g>
<g>
</g>
</svg>
